<svg width="1280" height="832" viewBox="0 0 1280 832" fill="none" xmlns="http://www.w3.org/2000/svg">
<g clip-path="url(#clip0_40_421)">
<rect width="1280" height="832" fill="#17124C"/>
<path d="M106.062 78.6664C104.57 79.0226 102.612 79.4404 100.941 79.6336C99.2665 79.4588 97.3033 79.0626 95.8084 78.7228C94.5038 78.427 94.2464 78.8985 95.0373 79.9771C96.2283 81.6006 97.8123 84.3249 98.7519 88.2338C98.9576 89.0876 99.0238 89.8623 98.9759 90.5946C98.665 89.8873 98.1278 89.1352 97.2387 89.1241C95.7086 89.1046 81.4011 110.48 89.8685 128.696C89.9121 128.796 89.9537 128.898 89.9992 128.996C90.1884 129.403 90.3946 129.79 90.6087 130.17C90.637 130.222 90.6623 130.275 90.6915 130.328L90.6935 130.318C93.0218 134.356 96.6938 136.898 100.376 138.39C100.748 138.541 101.092 138.479 101.139 138.264L101.225 137.876C101.225 137.876 101.305 138.043 101.315 138.263C101.355 139.115 102.529 137.926 102.882 137.734C104.893 136.639 108.422 134.122 110.898 129.77L110.899 129.777C121.917 112.355 108.647 96.7354 105.521 91.0405C104.288 88.7933 103.242 90.0141 102.679 91.0862C102.509 90.1471 102.506 89.1981 102.732 88.2118C103.648 84.2097 105.414 81.434 106.735 79.8107C107.578 78.772 107.363 78.3562 106.062 78.6664Z" fill="#32256D"/>
<path d="M168.871 109.543C167.628 110.442 165.978 111.576 164.507 112.393C162.893 112.871 160.927 113.255 159.416 113.512C158.097 113.737 158.039 114.271 159.182 114.966C160.903 116.011 163.408 117.924 165.769 121.177C166.286 121.888 166.643 122.578 166.878 123.273C166.321 122.739 165.537 122.249 164.711 122.578C163.289 123.145 158.232 148.364 173.016 161.965C173.095 162.04 173.172 162.118 173.252 162.191C173.582 162.495 173.921 162.775 174.263 163.044C174.309 163.081 174.353 163.12 174.4 163.158L174.398 163.148C178.093 165.991 182.457 166.937 186.43 166.909C186.831 166.906 187.125 166.718 187.088 166.502L187.018 166.11C187.018 166.11 187.156 166.234 187.25 166.433C187.612 167.205 188.242 165.658 188.495 165.346C189.935 163.565 192.235 159.892 192.861 154.924L192.864 154.929C196.392 134.62 178.162 125.254 173.098 121.185C171.099 119.58 170.599 121.107 170.488 122.313C169.973 121.51 169.607 120.634 169.439 119.637C168.757 115.588 169.328 112.348 169.929 110.344C170.312 109.061 169.954 108.759 168.871 109.543Z" fill="#32256D"/>
<path d="M111.25 202.803C110.23 204.299 108.851 206.218 107.545 207.714C105.944 208.891 103.915 210.104 102.339 210.994C100.965 211.772 101.114 212.388 102.662 212.702C104.991 213.174 108.538 214.296 112.462 216.964C113.32 217.546 113.993 218.17 114.533 218.848C113.7 218.477 112.633 218.246 111.848 218.943C110.496 220.141 114.974 250.17 136.834 259.356C136.952 259.409 137.069 259.465 137.186 259.514C137.675 259.719 138.163 259.894 138.651 260.056C138.717 260.079 138.781 260.105 138.849 260.128L138.843 260.117C144.083 261.795 149.308 261.099 153.709 259.478C154.153 259.315 154.404 258.988 154.276 258.763L154.042 258.355C154.042 258.355 154.245 258.438 154.429 258.622C155.14 259.334 155.22 257.364 155.376 256.916C156.263 254.363 157.347 249.362 156.054 243.595L156.059 243.6C151.848 219.635 127.855 216.531 120.603 214.039C117.742 213.056 117.797 214.953 118.157 216.337C117.263 215.651 116.507 214.825 115.921 213.784C113.543 209.561 112.881 205.735 112.746 203.268C112.657 201.691 112.139 201.499 111.25 202.803Z" fill="#32256D"/>
<path d="M245.568 203.462C243.94 204.256 241.792 205.24 239.915 205.892C237.942 206.121 235.578 206.169 233.769 206.162C232.19 206.156 232.014 206.765 233.202 207.805C234.992 209.369 237.516 212.101 239.603 216.363C240.059 217.294 240.335 218.169 240.467 219.025C239.928 218.29 239.116 217.562 238.088 217.777C236.321 218.148 225.328 246.45 239.763 265.262C239.838 265.366 239.912 265.472 239.99 265.573C240.313 265.993 240.65 266.387 240.994 266.77C241.04 266.822 241.083 266.877 241.13 266.93L241.13 266.918C244.849 270.972 249.733 272.958 254.358 273.73C254.826 273.809 255.206 273.649 255.206 273.39L255.205 272.92C255.205 272.92 255.34 273.093 255.408 273.344C255.673 274.315 256.719 272.643 257.076 272.331C259.112 270.553 262.532 266.747 264.266 261.097L264.269 261.104C272.488 238.202 253.187 223.616 248.123 217.858C246.125 215.585 245.233 217.261 244.86 218.641C244.424 217.602 244.176 216.51 244.183 215.315C244.21 210.469 245.531 206.818 246.636 204.608C247.341 203.195 246.986 202.771 245.568 203.462Z" fill="#32256D"/>
<path d="M609.612 661.162C608.796 662.461 607.689 664.129 606.63 665.437C605.312 666.484 603.632 667.574 602.326 668.378C601.187 669.079 601.333 669.596 602.653 669.813C604.64 670.14 607.678 670.977 611.084 673.112C611.829 673.579 612.418 674.086 612.896 674.642C612.179 674.355 611.269 674.193 610.626 674.807C609.52 675.864 614.255 701.146 633.051 708.235C633.152 708.276 633.253 708.319 633.354 708.357C633.774 708.516 634.193 708.648 634.612 708.77C634.668 708.787 634.723 708.807 634.781 708.824L634.775 708.816C639.264 710.072 643.666 709.318 647.341 707.807C647.712 707.655 647.914 707.37 647.798 707.184L647.588 706.846C647.588 706.846 647.762 706.91 647.923 707.06C648.548 707.64 648.554 705.97 648.672 705.585C649.342 703.396 650.102 699.129 648.826 694.287L648.831 694.291C644.512 674.135 624.102 672.262 617.884 670.381C615.431 669.638 615.538 671.243 615.886 672.403C615.108 671.85 614.441 671.174 613.912 670.312C611.766 666.812 611.085 663.593 610.893 661.509C610.769 660.177 610.324 660.031 609.612 661.162Z" fill="#32256D"/>
<path d="M676.088 639.271C675.829 640.783 675.444 642.748 674.965 644.361C674.146 645.832 673.011 647.481 672.111 648.723C671.326 649.806 671.659 650.228 672.961 649.924C674.922 649.467 678.05 649.081 682.013 649.753C682.879 649.899 683.618 650.143 684.272 650.474C683.5 650.482 682.597 650.681 682.238 651.494C681.618 652.893 695.653 674.449 715.731 673.82C715.84 673.819 715.95 673.821 716.058 673.818C716.506 673.803 716.944 673.766 717.377 673.719C717.436 673.713 717.495 673.711 717.555 673.704L717.546 673.699C722.175 673.144 725.955 670.766 728.774 667.966C729.058 667.684 729.137 667.343 728.958 667.215L728.635 666.984C728.635 666.984 728.82 666.976 729.027 667.053C729.825 667.351 729.193 665.805 729.155 665.405C728.938 663.125 728.011 658.891 724.982 654.904L724.988 654.906C713.296 637.928 693.719 643.994 687.254 644.631C684.703 644.882 685.415 646.324 686.179 647.263C685.249 647.049 684.375 646.679 683.557 646.084C680.237 643.67 678.378 640.955 677.404 639.103C676.78 637.919 676.314 637.954 676.088 639.271Z" fill="#32256D"/>
<path d="M700.181 746.215C700.499 747.998 700.858 750.333 700.971 752.317C700.651 754.278 700.05 756.564 699.548 758.302C699.11 759.82 699.648 760.155 700.973 759.297C702.968 758.004 706.286 756.324 710.957 755.483C711.977 755.299 712.894 755.274 713.754 755.38C712.899 755.699 711.976 756.28 711.902 757.327C711.775 759.129 735.987 777.449 758.032 768.714C758.152 768.67 758.275 768.628 758.393 768.581C758.886 768.386 759.357 768.169 759.819 767.943C759.882 767.913 759.946 767.887 760.01 767.856L759.999 767.853C764.917 765.385 768.163 761.231 770.172 756.994C770.375 756.566 770.326 756.157 770.076 756.086L769.625 755.958C769.625 755.958 769.827 755.875 770.087 755.878C771.094 755.89 769.772 754.426 769.57 753.997C768.417 751.552 765.692 747.221 760.733 744.006L760.741 744.006C740.963 729.832 721.651 744.403 714.726 747.698C711.994 748.998 713.361 750.314 714.586 751.051C713.468 751.186 712.349 751.125 711.202 750.792C706.549 749.439 703.398 747.169 701.576 745.501C700.409 744.436 699.905 744.662 700.181 746.215Z" fill="#32256D"/>
<path d="M788.454 667.08C787.846 668.786 787 670.992 786.116 672.771C784.866 674.316 783.211 676.004 781.913 677.265C780.781 678.366 781.082 678.924 782.658 678.835C785.031 678.7 788.746 678.885 793.219 680.47C794.197 680.816 795.006 681.248 795.7 681.767C794.8 681.62 793.71 681.668 793.127 682.54C792.123 684.042 804.074 711.953 827.55 715.292C827.677 715.313 827.804 715.337 827.93 715.355C828.455 715.429 828.971 715.475 829.485 715.507C829.554 715.513 829.623 715.522 829.694 715.527L829.685 715.518C835.18 715.812 840.058 713.813 843.903 711.128C844.292 710.857 844.451 710.477 844.27 710.292L843.941 709.957C843.941 709.957 844.158 709.986 844.382 710.117C845.251 710.626 844.829 708.699 844.866 708.227C845.076 705.532 844.855 700.42 842.141 695.17L842.148 695.173C831.994 673.061 807.999 676.146 800.352 675.576C797.335 675.351 797.87 677.172 798.569 678.419C797.53 677.982 796.589 677.375 795.758 676.517C792.386 673.036 790.775 669.503 790.019 667.151C789.533 665.648 788.983 665.594 788.454 667.08Z" fill="#32256D"/>
<path d="M848.255 762.934C847.647 764.64 846.801 766.846 845.917 768.625C844.667 770.169 843.012 771.857 841.714 773.118C840.582 774.219 840.883 774.777 842.459 774.688C844.832 774.554 848.548 774.739 853.021 776.324C853.998 776.669 854.807 777.102 855.501 777.621C854.601 777.473 853.511 777.521 852.928 778.394C851.925 779.896 863.875 807.806 887.351 811.145C887.478 811.166 887.605 811.191 887.731 811.208C888.256 811.283 888.772 811.328 889.286 811.361C889.356 811.366 889.424 811.375 889.495 811.38L889.487 811.372C894.981 811.665 899.859 809.666 903.704 806.982C904.093 806.711 904.252 806.331 904.071 806.146L903.742 805.811C903.742 805.811 903.959 805.839 904.183 805.971C905.052 806.48 904.63 804.553 904.667 804.08C904.877 801.385 904.656 796.274 901.943 791.024L901.949 791.027C891.795 768.914 867.8 772 860.153 771.429C857.136 771.204 857.671 773.025 858.37 774.272C857.331 773.836 856.39 773.228 855.559 772.371C852.188 768.889 850.576 765.356 849.82 763.004C849.334 761.502 848.784 761.447 848.255 762.934Z" fill="#32256D"/>
</g>
<defs>
<clipPath id="clip0_40_421">
<rect width="1280" height="832" fill="white"/>
</clipPath>
</defs>
</svg>
