<svg width="1280" height="832" viewBox="0 0 1280 832" fill="none" xmlns="http://www.w3.org/2000/svg">
<g clip-path="url(#clip0_40_421)">
<rect width="1280" height="832" fill="#17124C"/>
<path d="M114.751 6.09377C113.883 7.35805 112.71 8.98007 111.598 10.2439C110.238 11.2359 108.516 12.2575 107.178 13.007C106.012 13.6617 106.137 14.1841 107.447 14.4547C109.418 14.8617 112.42 15.8223 115.737 18.094C116.462 18.59 117.03 19.1206 117.485 19.6962C116.78 19.3796 115.878 19.1813 115.21 19.7689C114.061 20.7797 117.766 46.2332 136.258 54.0803C136.357 54.1251 136.456 54.1728 136.555 54.2149C136.969 54.3901 137.382 54.5399 137.795 54.6783C137.851 54.6979 137.905 54.7201 137.962 54.7397L137.957 54.731C142.391 56.1681 146.82 55.5941 150.553 54.2337C150.93 54.0966 151.144 53.8204 151.035 53.6293L150.839 53.2834C150.839 53.2834 151.01 53.3542 151.165 53.5106C151.766 54.1163 151.84 52.447 151.973 52.068C152.732 49.9076 153.665 45.6747 152.587 40.7854L152.591 40.7892C149.095 20.4742 128.778 17.7735 122.642 15.6409C120.221 14.7995 120.262 16.4067 120.563 17.5798C119.808 16.9962 119.17 16.2939 118.676 15.4107C116.674 11.8263 116.125 8.58277 116.017 6.49259C115.947 5.15654 115.509 4.99218 114.751 6.09377Z" fill="#32256D"/>
<path d="M106.062 78.6664C104.57 79.0226 102.612 79.4404 100.941 79.6336C99.2665 79.4588 97.3033 79.0626 95.8084 78.7228C94.5038 78.427 94.2464 78.8985 95.0373 79.9771C96.2283 81.6006 97.8123 84.3249 98.7519 88.2338C98.9576 89.0876 99.0238 89.8623 98.9759 90.5946C98.665 89.8873 98.1278 89.1352 97.2387 89.1241C95.7086 89.1046 81.4011 110.48 89.8685 128.696C89.9121 128.796 89.9537 128.898 89.9992 128.996C90.1884 129.403 90.3946 129.79 90.6087 130.17C90.637 130.222 90.6623 130.275 90.6915 130.328L90.6935 130.318C93.0218 134.356 96.6938 136.898 100.376 138.39C100.748 138.541 101.092 138.479 101.139 138.264L101.225 137.876C101.225 137.876 101.305 138.043 101.315 138.263C101.355 139.115 102.529 137.926 102.882 137.734C104.893 136.639 108.422 134.122 110.898 129.77L110.899 129.777C121.917 112.355 108.647 96.7354 105.521 91.0405C104.288 88.7933 103.242 90.0141 102.679 91.0862C102.509 90.1471 102.506 89.1981 102.732 88.2118C103.648 84.2097 105.414 81.434 106.735 79.8107C107.578 78.772 107.363 78.3562 106.062 78.6664Z" fill="#32256D"/>
<path d="M168.871 109.543C167.628 110.442 165.978 111.576 164.507 112.393C162.893 112.871 160.927 113.255 159.416 113.512C158.097 113.737 158.039 114.271 159.182 114.966C160.903 116.011 163.408 117.924 165.769 121.177C166.286 121.888 166.643 122.578 166.878 123.273C166.321 122.739 165.537 122.249 164.711 122.578C163.289 123.145 158.232 148.364 173.016 161.965C173.095 162.04 173.172 162.118 173.252 162.191C173.582 162.495 173.921 162.775 174.263 163.044C174.309 163.081 174.353 163.12 174.4 163.158L174.398 163.148C178.093 165.991 182.457 166.937 186.43 166.909C186.831 166.906 187.125 166.718 187.088 166.502L187.018 166.11C187.018 166.11 187.156 166.234 187.25 166.433C187.612 167.205 188.242 165.658 188.495 165.346C189.935 163.565 192.235 159.892 192.861 154.924L192.864 154.929C196.392 134.62 178.162 125.254 173.098 121.185C171.099 119.58 170.599 121.107 170.488 122.313C169.973 121.51 169.607 120.634 169.439 119.637C168.757 115.588 169.328 112.348 169.929 110.344C170.312 109.061 169.954 108.759 168.871 109.543Z" fill="#32256D"/>
<path d="M111.25 202.803C110.23 204.299 108.851 206.218 107.545 207.714C105.944 208.891 103.915 210.104 102.339 210.994C100.965 211.772 101.114 212.388 102.662 212.702C104.991 213.174 108.538 214.296 112.462 216.964C113.32 217.546 113.993 218.17 114.533 218.848C113.7 218.477 112.633 218.246 111.848 218.943C110.496 220.141 114.974 250.17 136.834 259.356C136.952 259.409 137.069 259.465 137.186 259.514C137.675 259.719 138.163 259.894 138.651 260.056C138.717 260.079 138.781 260.105 138.849 260.128L138.843 260.117C144.083 261.795 149.308 261.099 153.709 259.478C154.153 259.315 154.404 258.988 154.276 258.763L154.042 258.355C154.042 258.355 154.245 258.438 154.429 258.622C155.14 259.334 155.22 257.364 155.376 256.916C156.263 254.363 157.347 249.362 156.054 243.595L156.059 243.6C151.848 219.635 127.855 216.531 120.603 214.039C117.742 213.056 117.797 214.953 118.157 216.337C117.263 215.651 116.507 214.825 115.921 213.784C113.543 209.561 112.881 205.735 112.746 203.268C112.657 201.691 112.139 201.499 111.25 202.803Z" fill="#32256D"/>
<path d="M245.568 203.462C243.94 204.256 241.792 205.24 239.915 205.892C237.942 206.121 235.578 206.169 233.769 206.162C232.19 206.156 232.014 206.765 233.202 207.805C234.992 209.369 237.516 212.101 239.603 216.363C240.059 217.294 240.335 218.169 240.467 219.025C239.928 218.29 239.116 217.562 238.088 217.777C236.321 218.148 225.328 246.45 239.763 265.262C239.838 265.366 239.912 265.472 239.99 265.573C240.313 265.993 240.65 266.387 240.994 266.77C241.04 266.822 241.083 266.877 241.13 266.93L241.13 266.918C244.849 270.972 249.733 272.958 254.358 273.73C254.826 273.809 255.206 273.649 255.206 273.39L255.205 272.92C255.205 272.92 255.34 273.093 255.408 273.344C255.673 274.315 256.719 272.643 257.076 272.331C259.112 270.553 262.532 266.747 264.266 261.097L264.269 261.104C272.488 238.202 253.187 223.616 248.123 217.858C246.125 215.585 245.233 217.261 244.86 218.641C244.424 217.602 244.176 216.51 244.183 215.315C244.21 210.469 245.531 206.818 246.636 204.608C247.341 203.195 246.986 202.771 245.568 203.462Z" fill="#32256D"/>
</g>
<defs>
<clipPath id="clip0_40_421">
<rect width="1280" height="832" fill="white"/>
</clipPath>
</defs>
</svg>
