<svg width="292" height="313" viewBox="0 0 292 313" fill="none" xmlns="http://www.w3.org/2000/svg">
<path d="M47.6113 222.981C47.6113 222.981 26.2323 257.192 42.7889 293.351L69.8127 298.278C69.8127 298.278 62.2493 259.166 63.316 256.365C64.3827 253.565 53.5558 224.945 53.1572 222.981C52.7586 221.017 47.6113 222.981 47.6113 222.981Z" fill="white"/>
<path d="M69.8128 301.21C69.638 301.21 69.4622 301.194 69.287 301.162L42.2632 296.234C41.3212 296.062 40.5225 295.441 40.124 294.571C31.2174 275.12 33.046 256.277 36.1482 243.895C39.4974 230.527 44.8973 221.793 45.1257 221.428C45.4639 220.887 45.9699 220.471 46.5665 220.243C48.4164 219.537 51.8531 218.537 54.0848 219.765C55.1084 220.328 55.7991 221.264 56.0294 222.399C56.1541 222.896 57.1614 225.764 58.1358 228.538C65.5384 249.61 66.8147 254.773 66.1462 257.133C65.9045 260.109 69.2626 279.995 72.6904 297.722C72.8742 298.672 72.5771 299.652 71.8963 300.34C71.3409 300.901 70.5884 301.21 69.8128 301.21ZM44.8385 290.745L66.1275 294.627C60.0299 262.611 60.1342 257.121 60.459 255.701C60.3918 252.646 54.7475 236.579 52.6052 230.481C51.6531 227.77 51.087 226.15 50.7482 225.13C50.3982 225.197 49.9934 225.295 49.5887 225.412C46.5718 230.806 31.6553 260.12 44.8385 290.745Z" fill="#030075"/>
<path d="M63.316 303.272C63.316 303.272 33.611 307.325 32.2366 302.156C29.041 290.137 49.1286 279.072 61.0477 291.522" fill="white"/>
<path d="M63.7122 306.176C56.5892 307.42 35.6075 310.381 30.4265 305.098C29.9461 304.603 29.446 303.879 29.2093 302.978L29.0013 301.859C28.3443 298.22 29.6647 294.27 31.7491 291.528C34.941 287.27 40.3269 284.777 45.5153 285.584C45.9213 285.654 46.1936 286.04 46.1237 286.446C46.0827 286.682 45.936 286.872 45.7389 286.978C43.6948 288.153 41.9046 289.288 40.3293 290.592C37.2277 293.111 34.1752 296.718 35.147 300.77L35.2675 301.344C35.1841 301.001 35.0135 300.769 34.9326 300.683C36.8846 301.332 40.2302 301.473 42.7098 301.475C49.4136 301.441 56.2165 300.854 62.9197 300.368C66.6254 300.129 67.3428 305.406 63.7122 306.176Z" fill="#030075"/>
<path d="M177.341 280.669C207.588 312.405 266.324 305.933 283.816 271.161C287.322 264.197 289.174 256.096 288.81 246.94C286.43 191.287 236.523 174.616 221.212 216.704C214.857 235.439 229.23 239.601 236.335 231.031C250.556 215.016 262.878 230.14 262.338 252.591C262.127 256.612 261.447 260.211 260.345 263.435C250.779 291.807 209.91 290.095 184.352 272.005L177.341 280.669Z" fill="white"/>
<path fill-rule="evenodd" clip-rule="evenodd" d="M177.341 280.669C200.742 305.23 241.212 306.907 266.418 290.294C266.43 290.294 266.442 290.282 266.453 290.271C273.816 285.429 279.865 279.016 283.816 271.161C272.128 274.596 264.542 268.711 260.345 263.435C253.334 284.233 229.488 288.864 207.202 282.721C199.089 280.493 191.175 276.835 184.352 272.005L177.341 280.669Z" fill="#FFAC42"/>
<path fill-rule="evenodd" clip-rule="evenodd" d="M177.341 280.669C200.742 305.23 241.212 306.907 266.418 290.294C230.239 307.082 207.389 283.154 207.389 283.154L207.202 282.72C199.089 280.493 191.175 276.835 184.352 272.005L177.341 280.669Z" fill="#E57C35"/>
<path d="M227.933 304.143C223.544 304.143 219.136 303.784 214.784 303.057C199.108 300.44 185.429 293.398 175.225 282.693C174.108 281.521 174.153 279.666 175.324 278.549C176.496 277.433 178.352 277.476 179.468 278.649C200.139 300.334 233.302 302.221 255.376 292.875C275.58 284.321 286.701 267.621 285.888 247.056C284.532 215.465 267.899 198.603 253.018 196.308C240.418 194.362 229.565 202.354 223.979 217.681C221.207 225.878 222.938 230.32 225.484 231.742C228.04 233.17 231.657 232.084 234.082 229.159C234.103 229.133 234.125 229.107 234.147 229.082C242.139 220.081 248.97 220.956 252.33 222.28C260.555 225.517 265.633 237.441 265.269 252.656C265.268 252.684 265.267 252.712 265.265 252.741C264.29 271.146 254.234 279.779 245.97 283.78C228.746 292.119 202.119 288.17 182.655 274.391C181.334 273.456 181.021 271.627 181.956 270.306C182.891 268.984 184.721 268.67 186.042 269.607C203.868 282.227 227.997 285.968 243.415 278.504C253.217 273.759 258.747 264.758 259.41 252.473C259.691 240.351 255.813 229.95 250.183 227.734C245.913 226.053 241.511 229.627 238.561 232.939C234.332 238.01 227.637 239.658 222.626 236.859C220.389 235.61 213.478 230.398 218.438 215.768C218.445 215.748 218.452 215.728 218.459 215.707C224.973 197.8 238.557 188.145 253.912 190.515C271.083 193.162 290.247 211.91 291.745 246.814C292.221 258.856 289.146 269.629 282.605 278.845C276.718 287.139 268.093 293.856 257.661 298.272C248.503 302.15 238.27 304.143 227.933 304.143Z" fill="#030075"/>
<path d="M51.991 167.3L77.9707 302.252C114.42 304.527 147.305 304.808 176.861 303.225C187.177 282.31 192.113 262.884 191.738 246.904C191.398 231.804 186.333 219.776 176.591 212.495C170.67 197.36 159.673 173.209 153.495 159.821C150.752 153.9 148.958 150.078 148.958 150.078L52.8349 147.78L51.991 167.3Z" fill="white"/>
<path d="M180.439 288.711C180.439 288.711 185.889 270.181 187.022 262.289C187.022 262.289 183.316 272.753 171.588 275.5C159.859 278.247 155.804 257.144 155.804 257.144C155.804 257.144 142.375 291.418 143.509 293.64C144.643 295.861 146.779 298.739 146.91 298.216C147.04 297.693 160.818 286.138 168.623 287.316C176.427 288.493 180.316 291.681 180.316 291.681L180.439 288.711Z" fill="#DBDBDB"/>
<path d="M111.865 301.212C111.865 301.212 109.688 280.177 108.684 270.759C107.679 261.342 118.196 197.047 102.616 194.863C87.0361 192.679 93.4181 229.947 94.0222 256.999C94.6261 284.05 93.0121 296.343 91.4062 299.96C89.8001 303.577 113.14 303.947 111.865 301.212Z" fill="#DBDBDB"/>
<path d="M153.203 156.891L157.621 168.814C118.433 163.649 81.3565 162.815 47.6111 168.814L54.6069 150.45L148.959 150.081L153.203 156.891Z" fill="#DBDBDB"/>
<path fill-rule="evenodd" clip-rule="evenodd" d="M152.264 159.68C152.264 159.68 152.346 160.102 152.499 160.888V160.9C153.988 168.461 161.819 209.237 161.948 224.325C161.948 224.935 161.948 225.486 161.925 226.001C161.35 240.433 178.396 222.859 191.738 246.905C191.492 236.025 188.795 226.728 183.66 219.671C181.667 216.939 179.311 214.536 176.591 212.496C170.729 197.513 159.885 173.678 153.683 160.22C153.612 160.091 153.554 159.95 153.495 159.821L152.264 159.68Z" fill="#FFAC42"/>
<path fill-rule="evenodd" clip-rule="evenodd" d="M152.499 160.887V160.899C153.987 168.461 161.819 209.236 161.948 224.325C164.07 221.687 166.321 216.739 170.237 215.227C175.817 213.07 183.684 220.843 183.684 220.843L183.66 219.67C181.667 216.939 179.311 214.535 176.591 212.495C170.729 197.513 159.885 173.678 153.683 160.219C153.249 160.407 152.862 160.63 152.499 160.887Z" fill="#E57C35"/>
<path d="M138.057 307.147C118.985 307.147 98.8348 306.489 77.7898 305.173C76.4558 305.089 75.3474 304.114 75.0945 302.801L49.1086 167.85C49.0656 167.625 49.0485 167.397 49.0584 167.169L49.9041 147.65C49.9734 146.054 51.2978 144.822 52.9026 144.847L149.029 147.151C150.139 147.178 151.138 147.829 151.611 148.833C151.8 149.236 170.401 188.82 179.026 210.67C189.207 218.663 194.621 231.624 194.697 248.216C194.773 264.735 189.515 284.204 179.493 304.518C179.024 305.468 178.079 306.091 177.021 306.148C164.623 306.815 151.613 307.147 138.057 307.147ZM80.421 299.462C114.646 301.531 146.437 301.84 174.987 300.385C184.121 281.445 188.905 263.446 188.836 248.243C188.767 233.197 183.927 221.648 174.84 214.846C174.403 214.519 174.066 214.077 173.867 213.568C166.422 194.548 150.724 160.776 147.074 152.968L55.6361 150.776L54.93 167.079L80.421 299.462Z" fill="#030075"/>
<path d="M57.1278 301.197C57.7141 309.756 85.4526 309.814 90.9157 303.577C91.5254 302.874 92.0764 301.913 92.5687 300.728C96.4845 291.314 93.4517 269.068 93.4752 251.095L94.6087 244.654L61.0084 166.937L54.8534 152.716L53.8803 150.454C52.5087 155.518 51.2776 160.372 50.1756 165.015C49.8708 166.257 49.5894 167.488 49.308 168.708C36.4002 225.298 43.5869 252.204 62.7081 292.147C62.7084 292.147 56.5534 292.639 57.1278 301.197Z" fill="white"/>
<path d="M91.4529 300.728C95.3688 291.314 93.7503 268.001 93.7739 250.029L93.4931 244.653C93.7041 248.475 93.9268 252.602 94.0206 256.998C94.6303 284.045 93.0125 296.343 91.4063 299.954C91.2771 300.236 91.3124 300.494 91.4529 300.728Z" fill="#DBDBDB"/>
<path d="M47.6064 168.813C47.8057 168.778 47.9934 168.743 48.1927 168.707C52.0498 168.039 57.0696 167.453 61.0087 166.937L54.8538 152.716L49.0601 165.014L47.6064 168.813Z" fill="#DBDBDB"/>
<path d="M55.5975 151.216C41.085 205.888 38.1895 239.12 64.2327 290.877C64.2323 290.877 61.8228 295.065 61.8228 295.065L61.8279 295.064C61.9246 295.055 61.8768 295.06 61.8816 295.06C59.3476 295.537 58.7915 298.524 58.9813 300.832C59.2694 303.293 65.6538 304.437 67.8509 304.697C73.3029 305.343 83.3858 305.176 87.5757 301.655C88.2771 300.287 88.5579 298.319 88.8107 296.592C89.3518 292.434 89.5321 288.221 89.6784 283.994C90.065 266.812 90.0199 249.558 90.1251 232.351C90.1642 226.58 90.2168 220.815 90.493 215.043C90.5172 214.583 90.9097 214.229 91.3699 214.253C91.8012 214.276 92.1389 214.623 92.1594 215.044C92.8014 226.502 93.7969 237.986 94.4533 249.49C94.9999 259.742 97.7827 299.045 91.9353 305.606C85.5247 312.307 65.5376 312.283 57.7784 307.942C55.2441 306.643 52.9349 303.958 53.0213 300.847C52.6423 295.544 55.5099 289.895 61.3461 289.222C61.3784 289.208 58.9381 293.407 58.9455 293.409C53.6679 282.373 48.6635 271.08 44.9681 259.222C37.2383 235.549 37.4637 209.846 41.8175 185.583C43.9002 173.472 46.7539 161.532 49.9395 149.684C51.0241 146.038 56.4989 147.348 55.5975 151.216Z" fill="#030075"/>
<path d="M61.2366 289.233C68.7032 289.316 76.1158 291.094 82.8792 294.188C83.517 294.472 83.1809 295.469 82.4976 295.297C75.7623 293.854 68.6817 293.665 61.941 295.053C57.576 295.933 56.7768 289.431 61.2366 289.233Z" fill="#030075"/>
<path d="M108.054 265.874C108.3 270.434 106.589 275.018 107.104 279.356C107.104 279.368 108.974 278.799 108.974 278.799C110.064 287.897 109.848 296.531 111.864 301.209C112.392 302.428 112.943 303.425 113.517 304.14C118.676 310.635 146.39 311.913 147.375 303.39C148.372 294.866 142.24 294.081 142.24 294.081C155.933 266.788 158.876 241.066 159.603 215.227L109.32 246.858L110.233 247.317C109.987 252.558 107.773 260.047 108.054 265.874Z" fill="white"/>
<path d="M111.864 301.209C111.864 301.209 108.98 289.309 107.104 279.379C108.194 288.477 109.847 296.531 111.864 301.209Z" fill="#DBDBDB"/>
<path d="M105.967 265.874C106.589 261.055 108.089 254.091 109.32 246.858L105.885 249.015C105.639 254.256 105.686 260.047 105.967 265.874Z" fill="#DBDBDB"/>
<path d="M157.724 188.378C167.127 223.206 161.287 263.488 144.866 295.39C144.866 295.39 142.62 291.169 142.62 291.169C142.898 291.213 142.952 291.222 143.176 291.272C148.901 292.61 151.081 298.472 150.338 303.714C150.059 306.661 147.666 308.965 145.212 310.081C137.248 313.984 117.483 313.051 111.351 306.142C111.073 305.818 110.765 305.349 110.566 304.969C109.363 302.571 109.048 300.191 108.629 297.749C107.975 293.352 107.674 288.925 107.445 284.523C106.565 267.055 107.455 249.725 108.448 232.331C108.799 226.551 109.235 220.776 109.784 215.005C109.827 214.546 110.234 214.209 110.693 214.253C111.123 214.294 111.445 214.66 111.448 215.083C111.55 232.397 111.844 249.711 112.507 267C112.872 275.591 113.052 284.184 113.915 292.708C114.315 295.881 114.546 299.465 115.819 302.314C120.316 306.539 133.25 307.083 139.186 305.798C140.973 305.421 143.883 304.621 144.41 303.072C144.519 302.27 144.546 301.365 144.462 300.598C144.268 298.778 143.487 297.429 141.814 296.976C141.819 296.976 141.77 296.969 141.868 296.982L141.872 296.983L139.626 292.762C147.17 276.706 152.41 259.6 155.305 242.093C156.732 233.324 157.531 224.43 157.609 215.543C157.676 206.621 156.961 197.701 155.438 188.896C155.327 188.257 155.757 187.647 156.397 187.539C156.993 187.438 157.562 187.81 157.724 188.378Z" fill="#030075"/>
<path d="M141.755 296.966C135.088 295.257 128.007 295.106 121.21 296.225C120.527 296.362 120.224 295.351 120.882 295.099C127.786 292.332 135.275 290.912 142.737 291.187C147.176 291.599 146.084 298.048 141.755 296.966Z" fill="#030075"/>
<path d="M152.265 303.272C152.265 303.272 181.97 307.325 183.345 302.156C186.54 290.137 166.453 279.072 154.533 291.522" fill="white"/>
<path d="M152.661 300.368C158.524 300.871 164.499 301.334 170.314 301.458C173.594 301.441 177.19 301.587 180.263 300.676C180.465 300.606 180.613 300.528 180.633 300.513C180.668 300.5 180.521 300.558 180.315 300.926C180.28 301.01 180.218 301.12 180.189 301.233C180.342 300.726 180.53 299.356 180.368 298.527C180.118 296.483 178.828 294.42 177.022 292.77C172.249 288.388 164.862 287.688 158.911 290.091C157.608 290.598 156.352 291.3 155.008 292.029C154.397 292.394 153.657 291.632 154.024 291.034C157.355 284.963 164.996 282.263 171.628 283.716C180.49 285.341 189.065 293.558 186.455 303.201C184.606 308.729 174.635 308.036 170.163 308.06C163.973 307.865 157.965 307.203 151.869 306.176C148.199 305.437 148.929 300.094 152.661 300.368Z" fill="#030075"/>
<path d="M16.7237 124.717C17.4326 126.537 18.3428 128.34 19.4282 130.117C19.4369 130.134 19.4457 130.152 19.4544 130.161C19.4632 130.169 19.4631 130.169 19.4631 130.169C27.6378 143.429 46.0524 154.921 71.5478 158.675C71.5827 158.684 71.6265 158.684 71.6702 158.693C72.2481 158.78 72.8255 158.859 73.4031 158.929C74.0333 159.008 74.6635 159.087 75.3025 159.165C82.4793 159.656 89.656 159.909 96.8329 159.909C104.01 159.909 111.187 159.656 118.363 159.165C119.002 159.087 119.633 159.008 120.263 158.929C120.84 158.859 121.418 158.78 121.996 158.693C122.039 158.684 122.083 158.684 122.118 158.675C125.75 158.141 129.234 157.45 132.569 156.61C152.655 151.612 167.192 141.538 174.203 130.169C175.306 128.384 176.225 126.555 176.942 124.717C179.927 117.137 179.594 109.269 175.419 102.118C173.721 80.7015 168.645 63.6873 159.98 50.7864V50.7776C159.998 50.0074 160.724 11.9265 153.346 4.36458C145.881 -3.27616 116.902 22.5517 116.902 22.5517L116.718 22.508C110.18 20.9851 103.511 20.2149 96.833 20.2149C90.1552 20.2149 83.4858 20.9851 76.9479 22.508L76.7642 22.5517C76.7642 22.5517 47.7854 -3.27616 40.3198 4.36458C32.9416 11.9265 33.6681 50.0075 33.6856 50.7776V50.7864C25.0209 63.6871 19.9447 80.7015 18.2467 102.118C14.0717 109.269 13.7391 117.137 16.7237 124.717Z" fill="white"/>
<path d="M105.831 129.43C100.1 130.782 94.0818 130.671 87.8416 129.43C87.8414 137.203 105.831 137.203 105.831 129.43Z" fill="#DBDBDB"/>
<path d="M19.6646 121.592C22.0188 136.077 39.3922 146.886 61.0976 156.61C64.4321 157.45 67.9156 158.142 71.5479 158.676C71.5829 158.684 71.6266 158.684 71.6703 158.693C72.2482 158.78 72.8257 158.859 73.4033 158.929C74.0335 159.008 74.6637 159.087 75.3026 159.166C82.4794 159.656 89.6562 159.91 96.833 159.91C104.01 159.91 111.187 159.656 118.364 159.166C119.003 159.087 119.633 159.008 120.263 158.929C120.841 158.859 121.418 158.78 121.996 158.693C122.04 158.684 122.083 158.684 122.118 158.676C125.751 158.142 129.234 157.45 132.569 156.61C154.274 146.886 171.647 136.077 174.002 121.592C157.215 140.121 134.16 149.459 96.833 149.459C60.7281 149.459 36.4513 140.121 19.6646 121.592Z" fill="#DBDBDB"/>
<path fill-rule="evenodd" clip-rule="evenodd" d="M16.7237 124.717C17.4326 126.537 18.3428 128.34 19.4282 130.117C19.4369 130.134 19.4457 130.152 19.4544 130.161C12.1113 111.273 22.5964 99.6503 37.9828 111.273C55.5136 122.021 69.5873 123.281 80.4224 115.711C87.4242 111.79 86.8817 97.3659 90.1112 88.3423C92.3518 82.0669 101.314 82.0669 103.555 88.3423C106.784 97.3659 106.242 111.79 113.243 115.711C124.079 123.281 138.152 122.021 155.683 111.273C171.069 99.6502 181.555 111.273 174.203 130.169C175.306 128.384 176.225 126.555 176.942 124.717C179.927 117.137 179.594 109.269 175.419 102.118C173.721 80.7015 168.645 63.6873 159.98 50.7864V50.7776C159.998 50.0074 160.724 11.9265 153.346 4.36458C145.88 -3.27616 116.902 22.5517 116.902 22.5517L116.718 22.508C110.18 20.9851 103.511 20.2149 96.8329 20.2149C90.1551 20.2149 83.4857 20.9851 76.9478 22.508L76.764 22.5517C76.764 22.5517 47.7853 -3.27616 40.3197 4.36458C32.9415 11.9265 33.668 50.0075 33.6855 50.7776V50.7864C25.0208 63.6871 19.9446 80.7015 18.2466 102.118C14.0717 109.269 13.7391 117.137 16.7237 124.717Z" fill="#FFAC42"/>
<path fill-rule="evenodd" clip-rule="evenodd" d="M102.387 20.4873C102.387 52.3141 91.2859 52.3141 91.2859 20.4873H102.387Z" fill="#E57C35"/>
<path fill-rule="evenodd" clip-rule="evenodd" d="M110.944 22.3535C110.944 22.3535 106.518 43.1853 110.944 40.0605C115.371 36.9357 116.902 22.5519 116.902 22.5519L110.944 22.3535Z" fill="#E57C35"/>
<path fill-rule="evenodd" clip-rule="evenodd" d="M82.7284 22.3535C82.7284 22.3535 87.1551 43.1853 82.7284 40.0605C78.3016 36.9357 76.7708 22.5519 76.7708 22.5519L82.7284 22.3535Z" fill="#E57C35"/>
<g opacity="0.48">
<path d="M33.6768 49.7625C33.7993 38.4721 34.7358 15.2961 40.3198 9.57224C47.7855 1.93149 76.7641 27.7593 76.7641 27.7593L76.9479 27.7156C83.4858 26.1927 90.1551 25.4226 96.8329 25.4226C103.511 25.4226 110.18 26.1928 116.718 27.7156L116.902 27.7593C116.902 27.7593 145.881 1.93149 153.346 9.57224C158.939 15.2961 159.875 38.5071 159.998 49.7887C160.059 43.6709 160.085 11.2789 153.346 4.36458C145.88 -3.27616 116.902 22.5517 116.902 22.5517L116.718 22.508C110.18 20.9851 103.511 20.2149 96.8329 20.2149C90.1551 20.2149 83.4858 20.9851 76.9479 22.508L76.7641 22.5517C76.7641 22.5517 47.7854 -3.27616 40.3198 4.36458C33.5892 11.2614 33.6069 43.5658 33.6768 49.7625Z" fill="white"/>
</g>
<g opacity="0.37">
<path d="M159.98 50.7869C159.989 50.7957 159.989 50.8044 159.998 50.8132V50.0518C159.989 50.4718 159.98 50.7257 159.98 50.7782V50.7869Z" fill="white"/>
</g>
<g opacity="0.37">
<path d="M33.668 50.8129C33.6767 50.8041 33.6767 50.7954 33.6855 50.7866V50.7779C33.6855 50.7167 33.6767 50.4541 33.6767 49.999C33.668 50.279 33.668 50.5504 33.668 50.8129Z" fill="white"/>
</g>
<path d="M90.3264 109.835C90.3264 111.537 93.241 115.217 96.8363 115.217C100.432 115.217 103.346 111.537 103.346 109.835C103.346 108.133 100.432 107.302 96.8363 107.302C93.241 107.302 90.3264 108.133 90.3264 109.835Z" fill="#030075"/>
<path d="M98.2716 112.359L97.4794 117.373C97.3736 118.096 96.2951 118.089 96.1931 117.373L95.4009 112.36C95.1728 110.144 98.4994 110.142 98.2716 112.359Z" fill="#030075"/>
<path d="M97.3804 118.401C101.601 122.99 108.408 125.728 114.061 122.061C114.649 121.656 115.38 122.419 114.955 122.987C109.804 129.644 98.9681 126.309 96.2926 119.088C96.0252 118.429 96.9069 117.878 97.3804 118.401Z" fill="#030075"/>
<path d="M97.5483 119.194C95.8231 124.681 89.0022 128.411 83.3005 126.552C81.3816 125.958 79.631 124.757 78.5802 123.13C78.3213 122.729 78.4364 122.194 78.8373 121.935C79.1237 121.75 79.4746 121.757 79.7502 121.919C82.4894 123.397 85.386 123.695 88.3052 122.936C91.3037 122.151 93.7385 120.408 96.1243 118.295C96.7557 117.669 97.8443 118.363 97.5483 119.194Z" fill="#030075"/>
<path d="M129.114 111.277C135.753 111.277 141.136 105.147 141.136 97.5851C141.136 90.0235 135.753 83.8936 129.114 83.8936C122.475 83.8936 117.092 90.0235 117.092 97.5851C117.092 105.147 122.475 111.277 129.114 111.277Z" fill="#030075"/>
<path d="M123.902 98.5953C125.642 98.5953 127.052 96.8482 127.052 94.6931C127.052 92.5381 125.642 90.791 123.902 90.791C122.162 90.791 120.752 92.5381 120.752 94.6931C120.752 96.8482 122.162 98.5953 123.902 98.5953Z" fill="white"/>
<g opacity="0.37">
<path d="M132.496 106.651C133.673 106.651 134.627 105.659 134.627 104.434C134.627 103.209 133.673 102.217 132.496 102.217C131.319 102.217 130.365 103.209 130.365 104.434C130.365 105.659 131.319 106.651 132.496 106.651Z" fill="white"/>
</g>
<path d="M64.5588 111.277C71.1982 111.277 76.5806 105.147 76.5806 97.5851C76.5806 90.0235 71.1982 83.8936 64.5588 83.8936C57.9194 83.8936 52.5371 90.0235 52.5371 97.5851C52.5371 105.147 57.9194 111.277 64.5588 111.277Z" fill="#030075"/>
<path d="M69.7706 98.5953C71.5104 98.5953 72.9209 96.8482 72.9209 94.6931C72.9209 92.5381 71.5104 90.791 69.7706 90.791C68.0308 90.791 66.6204 92.5381 66.6204 94.6931C66.6204 96.8482 68.0308 98.5953 69.7706 98.5953Z" fill="white"/>
<g opacity="0.37">
<path d="M61.1769 106.651C62.3539 106.651 63.308 105.659 63.308 104.434C63.308 103.209 62.3539 102.217 61.1769 102.217C60 102.217 59.0459 103.209 59.0459 104.434C59.0459 105.659 60 106.651 61.1769 106.651Z" fill="white"/>
</g>
<path d="M123.985 53.9508C116.874 53.4623 116.315 61.6023 123.426 62.0907C127.181 62.4633 130.477 63.0654 133.307 63.9004C133.307 63.9004 132.794 56.1654 123.985 53.9508Z" fill="#030075"/>
<path d="M69.6879 53.9508C76.799 53.4623 77.3581 61.6023 70.247 62.0907C66.4921 62.4633 63.196 63.0654 60.366 63.9004C60.366 63.9004 60.8787 56.1654 69.6879 53.9508Z" fill="#030075"/>
<path d="M134.371 28.6261C140.323 31.5056 145.609 35.0853 150.257 39.3826C151.464 32.6695 149.898 16.9069 146.834 16.513C144.121 16.1716 137.058 25.0814 134.371 28.6261Z" fill="#FFA6CA"/>
<path d="M150.257 41.3359C149.773 41.3359 149.297 41.1558 148.93 40.8166C144.45 36.6736 139.265 33.1637 133.521 30.3844C132.994 30.1294 132.609 29.6513 132.472 29.0823C132.335 28.513 132.461 27.9123 132.815 27.446C142.963 14.0578 145.952 14.4322 147.079 14.5748C147.984 14.6911 148.773 15.2027 149.428 16.0963C152.327 20.0523 153.26 33.7247 152.179 39.7282C152.053 40.4304 151.554 41.0077 150.877 41.2346C150.674 41.3027 150.465 41.3359 150.257 41.3359ZM137.362 27.9475C141.438 30.092 145.23 32.597 148.689 35.4293C148.934 29.0934 147.742 20.5365 146.412 18.5663C145.18 19.1527 142.096 21.9251 137.362 27.9475Z" fill="#030075"/>
<path d="M59.2946 28.6261C53.3432 31.5056 48.0568 35.0853 43.4094 39.3826C42.2016 32.6695 43.7681 16.9069 46.8314 16.513C49.5446 16.1716 56.6076 25.0814 59.2946 28.6261Z" fill="#FFA6CA"/>
<path d="M43.4091 41.3362C43.2015 41.3362 42.992 41.3032 42.7889 41.2351C42.1122 41.0082 41.6131 40.4309 41.4868 39.7287C40.4065 33.725 41.3387 20.0528 44.2382 16.0968C44.893 15.203 45.6818 14.6916 46.5823 14.5758C47.7158 14.4334 50.7023 14.0565 60.8516 27.4463C61.2053 27.9127 61.3309 28.5133 61.1942 29.0827C61.0574 29.6518 60.6725 30.1299 60.1455 30.3848C54.4015 33.1637 49.2167 36.6737 44.7358 40.817C44.3691 41.1561 43.8934 41.3362 43.4091 41.3362ZM47.2543 18.5664C45.9237 20.5369 44.7324 29.0938 44.9774 35.4297C48.4362 32.5973 52.2284 30.092 56.3038 27.9479C51.5703 21.9251 48.486 19.1528 47.2543 18.5664Z" fill="#030075"/>
<path d="M75.2014 159.985C68.3439 160.64 61.0456 159.73 54.0768 157.712C51.3619 156.955 48.3653 155.893 45.7635 154.837C44.2827 154.14 41.8516 153.134 40.4373 152.318C25.8204 144.612 10.7316 130.53 11.9172 112.606C12.2368 108.376 13.609 104.245 15.7161 100.641L15.3256 101.887C16.0727 92.7472 17.4383 83.5983 19.9128 74.6561C22.3834 65.7326 26.0147 56.9934 31.253 49.153L30.7553 50.787L30.7288 47.9734C30.7719 37.4554 31.1026 26.9663 32.8383 16.5441C34.0149 10.7294 35.585 0.930607 42.8609 0.105971C53.2282 -1.04669 70.8922 13.7017 78.7138 20.3644L76.0854 19.7015C82.8896 18.1012 89.8474 17.2857 96.8329 17.285C103.818 17.2857 110.776 18.1013 117.581 19.7015L114.952 20.3645C123.211 13.3281 136.588 2.37442 147.127 0.242608C154.829 -1.23593 157.787 4.2635 159.563 10.7597C161.989 20.1516 162.456 29.8141 162.821 39.4215C162.954 43.0726 162.943 47.1169 162.911 50.787L162.413 49.1531C172.821 64.7837 176.825 83.5233 178.34 101.878C178.347 101.921 177.949 100.633 177.95 100.641C187.834 117.83 177.458 135.334 163.258 146.038C151.435 155.017 135.615 160.231 121.387 160.179C120.432 160.199 119.424 160.134 118.477 160.088C117.424 160.019 117.277 158.547 118.25 158.244C119.446 157.886 120.693 157.491 121.897 157.172C130.912 154.552 139.58 151.878 147.906 147.898C155.928 144.099 163.833 139.055 169.333 131.997C173.526 126.602 176.477 119.916 175.906 113.065C175.653 109.748 174.592 106.52 172.889 103.596C172.657 103.198 172.53 102.774 172.497 102.342C171.774 93.489 170.451 84.6949 168.105 76.221C165.763 67.7592 162.355 59.6172 157.548 52.4208C157.205 51.9239 157.044 51.3485 157.05 50.7867C157.069 47.1808 157.092 43.1899 156.963 39.5926C156.727 32.2323 156.283 24.776 155.054 17.5516C154.47 14.232 153.679 10.5806 152.164 7.71718C151.549 6.85718 151.302 6.00846 150.068 5.92037C141.736 5.622 125.38 19.1339 118.841 24.7492C118.102 25.3975 117.113 25.6057 116.223 25.4029C113.062 24.6602 109.832 24.0915 106.596 23.7145C103.356 23.3365 100.094 23.146 96.8332 23.1457C90.3181 23.1439 83.7797 23.9127 77.443 25.4029C76.4752 25.6299 75.5074 25.3529 74.8146 24.7398C72.0844 22.3449 69.1754 19.9795 66.2527 17.7422C63.3184 15.5015 60.3169 13.3588 57.2385 11.4177C53.4315 9.09382 49.6961 6.87138 45.5337 6.0167C44.1316 5.80224 42.8249 5.68348 42.0495 6.85566C40.042 9.88588 39.3072 13.8978 38.6119 17.5517C37.9893 21.124 37.5942 24.7943 37.2915 28.4773C36.7105 35.8487 36.5251 43.3788 36.6159 50.787C36.6216 51.3937 36.438 51.9547 36.1182 52.421C31.3104 59.6183 27.9021 67.7609 25.5602 76.2237C23.2138 84.6984 21.8916 93.4935 21.1682 102.347C21.1343 102.795 20.9882 103.23 20.7774 103.597C13.9456 115.187 19.3759 127.772 28.3214 136.45C29.493 137.445 30.6198 138.627 31.8703 139.524L34.0037 141.167L36.2539 142.667C38.7934 144.389 41.7975 145.907 44.5324 147.307C45.2811 147.639 47.4647 148.653 48.2506 149.009C56.0088 152.39 64.2027 154.693 72.2561 157.292C73.2953 157.602 74.3791 157.991 75.4038 158.347C76.2414 158.618 76.0702 159.919 75.2014 159.985Z" fill="#030075"/>
<path d="M100.747 130.317C98.5076 131.891 95.1824 131.818 92.9299 130.322C92.6262 130.117 92.546 129.705 92.751 129.401C92.892 129.192 93.1299 129.09 93.3649 129.111C95.1214 129.255 96.781 129.428 98.5267 129.274C98.5353 129.275 100.288 129.115 100.301 129.115C100.964 129.043 101.29 129.946 100.747 130.317Z" fill="#030075"/>
<path d="M165.628 120.835C174.72 117.907 185.253 118.943 193.306 124.171C194.126 124.706 193.431 125.965 192.539 125.553C186.317 122.822 179.584 121.587 172.799 121.785C170.531 121.841 168.217 122.038 166.001 122.365C165.069 122.498 164.732 121.148 165.628 120.835Z" fill="#030075"/>
<path fill-rule="evenodd" clip-rule="evenodd" d="M171.701 102.793C171.701 102.793 170.789 86.5832 167.99 78.7714C165.191 70.9595 162.782 103.965 171.701 102.793Z" fill="#E57C35"/>
<path fill-rule="evenodd" clip-rule="evenodd" d="M21.9722 102.793C21.9722 102.793 22.8835 86.5832 25.6828 78.7714C28.482 70.9595 30.8908 103.965 21.9722 102.793Z" fill="#E57C35"/>
<path d="M166.974 126.532C176.156 127.018 185.295 133.622 186.79 142.999C186.945 143.942 185.594 144.302 185.263 143.405C182.394 135.144 175.019 130.127 166.801 128.103C165.844 127.923 165.995 126.493 166.974 126.532Z" fill="#030075"/>
<path d="M27.6169 122.357C18.7082 121.03 9.41177 121.872 1.13322 125.553C0.246981 125.963 -0.458893 124.705 0.36625 124.171C4.36204 121.533 9.08209 119.971 13.8394 119.467C16.2253 119.211 18.6323 119.162 21.0128 119.39C23.4007 119.61 25.7321 120.033 28.0452 120.836C28.4577 120.979 28.676 121.429 28.5329 121.842C28.4001 122.227 28.0012 122.436 27.6169 122.357Z" fill="#030075"/>
<path d="M26.8722 128.103C18.6528 130.128 11.2784 135.145 8.41016 143.405C8.082 144.3 6.72084 143.941 6.8827 142.999C8.37847 133.622 17.5158 127.019 26.6991 126.532C27.6757 126.5 27.833 127.92 26.8722 128.103Z" fill="#030075"/>
<path d="M234.125 224.325C249.008 211.77 266.883 217.062 268.308 254.092C280.4 218.281 249.938 190.377 234.125 224.325Z" fill="#DBDBDB"/>
<path d="M177.06 301.333C177.727 299.915 177.109 297.969 176.186 296.667C175.943 296.264 175.2 295.741 175.737 295.278C176.228 294.951 176.666 295.569 177.079 295.785C178.934 297.152 180.267 299.387 180.198 301.76C180.08 304.132 176.57 303.661 177.06 301.333Z" fill="#030075"/>
<path d="M164.945 301.333C165.612 299.915 164.994 297.969 164.071 296.667C163.828 296.264 163.085 295.741 163.622 295.278C164.113 294.951 164.551 295.569 164.964 295.785C166.819 297.152 168.152 299.387 168.083 301.76C167.965 304.132 164.455 303.661 164.945 301.333Z" fill="#030075"/>
<path d="M140.607 306.869C141.274 305.452 140.656 303.506 139.733 302.204C139.491 301.801 138.747 301.277 139.284 300.815C139.775 300.488 140.213 301.106 140.626 301.321C142.481 302.689 143.814 304.923 143.745 307.297C143.627 309.668 140.117 309.198 140.607 306.869Z" fill="#030075"/>
<path d="M128.219 306.869C128.885 305.452 128.267 303.506 127.345 302.204C127.102 301.801 126.359 301.277 126.896 300.815C127.386 300.488 127.824 301.106 128.238 301.321C130.093 302.689 131.426 304.923 131.357 307.297C131.239 309.668 127.729 309.198 128.219 306.869Z" fill="#030075"/>
<path d="M33.6888 302.142C33.441 299.993 34.5004 297.815 36.0406 296.397C36.4967 295.959 37.0178 295.603 37.5392 295.261C37.7633 295.11 38.0674 295.169 38.2191 295.392C38.3399 295.571 38.327 295.801 38.2028 295.964C37.2099 297.142 36.4271 298.65 36.5251 300.204C36.5488 300.597 36.6068 300.991 36.773 301.338C36.7804 301.346 36.7926 301.376 36.7878 301.333C37.2706 303.388 34.2746 304.173 33.6888 302.142Z" fill="#030075"/>
<path d="M42.7768 302.411C42.4952 299.919 43.9165 297.489 45.8571 296.054C46.283 295.811 46.8683 295.1 47.3069 295.661C47.4412 295.859 47.4068 296.11 47.2563 296.277C46.0462 297.678 45.1007 299.902 45.8758 301.601C46.3587 303.657 43.3624 304.442 42.7768 302.411Z" fill="#030075"/>
<path d="M59.0256 305.463C58.7439 302.971 60.1654 300.54 62.1059 299.105C62.5318 298.863 63.1171 298.151 63.5557 298.712C63.6902 298.91 63.6556 299.161 63.5051 299.328C62.295 300.729 61.3495 302.953 62.1246 304.653C62.6075 306.708 59.6114 307.493 59.0256 305.463Z" fill="#030075"/>
<path d="M69.3259 306.463C69.0443 303.971 70.4657 301.541 72.4062 300.105C72.8321 299.863 73.4174 299.152 73.856 299.713C73.9903 299.91 73.9558 300.161 73.8054 300.329C72.5953 301.73 71.6497 303.953 72.4248 305.653C72.9079 307.708 69.9116 308.494 69.3259 306.463Z" fill="#030075"/>
</svg>
