<svg width="307" height="366" viewBox="0 0 307 366" fill="none" xmlns="http://www.w3.org/2000/svg">
<g opacity="0.2">
<path d="M130.655 365.609C202.813 365.609 261.309 358.525 261.309 349.786C261.309 341.047 202.813 333.963 130.655 333.963C58.4961 333.963 0 341.047 0 349.786C0 358.525 58.4961 365.609 130.655 365.609Z" fill="#000072"/>
</g>
<path d="M193.912 283.607C193.912 283.607 230.189 282.088 228.71 261.94C226.739 235.083 197.992 220.498 198.942 188.356C200.567 133.392 302.228 130.939 303.767 198.044C304.196 216.775 295.102 222.993 286.784 223.293C273.783 223.763 266.975 213.73 265.294 200.66C262.219 176.761 228.76 177.895 226.654 200.715C224.946 219.233 268.409 248.487 252.484 281.452C241.492 304.204 215.295 308.88 198.903 307.753C195.611 307.527 193.912 283.607 193.912 283.607Z" fill="#FFC76C"/>
<g opacity="0.5">
<path d="M303.662 202.741C299.813 138.921 202.976 141.118 199.05 193.492C198.926 191.834 198.891 190.123 198.944 188.358C200.566 133.391 302.229 130.939 303.769 198.045C303.804 199.709 303.769 201.272 303.662 202.741Z" fill="white"/>
</g>
<g opacity="0.3">
<path d="M194.68 291.74C195.482 298.7 196.903 307.62 198.905 307.755C215.297 308.877 241.489 304.204 252.483 281.449C258.343 269.326 256.162 257.707 251.155 246.933C251.723 252.92 254.029 259.701 249.643 268.724C238.695 291.244 211.093 292.749 194.68 291.74Z" fill="#000072"/>
</g>
<g opacity="0.3">
<path d="M265.296 200.663C266.979 213.731 273.783 223.766 286.787 223.29C292.561 223.084 298.718 220.016 301.793 211.885C298.789 214.257 295.281 215.308 291.893 215.428C278.179 215.926 274.152 206.158 272.704 192.33C268.442 151.66 198.968 175.92 231.457 215.254C232.54 216.565 228.456 209.884 227.08 205.436C226.675 203.795 226.519 202.219 226.653 200.713C228.763 177.894 262.221 176.758 265.296 200.663Z" fill="#000072"/>
</g>
<path d="M203.516 310.276C201.673 310.276 200.061 310.206 198.74 310.116C196.162 309.939 194.456 307.624 192.827 295.922C191.99 289.904 191.567 284.022 191.55 283.775L191.377 281.345L193.812 281.241C194.025 281.232 215.133 280.228 223.308 271.045C225.605 268.465 226.599 265.543 226.348 262.113C225.491 250.444 219.239 241.112 212.621 231.231C204.467 219.06 196.037 206.474 196.574 188.286C197.417 159.767 223.719 144.933 249.313 145.015C263.876 145.064 277.499 149.672 287.672 157.993C299.369 167.561 305.754 181.391 306.135 197.989C306.59 217.861 296.482 225.313 286.869 225.66C273.945 226.145 264.994 216.895 262.945 200.962C261.549 190.117 253.26 185.418 245.623 185.537C238.05 185.673 229.977 190.486 229.013 200.933C228.443 207.108 234.279 215.654 240.457 224.702C251.435 240.778 265.097 260.787 254.616 282.482C249.419 293.24 240.658 301.073 228.576 305.765C219.112 309.439 209.919 310.276 203.516 310.276ZM199.757 305.432C207.467 305.856 238.079 305.824 250.351 280.421C259.639 261.194 247.37 243.226 236.545 227.373C229.582 217.177 223.569 208.371 224.296 200.497C225.522 187.205 236.167 180.969 245.538 180.8C255.252 180.643 265.874 186.605 267.643 200.358C268.461 206.72 271.964 221.453 286.698 220.926C291.272 220.761 301.86 218.206 301.399 198.098C300.635 164.818 274.681 149.837 249.297 149.752C249.23 149.752 249.162 149.752 249.095 149.752C225.882 149.752 202.061 163.008 201.309 188.427C200.816 205.098 208.818 217.043 216.556 228.595C223.226 238.552 230.124 248.848 231.071 261.766C231.418 266.478 229.994 270.662 226.841 274.201C219.061 282.932 202.69 285.229 196.459 285.799C197.173 294.17 198.54 303.168 199.757 305.432Z" fill="#000072"/>
<path d="M222.86 314.31H38.6129C41.0229 301.135 44.5402 287.67 48.5489 274.655C54.6302 254.913 61.8659 236.244 68.1603 221.316C68.3024 220.99 68.4385 220.665 68.5688 220.345C68.853 219.67 69.149 218.995 69.4274 218.338C70.0492 216.881 70.659 215.46 71.263 214.086C72.0979 212.162 72.9092 210.326 73.6907 208.579C74.2709 207.289 74.8335 206.039 75.3783 204.843C76.0652 203.327 76.7224 201.9 77.3442 200.568C81.039 192.58 83.4194 187.908 83.4194 187.908H178.054C178.054 187.908 178.083 187.967 178.142 188.092C178.344 188.483 178.865 189.519 179.646 191.118C179.646 191.118 179.646 191.118 179.646 191.123C181.002 193.895 183.146 198.371 185.793 204.168C185.893 204.393 185.994 204.618 186.101 204.849C186.592 205.939 187.107 207.07 187.634 208.248C188.428 210.03 189.263 211.907 190.121 213.873C190.707 215.211 191.305 216.591 191.909 218.012C192.034 218.296 192.152 218.575 192.276 218.859C192.436 219.25 192.608 219.652 192.78 220.055C198.346 233.183 204.711 249.348 210.384 266.65C211.248 269.297 212.101 271.967 212.93 274.655C216.939 287.67 220.45 301.135 222.86 314.31Z" fill="#FFC76C"/>
<path d="M127.042 304.484C148.531 304.484 165.952 288.044 165.952 267.765C165.952 247.485 148.531 231.045 127.042 231.045C105.552 231.045 88.1311 247.485 88.1311 267.765C88.1311 288.044 105.552 304.484 127.042 304.484Z" fill="white"/>
<path d="M222.864 314.361H38.6146C37.9118 314.361 37.245 314.049 36.7951 313.509C36.345 312.968 36.1583 312.257 36.2849 311.565C47.2395 251.825 80.9751 185.181 81.3148 184.514C81.9084 183.349 83.3359 182.887 84.5001 183.479C85.6659 184.073 86.1291 185.5 85.5353 186.665C85.2041 187.315 52.8168 251.305 41.4725 309.624H220.006C208.662 251.305 176.274 187.315 175.943 186.665C175.349 185.5 175.812 184.073 176.978 183.479C178.144 182.887 179.57 183.35 180.164 184.514C180.503 185.181 214.239 251.825 225.193 311.565C225.32 312.257 225.133 312.968 224.683 313.509C224.234 314.049 223.567 314.361 222.864 314.361Z" fill="#000072"/>
<path d="M72.191 295.275C64.2902 272.889 30.3433 266.963 21.455 303.34C14.6437 331.215 36.2689 337.631 36.2689 337.631H217.814C217.814 337.631 239.439 331.215 232.628 303.34C223.74 266.964 189.793 272.889 181.892 295.275" fill="#FFC76C"/>
<g opacity="0.5">
<path d="M72.1928 295.273H72.2519V299.98H72.1928C64.2878 277.598 30.3409 271.671 21.453 308.045C20.7661 310.87 20.3635 313.469 20.2096 315.873C19.9549 312.279 20.2865 308.122 21.453 303.338C30.3409 266.963 64.2878 272.89 72.1928 295.273Z" fill="white"/>
</g>
<g opacity="0.5">
<path d="M233.874 315.873C233.72 313.469 233.317 310.87 232.63 308.045C224.337 274.1 194.215 276.995 183.807 295.726C183.296 296.646 181.902 296.296 181.902 295.243C189.825 272.885 223.748 266.981 232.63 303.338C233.797 308.123 234.128 312.279 233.874 315.873Z" fill="white"/>
</g>
<path d="M71.0742 295.669C63.6643 281.441 46.8538 273.703 33.7395 285.545C27.3899 291.702 24.2332 300.663 23.0269 309.342C21.4927 320.434 25.9465 330.924 36.6508 335.253C36.651 335.253 36.9424 335.361 36.9427 335.361L36.269 335.263C35.9592 335.241 220.46 335.291 217.434 335.253C221.232 333.731 224.657 331.101 227.068 327.806C232.314 320.714 232.085 310.976 229.749 302.748C227.478 294.335 223.141 285.934 215.17 281.881C202.767 275.583 188.544 283.857 183.009 295.669C182.723 296.276 181.992 296.529 181.393 296.225C180.89 295.97 180.647 295.406 180.776 294.881C181.957 290.063 184.606 285.481 188.381 282.02C201.036 270.428 219.591 273.247 228.843 287.637C233.021 294.064 235.254 301.248 236.256 308.723C237.703 319.079 234.393 330.059 225.526 336.285C223.541 337.73 221.356 338.897 219.04 339.723C218.699 339.836 218.234 340.013 217.843 340.001C217.857 340.011 36.2689 339.992 36.2692 340C35.8437 340.018 35.4019 339.84 35.0432 339.723C32.728 338.897 30.5433 337.73 28.5564 336.287C17.1933 328.187 15.6395 313.942 19.2645 301.385C21.1667 294.182 24.5769 286.936 30.1972 281.733C38.0323 274.313 49.8504 272.72 59.4159 277.583C61.7387 278.724 63.8925 280.185 65.7954 281.914C69.6219 285.35 72.2882 290.002 73.3078 294.881C73.5864 296.248 71.6957 296.88 71.0742 295.669Z" fill="#000072"/>
<path d="M252.082 312.409C249.595 330.375 239.985 344.763 228.509 348.292C227.343 348.654 226.194 348.944 225.069 349.169C216.258 350.969 208.714 349.145 204.771 348.139C196.931 346.137 191.311 344.752 183.116 343.84C172.813 342.685 158.419 342.271 130.375 342.271C102.338 342.271 87.9433 342.685 77.6403 343.84C77.3857 343.869 77.131 343.899 76.8823 343.929C76.6275 343.952 76.3789 343.982 76.1303 344.017C74.1584 344.26 72.3289 344.533 70.5643 344.84C70.3452 344.876 70.126 344.911 69.9129 344.953C69.0365 345.113 68.178 345.273 67.3194 345.45C67.1062 345.492 66.8929 345.533 66.6799 345.581C66.4667 345.622 66.2535 345.669 66.0404 345.717C64.5483 346.037 63.0619 346.38 61.5225 346.753C61.3034 346.806 61.0843 346.86 60.8593 346.913C59.3078 347.292 57.7032 347.7 55.986 348.139C52.1372 349.122 44.8422 350.886 36.2977 349.293C36.1615 349.264 36.0253 349.24 35.8832 349.21C34.693 348.974 33.479 348.672 32.2474 348.293C28.4815 347.132 24.9169 344.805 21.737 341.572C17.9534 337.717 14.7144 332.566 12.3459 326.556C11.9609 325.596 11.6058 324.614 11.2742 323.607C11.1084 323.11 10.9484 322.6 10.7885 322.091C10.4807 321.067 10.1905 320.025 9.93004 318.965C9.40904 316.845 8.98266 314.654 8.67478 312.41C8.20103 308.975 8.02342 304.688 8.83467 300.774C8.94717 300.218 9.08328 299.673 9.24316 299.14C9.32003 298.874 9.40304 298.601 9.49179 298.341C9.66941 297.82 9.87079 297.305 10.1017 296.813C10.3325 296.316 10.5813 295.836 10.8595 295.38C11.1378 294.918 11.4458 294.48 11.7774 294.06C12.0379 293.734 12.3043 293.438 12.5708 293.172C15.869 289.779 19.404 290.276 19.404 290.276C19.404 290.276 19.4455 290.193 19.5224 290.039C19.5639 289.968 19.6113 289.873 19.6704 289.767C19.8778 289.4 20.2034 288.855 20.6357 288.233C21.0679 287.611 21.6185 286.919 22.264 286.25C22.3528 286.155 22.4475 286.06 22.5483 285.965C23.6082 284.935 24.9228 283.994 26.4563 283.538C32.8217 281.649 36.6233 284.592 37.7779 285.705C37.8135 285.74 37.849 285.77 37.8785 285.805C37.9378 285.865 37.991 285.918 38.0325 285.959C38.068 286.001 38.0978 286.036 38.1214 286.06C38.139 286.084 38.1509 286.096 38.1509 286.096C38.1509 286.096 42.4617 282.797 47.7673 283.905C47.9329 283.94 48.0928 283.976 48.2528 284.017C48.3653 284.041 48.4779 284.07 48.5903 284.106C48.6258 284.112 48.6555 284.124 48.6909 284.136C48.8567 284.177 49.0167 284.224 49.1765 284.278C49.3602 284.337 49.5438 284.402 49.7213 284.467C49.745 284.479 49.7687 284.485 49.7924 284.497C49.8812 284.526 49.97 284.562 50.0588 284.603C50.4554 284.757 50.8464 284.941 51.2253 285.136C51.4267 285.243 51.628 285.349 51.8233 285.468C52.0188 285.58 52.214 285.699 52.4035 285.823C52.4509 285.853 52.4924 285.882 52.5338 285.906C52.6937 286.013 52.8535 286.125 53.0075 286.238C53.3925 286.516 53.7714 286.812 54.1384 287.132C54.2154 287.191 54.2864 287.256 54.3575 287.321C54.5055 287.452 54.6477 287.588 54.7898 287.724C55.1095 288.038 55.4293 288.363 55.7313 288.707C55.82 288.802 55.9029 288.896 55.9858 288.997C56.2404 289.287 56.4892 289.595 56.7259 289.909C56.8858 290.116 57.0398 290.323 57.1937 290.542C57.4719 290.933 57.7443 291.342 58.0048 291.762C58.1824 292.046 58.3542 292.331 58.52 292.627C58.674 292.899 58.8279 293.177 58.9819 293.462C59.0057 293.497 59.0233 293.539 59.041 293.574C59.3489 294.172 59.6509 294.794 59.941 295.433V295.439C60.2312 296.102 60.5095 296.789 60.776 297.494C60.9063 297.849 61.0365 298.21 61.1609 298.577C61.2853 298.939 61.4037 299.306 61.5222 299.673C61.5279 299.679 61.5279 299.685 61.5279 299.691C61.9663 301.106 62.357 302.598 62.6945 304.155C62.7004 304.179 62.7064 304.209 62.7122 304.238C62.7537 304.416 62.7892 304.594 62.8248 304.771C62.8602 304.943 62.8898 305.115 62.9254 305.286C63.2867 307.122 63.5709 309.046 63.784 311.054H196.966C197.179 309.034 197.469 307.092 197.836 305.239C200.122 293.55 205.303 285.503 212.989 283.904C218.294 282.797 222.605 286.095 222.605 286.095C222.605 286.095 226.555 281.24 234.3 283.537C238.764 284.864 241.352 290.276 241.352 290.276C241.352 290.276 245.473 289.695 248.973 294.059C252.846 298.885 252.857 306.784 252.082 312.409Z" fill="#FFC76C"/>
<path d="M252.082 312.409C249.595 330.374 239.985 344.763 228.509 348.292C227.343 348.653 226.194 348.944 225.069 349.169C216.258 350.969 208.714 349.145 204.771 348.138C196.931 346.137 191.311 344.751 183.116 343.839C172.813 342.685 158.419 342.27 130.375 342.27C102.338 342.27 87.9433 342.685 77.6403 343.839C77.3857 343.869 77.131 343.899 76.8823 343.928C76.6275 343.958 76.3789 343.987 76.1303 344.017C74.1584 344.26 72.3289 344.532 70.5643 344.84C70.3452 344.876 70.132 344.911 69.9129 344.953C69.0365 345.113 68.178 345.272 67.3194 345.45C67.1062 345.492 66.8929 345.533 66.6799 345.58C66.4667 345.628 66.2535 345.669 66.0404 345.717C64.5483 346.036 63.0619 346.38 61.5225 346.753C61.3034 346.806 61.0843 346.859 60.8593 346.913C59.3078 347.292 57.7032 347.7 55.986 348.138C52.1372 349.121 44.8422 350.886 36.2977 349.293C36.2977 349.287 36.2977 349.287 36.2977 349.287C36.1615 349.264 36.0253 349.24 35.8832 349.21C34.693 348.973 33.479 348.671 32.2474 348.292C28.4815 347.132 24.9169 344.805 21.737 341.572C17.9534 337.711 14.7204 332.566 12.3459 326.555C11.9669 325.596 11.6117 324.613 11.2742 323.607C11.1084 323.109 10.9484 322.6 10.7885 322.091C10.4807 321.066 10.1905 320.024 9.93004 318.964C9.40904 316.845 8.98266 314.654 8.67478 312.41C8.20103 308.975 8.02342 304.688 8.83467 300.774C8.94717 300.218 9.08328 299.673 9.24316 299.14C9.32003 298.873 9.40304 298.601 9.49179 298.341C9.67541 297.814 9.87666 297.304 10.1017 296.813C10.3325 296.315 10.5813 295.836 10.8595 295.38C11.1438 294.918 11.4458 294.48 11.7833 294.059C12.0438 293.734 12.3043 293.438 12.5707 293.171C15.8689 289.778 19.4039 290.276 19.4039 290.276C19.4039 290.276 19.4454 290.193 19.5223 290.039C19.5638 289.968 19.6112 289.873 19.6703 289.767C19.8777 289.399 20.2033 288.855 20.6355 288.233C21.0737 287.611 21.6184 286.918 22.2639 286.249C22.3527 286.155 22.4474 286.06 22.5482 285.965C23.608 284.935 24.9227 283.993 26.4562 283.537C32.8215 281.648 36.6232 284.591 37.7778 285.704C37.8134 285.74 37.8489 285.77 37.8784 285.805C37.9377 285.864 37.9909 285.918 38.0324 285.959C38.0679 286.001 38.0977 286.036 38.1213 286.06C38.1389 286.083 38.1508 286.095 38.1508 286.095C38.1508 286.095 42.4615 282.797 47.7672 283.904C47.9328 283.94 48.0927 283.975 48.2527 284.017C48.3652 284.041 48.4778 284.07 48.5902 284.106C48.6257 284.112 48.6554 284.123 48.6908 284.135C48.8565 284.177 49.0165 284.224 49.1764 284.277C49.36 284.337 49.5437 284.402 49.7212 284.467C49.7449 284.479 49.7685 284.485 49.7923 284.497C49.881 284.526 49.9699 284.562 50.0587 284.603C50.4553 284.757 50.8463 284.941 51.2252 285.136C51.4265 285.243 51.6279 285.349 51.8232 285.468C52.0187 285.58 52.2139 285.699 52.4034 285.823C52.4508 285.853 52.4923 285.882 52.5337 285.906C52.6935 286.012 52.8534 286.125 53.0074 286.237C53.3924 286.516 53.7713 286.812 54.1383 287.132C54.2153 287.191 54.2863 287.256 54.3574 287.321C54.5054 287.451 54.6475 287.587 54.7897 287.724C55.1094 288.037 55.4292 288.363 55.7312 288.707C55.8199 288.801 55.9028 288.896 55.9857 288.997C56.2403 289.287 56.489 289.595 56.7258 289.909C56.8857 290.116 57.0397 290.323 57.1935 290.542C57.4778 290.933 57.7442 291.342 58.0047 291.762C58.1883 292.046 58.36 292.33 58.5199 292.626C58.6739 292.899 58.8278 293.177 58.9818 293.461C59.0055 293.497 59.0232 293.538 59.0409 293.574C59.3607 294.172 59.6568 294.794 59.9409 295.433V295.439C60.2369 296.102 60.5153 296.783 60.7759 297.494C60.9062 297.849 61.0364 298.21 61.1608 298.577C61.2852 298.938 61.4035 299.306 61.522 299.673C61.5278 299.679 61.5278 299.685 61.5278 299.69C61.9719 301.106 62.3628 302.592 62.6944 304.155C62.7003 304.179 62.7063 304.208 62.712 304.238C62.7535 304.416 62.789 304.593 62.8247 304.771C62.86 304.925 62.8897 305.085 62.9194 305.239C62.9194 305.256 62.9194 305.268 62.9253 305.286C63.1504 307.962 63.3279 310.864 63.4583 314.014C63.464 314.15 63.4702 314.286 63.4759 314.422C63.8609 322.546 71.7184 328.189 79.5583 326.01C79.599 325.999 79.6398 325.988 79.6805 325.976C85.3279 324.405 88.234 318.172 85.7394 312.868C82.9119 306.856 81.3612 300.124 81.4317 293.021C81.674 268.605 101.455 248.502 125.865 247.888C151.591 247.24 172.653 267.905 172.653 293.485C172.653 299.853 171.35 305.914 168.994 311.417C166.678 316.829 169.744 323.025 175.476 324.366C177.436 324.825 179.362 325.312 181.251 325.827C189.085 327.965 196.936 322.322 197.292 314.209C197.292 314.144 197.297 314.079 197.297 314.014C197.428 310.846 197.605 307.927 197.836 305.239C200.122 293.55 205.303 285.503 212.989 283.904C218.294 282.797 222.605 286.095 222.605 286.095C222.605 286.095 226.555 281.24 234.3 283.537C238.764 284.864 241.352 290.276 241.352 290.276C241.352 290.276 245.473 289.695 248.973 294.059C252.846 298.885 252.857 306.784 252.082 312.409Z" fill="white"/>
<g opacity="0.3">
<path d="M252.081 312.413C249.599 330.375 239.987 344.761 228.509 348.298C218.253 351.449 209.219 349.278 204.77 348.139C187.066 343.614 180.718 342.271 130.378 342.271C80.0373 342.271 73.6889 343.614 55.9853 348.139C51.5366 349.278 42.4949 351.449 32.2463 348.298C20.7678 344.761 11.1567 330.375 8.67431 312.413C8.25681 309.369 8.06694 305.656 8.59844 302.134C8.62119 302.346 8.64393 302.559 8.67431 302.764C11.1567 320.726 20.7678 335.119 32.2463 338.65C42.4951 341.808 51.5367 339.629 55.9853 338.49C73.6889 333.966 80.0374 330.035 130.378 330.035C180.718 330.035 187.066 333.966 204.77 338.49C209.219 339.629 218.253 341.808 228.509 338.65C239.987 335.119 249.599 320.726 252.081 302.764C252.111 302.559 252.134 302.346 252.157 302.134C252.688 305.656 252.499 309.369 252.081 312.413Z" fill="#000072"/>
</g>
<path d="M195.791 310.928C195.784 300.741 198.673 288.557 208.315 283.105C210.906 281.721 213.974 280.996 216.898 281.392C219.353 281.696 221.622 282.571 223.671 283.909C223.659 283.907 223.904 284.049 223.543 283.837C222.805 283.434 221.803 283.549 221.18 284.108C224.418 280.697 230.542 279.524 235.622 281.432C239.126 282.756 241.687 285.771 243.416 288.947C243.097 288.259 242.092 287.724 241.415 287.818C246.228 287.649 250.188 290.789 252.326 294.676C256.801 303.321 254.817 314.03 252.32 322.957C248.994 333.477 243.034 344.063 232.767 349.305C226.144 352.477 218.456 352.988 211.263 352.059C203.825 350.928 196.711 348.411 189.377 347.284C170.048 344.348 149.982 345.049 130.377 344.801C110.767 345.016 90.7035 344.303 71.3643 347.216C64.0293 348.336 56.9151 350.844 49.4777 351.969C42.9536 352.83 36.1203 352.41 29.925 350.044C16.9008 344.644 9.88746 330.326 7.09634 317.31C5.41684 309.092 4.57572 298.863 10.394 291.999C12.4558 289.589 15.8136 287.707 19.3347 287.874C19.3538 287.865 18.844 287.871 18.6402 287.957C18.0973 288.115 17.6452 288.49 17.3866 288.973C19.2638 285.493 22.2398 282.139 26.2482 281.136C30.792 279.828 36.1393 280.685 39.6105 284.189C39.5795 284.161 39.8418 284.414 39.5491 284.135C39.3547 283.967 39.1173 283.828 38.8558 283.74C38.336 283.558 37.708 283.609 37.2268 283.868C36.8715 284.077 37.1128 283.936 37.1011 283.937L37.2213 283.856C41.7105 280.921 47.1355 280.389 51.9986 282.769C61.934 287.932 64.6822 300.693 64.9627 310.928C65.0202 312.382 62.8675 312.617 62.6075 311.18C61.6191 306.383 60.3698 301.68 58.4507 297.395C55.1851 289.796 47.8458 282.746 39.82 287.823L39.7466 287.871C39.6697 287.914 39.8486 287.819 39.4253 288.066C38.8072 288.398 38.0122 288.463 37.3455 288.23C36.848 288.073 36.4633 287.758 36.1163 287.396C33.7257 285.121 29.8903 284.827 26.8035 285.938C24.7137 286.747 23.1716 288.618 21.9903 290.523C21.5575 291.373 21.0001 292.285 19.986 292.537C19.7078 292.646 19.1193 292.656 19.0612 292.641C18.0886 292.612 17.1183 292.885 16.1947 293.377C9.07433 297.633 10.3481 309.273 11.8206 316.318C14.2257 327.416 19.8135 339.408 30.1981 344.82C38.217 348.531 47.435 347.913 55.8206 345.635C80.0565 338.728 105.517 340.099 130.376 339.745C155.238 340.059 180.708 338.674 204.953 345.554C212.84 347.711 221.284 348.29 229.007 345.385C240.224 340.696 246.39 327.687 248.848 316.3C249.936 311.263 250.519 305.797 249.385 300.777C248.545 296.851 245.912 292.772 241.695 292.697C241.636 292.713 241.035 292.703 240.751 292.592C240.045 292.386 239.45 291.895 239.112 291.261C238.967 290.982 238.857 290.794 238.715 290.552C237.487 288.564 235.864 286.62 233.636 285.875C230.722 284.944 227.221 285.2 224.909 287.204C224.797 287.302 224.657 287.42 224.554 287.528C223.761 288.411 222.358 288.672 221.311 288.097C219.002 286.542 216.151 285.659 213.408 286.258C203.504 288.615 200.334 302.514 198.146 311.18C197.799 312.557 195.822 312.314 195.791 310.928Z" fill="#000072"/>
<path d="M36.5434 334.759C42.8706 334.408 47.6723 328.218 47.2681 320.934C46.864 313.65 41.4071 308.03 35.0798 308.381C28.7526 308.732 23.9509 314.921 24.355 322.205C24.7592 329.489 30.2161 335.11 36.5434 334.759Z" fill="#FFA1A8"/>
<path d="M20.6708 313.986C23.0633 313.642 24.6765 311.099 24.2741 308.307C23.8716 305.515 21.6058 303.532 19.2133 303.877C16.8208 304.222 15.2076 306.765 15.6101 309.556C16.0126 312.348 18.2783 314.331 20.6708 313.986Z" fill="#FFA1A8"/>
<path d="M32.1506 304.577C34.5431 304.232 36.1563 301.689 35.7538 298.897C35.3513 296.106 33.0856 294.122 30.6931 294.467C28.3006 294.812 26.6874 297.355 27.0898 300.147C27.4923 302.938 29.7581 304.922 32.1506 304.577Z" fill="#FFA1A8"/>
<path d="M46.4126 306.755C48.8051 306.41 50.4184 303.867 50.0159 301.076C49.6134 298.284 47.3476 296.301 44.9551 296.645C42.5627 296.99 40.9494 299.533 41.3519 302.325C41.7544 305.116 44.0202 307.1 46.4126 306.755Z" fill="#FFA1A8"/>
<path d="M235.877 322.195C236.281 314.911 231.479 308.722 225.152 308.371C218.825 308.02 213.368 313.64 212.964 320.924C212.56 328.208 217.361 334.397 223.688 334.748C230.016 335.099 235.473 329.479 235.877 322.195Z" fill="#FFA1A8"/>
<path d="M244.625 309.555C245.028 306.763 243.415 304.22 241.022 303.875C238.63 303.53 236.364 305.514 235.961 308.306C235.559 311.097 237.172 313.64 239.565 313.985C241.957 314.33 244.223 312.346 244.625 309.555Z" fill="#FFA1A8"/>
<path d="M233.147 300.147C233.55 297.356 231.937 294.813 229.544 294.468C227.152 294.123 224.886 296.107 224.483 298.898C224.081 301.69 225.694 304.233 228.087 304.578C230.479 304.923 232.745 302.939 233.147 300.147Z" fill="#FFA1A8"/>
<path d="M218.885 302.327C219.288 299.535 217.674 296.992 215.282 296.647C212.889 296.302 210.624 298.286 210.221 301.078C209.819 303.869 211.432 306.412 213.824 306.757C216.217 307.102 218.483 305.118 218.885 302.327Z" fill="#FFA1A8"/>
<g opacity="0.3">
<path d="M31.4799 176.077C31.5034 176.123 31.5327 176.165 31.556 176.211L31.4565 176.047C31.4682 176.059 31.474 176.065 31.4799 176.077Z" fill="#6B184E"/>
<path d="M31.5559 176.211L34.4435 180.845C33.4479 179.345 32.4755 177.81 31.5559 176.211Z" fill="#6B184E"/>
</g>
<g opacity="0.3">
<path d="M31.475 174.586C31.4926 174.605 31.5102 174.624 31.5219 174.637C31.5454 174.669 31.5687 174.701 31.5921 174.733L31.475 174.586Z" fill="#6B184E"/>
<path d="M34.3919 178.165C33.4255 177.057 32.4883 175.918 31.592 174.733L34.3919 178.165Z" fill="#6B184E"/>
<path d="M226.497 178.165L229.291 174.752C228.4 175.93 227.469 177.064 226.497 178.165Z" fill="#6B184E"/>
</g>
<path d="M34.4461 179.356C33.4748 178.24 32.5278 177.088 31.6169 175.899L34.4461 179.356Z" fill="white"/>
<path d="M226.309 179.356L229.126 175.905C228.228 177.094 227.281 178.24 226.309 179.356Z" fill="white"/>
<g opacity="0.25">
<path d="M229.179 173.244C229.161 173.28 229.143 173.317 229.125 173.353C229.143 173.323 229.155 173.286 229.167 173.256C229.173 173.25 229.179 173.25 229.179 173.244Z" fill="#6B184E"/>
</g>
<g opacity="0.3">
<path d="M190.121 213.873C151.201 226.752 110.101 226.787 71.2631 214.086C72.0979 212.162 72.9092 210.326 73.6907 208.579C74.2709 207.289 74.8336 206.039 75.3783 204.843C76.0652 203.327 76.7224 201.9 77.3442 200.568C81.0391 192.58 83.4194 187.908 83.4194 187.908H178.054C178.054 187.908 178.083 187.967 178.142 188.092C178.344 188.483 178.865 189.519 179.646 191.118C179.646 191.118 179.646 191.118 179.646 191.123C181.002 193.895 183.146 198.371 185.793 204.168C185.893 204.393 185.994 204.618 186.101 204.849C186.592 205.939 187.107 207.07 187.634 208.248C188.428 210.03 189.263 211.907 190.121 213.873Z" fill="#000072"/>
</g>
<path d="M252.698 155.791C252.159 160.516 242.519 156.04 240.417 155.009C240.251 154.926 240.067 155.098 240.115 155.305C240.239 155.814 240.488 156.726 240.979 158.059C241.275 158.852 241.648 159.788 242.14 160.883C243.774 164.501 245.1 167.308 244.36 169.208C243.573 171.222 240.298 172.003 236.213 171.541C234.632 171.364 232.968 172.264 231.369 173.638C230.664 174.247 229.966 174.952 229.296 175.692L229.29 175.698L229.267 175.716L229.125 175.905C229.16 175.852 229.202 175.799 229.237 175.746C228.663 176.385 228.106 177.054 227.573 177.717C227.123 178.286 226.685 178.842 226.283 179.381C226.111 179.583 225.933 179.778 225.744 179.973C222.226 183.923 218.265 187.44 213.966 190.567C208.146 194.658 201.727 197.885 194.959 200.414V200.366C194.959 200.366 185.674 203.789 171.943 206.933C171.943 206.933 159.674 209.556 148.459 211.007C148.459 211.007 139.879 212.025 130.44 212.025C121.014 212.025 112.286 211.007 112.286 211.007C101.077 209.556 88.8018 206.933 88.8018 206.933C75.0763 203.789 65.7859 200.366 65.7859 200.366V200.414C59.0179 197.885 52.5991 194.658 46.7785 190.567C42.6513 187.564 38.844 184.201 35.4155 180.435C35.0897 180.086 34.776 179.736 34.468 179.381C33.9942 178.754 33.4851 178.102 32.9522 177.445C32.4785 176.859 31.987 176.278 31.4837 175.716C31.5251 175.775 31.5725 175.84 31.614 175.9L31.4541 175.692C31.46 175.698 31.4718 175.704 31.4776 175.71C30.9092 175.082 30.3171 174.478 29.7191 173.94C28.0196 172.4 26.2313 171.346 24.538 171.541C20.4581 172.003 17.1777 171.222 16.3901 169.208C15.65 167.308 16.9822 164.501 18.6048 160.883C18.9363 160.137 19.2206 159.462 19.4635 158.858C20.1681 157.087 20.4937 155.909 20.6358 155.305C20.6773 155.098 20.5056 154.926 20.3338 155.009C18.2377 156.039 8.59772 160.516 8.05309 155.791C7.95834 154.98 8.29584 153.665 8.85834 151.989C10.1078 148.259 12.4526 142.752 13.4711 137.151C14.164 133.367 14.7737 130.069 15.3127 127.203C16.0647 123.236 16.6745 120.097 17.166 117.622C18.528 110.777 19.0016 109.019 19.0016 109.019C19.0312 108.859 23.1878 92.0185 29.3995 79.6193C23.194 63.0752 19.126 14.8343 29.5178 4.76228C37.855 -3.32622 69.2023 13.6502 80.968 25.5224C84.3846 24.0954 88.1625 22.8993 92.0704 21.8985C97.0444 20.6314 102.219 19.678 107.111 18.9675C113.121 18.0912 118.698 17.5879 122.932 17.3037C126.633 17.0609 129.315 16.9839 130.375 16.9839C131.423 16.9839 134.076 17.0549 137.741 17.2978C138.908 17.3807 140.187 17.4754 141.543 17.5879C145.113 17.8899 149.264 18.334 153.64 18.9735C158.531 19.6782 163.706 20.6315 168.68 21.9045C172.588 22.8993 176.366 24.0954 179.783 25.5225C191.542 13.6503 222.896 -3.32609 231.239 4.76241C241.625 14.8345 237.557 63.0753 231.351 79.6194C235.277 87.4533 238.386 97.0635 240.138 103.115C241.163 106.644 241.737 108.96 241.749 109.019C241.749 109.019 242.223 110.789 243.591 117.676C244.076 120.097 244.668 123.165 245.397 127.008C245.941 129.915 246.569 133.278 247.274 137.151C248.262 142.563 250.483 147.892 251.762 151.617V151.622C252.396 153.47 252.798 154.92 252.698 155.791Z" fill="#FFC76C"/>
<g opacity="0.5">
<path d="M237.569 37.9098C237.32 25.8008 235.49 15.2904 231.239 11.1692C222.896 3.08066 191.542 20.057 179.783 31.9293C176.366 30.5023 172.588 29.3062 168.68 28.3114C163.706 27.0383 158.531 26.085 153.64 25.3804C149.264 24.7409 145.113 24.2968 141.543 23.9948C140.187 23.8823 138.908 23.7875 137.741 23.7047C134.076 23.4619 131.423 23.3908 130.375 23.3908C129.315 23.3908 126.633 23.4678 122.932 23.7105C118.698 23.9948 113.121 24.498 107.111 25.3744C102.22 26.0849 97.0443 27.0383 92.0703 28.3054C88.1623 29.3062 84.3844 30.5023 80.9679 31.9293C69.2024 20.057 37.8549 3.08066 29.5178 11.1692C25.2663 15.2904 23.4307 25.7948 23.182 37.9157C22.874 23.2249 24.5319 9.59403 29.5178 4.76228C37.8549 -3.32622 69.2023 13.6502 80.9679 25.5224C84.3845 24.0954 88.1624 22.8993 92.0703 21.8985C97.0443 20.6314 102.219 19.678 107.111 18.9675C113.121 18.0912 118.698 17.5879 122.932 17.3037C126.633 17.0609 129.315 16.9839 130.375 16.9839C131.423 16.9839 134.076 17.0549 137.741 17.2978C138.908 17.3807 140.187 17.4754 141.543 17.5879C145.113 17.8899 149.264 18.334 153.64 18.9735C158.531 19.6782 163.706 20.6315 168.68 21.9045C172.588 22.8993 176.366 24.0954 179.783 25.5225C191.542 13.6503 222.896 -3.32609 231.239 4.76241C236.225 9.59416 237.877 23.2192 237.569 37.9098Z" fill="white"/>
</g>
<path d="M19.4636 158.859C20.1682 157.088 20.4938 155.91 20.636 155.306C20.6775 155.099 20.5057 154.927 20.334 155.01C18.2378 156.04 8.59784 160.517 8.05321 155.791C7.95846 154.98 8.29596 153.666 8.85846 151.99C18.2497 147.881 30.8917 143.446 44.8422 141.515C44.8422 141.515 32.3778 148.846 19.4636 158.859Z" fill="white"/>
<path d="M50.3906 160.611C50.1536 160.889 43.0659 169.286 35.4156 180.435C35.0899 180.086 34.7761 179.737 34.4681 179.381C33.9944 178.754 33.4852 178.102 32.9524 177.445C32.4786 176.859 31.9871 176.279 31.4839 175.716C31.5252 175.775 31.5726 175.84 31.6141 175.9L31.4542 175.692C31.4601 175.698 31.472 175.704 31.4777 175.71C30.9094 175.083 30.3172 174.479 29.7192 173.94C35.6761 169.28 42.6395 164.572 50.3906 160.611Z" fill="white"/>
<path d="M43.1133 121.833C43.1133 121.833 30.1635 123.491 15.3127 127.203C16.0647 123.236 16.6745 120.098 17.166 117.623C25.1539 118.138 34.0834 119.363 43.1133 121.833Z" fill="white"/>
<path d="M252.698 155.791C252.159 160.516 242.519 156.04 240.417 155.009C240.251 154.927 240.067 155.098 240.115 155.305C240.239 155.815 240.488 156.727 240.979 158.059C228.444 148.454 216.637 141.515 216.637 141.515C230.167 143.386 242.466 147.62 251.762 151.616V151.622C252.396 153.47 252.798 154.921 252.698 155.791Z" fill="white"/>
<path d="M231.369 173.638C230.664 174.248 229.966 174.952 229.297 175.692L229.291 175.698L229.267 175.716L229.125 175.906C229.16 175.852 229.202 175.799 229.237 175.746C228.663 176.385 228.106 177.054 227.574 177.717C227.124 178.286 226.685 178.842 226.283 179.381C226.111 179.583 225.933 179.778 225.744 179.973C218.218 169.049 211.32 160.883 211.089 160.611C218.674 164.483 225.495 169.072 231.369 173.638Z" fill="white"/>
<path d="M245.396 127.008C230.866 123.437 218.366 121.833 218.366 121.833C227.123 119.434 235.792 118.215 243.591 117.676C244.076 120.098 244.668 123.165 245.396 127.008Z" fill="white"/>
<g opacity="0.3">
<path d="M242.14 160.883C243.774 164.501 245.1 167.308 244.36 169.209C243.573 171.222 240.298 172.004 236.213 171.542C234.632 171.364 232.968 172.264 231.369 173.638C230.664 174.248 229.966 174.952 229.296 175.693L229.29 175.699L229.267 175.716L229.125 175.906C229.16 175.853 229.202 175.799 229.237 175.746C228.663 176.385 228.106 177.055 227.573 177.718C227.123 178.286 226.685 178.843 226.283 179.382C226.111 179.583 225.933 179.778 225.744 179.974C222.226 183.923 218.265 187.44 213.966 190.567C208.146 194.659 201.727 197.886 194.959 200.414V200.367C194.959 200.367 185.674 203.789 171.943 206.933C171.943 206.933 159.674 209.557 148.459 211.007C148.459 211.007 139.879 212.026 130.44 212.026C121.014 212.026 112.286 211.007 112.286 211.007C101.077 209.557 88.8018 206.933 88.8018 206.933C75.0763 203.789 65.7858 200.367 65.7858 200.367V200.414C59.0178 197.886 52.5991 194.659 46.7784 190.567C42.6513 187.565 38.844 184.202 35.4155 180.436C35.0897 180.086 34.7759 179.737 34.4679 179.382C33.9942 178.754 33.4851 178.103 32.9522 177.445C32.4784 176.859 31.987 176.279 31.4837 175.716C31.5251 175.776 31.5725 175.841 31.614 175.9L31.4541 175.693C31.4599 175.699 31.4718 175.705 31.4776 175.71C30.9092 175.083 30.3171 174.479 29.7191 173.94C28.0196 172.4 26.2313 171.346 24.538 171.542C20.4581 172.004 17.1777 171.222 16.3901 169.209C15.65 167.308 16.9822 164.501 18.6048 160.883C18.9363 160.137 19.2206 159.462 19.4635 158.858C19.5226 158.716 19.576 158.58 19.6293 158.444C20.9911 158.752 22.6787 158.793 24.5381 158.586C26.2314 158.391 28.0197 159.445 29.7192 160.984C30.3171 161.523 30.9092 162.127 31.4777 162.755C31.4719 162.749 31.4601 162.743 31.4542 162.737L31.6141 162.944C31.5726 162.885 31.5252 162.82 31.4838 162.76C31.9871 163.323 32.4786 163.903 32.9523 164.489C33.4852 165.147 33.9943 165.798 34.4681 166.426C34.776 166.781 35.0898 167.13 35.4156 167.48C38.8441 171.246 42.6515 174.609 46.7786 177.611C52.5992 181.703 59.018 184.93 65.786 187.458V187.411C65.786 187.411 75.0764 190.833 88.8019 193.978C88.8019 193.978 101.077 196.601 112.286 198.051C112.286 198.051 121.014 199.07 130.441 199.07C139.879 199.07 148.459 198.051 148.459 198.051C159.674 196.601 171.943 193.978 171.943 193.978C185.675 190.833 194.959 187.411 194.959 187.411V187.458C201.727 184.93 208.146 181.703 213.966 177.611C218.265 174.485 222.227 170.967 225.744 167.018C225.933 166.822 226.111 166.627 226.283 166.426C226.685 165.887 227.124 165.33 227.574 164.762C228.106 164.099 228.663 163.43 229.237 162.79C229.202 162.843 229.16 162.897 229.125 162.95L229.267 162.76L229.291 162.743L229.297 162.737C229.966 161.997 230.664 161.292 231.369 160.682C232.968 159.308 234.632 158.408 236.213 158.586C238.072 158.793 239.76 158.752 241.121 158.444C241.394 159.148 241.725 159.96 242.14 160.883Z" fill="#000072"/>
</g>
<path d="M129.066 56.31C127.135 45.0941 123.627 24.4036 123.02 18.653C122.943 17.9183 123.494 17.2661 124.232 17.2225C127.259 17.0433 129.444 16.9839 130.375 16.9839C131.295 16.9839 133.451 17.0386 136.443 17.2161C137.18 17.2599 137.731 17.9119 137.654 18.6465C137.048 24.3969 133.542 45.0921 131.613 56.3098C131.366 57.7414 129.312 57.7415 129.066 56.31Z" fill="white"/>
<path d="M167.968 23.4084L155.835 49.046C155.242 50.2986 153.361 49.8671 153.373 48.4812L153.626 20.5282C153.633 19.7197 154.372 19.1162 155.166 19.2709L167.047 21.5862C167.875 21.7476 168.329 22.6459 167.968 23.4084Z" fill="white"/>
<path d="M104.916 49.0449L92.782 23.4024C92.4213 22.6399 92.8754 21.7417 93.7034 21.5804L105.585 19.265C106.378 19.1104 107.117 19.7139 107.125 20.5224L107.377 48.4804C107.39 49.8661 105.509 50.2976 104.916 49.0449Z" fill="white"/>
<g opacity="0.3">
<path d="M31.6376 175.92L34.4449 179.353C33.4744 178.245 32.5364 177.105 31.6376 175.92Z" fill="#6B184E"/>
<path d="M226.31 179.353L229.118 175.92C228.219 177.106 227.274 178.245 226.31 179.353Z" fill="#6B184E"/>
</g>
<g opacity="0.3">
<path d="M31.4813 164.677C31.5334 164.749 31.5856 164.821 31.6377 164.886L31.4553 164.658C31.4617 164.664 31.4748 164.671 31.4813 164.677Z" fill="#6B184E"/>
<path d="M229.274 164.677C229.28 164.671 229.293 164.664 229.3 164.658L229.118 164.886C229.17 164.82 229.222 164.749 229.274 164.677Z" fill="#6B184E"/>
</g>
<path d="M52.7151 46.8139C44.4883 55.1644 39.3166 66.8368 38.5806 65.4754C38.5089 65.3452 38.4373 65.1888 38.3656 65.0064C36.7958 61.1894 34.1838 46.0518 34.1903 32.562C34.1968 30.3865 34.2554 28.4649 34.3727 26.7714C34.6853 22.1988 35.3693 19.2677 36.2096 17.3918C37.2517 15.099 39.5967 14.3955 41.6745 15.1642C47.198 17.2159 62.8893 26.9864 68.0024 33.2525C68.9144 34.3663 60.9483 38.4634 52.7151 46.8139Z" fill="#FFA1A8"/>
<path d="M52.7151 46.8139C44.4883 55.1644 39.3166 66.8368 38.5806 65.4754C38.5089 65.3452 38.4373 65.1888 38.3656 65.0064C40.1959 57.9262 45.2439 48.1427 49.1131 41.0688C54.4022 31.409 47.1068 23.736 40.7822 21.4433C38.6132 20.6552 36.0403 24.0357 34.3728 26.7714C34.6854 22.1988 35.3694 19.2677 36.2097 17.3918C37.2518 15.099 39.5968 14.3955 41.6746 15.1642C47.1981 17.2159 62.8894 26.9864 68.0026 33.2525C68.9144 34.3663 60.9483 38.4634 52.7151 46.8139Z" fill="#FF8392"/>
<path d="M38.7759 67.9524C38.7352 67.9524 38.6947 67.9518 38.6535 67.9505C37.7431 67.92 36.9362 67.4153 36.4956 66.5998C34.6435 63.1733 31.8136 46.5613 31.8242 32.5617C31.83 25.0195 32.5587 19.74 34.0517 16.4209C35.5389 13.1415 39.0909 11.6839 42.4962 12.9455C48.1572 15.0445 64.3871 25.0738 69.8402 31.7523C70.3056 32.3224 70.5137 33.0419 70.4259 33.778C70.2324 35.4028 68.8619 36.4428 65.5506 38.955C62.5996 41.1944 58.5581 44.2614 54.4047 48.4765C49.836 53.1134 46.2004 58.8873 43.7944 62.708C41.289 66.6878 40.4925 67.9524 38.7759 67.9524ZM36.5612 32.5655C36.5534 43.1423 38.2071 54.634 39.5435 60.5697C39.625 60.4403 39.7059 60.3115 39.7861 60.1845C42.3007 56.1904 46.1014 50.1547 51.0309 45.1515C55.4232 40.6935 59.7949 37.3769 62.6874 35.1814C63.4769 34.5827 64.3259 33.9388 64.9695 33.4175C59.1675 27.4978 45.4831 19.1054 40.8499 17.3879C40.0087 17.0754 38.9139 17.1694 38.3687 18.3712C37.1759 21.0232 36.5667 25.8015 36.5612 32.5655Z" fill="#000072"/>
<path d="M207.392 46.8139C215.619 55.1644 220.791 66.8368 221.527 65.4754C221.599 65.3452 221.67 65.1888 221.742 65.0064C223.312 61.1894 225.924 46.0518 225.917 32.562C225.911 30.3865 225.852 28.4649 225.735 26.7714C225.422 22.1988 224.738 19.2677 223.898 17.3918C222.856 15.099 220.511 14.3955 218.433 15.1642C212.91 17.2159 197.218 26.9864 192.105 33.2525C191.193 34.3663 199.159 38.4634 207.392 46.8139Z" fill="#FFA1A8"/>
<path d="M207.393 46.8139C215.619 55.1644 220.791 66.8368 221.527 65.4754C221.599 65.3452 221.67 65.1888 221.742 65.0064C219.912 57.9262 214.864 48.1427 210.995 41.0688C205.705 31.409 213.001 23.736 219.325 21.4433C221.494 20.6552 224.067 24.0357 225.735 26.7714C225.422 22.1988 224.738 19.2677 223.898 17.3918C222.856 15.099 220.511 14.3955 218.433 15.1642C212.91 17.2159 197.218 26.9864 192.105 33.2525C191.193 34.3663 199.159 38.4634 207.393 46.8139Z" fill="#FF8392"/>
<path d="M221.332 67.9527C219.615 67.9527 218.819 66.688 216.313 62.7079C213.907 58.8872 210.272 53.1132 205.703 48.4769C201.549 44.2618 197.508 41.1948 194.557 38.956C191.246 36.4432 189.875 35.4032 189.682 33.7784C189.594 33.0423 189.802 32.3228 190.267 31.7527C195.721 25.0742 211.951 15.0443 217.611 12.9459C221.019 11.6837 224.569 13.1418 226.053 16.4145C227.549 19.7398 228.277 25.0193 228.284 32.562C228.294 46.5617 225.464 63.1737 223.612 66.6002C223.171 67.4155 222.364 67.9204 221.454 67.9509C221.413 67.952 221.372 67.9527 221.332 67.9527ZM195.138 33.4178C195.782 33.939 196.631 34.5835 197.42 35.1823C200.313 37.3772 204.685 40.6944 209.077 45.1518C214.006 50.1548 217.807 56.1905 220.321 60.1842C220.402 60.3118 220.483 60.4405 220.564 60.5699C221.901 54.6343 223.555 43.1425 223.547 32.5658C223.541 25.8013 222.932 21.0234 221.736 18.3648C221.194 17.1703 220.1 17.0757 219.258 17.3882C214.625 19.105 200.941 27.4974 195.138 33.4178Z" fill="#000072"/>
<path d="M112.136 212.183C96.0617 211.078 80.191 207.967 64.9695 202.593L68.1662 200.364V200.411L68.1697 203.831C60.9642 201.26 53.8712 198.163 47.4388 193.905C41.9897 190.316 37.0569 185.936 32.7301 181.057L32.6788 180.999L32.6532 180.97C32.8378 181.149 33.0131 181.335 33.2457 181.447L32.6279 180.941L29.5484 177.169L29.6587 177.305L29.6356 177.285L33.3296 174.163L36.3468 177.847L32.5432 180.851C30.7413 178.567 29.0357 176.262 26.7393 174.683C26.0211 174.2 25.4034 173.953 24.9106 173.971C24.5562 173.962 24.1968 174.04 23.8398 174.052C19.7741 174.465 13.7244 173.244 13.7352 168.065C13.7127 166.094 14.5043 164.252 15.1577 162.622C16.2356 160.069 17.4713 157.674 18.1714 155.018L18.2111 154.861L18.2294 154.785L18.2387 154.747L18.2114 154.881C17.9231 156.595 19.8062 158.051 21.4222 157.218L21.3289 157.263L21.1427 157.354L20.7709 157.531C16.2823 159.567 7.08457 163.473 5.59645 156.101C5.41057 153.903 6.22669 152.295 6.75882 150.482C8.28732 146.119 9.96332 141.951 10.8634 137.477C11.9312 131.915 12.9076 126.259 14.0033 120.704C14.9012 116.183 15.9836 110.384 17.0478 106.476C19.6702 96.8702 22.7138 87.4779 27.1165 78.4726L27.0085 80.5159C20.9822 63.8282 16.7651 21.0195 25.4982 5.6981C26.0892 4.69523 26.8642 3.73623 27.6942 2.85998L27.9819 2.6171L28.5678 2.14185C33.5901 -1.38177 40.3978 0.167976 45.7103 1.66598C58.7768 5.82623 72.9676 14.1266 82.8826 23.6309C82.8824 23.6311 79.9297 23.041 79.9297 23.041C83.9898 21.3695 88.1362 20.1197 92.3044 19.0701C100.616 17.0046 109.062 15.8069 117.557 14.992C121.862 14.619 126.01 14.299 130.377 14.2384C134.744 14.2859 138.894 14.6119 143.198 14.9841C155.99 16.2586 168.799 18.1984 180.83 23.0275L177.861 23.6209C182.06 19.4692 186.72 16.0821 191.624 12.9137C200.7 7.17573 222.347 -4.85127 232.201 2.12198C238.914 7.39085 239.79 21.6351 240.147 29.5075C240.502 40.9644 239.632 52.3402 237.846 63.6446C236.889 69.3851 235.786 74.9797 233.781 80.5294L233.672 78.4555C238.078 87.463 241.124 96.8567 243.748 106.465C244.241 108.297 244.521 109.526 244.948 111.509C246.591 119.506 248.212 127.975 249.654 135.994C250.158 138.941 250.979 141.754 251.961 144.62C252.614 146.54 253.339 148.445 254.043 150.465C254.965 152.992 256.231 156.691 253.83 159.001C250.222 162.333 243.321 159.084 239.588 157.403L239.401 157.312L239.308 157.267C239.579 157.404 239.969 157.513 240.369 157.503C241.111 157.502 241.781 157.114 242.187 156.571C242.66 156.052 242.661 155.185 242.578 154.772L242.596 154.848L242.635 155.004L242.819 155.654C244.462 161.517 251.685 170.568 242.425 173.642C240.176 174.289 238.146 174.234 235.938 174.023C235.862 174.037 235.792 174.025 235.715 174.021C235.337 174.049 234.702 174.292 234.047 174.732C231.752 176.306 230.057 178.606 228.259 180.888L224.36 177.809L227.377 174.124L231.165 177.326C231.084 177.402 231.262 177.206 231.255 177.207L228.173 180.983L227.539 181.502C227.773 181.384 227.971 181.202 228.148 181.012L228.122 181.04C219.524 190.976 208.089 198.238 195.816 202.702L192.515 203.932L192.518 200.412V200.365L195.808 202.658C184.355 206.679 172.638 209.608 160.603 211.077C156.631 211.606 152.634 212.001 148.617 212.183C147.154 212.207 146.921 210.164 148.308 209.835C148.313 209.835 159.931 207.282 159.937 207.281C166.713 205.794 176.334 203.604 182.908 201.618C187.8 200.258 192.684 198.619 197.404 196.895L197.407 200.365V200.412L194.108 198.121C200.639 195.678 206.876 192.546 212.544 188.561C216.801 185.454 220.77 181.899 224.253 177.939C224.482 177.656 224.763 177.388 225.077 177.204L224.444 177.723L227.293 174.221L227.406 174.081L227.429 174.062L231.218 177.264L228.208 180.954L224.308 177.875C227.153 174.361 230.321 169.682 235.357 169.044C236.43 168.997 237.532 169.209 238.6 169.168C239.466 169.15 240.326 169.061 240.987 168.853C241.678 168.668 242.047 168.318 242.024 168.303C242.202 167.108 241.501 165.842 241.027 164.552C239.862 161.874 238.521 159.145 237.767 156.273C236.898 153.756 239.432 151.541 241.775 152.871L242.105 153.027L242.77 153.332C245.106 154.298 247.738 155.515 250.226 155.356C250.433 155.32 250.423 155.269 250.302 155.384C250.179 155.508 250.162 155.649 250.189 155.508C250.061 154.543 249.677 153.264 249.26 152.125C247.683 147.712 245.903 143.166 244.954 138.485C243.196 129.643 241.293 118.239 239.229 109.497C236.647 99.7106 233.474 89.8418 229.032 80.7803L228.532 79.7721L228.923 78.7064C234.463 63.2785 238.397 22.5609 230.714 8.40735C230.388 7.96873 230.112 7.43173 229.754 7.09723L229.503 6.80985L229.38 6.66636C229.152 6.54036 229.016 6.32223 228.772 6.21598C228.571 6.12548 228.416 5.98886 228.19 5.91048L227.514 5.66385C218.228 3.67523 202.467 12.4384 194.534 17.4486C189.38 20.7606 184.557 24.4282 180.42 28.7129C172.381 25.2661 163.702 23.2869 155.027 21.9491C146.913 20.7059 138.571 19.9102 130.377 19.7289C126.346 19.7872 122.113 20.0771 118.054 20.4342C105.849 21.621 93.4178 23.4676 82.0071 28.0124L80.3371 28.6956C72.3799 20.5969 62.1322 14.3089 51.7748 9.59873C46.7117 7.40723 36.3787 3.35223 31.7131 6.3716C31.6369 6.43698 31.5591 6.4996 31.4788 6.55985L31.3566 6.64873L31.2329 6.79273L30.9818 7.08111C29.6389 8.63323 28.8493 10.7046 28.2104 12.6649C23.3743 29.255 26.1626 63.408 32.1804 79.7706C28.5741 86.8721 25.8422 94.5525 23.5164 102.222C22.7631 104.615 22.0761 107.237 21.4411 109.669C21.0164 111.314 20.5117 113.92 20.1473 115.593C18.9314 121.445 17.0208 131.775 15.9166 137.667C14.8952 143.559 12.2423 149.16 10.6294 154.788C10.5208 155.198 10.5342 155.499 10.5132 155.514C10.5412 155.663 10.5286 155.535 10.4157 155.422C10.3048 155.317 10.3049 155.371 10.5187 155.408C11.6368 155.54 12.7469 155.247 13.9616 154.912C15.5368 154.445 17.1622 153.782 18.6727 153.077C19.2598 152.8 19.7433 152.507 20.4702 152.527C22.2799 152.528 23.5103 154.422 22.9896 156.04C22.0906 159.853 19.8518 163.41 18.7669 167.076C18.6767 167.448 18.6272 167.788 18.6293 168.013C18.6326 168.234 18.6799 168.331 18.6799 168.331C18.6698 168.367 19.0524 168.72 19.7502 168.908C21.0838 169.297 22.8097 169.281 24.2679 169.121C24.6461 169.1 25.0226 169.087 25.3927 169.103C30.3907 169.741 33.5714 174.407 36.3974 177.911L32.5938 180.915L29.5841 177.224L33.2781 174.102L33.3012 174.122L33.4116 174.258L36.2633 177.765L35.6457 177.259C36.1951 177.57 36.5946 178.175 37.0281 178.625C45.0183 187.594 55.3668 194.05 66.6214 198.186L63.4166 200.412V200.365L63.42 196.983C68.1133 198.703 73.0007 200.338 77.8174 201.718C85.4153 203.965 93.0318 205.762 100.797 207.398C104.673 208.241 108.558 209.036 112.446 209.835C113.866 210.129 113.595 212.256 112.136 212.183Z" fill="#000072"/>
<path d="M191.799 167.361C198.08 167.361 203.173 164.917 203.173 161.902C203.173 158.886 198.08 156.442 191.799 156.442C185.518 156.442 180.426 158.886 180.426 161.902C180.426 164.917 185.518 167.361 191.799 167.361Z" fill="#FF7687"/>
<path d="M68.875 167.361C75.1564 167.361 80.2485 164.917 80.2485 161.902C80.2485 158.886 75.1564 156.442 68.875 156.442C62.5936 156.442 57.5015 158.886 57.5015 161.902C57.5015 164.917 62.5936 167.361 68.875 167.361Z" fill="#FF7687"/>
<path d="M113.328 153.419C113.328 153.419 116.313 161.25 123.302 159.442C131.258 157.384 130.302 147.897 130.302 147.897" fill="white"/>
<path d="M147.57 153.419C147.57 153.419 144.584 161.25 137.596 159.442C129.64 157.384 130.596 147.897 130.596 147.897" fill="white"/>
<path d="M88.4658 149.938C96.1546 149.938 102.388 139.966 102.388 127.667C102.388 115.367 96.1546 105.396 88.4658 105.396C80.7771 105.396 74.5441 115.367 74.5441 127.667C74.5441 139.966 80.7771 149.938 88.4658 149.938Z" fill="#000072"/>
<path d="M96.9854 122.947C97.3991 119.04 95.7325 115.661 93.263 115.4C90.7935 115.138 88.4562 118.093 88.0425 122C87.6288 125.906 89.2954 129.285 91.7649 129.547C94.2344 129.808 96.5717 126.853 96.9854 122.947Z" fill="white"/>
<g opacity="0.35">
<path d="M85.3465 144.62C86.6602 143.98 86.8231 141.609 85.7103 139.325C84.5976 137.041 82.6306 135.707 81.3169 136.347C80.0032 136.987 79.8403 139.358 80.9531 141.642C82.0658 143.927 84.0328 145.26 85.3465 144.62Z" fill="white"/>
</g>
<path d="M172.051 149.938C179.74 149.938 185.973 139.966 185.973 127.667C185.973 115.367 179.74 105.396 172.051 105.396C164.362 105.396 158.129 115.367 158.129 127.667C158.129 139.966 164.362 149.938 172.051 149.938Z" fill="#000072"/>
<path d="M168.742 129.517C171.211 129.255 172.878 125.876 172.464 121.97C172.051 118.063 169.713 115.108 167.244 115.37C164.774 115.631 163.108 119.01 163.521 122.917C163.935 126.823 166.272 129.778 168.742 129.517Z" fill="white"/>
<g opacity="0.35">
<path d="M179.568 141.684C180.681 139.399 180.518 137.029 179.204 136.389C177.891 135.749 175.923 137.082 174.811 139.367C173.698 141.651 173.861 144.022 175.175 144.662C176.488 145.301 178.455 143.968 179.568 141.684Z" fill="white"/>
</g>
<g opacity="0.3">
<path d="M112.693 311.884C105.664 317.444 88.291 316.408 76.4188 302.41C71.6581 296.802 67.7856 283.189 65.8137 273.005L92.3767 248.917C93.934 260.073 99.6066 268.682 105.451 275.948C116.814 290.07 128.852 299.112 112.693 311.884Z" fill="#000072"/>
</g>
<g opacity="0.3">
<path d="M141.403 311.884C148.432 317.444 165.805 316.408 177.677 302.41C182.438 296.802 186.31 283.189 188.282 273.005L161.719 248.917C160.162 260.073 154.489 268.682 148.645 275.948C137.282 290.07 125.244 299.112 141.403 311.884Z" fill="#000072"/>
</g>
<path d="M112.693 301.818C105.664 307.378 88.291 306.342 76.4188 292.344C71.6581 286.737 67.7856 279.045 65.8137 268.86L92.3767 238.851C93.934 250.007 99.6066 258.616 105.451 265.882C116.814 280.004 128.852 289.046 112.693 301.818Z" fill="#FFC76C"/>
<path d="M112.693 301.818C105.664 307.378 88.2909 306.342 76.4188 292.344C78.1676 280.93 92.9096 267.232 105.451 265.882C116.814 280.004 128.852 289.046 112.693 301.818Z" fill="white"/>
<g opacity="0.3">
<path d="M112.694 301.816C105.666 307.376 88.2928 306.34 76.4205 292.342C72.4474 287.658 69.0899 281.524 66.9464 273.702C68.7288 277.503 70.8544 280.76 73.1875 283.507C85.0598 297.505 102.433 298.541 109.461 292.981C115.128 288.505 117.325 284.484 117.301 280.541C121.914 287.581 122.583 294 112.694 301.816Z" fill="#000072"/>
</g>
<path d="M94.1336 238.607C96.415 249.907 102.828 259.385 110.375 268.001C120.296 279.421 130.467 290.115 115.466 302.904C111.096 306.892 104.809 307.962 99.1123 307.404C80.1532 305.61 65.3811 287.537 64.6502 269.082C64.6096 267.752 66.4585 267.359 66.9572 268.586C68.0593 271.319 68.9472 274.049 70.0918 276.66C74.1043 286.929 81.1791 296.469 91.7561 300.387C97.6671 302.628 105.012 303.573 110.587 300.128C111.534 299.47 112.721 298.433 113.607 297.584C117.526 293.917 119.344 289.717 116.79 284.708C114.353 279.804 110.212 275.482 106.653 271.153C98.9423 262.152 91.4108 251.414 90.6149 239.099C90.4879 236.926 93.6465 236.443 94.1336 238.607Z" fill="#000072"/>
<path d="M141.403 301.818C148.432 307.378 165.805 306.342 177.677 292.344C182.438 286.737 186.31 279.045 188.282 268.86L161.719 238.851C160.162 250.007 154.489 258.616 148.645 265.882C137.282 280.004 125.244 289.046 141.403 301.818Z" fill="#FFC76C"/>
<path d="M141.403 301.818C148.432 307.378 165.805 306.342 177.677 292.344C175.928 280.93 161.186 267.232 148.645 265.882C137.282 280.004 125.244 289.046 141.403 301.818Z" fill="white"/>
<path d="M163.481 239.099C162.49 254.642 151.229 266.577 141.848 277.865C135.369 285.986 133.13 291.571 141.992 298.944C147.471 303.804 155.93 302.812 162.34 300.387C172.917 296.468 179.992 286.93 184.004 276.66C185.143 274.063 186.025 271.352 187.12 268.632C187.348 267.995 188.067 267.669 188.696 267.924C189.178 268.118 189.464 268.592 189.446 269.082C189.207 275.117 187.503 281.139 184.531 286.55C178.658 297.508 167.721 306.257 154.983 307.404C145.647 308.26 139.186 305.175 133.697 297.562C127.96 289.396 132.484 281.383 137.984 274.766C143.505 268.057 149.65 261.672 153.894 254.212C156.733 249.345 158.798 244.124 159.963 238.602C160.441 236.482 163.606 236.887 163.481 239.099Z" fill="#000072"/>
<path d="M143.515 153.808C143.515 153.808 143.254 159.753 141.093 165.769C140.631 167.06 139.992 168.179 139.228 169.132C134.852 174.562 126.266 174.562 121.89 169.132C121.126 168.179 120.487 167.06 120.025 165.769C117.87 159.753 117.603 153.808 117.603 153.808H143.515Z" fill="#000072"/>
<path d="M139.228 169.133C134.852 174.562 126.266 174.562 121.89 169.133C126.26 163.697 134.858 163.697 139.228 169.133Z" fill="#F27E80"/>
<path d="M130.56 175.635C124.738 175.635 119.703 172.084 117.733 166.589C115.479 160.3 115.182 154.171 115.171 153.914C115.111 152.571 116.151 151.433 117.494 151.374C118.83 151.329 119.974 152.354 120.034 153.697C120.037 153.751 120.317 159.372 122.316 164.946C123.854 169.238 127.583 170.768 130.56 170.768C133.537 170.768 137.266 169.238 138.804 164.946C140.803 159.372 141.083 153.751 141.086 153.695C141.148 152.353 142.281 151.306 143.628 151.375C144.97 151.436 146.009 152.572 145.949 153.914C145.937 154.172 145.641 160.3 143.387 166.589C141.417 172.084 136.382 175.635 130.56 175.635Z" fill="#000072"/>
<g opacity="0.25">
<path d="M147.57 156.63C147.57 156.63 144.584 164.462 137.596 162.654C129.64 160.596 130.72 156.768 130.376 156.768C130.032 156.768 131.258 160.596 123.302 162.654C116.313 164.462 113.328 156.63 113.328 156.63C113.328 156.63 113.185 137.221 130.377 137.221C147.57 137.221 147.57 156.63 147.57 156.63Z" fill="#6B184E"/>
</g>
<path d="M147.57 153.419C147.57 153.419 144.584 161.251 137.595 159.443C129.64 157.385 130.596 147.897 130.596 147.897H130.302C130.302 147.897 131.258 157.385 123.302 159.443C116.313 161.251 113.328 153.419 113.328 153.419C113.328 153.419 103.166 134.01 130.377 134.01C157.589 134.01 147.57 153.419 147.57 153.419Z" fill="white"/>
<g opacity="0.25">
<path d="M147.459 153.671C146.883 154.991 143.835 161.054 137.597 159.443C129.637 157.385 130.595 147.898 130.595 147.898H130.304C130.304 147.898 131.255 157.385 123.302 159.443C117.063 161.054 114.015 154.991 113.439 153.671C115.407 154.997 117.982 155.761 121.218 154.926C131.494 152.266 130.258 140.016 130.258 140.016H130.64C130.64 140.016 129.404 152.266 139.681 154.926C142.916 155.761 145.492 154.997 147.459 153.671Z" fill="#000072"/>
</g>
<path d="M114.434 152.997C116.408 156.309 119.615 159.03 123.596 157.436C127.504 156.212 128.973 151.666 129.129 147.913C129.164 147.26 129.723 146.759 130.376 146.794C131.788 146.91 131.565 148.7 131.658 149.684C131.686 151.607 131.422 153.493 130.631 155.309C129.398 158.448 126.243 160.881 122.858 161.367C118.66 162.238 114.565 159.366 112.915 155.652C112.484 154.695 111.494 152.885 113.024 152.372C113.6 152.201 114.172 152.494 114.434 152.997Z" fill="#000072"/>
<path d="M148.676 153.841C147.108 159.365 141.723 163.125 136.059 160.831C130.736 159.051 128.507 152.933 129.418 147.779C129.662 146.399 131.689 146.526 131.769 147.913C131.923 151.665 133.394 156.212 137.302 157.436C141.342 159.053 144.563 156.232 146.537 152.879C147.261 151.726 149.059 152.547 148.676 153.841Z" fill="#000072"/>
<path d="M140.032 141.718C140.032 143.962 137.104 147.151 134.417 148.498C131.606 149.907 128.457 149.907 125.646 148.498C122.959 147.151 120.031 143.962 120.031 141.718C120.031 137.662 140.032 137.662 140.032 141.718Z" fill="#000072"/>
<g opacity="0.5">
<path d="M133.997 141.597C133.997 142.244 132.836 142.815 131.771 143.204C130.656 143.61 129.407 143.61 128.293 143.204C127.227 142.815 126.067 142.244 126.067 141.597C126.066 139.645 133.997 139.645 133.997 141.597Z" fill="white"/>
</g>
<path d="M79.8955 84.4498C84.2553 80.1366 91.6583 79.1822 96.7217 82.8176C97.4323 83.2797 98.0284 83.8827 98.6553 84.4418C99.4303 85.1658 99.4715 86.3809 98.7475 87.1558C98.1563 87.7887 97.2377 87.9323 96.4985 87.5695C96.1178 87.3822 95.7227 87.1874 95.3595 86.9858C94.0422 86.2318 92.5838 85.7469 91.1014 85.5027C87.9528 85.0521 84.782 86.2032 81.9714 87.5833C80.0255 88.3867 78.4104 85.9066 79.8955 84.4498Z" fill="#000072"/>
<path d="M178.407 87.4251C173.639 84.9606 169.205 84.5848 164.533 87.4333C163.549 88.0566 162.207 87.7694 161.688 86.6929C160.846 84.9138 162.853 83.7534 164.033 82.8175C166.193 81.3257 168.856 80.4814 171.5 80.5603C175.029 80.6431 178.331 82.0238 180.859 84.4499C182.48 86.1851 180.429 88.5926 178.407 87.4251Z" fill="#000072"/>
<path d="M98.3924 298.081C100.59 299.781 103.37 301.072 106.133 301.451C107.062 301.607 107.98 301.578 108.878 301.54C112.315 301.559 112.069 306.601 108.641 306.278C105.119 305.862 101.84 304.31 99.1339 302.094C98.2552 301.369 97.4762 300.637 96.6869 299.725C96.2593 299.23 96.3135 298.483 96.808 298.055C97.2734 297.651 97.9524 297.685 98.3924 298.081Z" fill="#000072"/>
<path d="M105.304 289.348C108.784 291.786 113.06 293.938 117.382 293.76C120.801 293.727 120.647 298.743 117.23 298.494C113.195 298.031 109.642 296.064 106.533 293.624C105.54 292.835 104.626 292.036 103.708 291.099C103.25 290.631 103.258 289.88 103.726 289.422C104.162 288.994 104.843 288.977 105.304 289.348Z" fill="#000072"/>
<path d="M157.936 299.725C154.85 303.232 150.663 305.706 145.983 306.278C142.855 306.626 142.206 302.102 145.312 301.562C146.366 301.506 147.408 301.659 148.49 301.451C151.253 301.072 154.034 299.78 156.231 298.081C157.333 297.095 158.887 298.6 157.936 299.725Z" fill="#000072"/>
<path d="M150.915 291.098C147.199 294.763 142.712 297.84 137.393 298.494C134.264 298.774 133.714 294.246 136.825 293.773C139.025 293.86 141.275 293.468 143.381 292.611C145.462 291.785 147.566 290.625 149.37 289.311C150.537 288.472 151.912 290.071 150.915 291.098Z" fill="#000072"/>
<g opacity="0.3">
<path d="M141.405 301.816C148.433 307.376 165.806 306.34 177.678 292.342C181.652 287.658 185.009 281.524 187.153 273.702C185.37 277.503 183.245 280.76 180.911 283.507C169.039 297.505 151.666 298.541 144.638 292.981C138.971 288.505 136.774 284.484 136.798 280.541C132.185 287.581 131.516 294 141.405 301.816Z" fill="#000072"/>
</g>
<path d="M260.932 87.7592C257.202 83.9035 254.656 78.8426 253.976 73.104C252.327 59.1752 262.281 46.5465 276.21 44.897C290.138 43.2475 302.767 53.2017 304.417 67.1306C306.066 81.0593 296.112 93.688 282.183 95.3375C278.309 95.7962 274.536 95.3548 271.071 94.1823L260.178 99.3215L260.932 87.7592Z" fill="white"/>
<g opacity="0.5">
<path d="M276.784 49.7473C263.773 51.2881 254.232 62.41 254.376 75.2222C254.178 74.3492 254.018 73.4594 253.91 72.5501C252.261 58.6214 262.215 45.9928 276.144 44.3433C290.073 42.6938 302.701 52.648 304.351 66.5769C304.459 67.49 304.514 68.397 304.525 69.2961C301.677 56.798 289.8 48.2059 276.784 49.7473Z" fill="white"/>
</g>
<path d="M257.794 102.824L258.725 88.5478C254.892 84.3028 252.517 79.0708 251.84 73.3561C250.054 58.2725 260.872 44.5475 275.956 42.761C291.038 40.9684 304.766 51.7936 306.552 66.8779C308.339 81.9615 297.52 95.6865 282.436 97.473C278.627 97.924 274.859 97.5926 271.222 96.4891L257.794 102.824ZM279.213 46.8699C278.304 46.8699 277.387 46.923 276.462 47.0323C263.734 48.5399 254.604 60.1219 256.111 72.8508C256.715 77.9435 258.916 82.5816 262.477 86.2639L263.14 86.9486L262.562 95.8183L270.938 91.8663L271.761 92.1446C275.046 93.2566 278.466 93.6113 281.93 93.2018C294.659 91.6943 303.788 80.1121 302.281 67.3833C300.883 55.579 290.819 46.8699 279.213 46.8699Z" fill="#000072"/>
<g opacity="0.3">
<path d="M260.739 87.5522C268.813 91.7746 278.727 92.1958 287.497 87.8061C297.222 82.9377 303.055 73.3967 303.654 63.2676C304.002 64.515 304.259 65.8044 304.417 67.1304C306.066 81.0592 296.112 93.6878 282.183 95.3373C278.309 95.7962 274.536 95.3547 271.071 94.1822L260.178 99.3213L260.932 87.7591C260.866 87.6915 260.804 87.6206 260.739 87.5522Z" fill="#000072"/>
</g>
<path d="M271.165 62.9851C273.362 60.7873 276.926 61.1811 279.124 63.379L279.466 63.7211L279.808 63.379C282.006 61.1811 285.569 60.7874 287.767 62.9851C289.965 65.183 289.965 68.7464 287.767 70.9443L287.425 71.2864L280.515 78.1964C279.936 78.7758 278.996 78.7758 278.417 78.1964L271.507 71.2864L271.165 70.9443C268.967 68.7464 268.967 65.1829 271.165 62.9851Z" fill="#FF0068"/>
</svg>
