<svg width="361" height="341" viewBox="0 0 361 341" fill="none" xmlns="http://www.w3.org/2000/svg">
<path d="M297.373 251.877C297.005 270.34 296.591 288.386 295.315 306.289C295.092 309.528 294.837 312.764 294.543 315.996C294.103 320.88 293.381 326.199 289.827 329.58C285.544 333.647 278.518 333.119 273.495 329.857C272.72 329.354 271.995 328.783 271.331 328.156C266.382 323.466 264.31 316.525 263.053 309.816C261.795 303.113 261.103 296.168 258.132 290.024C269.98 276.366 283.679 264.122 297.373 251.877Z" fill="white"/>
<g opacity="0.25">
<path d="M297.373 251.877C297.005 270.34 296.591 288.386 295.315 306.289C289.892 307.768 284.869 310.735 281.035 314.851C277.17 319.001 274.557 324.283 273.495 329.857C272.72 329.354 271.995 328.783 271.331 328.156C266.382 323.466 264.31 316.525 263.053 309.817C261.795 303.113 261.103 296.168 258.132 290.024C269.98 276.366 283.679 264.122 297.373 251.877Z" fill="#000072"/>
</g>
<path d="M90.6324 199.288C67.4393 194.481 48.0749 174.745 43.7124 151.463C39.344 128.181 50.2419 102.772 70.1215 89.8849C83.6131 81.1423 100.331 78.1262 116.345 79.6061C131.98 81.0543 147.015 86.5634 160.914 93.8819C161.251 94.0554 161.59 94.2351 161.922 94.4146C162.685 93.7752 163.455 93.162 164.244 92.5805C164.331 92.5055 164.423 92.4411 164.517 92.3768C169.164 88.9551 174.212 86.5404 179.678 85.7079C186.171 84.7142 193.488 86.4009 197.547 91.5648C201.797 96.9863 201.501 104.584 200.824 111.435C199.476 124.977 197.416 138.446 194.665 151.767C194.569 152.24 194.467 152.718 194.371 153.196C191.299 167.658 186.818 182.549 176.145 192.704C163.934 204.321 145.829 207.48 128.998 206.632" fill="white"/>
<path d="M85.3299 251.602C67.1393 253.452 49.5013 256.531 31.8584 259.61C29.828 259.968 27.7917 260.32 25.7475 260.62C21.3497 261.257 16.9308 261.633 12.5293 261.175C9.51592 260.865 6.32243 260.033 4.39611 257.699C2.28003 255.142 2.25099 251.347 3.46514 248.256C5.85618 242.176 12.0389 238.575 17.9032 235.69C36.2117 226.688 55.5922 220.09 74.909 213.516C77.0776 222.905 79.7469 232.991 82.7586 243.154C83.5911 245.968 84.4499 248.791 85.3299 251.602Z" fill="white"/>
<path d="M85.332 251.603C67.1414 253.453 49.5039 256.532 31.8606 259.611C29.8302 259.969 27.7946 260.322 25.7502 260.621C21.3518 261.259 16.9337 261.635 12.532 261.177C9.51864 260.865 6.32465 260.034 4.39833 257.701C2.28225 255.143 2.25321 251.348 3.46723 248.257C4.08636 246.686 4.95622 245.278 6.01647 244.009C9.0346 240.364 13.5557 237.829 17.9054 235.691C29.2745 230.103 41.0503 225.441 52.9697 221.137C60.2502 218.509 67.5863 216.013 74.9119 213.517C77.0799 222.907 79.7492 232.992 82.7616 243.155C83.5933 245.969 84.4519 248.792 85.332 251.603Z" fill="white"/>
<path d="M85.3301 251.602C67.1395 253.452 49.5015 256.531 31.8586 259.61C29.8282 259.968 27.7919 260.32 25.7477 260.619C25.3467 257.636 25.5761 254.504 26.5216 251.61C28.4212 245.762 33.0431 240.961 38.6426 238.414C44.2363 235.872 50.7121 235.513 56.6795 236.971C61.7649 238.216 66.4598 240.708 71.4708 242.247C75.0994 243.366 79.1045 243.926 82.7588 243.153C83.5913 245.968 84.45 248.791 85.3301 251.602Z" fill="#FFAA00"/>
<path d="M9.89486 260.817C9.69349 257.821 10.4988 254.949 11.9303 252.565C13.3627 250.181 15.4617 248.231 17.9442 247.113C18.648 246.795 19.4757 247.109 19.7931 247.812C20.0759 248.44 19.8574 249.166 19.3079 249.541L19.2821 249.558C17.5475 250.744 16.2577 252.488 15.54 254.381C14.8174 256.275 14.6777 258.325 15.1387 260.089C15.5107 261.513 14.6583 262.968 13.2347 263.34C11.8113 263.712 10.3557 262.86 9.98361 261.436C9.9417 261.276 9.91532 261.115 9.90357 260.956L9.89486 260.817Z" fill="#000072"/>
<g opacity="0.25">
<path d="M85.332 251.603C67.1414 253.453 49.5039 256.532 31.8606 259.611C29.8302 259.969 27.7946 260.322 25.7502 260.621C21.3518 261.259 16.9337 261.635 12.532 261.177C9.51864 260.865 6.32465 260.034 4.39833 257.701C2.28225 255.143 2.25321 251.348 3.46723 248.257C4.08636 246.686 4.95622 245.278 6.01647 244.009C7.2171 245.385 8.76291 246.5 10.4347 247.199C14.378 248.847 18.8488 248.635 23.0735 247.964C31.4372 246.638 39.7815 243.467 45.7182 237.426C49.9751 233.098 52.7585 227.119 52.9696 221.137C60.2501 218.509 67.5862 216.013 74.9117 213.517C77.0798 222.907 79.7491 232.992 82.7614 243.155C83.5933 245.969 84.4519 248.792 85.332 251.603Z" fill="#000072"/>
</g>
<path d="M16.5965 264.024C15.179 264.024 13.7244 263.961 12.2558 263.808C7.66078 263.334 4.42158 261.887 2.35487 259.384C-0.197274 256.299 -0.716661 251.663 1.0011 247.288C3.67318 240.494 10.1422 236.557 16.7352 233.314C35.2119 224.23 54.9592 217.509 74.0563 211.009C74.7646 210.768 75.5423 210.838 76.1966 211.202C76.8507 211.566 77.3197 212.19 77.4884 212.92C79.6648 222.342 82.2918 232.261 85.2967 242.401C86.1345 245.232 86.9954 248.062 87.8562 250.811C88.0938 251.57 87.9776 252.396 87.5397 253.059C87.102 253.723 86.3888 254.156 85.5978 254.236C67.5129 256.074 49.636 259.194 32.3478 262.211C30.3418 262.565 28.2368 262.93 26.1309 263.238C23.4435 263.628 20.1374 264.024 16.5965 264.024ZM72.9984 216.962C54.9255 223.12 36.3582 229.566 19.0713 238.065C13.4344 240.838 7.94055 244.109 5.92838 249.225C4.92999 251.768 5.12884 254.432 6.43578 256.012C7.5743 257.391 9.65578 258.218 12.8009 258.542C16.3581 258.91 20.2335 258.744 25.3677 257.999C27.4002 257.702 29.4619 257.344 31.3991 257.003C47.7949 254.141 64.6823 251.194 81.8482 249.309C81.3001 247.521 80.7555 245.713 80.2204 243.904C77.4865 234.679 75.0611 225.63 72.9984 216.962Z" fill="#000072"/>
<path d="M355.658 321.497C355.162 322.152 354.599 322.748 353.984 323.277C350.847 326.01 346.387 327.155 342.191 326.778C337.188 326.321 332.523 323.965 328.406 321.067C315.806 312.186 307.355 297.633 305.886 282.28C305.873 282.181 305.866 282.082 305.86 281.976C304.861 270.964 307.217 259.866 306.396 248.841C305.218 233.071 297.733 218.724 289.441 205.104C287.906 202.59 286.351 200.101 284.802 197.633C283.068 194.887 281.123 191.948 278.065 189.526C296.529 193.159 312.729 206.713 319.572 224.236C320.386 226.314 321.067 228.425 321.663 230.57C323.801 238.292 324.734 246.36 326.104 254.288C326.964 259.264 328.042 264.287 329.67 269.078C331.345 274.028 333.608 278.72 336.831 282.83C340.047 286.953 344.11 290.334 347.869 293.968C349.888 295.92 351.853 297.984 353.527 300.241C354.97 302.187 356.208 304.265 357.061 306.535C358.934 311.418 358.822 317.328 355.658 321.497Z" fill="white"/>
<path d="M355.656 321.494C352.604 325.501 347.205 327.226 342.192 326.777C337.184 326.322 332.523 323.963 328.407 321.068C315.803 312.183 307.355 297.633 305.883 282.282C305.872 282.18 305.866 282.079 305.854 281.977C305.835 280.32 305.89 278.652 306.031 276.991C306.434 272.104 307.658 267.03 311.002 263.436C314.34 259.842 320.278 258.326 324.283 261.158C326.778 262.921 328.048 265.893 329.427 268.617C329.507 268.774 329.585 268.925 329.669 269.075C331.342 274.026 333.607 278.718 336.827 282.829C340.047 286.951 344.106 290.332 347.867 293.967C351.629 297.602 355.199 301.645 357.062 306.531C358.93 311.417 358.821 317.329 355.656 321.494Z" fill="#FFAA00"/>
<g opacity="0.6">
<path d="M355.658 321.497C355.162 322.152 354.6 322.748 353.984 323.277C354.474 318.592 353.693 313.774 351.569 309.572C346.01 298.586 333.032 292.928 327.288 282.042C323.821 275.471 323.41 267.754 323.212 260.323C322.987 252.077 322.921 243.818 322.199 235.599C322.047 233.918 321.875 232.244 321.663 230.569C323.801 238.292 324.734 246.359 326.104 254.287C326.964 259.264 328.043 264.287 329.67 269.078C331.345 274.028 333.608 278.72 336.831 282.83C340.047 286.952 344.11 290.334 347.869 293.967C349.888 295.919 351.853 297.984 353.527 300.241C354.97 302.187 356.208 304.264 357.061 306.534C358.934 311.418 358.822 317.328 355.658 321.497Z" fill="white"/>
</g>
<g opacity="0.25">
<path d="M355.658 321.494C352.606 325.502 347.207 327.227 342.194 326.777C337.186 326.323 332.526 323.963 328.409 321.069C315.806 312.184 307.357 297.634 305.885 282.283C305.873 282.182 305.868 282.08 305.857 281.978C304.858 270.965 307.22 259.867 306.397 248.839C305.217 233.074 297.736 218.726 289.441 205.102C290.944 203.39 292.529 201.72 294.203 200.101C303.494 208.439 308.253 220.783 310.505 233.067C312.752 245.346 312.816 257.926 314.446 270.305C316.081 282.683 319.506 295.276 327.449 304.91C330.477 308.581 334.282 311.843 338.883 313.067C343.483 314.286 348.952 313.04 351.728 309.172C353.548 306.636 353.989 303.357 353.526 300.243C354.969 302.185 356.205 304.267 357.064 306.532C358.932 311.418 358.824 317.329 355.658 321.494Z" fill="#000072"/>
</g>
<path d="M343.787 329.495C343.18 329.495 342.57 329.468 341.956 329.413C337.1 328.973 332.171 326.951 326.884 323.233C313.631 313.891 304.796 298.678 303.247 282.535C303.243 282.501 303.236 282.424 303.23 282.347L303.223 282.265C302.686 276.356 303.072 270.479 303.446 264.794C303.788 259.594 304.141 254.216 303.755 249.035C302.376 230.575 291.847 213.823 282.557 199.044C280.854 196.334 279.103 193.726 276.421 191.602C275.463 190.843 275.149 189.528 275.661 188.418C276.173 187.309 277.376 186.693 278.576 186.93C297.831 190.718 314.891 204.982 322.036 223.269C325.102 231.112 326.415 239.455 327.685 247.523C328.011 249.598 328.349 251.744 328.71 253.834C329.718 259.673 330.819 264.244 332.174 268.222C333.925 273.402 336.127 277.644 338.91 281.197C341.171 284.091 343.864 286.595 346.715 289.246C347.719 290.18 348.722 291.113 349.706 292.064C353.364 295.599 357.393 299.97 359.535 305.588C361.915 311.816 361.237 318.525 357.763 323.095C357.762 323.095 357.762 323.096 357.761 323.097C354.691 327.13 349.452 329.495 343.787 329.495ZM285.967 194.558C286.337 195.116 286.692 195.674 287.04 196.226C296.657 211.528 307.558 228.87 309.034 248.641C309.448 254.192 309.082 259.758 308.729 265.141C308.352 270.875 307.996 276.29 308.49 281.738L308.513 281.988C309.921 296.656 317.926 310.441 329.932 318.904C334.438 322.073 338.527 323.786 342.431 324.141C346.911 324.539 351.278 322.874 353.55 319.89C355.887 316.813 356.296 311.941 354.589 307.476C352.816 302.827 349.266 299.001 346.028 295.871C345.068 294.944 344.089 294.033 343.109 293.123C340.233 290.448 337.258 287.682 334.74 284.458C331.584 280.429 329.104 275.673 327.161 269.923C325.716 265.682 324.55 260.854 323.493 254.734C323.126 252.606 322.785 250.441 322.455 248.346C321.229 240.557 319.962 232.503 317.105 225.196C311.667 211.278 299.918 199.919 285.967 194.558Z" fill="#000072"/>
<path d="M282.137 335.099C278.545 335.099 274.917 333.937 272.053 332.077C271.146 331.488 270.291 330.816 269.512 330.079C263.741 324.611 261.638 316.639 260.451 310.304C260.195 308.943 259.963 307.571 259.73 306.199C258.82 300.824 257.959 295.747 255.749 291.176C255.289 290.224 255.44 289.089 256.133 288.289C268.076 274.521 282.047 262.03 295.558 249.951L295.609 249.905C296.395 249.203 297.522 249.033 298.479 249.472C299.436 249.912 300.041 250.877 300.02 251.931C299.633 271.361 299.21 288.876 297.956 306.477C297.726 309.821 297.464 313.107 297.18 316.236C296.702 321.529 295.841 327.513 291.651 331.498C288.98 334.035 285.575 335.099 282.137 335.099ZM261.243 290.488C263.249 295.277 264.112 300.371 264.95 305.314C265.178 306.656 265.404 307.997 265.654 309.328C266.695 314.878 268.487 321.814 273.152 326.234C273.697 326.749 274.298 327.222 274.937 327.637C278.801 330.145 284.53 330.96 288.004 327.66C290.86 324.944 291.498 320.291 291.907 315.758C292.188 312.665 292.446 309.419 292.675 306.107C293.788 290.476 294.243 274.874 294.602 257.91C283.066 268.257 271.405 278.964 261.243 290.488Z" fill="#000072"/>
<path d="M290.509 328.841C289.671 328.565 288.875 328.146 288.199 327.623C287.521 327.102 286.966 326.487 286.531 325.846C285.659 324.556 285.238 323.194 285.013 321.891C284.902 321.244 285.336 320.628 285.983 320.516C286.465 320.434 286.929 320.653 287.181 321.038L287.21 321.084C287.81 322.004 288.541 322.779 289.304 323.224C290.074 323.678 290.802 323.764 291.456 323.632C292.975 323.326 294.454 324.309 294.76 325.828C295.066 327.347 294.083 328.826 292.565 329.132C292.075 329.23 291.589 329.195 291.146 329.051L290.509 328.841Z" fill="#000072"/>
<path d="M275.816 332.877C274.789 331.254 274.335 329.452 274.332 327.734C274.331 326.014 274.787 324.344 275.649 322.962C275.996 322.406 276.728 322.236 277.285 322.583C277.715 322.851 277.914 323.348 277.823 323.817L277.808 323.891C277.583 325.033 277.723 326.193 278.115 327.186C278.505 328.182 279.156 329.004 279.887 329.493C281.145 330.336 281.481 332.04 280.638 333.298C279.795 334.556 278.092 334.892 276.834 334.049C276.51 333.832 276.247 333.558 276.05 333.249L275.816 332.877Z" fill="#000072"/>
<path d="M306.238 242.042C304.646 264.061 293.83 284.439 280.724 302.202C271.645 314.519 261.065 326.182 247.546 333.349C242.466 336.034 236.773 338.093 231.064 337.39C225.361 336.683 219.782 332.561 218.951 326.874C217.542 317.237 229.393 307.777 224.778 299.19C198.643 304.727 171.226 305.735 145.113 300.316C133.98 302.819 122.799 304.876 111.591 306.442C87.9696 309.749 64.2518 310.891 40.706 309.487C38.605 309.363 36.5038 309.219 34.4027 309.052C31.7597 308.843 29.0588 308.586 26.6575 307.444C18.4884 303.569 18.2103 290.984 24.1491 284.161C24.1544 284.15 24.1593 284.145 24.1706 284.134C30.1308 277.327 39.7085 275.086 48.7031 274.057C57.6917 273.028 67.0925 272.744 75.1057 268.531C55.4722 251.299 53.704 219.787 66.8621 197.356C80.0321 174.92 105.459 161.45 131.294 158.422C141.913 157.167 152.359 158.234 162.747 160.308C171.853 162.131 180.912 164.736 190.002 167.249C195.759 168.841 201.526 170.39 207.32 171.682C232.705 177.353 247.337 175.659 261.461 178.586C267.255 179.781 272.969 181.764 279.299 185.35C283.555 187.762 287.323 190.806 290.593 194.322C300.224 204.662 305.562 219.107 306.313 233.595C306.463 236.42 306.442 239.244 306.238 242.042Z" fill="white"/>
<path d="M111.589 306.442C87.9683 309.75 64.2499 310.89 40.7031 309.485C44.8839 301.843 51.3726 295.422 59.3461 291.955C68.6605 287.912 79.9803 288.237 88.5938 293.63C91.9732 295.746 94.9046 298.569 98.4737 300.34C101.613 301.901 105.12 302.587 108.248 304.153C109.425 304.746 110.57 305.518 111.589 306.442Z" fill="#FFAA00"/>
<path d="M261.458 178.583C261.412 179.369 261.317 180.153 261.184 180.928C260.084 187.24 255.883 193.122 249.918 195.466C243.286 198.072 235.858 196.139 228.732 195.918C220.019 195.653 211.242 198.103 203.927 202.837C197.91 206.735 192.699 212.213 185.819 214.243C176.776 216.918 166.531 212.58 160.897 205.015C155.269 197.45 153.868 187.291 155.669 178.035C156.893 171.748 159.46 165.83 162.742 160.306C177.617 163.285 192.369 168.348 207.318 171.682C232.703 177.352 247.337 175.658 261.458 178.583Z" fill="#FFAA00"/>
<g opacity="0.6">
<path d="M290.592 194.323C275.493 185.398 257.414 183.335 239.919 182.07C222.403 180.81 204.431 180.065 188.228 173.29C188.699 171.216 189.284 169.201 190.002 167.25C195.758 168.841 201.526 170.39 207.32 171.682C232.705 177.353 247.337 175.659 261.461 178.586C267.255 179.781 272.969 181.764 279.299 185.35C283.555 187.762 287.323 190.807 290.592 194.323Z" fill="white"/>
</g>
<path d="M253.349 289.597C253.257 295.337 248.734 300.265 243.45 302.505C238.172 304.739 232.248 304.798 226.515 304.616C226.053 298.881 222.126 294.134 218.943 289.344C217.139 286.629 215.215 283.765 213.42 280.818C210.648 274.775 208.944 268.156 209.42 261.536C210.002 253.396 214.022 245.559 220.284 240.332C221.447 239.364 222.68 238.488 223.972 237.711C230.446 235.726 237.817 236.567 243.354 240.449C249.707 244.902 253.139 253.392 251.081 260.875C250.218 264.017 248.474 266.941 248.204 270.194C247.643 276.925 253.457 282.843 253.349 289.597Z" fill="#FFAA00"/>
<path d="M233.343 340.174C232.462 340.174 231.596 340.121 230.742 340.017C224.388 339.231 217.399 334.595 216.329 327.253C215.571 322.075 217.958 317.129 220.064 312.766C221.969 308.821 223.657 305.324 223.08 302.244C196.136 307.664 169.249 307.936 145.134 303.021C134.035 305.502 122.875 307.535 111.956 309.063C87.6232 312.471 63.5959 313.503 40.5457 312.127C38.5728 312.013 36.4934 311.87 34.1943 311.689C31.1801 311.451 28.2489 311.13 25.5187 309.833C21.54 307.947 18.8009 304.273 17.8081 299.49C16.574 293.547 18.289 286.834 22.177 282.39C29.039 274.546 39.794 272.41 48.3972 271.427C49.8643 271.258 51.342 271.11 52.823 270.962C59.0692 270.336 65.031 269.737 70.4296 267.719C62.3578 259.314 57.2922 247.901 56.0496 235.148C54.7239 221.546 57.7528 207.648 64.5789 196.014C77.3777 174.204 102.201 159.167 130.983 155.79C140.713 154.644 150.971 155.254 163.26 157.71C171.432 159.346 179.663 161.631 187.622 163.84C194.262 165.684 201.128 167.589 207.894 169.098C222.59 172.381 233.508 173.154 243.14 173.836C250.031 174.324 255.982 174.745 261.994 175.99C268.606 177.358 274.519 179.599 280.602 183.045C299.31 193.64 310.673 217.424 308.877 242.23C307.459 261.827 298.947 281.958 282.854 303.774C275.658 313.534 264.296 327.462 248.786 335.684C243.101 338.694 238.02 340.174 233.343 340.174ZM224.777 296.544C225.737 296.544 226.64 297.067 227.108 297.937C230.265 303.812 227.379 309.792 224.832 315.068C222.885 319.103 221.045 322.915 221.567 326.488C222.248 331.158 227.136 334.236 231.389 334.762C235.663 335.289 240.543 334.057 246.308 331.006C260.861 323.29 271.704 309.975 278.593 300.632C294.074 279.645 302.253 260.417 303.596 241.848C305.248 219.04 294.959 197.26 277.993 187.652C272.403 184.486 266.978 182.427 260.921 181.175C255.255 180.001 249.468 179.591 242.766 179.117C232.949 178.422 221.822 177.634 206.74 174.266C199.843 172.727 192.91 170.803 186.206 168.942C178.338 166.758 170.203 164.5 162.222 162.902C150.495 160.558 140.764 159.97 131.601 161.048C104.456 164.234 81.1087 178.307 69.1448 198.693C55.8781 221.305 59.2619 251.106 76.8484 266.539C77.5034 267.114 77.8335 267.975 77.7309 268.84C77.6285 269.706 77.1061 270.466 76.3349 270.871C69.164 274.644 61.1255 275.45 53.3514 276.23C51.8949 276.376 50.4417 276.522 48.9989 276.686C41.3431 277.562 31.8285 279.399 26.1617 285.876C23.3706 289.066 22.0968 294.105 22.9915 298.414C23.3666 300.221 24.4888 303.485 27.7888 305.05C29.709 305.962 32.014 306.206 34.6102 306.41C36.8722 306.589 38.9152 306.73 40.8558 306.842C63.5638 308.196 87.2364 307.18 111.222 303.819C122.181 302.286 133.387 300.238 144.529 297.731C144.898 297.648 145.279 297.645 145.648 297.722C169.863 302.746 197.036 302.359 224.228 296.601C224.411 296.562 224.595 296.544 224.777 296.544Z" fill="#000072"/>
<path d="M141.551 298.358C143.535 298.274 145.514 297.488 147.227 296.169C148.931 294.849 150.398 293.073 151.403 291.079C152.403 289.094 153.032 286.777 153.355 284.408C153.689 282.025 153.757 279.534 153.686 277.001C153.612 274.467 153.431 271.87 153.211 269.306C152.979 266.737 152.696 264.171 152.374 261.608C151.732 256.479 150.925 251.365 150.057 246.225C149.941 245.544 150.398 244.897 151.079 244.78C151.687 244.676 152.268 245.033 152.469 245.594C154.245 250.585 155.578 255.734 156.564 260.949C157.056 263.557 157.461 266.183 157.779 268.82C158.1 271.463 158.377 274.084 158.553 276.779C158.714 279.473 158.779 282.239 158.445 285.054C158.103 287.869 157.426 290.696 156.119 293.418C154.813 296.118 152.92 298.537 150.475 300.409C149.254 301.344 147.891 302.138 146.406 302.711C144.926 303.289 143.314 303.612 141.69 303.65C140.228 303.684 139.016 302.527 138.982 301.065C138.948 299.621 140.077 298.421 141.513 298.359L141.551 298.358Z" fill="#000072"/>
<path d="M240.418 337.229C237.197 333.528 235.969 328.653 236.773 324.271C236.895 323.603 237.537 323.16 238.205 323.283C238.777 323.388 239.184 323.873 239.212 324.43L239.213 324.458C239.401 328.142 241.374 331.53 244.045 333.372C245.261 334.211 245.567 335.878 244.728 337.094C243.888 338.311 242.222 338.616 241.006 337.777C240.821 337.649 240.657 337.503 240.515 337.342L240.418 337.229Z" fill="#000072"/>
<path d="M224.122 336.652C222.997 334.356 222.544 331.883 222.651 329.517C222.759 327.151 223.433 324.866 224.604 322.935C224.877 322.483 225.466 322.339 225.917 322.613C226.292 322.84 226.456 323.285 226.343 323.688L226.337 323.707C225.295 327.421 226.366 331.41 228.587 333.807C229.595 334.896 229.53 336.597 228.442 337.605C227.353 338.614 225.652 338.549 224.644 337.46C224.464 337.266 224.319 337.053 224.207 336.828L224.122 336.652Z" fill="#000072"/>
<path d="M27.8732 308.853C27.5303 305.695 28.209 302.605 29.5669 299.97C30.9256 297.333 32.9965 295.103 35.5221 293.683C36.1658 293.321 36.9808 293.549 37.3427 294.193C37.6668 294.769 37.5174 295.483 37.0205 295.886L37.0017 295.901C35.1926 297.369 33.902 299.386 33.2294 301.528C32.5524 303.671 32.5025 305.948 33.0838 307.916C33.5003 309.326 32.6949 310.806 31.2851 311.223C29.8752 311.639 28.3945 310.834 27.978 309.424C27.9335 309.274 27.9031 309.123 27.8857 308.972L27.8732 308.853Z" fill="#000072"/>
<path d="M147.481 92.8837C127.885 102.77 105.585 103.721 85.1526 97.9081C85.2523 94.6702 85.666 91.4788 86.3585 88.3798C86.6196 87.2156 86.9245 86.0604 87.2617 84.9242C90.3533 74.558 96.6551 65.4203 105.109 58.9943C106.812 57.7058 108.612 56.5073 110.511 55.5344C112.258 54.635 114.09 53.9184 116.004 53.4816C117.705 53.0947 119.479 52.9451 121.22 53.0656C123.581 53.2372 125.88 53.9109 127.864 55.1936C131.549 57.576 133.706 61.6887 135.366 65.7495C139.13 74.9622 141.291 85.0931 147.481 92.8837Z" fill="white"/>
<g opacity="0.25">
<path d="M147.481 92.8842C127.885 102.77 105.585 103.721 85.1526 97.9085C85.2523 94.6706 85.666 91.4792 86.3585 88.3802C97.0924 88.8841 108.006 85.9522 116.883 79.8836C121.745 76.5614 126.242 71.9133 127.053 66.0848C127.656 61.7074 125.942 57.0752 122.635 54.1503C122.188 53.7569 121.716 53.3918 121.22 53.0659C123.581 53.2375 125.88 53.9112 127.864 55.1939C131.549 57.5763 133.706 61.689 135.366 65.7498C139.13 74.9626 141.291 85.0935 147.481 92.8842Z" fill="#000072"/>
</g>
<path d="M94.3813 83.4102C96.1823 75.8098 100.87 68.9313 107.285 64.4745C108.855 63.3843 110.921 62.4174 112.596 63.3388C113.915 64.0646 114.425 65.6757 114.762 67.1434C116.074 72.8656 116.517 78.7858 116.547 85.6604C109.906 86.1898 103.201 85.9046 94.3813 83.4102Z" fill="#F0A3A3"/>
<path d="M111.22 87.5352C105.44 87.5352 100.027 86.7264 93.9308 85.0022C93.0783 84.7612 92.5669 83.8911 92.7712 83.0287C94.6613 75.0523 99.6074 67.7942 106.341 63.1159C109.732 60.7611 112.048 61.1491 113.393 61.8891C115.27 62.922 115.953 64.9378 116.374 66.7736C117.605 72.1414 118.168 77.9642 118.201 85.6532C118.205 86.5186 117.541 87.2405 116.678 87.3096C114.804 87.4591 112.994 87.5352 111.22 87.5352ZM96.4025 82.2453C102.799 83.9119 108.483 84.488 114.878 84.1172C114.782 77.4431 114.24 72.2711 113.149 67.5129C112.892 66.3916 112.531 65.1911 111.798 64.7882C110.797 64.2365 109.132 65.2062 108.229 65.8334C102.594 69.748 98.3477 75.6655 96.4025 82.2453Z" fill="#000072"/>
<path d="M70.5261 267.29L90.5577 260.277C93.8858 259.08 97.2266 257.912 100.545 256.678C102.21 256.076 103.892 255.514 105.598 255.006C107.303 254.494 109.026 254.02 110.814 253.687L110.819 253.686C111.596 253.541 112.344 254.054 112.489 254.831C112.594 255.394 112.353 255.941 111.918 256.255C110.434 257.325 108.877 258.238 107.294 259.093C105.71 259.946 104.094 260.728 102.454 261.452C99.1606 262.863 95.8553 264.255 92.506 265.533C89.1647 266.833 85.7918 268.051 82.3935 269.194C78.9975 270.342 75.5706 271.401 72.1101 272.341L72.0957 272.345C70.6842 272.729 69.229 271.896 68.8452 270.484C68.4794 269.137 69.2307 267.747 70.5261 267.29Z" fill="#000072"/>
<path d="M98.31 259.139C98.9929 256.728 99.3418 254.196 99.432 251.608C99.5255 249.019 99.3752 246.381 99.1475 243.728C99.0958 243.133 99.5355 242.61 100.13 242.558C100.683 242.51 101.175 242.889 101.282 243.421C101.814 246.071 102.281 248.767 102.495 251.54C102.711 254.308 102.654 257.158 102.189 259.986L102.186 260.004C102.008 261.088 100.985 261.822 99.9012 261.644C98.8173 261.466 98.0829 260.442 98.261 259.359C98.2733 259.284 98.29 259.21 98.31 259.139Z" fill="#000072"/>
<path d="M109.39 104.205C100.789 104.205 92.0294 102.982 83.3559 100.514C82.189 100.183 81.3971 99.0997 81.4344 97.8871C81.5761 93.2733 82.3227 88.6773 83.6533 84.2265C86.8866 73.384 93.5566 63.6954 102.435 56.9471C104.469 55.4079 106.363 54.1959 108.231 53.2388C110.274 52.1871 112.332 51.4199 114.343 50.961C119.371 49.8165 124.432 50.572 128.231 53.0316C132.688 55.9142 135.122 60.8393 136.744 64.8081C137.838 67.4881 138.805 70.256 139.74 72.9327C142.099 79.6884 144.328 86.0694 148.481 91.2971C148.976 91.9204 149.165 92.7335 148.994 93.5112C148.823 94.2889 148.312 94.9484 147.601 95.3072C135.894 101.213 122.839 104.205 109.39 104.205ZM86.8351 95.9758C106.061 100.984 125.598 99.5518 142.409 91.9242C138.902 86.5915 136.792 80.55 134.742 74.6782C133.829 72.0653 132.885 69.3631 131.843 66.8104C130.431 63.357 128.556 59.5474 125.354 57.4766C122.745 55.7873 119.161 55.2946 115.519 56.1228C113.942 56.4829 112.303 57.0971 110.649 57.9482C109.054 58.7656 107.415 59.8173 105.634 61.1651C97.6475 67.236 91.6414 75.9651 88.7259 85.7407C87.7265 89.0853 87.0925 92.5193 86.8351 95.9758Z" fill="#000072"/>
<path d="M242.979 234.43C235.683 234.601 228.709 236.849 223.13 241.03C217.614 245.219 213.777 251.563 212.504 258.315C211.865 261.682 211.882 265.162 212.436 268.606C213.008 272.048 214.079 275.44 215.501 278.713C215.869 279.552 216.242 280.342 216.628 281.143C217.037 281.962 217.453 282.769 217.878 283.57C218.73 285.172 219.641 286.74 220.608 288.284C222.544 291.369 224.718 294.369 226.893 297.431C227.74 298.623 227.461 300.276 226.269 301.123C225.103 301.951 223.497 301.702 222.634 300.575L222.627 300.566C218.068 294.596 213.55 288.137 210.441 280.905C208.868 277.28 207.679 273.432 207.079 269.437C206.478 265.452 206.508 261.289 207.377 257.279C209.054 249.27 213.78 242.026 220.417 237.312C223.722 234.965 227.484 233.315 231.39 232.439C235.299 231.605 239.371 231.531 243.196 232.431C243.741 232.56 244.078 233.105 243.95 233.65C243.842 234.108 243.438 234.42 242.989 234.431L242.979 234.43Z" fill="#000072"/>
<path d="M200.826 111.437C199.478 124.978 197.418 138.448 194.668 151.769C194.571 152.242 194.469 152.72 194.373 153.198C193.311 158.198 192.08 163.25 190.485 168.135C187.465 177.386 183.128 186.063 176.147 192.705C166.243 202.128 152.456 205.986 138.622 206.653C135.399 206.81 132.177 206.795 129 206.633L90.6345 199.289C88.4616 198.839 86.3181 198.258 84.2219 197.551C84.2116 197.551 84.2058 197.546 84.1945 197.542C74.6376 194.335 65.9722 188.596 59.0767 181.216C51.33 172.945 45.806 162.614 43.7144 151.465C43.6903 151.321 43.6609 151.183 43.6362 151.039C39.4795 127.875 50.3629 102.697 70.1234 89.8866C83.6155 81.1434 100.333 78.1274 116.347 79.6078C131.983 81.0561 147.018 86.5651 160.916 93.883C161.254 94.0572 161.592 94.2368 161.924 94.4163C162.688 93.7768 163.457 93.1636 164.246 92.5821C164.333 92.5071 164.426 92.4428 164.519 92.3785C169.166 88.9566 174.214 86.5419 179.681 85.7091C186.174 84.7159 193.49 86.4027 197.549 91.5665C198.122 92.2959 198.612 93.0678 199.028 93.8766C201.712 99.0274 201.411 105.508 200.826 111.437Z" fill="white"/>
<path d="M133.313 181.593C133.194 181.675 133.081 181.762 132.962 181.838C127.515 185.645 120.902 187.444 114.212 187.639C111.392 187.719 108.562 187.51 105.804 187.051C104.329 186.802 102.844 186.473 101.421 185.996C99.4291 185.326 97.5697 184.358 96.054 182.915C93.2722 180.261 92.1353 176.434 92.0298 172.52C91.9847 170.874 92.1257 169.213 92.406 167.624C93.3493 162.244 95.5812 157.145 96.4549 151.759C97.699 144.107 96.0611 136.019 91.9124 128.423C96.0272 131.388 101.116 132.874 106.175 132.816C109.808 132.781 113.426 131.935 116.654 130.269C117.249 134.476 118.259 138.714 119.988 142.577C121.046 144.949 122.372 147.187 124.038 149.191C128.42 154.471 135.491 157.884 143.517 156.459C145.826 165.776 141.098 175.978 133.313 181.593Z" fill="#000072"/>
<path d="M200.824 111.436C200.379 115.917 199.859 120.388 199.253 124.847C198.037 133.873 196.503 142.851 194.666 151.77C194.569 152.242 194.467 152.719 194.371 153.196C188.019 161.568 178.778 168.075 168.364 169.104C155.945 170.326 143.349 163.133 137.223 152.253C131.096 141.367 131.273 127.447 136.772 116.239C141.703 106.184 150.612 98.3368 160.914 93.8827C161.171 93.7702 161.428 93.663 161.691 93.5557C162.533 93.2019 163.38 92.8804 164.242 92.5802C164.328 92.5427 164.419 92.5158 164.499 92.4837C164.505 92.4462 164.516 92.414 164.516 92.3765C169.163 88.9569 174.212 86.5395 179.679 85.7087C186.17 84.7172 193.487 86.4002 197.55 91.5672C201.799 96.986 201.499 104.587 200.824 111.436Z" fill="#FFAA00"/>
<g opacity="0.6">
<path d="M200.824 111.436C200.379 115.917 199.859 120.388 199.253 124.847C199.035 113.805 198.534 100.289 193.363 94.467C186.642 86.8998 172.104 89.002 161.541 95.2441C161.573 94.6653 161.621 94.1025 161.69 93.5557C162.533 93.2019 163.379 92.8804 164.242 92.5802C164.328 92.5427 164.419 92.5158 164.499 92.4837C164.504 92.4462 164.516 92.414 164.516 92.3765C169.163 88.9569 174.212 86.5395 179.679 85.7087C186.17 84.7172 193.486 86.4002 197.549 91.5672C201.799 96.986 201.499 104.587 200.824 111.436Z" fill="white"/>
</g>
<path d="M90.3711 200.549C85.2193 200.323 80.1629 198.825 75.508 196.596L73.7761 195.723L72.9137 195.28L72.0844 194.779C70.9839 194.103 69.8687 193.448 68.7821 192.752L65.6252 190.507C64.5835 189.745 63.6184 188.885 62.6126 188.077C58.6903 184.723 55.15 180.928 52.0768 176.776C49.0152 172.613 46.5033 168.048 44.5375 163.258C42.5954 158.464 41.1683 153.411 40.5959 148.241C39.9842 143.083 40.0386 137.863 40.7027 132.729L41.3135 128.895L42.191 125.116C42.3199 124.481 42.5277 123.869 42.715 123.25L43.286 121.397C43.6328 120.149 44.1252 118.953 44.5897 117.747C46.4781 112.941 48.8542 108.307 51.8315 104.067C54.8019 99.8261 58.2803 95.9351 62.1967 92.5233C66.1022 89.0908 70.5131 86.2277 75.154 83.9625C79.8003 81.6841 84.6886 79.9291 89.6985 78.7517C94.7047 77.5647 99.8124 76.8379 104.935 76.6441C115.192 76.1931 125.434 77.6961 135.193 80.4788C144.983 83.2523 154.282 87.335 163.174 92.0987L160.232 92.3968L162.686 90.4682L162.528 90.5943C162.689 90.4667 162.894 90.3116 163.026 90.2171L163.341 89.9921L163.975 89.5421C164.418 89.241 164.859 88.9359 165.314 88.6489C166.215 88.0643 167.144 87.5143 168.096 86.9999C169.998 85.9666 172.003 85.0845 174.088 84.3996C176.183 83.7151 178.321 83.2367 180.56 82.9996C182.794 82.7781 185.053 82.8433 187.287 83.2C189.52 83.5526 191.728 84.2591 193.802 85.3187C195.881 86.3661 197.78 87.8869 199.308 89.7332C200.841 91.5743 201.888 93.7435 202.564 95.9307C203.246 98.1259 203.553 100.35 203.658 102.517C203.873 106.865 203.361 111.015 202.929 115.032C202.479 119.082 201.969 123.126 201.394 127.159C200.241 135.226 198.844 143.26 197.195 151.236C195.552 159.221 193.596 167.263 190.425 174.99C188.843 178.847 186.925 182.609 184.564 186.122C182.209 189.631 179.415 192.899 176.175 195.675C172.949 198.464 169.332 200.766 165.522 202.588C161.709 204.413 157.707 205.767 153.641 206.744C145.522 208.706 137.067 209.24 128.944 207.685C128.367 207.575 127.989 207.017 128.099 206.439C128.19 205.964 128.584 205.624 129.042 205.579L129.051 205.579C137.091 204.814 144.973 204.342 152.611 202.498C160.204 200.645 167.447 197.345 173.228 192.281C179.032 187.247 183.227 180.511 186.15 173.237C189.1 165.946 190.969 158.164 192.543 150.292C194.133 142.397 195.471 134.458 196.569 126.484C197.116 122.497 197.598 118.502 198.022 114.501C198.44 110.474 198.879 106.541 198.667 102.787C198.478 99.0456 197.534 95.5047 195.396 92.944C193.3 90.3832 189.994 88.8081 186.47 88.2586C184.704 87.9874 182.883 87.9404 181.088 88.1282C179.3 88.3266 177.466 88.7393 175.716 89.325C173.957 89.9131 172.243 90.6744 170.592 91.5831C169.765 92.035 168.953 92.5208 168.158 93.0429C167.758 93.2976 167.368 93.5718 166.975 93.841L166.373 94.2734L166.071 94.4917C165.999 94.5462 166.003 94.544 165.96 94.5675L165.802 94.6937L163.613 96.4332L163.574 96.4641C162.721 97.1425 161.577 97.2106 160.671 96.7316C152.057 92.1625 143.038 88.3074 133.723 85.6496C124.411 82.9974 114.758 81.5965 105.165 82.0202C100.368 82.2008 95.6039 82.8845 90.9564 83.986C86.3042 85.0787 81.7954 86.7043 77.5327 88.795C73.2612 90.882 69.2718 93.4748 65.7226 96.5981C62.1589 99.7054 58.9835 103.263 56.2414 107.137C53.4974 111.016 51.3031 115.273 49.552 119.686C49.1219 120.794 48.6608 121.891 48.3427 123.038L47.8124 124.74C47.6378 125.308 47.4419 125.87 47.3246 126.453L46.5065 129.922L45.9371 133.437C45.3156 138.142 45.2535 142.912 45.794 147.61C46.2954 152.316 47.5848 156.913 49.3478 161.308C51.1339 165.696 53.4235 169.901 56.2336 173.744C59.0548 177.578 62.312 181.091 65.9206 184.196C66.8474 184.942 67.7327 185.744 68.6915 186.448L71.5945 188.526C72.5941 189.169 73.6196 189.773 74.6298 190.401L75.3909 190.866L76.1832 191.274L77.7611 192.103C81.981 194.305 86.3373 196.162 90.8939 198.027L90.9224 198.039C91.5891 198.312 91.9083 199.073 91.6353 199.74C91.4213 200.263 90.9046 200.571 90.3711 200.549Z" fill="#000072"/>
<path d="M169.425 101.855C176.243 106.47 181.582 113.237 185.029 120.951C185.934 115.589 186.477 110.164 186.653 104.728C186.693 103.508 186.71 102.258 186.315 101.102C185.611 99.0405 183.63 97.5728 181.499 97.1157C179.369 96.659 177.123 97.1023 175.122 97.9652C173.122 98.8276 171.323 100.09 169.425 101.855Z" fill="#F0A3A3"/>
<path d="M185.029 122.606C184.383 122.606 183.787 122.228 183.519 121.627C180.068 113.904 174.873 107.541 168.498 103.225C168.08 102.943 167.814 102.485 167.776 101.983C167.737 101.48 167.929 100.987 168.299 100.644C170.402 98.6874 172.363 97.3534 174.468 96.4463C177.031 95.3401 179.582 95.0124 181.846 95.4986C184.71 96.1129 187.023 98.0554 187.881 100.568C188.356 101.96 188.353 103.356 188.307 104.783C188.128 110.28 187.575 115.812 186.661 121.227C186.539 121.946 185.961 122.501 185.238 122.593C185.168 122.602 185.098 122.606 185.029 122.606ZM172.097 101.733C176.879 105.345 180.97 110.049 184.145 115.571C184.595 111.954 184.882 108.307 185 104.675C185.037 103.524 185.044 102.501 184.749 101.637C184.272 100.24 182.86 99.1001 181.152 98.7336C179.146 98.3029 177.122 98.904 175.778 99.4848C174.536 100.02 173.338 100.749 172.097 101.733Z" fill="#000072"/>
<path d="M140.117 132.032C142.12 131.028 144.201 130.514 146.356 130.221C148.508 129.961 150.751 129.995 152.994 130.445C155.232 130.884 157.462 131.778 159.341 133.151C161.22 134.518 162.754 136.295 163.624 138.443C163.757 138.771 163.599 139.144 163.271 139.278C163.136 139.333 162.992 139.338 162.861 139.302L162.848 139.298C160.684 138.704 158.875 138.053 157.093 137.581C155.319 137.103 153.619 136.726 151.839 136.393C150.063 136.065 148.209 135.794 146.271 135.468C144.333 135.111 142.322 134.765 140.24 134.009L140.232 134.006C139.673 133.803 139.384 133.186 139.587 132.627C139.685 132.358 139.88 132.151 140.117 132.032Z" fill="#000072"/>
<path d="M89.8637 103.501C91.7727 103.563 93.6056 104.106 95.3223 104.946C97.0322 105.797 98.6068 106.988 99.9161 108.427C101.231 109.862 102.266 111.549 102.941 113.341C103.613 115.134 103.964 117.024 103.807 118.936C103.772 119.361 103.399 119.678 102.974 119.643C102.753 119.625 102.562 119.515 102.434 119.354L102.421 119.339C101.278 117.895 100.357 116.508 99.399 115.204C98.4479 113.9 97.4945 112.677 96.4776 111.503C95.4575 110.332 94.3678 109.214 93.1794 108.104C91.9988 106.98 90.7179 105.891 89.4039 104.594L89.3971 104.587C89.1476 104.341 89.145 103.939 89.3913 103.689C89.5201 103.559 89.6939 103.496 89.8637 103.501Z" fill="#000072"/>
<path d="M113.016 190.302C110.49 190.302 107.923 190.088 105.369 189.662C103.549 189.354 101.984 188.976 100.58 188.505C97.9858 187.633 95.909 186.432 94.2286 184.832C91.1962 181.938 89.5216 177.707 89.3835 172.592C89.3352 170.826 89.475 168.999 89.7994 167.163C90.2854 164.391 91.0865 161.718 91.8614 159.132C92.6637 156.455 93.4216 153.925 93.842 151.335C94.9775 144.349 93.507 136.865 89.589 129.692C88.9963 128.607 89.2337 127.256 90.1605 126.438C91.0876 125.619 92.4564 125.553 93.4597 126.275C97.0182 128.839 101.507 130.226 106.145 130.169C109.434 130.137 112.647 129.358 115.44 127.917C116.202 127.524 117.107 127.524 117.869 127.917C118.631 128.311 119.155 129.049 119.275 129.898C119.915 134.43 120.939 138.223 122.404 141.495C123.421 143.773 124.655 145.792 126.073 147.499C130.318 152.612 136.667 154.987 143.054 153.853C144.423 153.609 145.751 154.471 146.086 155.822C148.54 165.724 143.924 177.204 134.861 183.74C134.848 183.749 134.835 183.758 134.822 183.767L134.727 183.835C134.634 183.902 134.541 183.968 134.446 184.031C128.892 187.901 121.923 190.063 114.289 190.284C113.866 190.296 113.442 190.302 113.016 190.302ZM97.3238 134.095C99.4209 140.149 100.025 146.296 99.0676 152.184C98.5921 155.114 97.7485 157.93 96.9325 160.652C96.1681 163.203 95.4459 165.613 95.0131 168.081C94.7505 169.569 94.6371 171.037 94.6756 172.448C94.745 175.02 95.3578 178.592 97.8813 181C98.9872 182.053 100.422 182.867 102.265 183.487C103.403 183.868 104.705 184.18 106.244 184.441C108.887 184.881 111.544 185.064 114.136 184.992C120.75 184.801 126.735 182.96 131.445 179.669C131.471 179.651 131.496 179.634 131.522 179.617C131.561 179.592 131.599 179.563 131.637 179.536L131.764 179.446C138.415 174.65 142.139 166.674 141.351 159.382C133.981 159.846 126.895 156.778 122.001 150.881C120.274 148.804 118.783 146.372 117.571 143.655C116.289 140.793 115.309 137.617 114.601 134.019C111.938 134.942 109.087 135.435 106.201 135.463C103.151 135.499 100.147 135.026 97.3238 134.095Z" fill="#000072"/>
<path d="M132.961 181.839C130.008 183.902 126.706 185.376 123.238 186.32C120.317 187.124 117.272 187.553 114.212 187.638C114.464 185.001 114.357 182.375 113.96 179.786C111.865 180.949 109.844 182.075 107.813 183.206C105.813 184.39 103.659 185.328 101.423 185.998C98.1485 186.974 94.6914 187.37 91.2824 187.124C87.7282 186.867 84.1322 185.886 81.3075 183.72C78.4775 181.55 76.5264 178.071 76.7677 174.517C76.8642 173.118 77.3518 171.746 78.129 170.567C79.3136 168.755 81.1789 167.41 83.3228 167.163C86.8658 166.767 90.5422 169.951 90.1568 173.499C90.7893 173.183 91.4164 172.856 92.0327 172.518C97.9447 169.366 103.068 165.652 107.678 161.38C109.603 159.595 111.57 157.639 114.116 157.006C116.646 156.379 119.379 157.205 121.496 158.727C123.619 160.249 125.2 162.398 126.561 164.623C129.783 169.87 131.954 175.761 132.961 181.839Z" fill="#FF8C8C"/>
<path d="M114.213 189.293C113.756 189.293 113.318 189.104 113.005 188.769C112.681 188.422 112.521 187.954 112.566 187.481C112.722 185.84 112.734 184.149 112.603 182.434C111.262 183.178 109.941 183.913 108.617 184.65C106.566 185.87 104.291 186.864 101.896 187.581C98.3782 188.632 94.7673 189.032 91.1614 188.773C86.8431 188.465 83.0877 187.171 80.3019 185.032C76.8383 182.378 74.8511 178.306 75.1175 174.406C75.4239 169.906 78.9451 166.003 83.1336 165.522C85.4318 165.263 87.852 166.15 89.6083 167.897C90.5012 168.785 91.1451 169.824 91.5054 170.925C97.0412 167.942 101.961 164.422 106.552 160.165L106.937 159.807C108.807 158.067 110.927 156.095 113.717 155.4C116.544 154.698 119.732 155.421 122.461 157.383C125.004 159.208 126.743 161.748 127.973 163.758C131.262 169.121 133.552 175.28 134.593 181.568C134.698 182.197 134.431 182.83 133.909 183.195C128.509 186.969 121.715 189.077 114.261 189.293C114.245 189.292 114.229 189.293 114.213 189.293ZM113.963 178.133C114.213 178.133 114.462 178.19 114.693 178.303C115.179 178.542 115.517 179.003 115.599 179.538C115.926 181.683 116.054 183.813 115.983 185.891C121.678 185.463 126.869 183.813 131.144 181.066C130.1 175.559 128.038 170.193 125.152 165.486C124.083 163.741 122.594 161.55 120.531 160.07C118.619 158.695 116.371 158.149 114.515 158.611C112.555 159.099 110.921 160.62 109.191 162.23L108.801 162.592C103.926 167.113 98.6946 170.838 92.8092 173.98C92.1912 174.317 91.5473 174.653 90.8982 174.977C90.3566 175.248 89.7118 175.201 89.2146 174.855C88.7178 174.51 88.4493 173.921 88.5141 173.319C88.6284 172.261 88.1766 171.139 87.2747 170.242C86.2397 169.213 84.7978 168.667 83.5085 168.809C80.9014 169.109 78.6169 171.721 78.4187 174.631C78.2271 177.438 79.7204 180.417 82.3163 182.406C84.5877 184.151 87.7275 185.211 91.3976 185.473C94.605 185.703 97.8168 185.346 100.948 184.411C103.083 183.772 105.108 182.887 106.966 181.783C109.037 180.628 111.063 179.503 113.162 178.341C113.41 178.203 113.687 178.133 113.963 178.133Z" fill="#000072"/>
<path d="M90.8505 172.614C90.7865 172.934 90.8293 173.269 91.0118 173.623C91.1922 173.975 91.5077 174.319 91.8976 174.608C92.6943 175.188 93.7726 175.487 94.8614 175.53C95.968 175.585 97.0553 175.319 98.1893 174.903C99.3199 174.494 100.435 173.936 101.534 173.36C103.736 172.193 105.839 170.797 107.867 169.314C109.883 167.826 111.867 166.231 113.516 164.411L113.523 164.404C113.764 164.138 114.176 164.118 114.443 164.359C114.705 164.597 114.728 165 114.499 165.267C113.635 166.27 112.687 167.148 111.731 168.018C110.777 168.888 109.786 169.71 108.776 170.508C106.754 172.102 104.643 173.577 102.423 174.927C101.303 175.589 100.169 176.234 98.9305 176.758C97.7116 177.283 96.299 177.721 94.8496 177.723C93.4037 177.741 91.9085 177.433 90.5708 176.606C89.9107 176.185 89.2854 175.63 88.8248 174.881C88.3618 174.142 88.1084 173.168 88.2326 172.223L88.238 172.182C88.3335 171.456 88.9989 170.945 89.7243 171.041C90.4497 171.136 90.9604 171.802 90.865 172.527C90.8611 172.555 90.856 172.586 90.8505 172.614Z" fill="#000072"/>
<path d="M113.096 181.93C112.5 181.93 111.925 181.607 111.629 181.044C111.205 180.235 111.516 179.234 112.326 178.81C114.527 177.656 116.5 176.01 118.031 174.05C118.593 173.33 119.634 173.203 120.354 173.766C121.074 174.328 121.201 175.368 120.638 176.088C118.819 178.415 116.476 180.37 113.862 181.741C113.617 181.869 113.354 181.93 113.096 181.93Z" fill="#000072"/>
<path d="M117.341 130.272C115.944 128.665 114.906 126.748 114.324 124.7C114.12 123.987 113.98 123.192 114.311 122.528C114.599 121.951 115.206 121.582 115.835 121.444C116.464 121.305 117.12 121.368 117.758 121.466C120.378 121.868 122.906 122.859 125.1 124.346C125.735 124.777 126.38 125.301 126.58 126.041C126.795 126.831 126.427 127.693 125.836 128.258C125.243 128.824 124.46 129.142 123.679 129.389C121.536 130.066 119.253 130.299 117.341 130.272Z" fill="#000072"/>
<path d="M68.8865 114.903C63.5772 101.225 53.9536 89.1521 41.6575 80.8762C41.2122 80.5766 41.0941 79.9731 41.3934 79.528C41.6867 79.0918 42.2738 78.9703 42.716 79.2472C55.6121 87.3433 65.9956 99.4784 72.0195 113.627C72.3862 114.486 71.9867 115.48 71.1273 115.846C70.2679 116.213 69.2741 115.813 68.9076 114.954C68.9014 114.94 68.8923 114.917 68.8865 114.903Z" fill="#000072"/>
<path d="M62.143 127.913C50.8328 118.546 36.5446 112.692 21.7844 111.453C21.225 111.407 20.8092 110.915 20.8559 110.356C20.9018 109.806 21.3793 109.395 21.9269 109.425C37.1381 110.293 52.085 115.911 64.1782 125.385C64.8841 125.937 65.0085 126.957 64.4562 127.663C63.9038 128.369 62.8837 128.494 62.1779 127.941C62.1684 127.934 62.1524 127.921 62.143 127.913Z" fill="#000072"/>
<path d="M58.6838 142.14C44.0508 140.902 28.9677 144.247 16.1248 151.661C15.6788 151.919 15.1081 151.767 14.8505 151.321C14.5977 150.883 14.7413 150.325 15.1672 150.061C28.108 142.052 43.5653 138.077 58.9067 138.897C59.8033 138.944 60.4917 139.709 60.4444 140.606C60.397 141.503 59.6317 142.191 58.7351 142.144C58.7208 142.143 58.6981 142.141 58.6838 142.14Z" fill="#000072"/>
<path d="M212.489 157.991C198.716 152.485 183.319 151.333 169.036 154.644C168.1 154.861 167.165 154.278 166.947 153.342C166.73 152.405 167.314 151.47 168.25 151.253C168.268 151.249 168.295 151.243 168.313 151.24C183.421 148.315 199.288 150.134 213.206 156.289C213.672 156.495 213.883 157.041 213.677 157.507C213.475 157.963 212.948 158.174 212.489 157.991Z" fill="#000072"/>
<path d="M203.018 188.143C192.858 177.264 179.379 169.66 165.022 166.579C164.135 166.389 163.571 165.516 163.761 164.629C163.951 163.742 164.824 163.178 165.711 163.368C165.732 163.373 165.761 163.379 165.782 163.385C180.655 167.257 194.154 175.729 204.021 187.246C204.263 187.528 204.23 187.953 203.948 188.195C203.674 188.43 203.263 188.404 203.018 188.143Z" fill="#000072"/>
<path d="M185.546 213.676C180.502 199.674 171.12 187.381 159.162 178.9C158.371 178.34 158.185 177.245 158.745 176.454C159.306 175.664 160.401 175.478 161.191 176.038C161.212 176.053 161.239 176.074 161.259 176.089C173.378 185.579 182.392 198.74 186.855 213.239C186.967 213.604 186.763 213.99 186.398 214.102C186.045 214.211 185.67 214.02 185.546 213.676Z" fill="#000072"/>
<g opacity="0.25">
<path d="M306.316 234.751C306.466 237.572 306.439 240.397 306.239 243.195C304.646 265.217 293.831 285.591 280.726 303.358C271.647 315.672 261.066 327.335 247.549 334.501C242.468 337.191 236.771 339.244 231.067 338.545C225.363 337.84 219.78 333.713 218.951 328.027C217.541 318.39 229.392 308.931 224.779 300.346C198.643 305.881 171.224 306.888 145.113 301.469C133.982 303.973 122.798 306.029 111.592 307.598C87.9703 310.906 64.252 312.045 40.7053 310.64C38.6047 310.519 36.5025 310.371 34.4046 310.206C31.7622 309.997 29.0576 309.738 26.6568 308.597C18.4903 304.726 18.2117 292.136 24.1467 285.317C23.5416 290.038 25.1737 295.115 28.8946 298.135C34.1693 302.413 41.6496 302.26 48.4278 301.84C67.4252 300.67 86.4503 299.047 105.062 295.069C113.612 293.244 122.278 290.817 129.298 285.606C141.159 276.8 146.281 261.749 151.635 247.195C155.009 260.027 158.759 273.525 168.249 282.797C173.109 287.544 179.522 290.969 186.311 291.209C193.106 291.449 200.174 288.109 203.408 282.136C205.676 277.954 205.932 273.027 206.743 268.337C208.467 258.381 212.941 248.919 221.049 240.757C214.361 251.973 214.258 266.812 220.788 278.116C224.655 284.81 230.733 290.573 232.017 298.199C232.786 302.75 231.816 307.841 234.381 311.678C236.794 315.298 241.765 316.507 246.026 315.625C250.286 314.738 253.977 312.154 257.399 309.467C282.521 289.758 300.251 260.84 305.523 229.54C305.79 231.276 306.056 233.016 306.316 234.751Z" fill="#000072"/>
</g>
<g opacity="0.25">
<path d="M91.1051 198.113C84.276 196.853 77.5863 194.836 71.1998 192.108C64.8113 202.162 59.9991 213.401 58.62 225.233C57.2403 237.065 59.4974 249.53 66.1829 259.389C68.068 262.168 70.4038 264.811 73.5073 266.094C77.8799 267.901 82.9183 266.679 87.2443 264.763C91.5697 262.846 95.6487 260.242 100.25 258.95C88.0707 255.369 78.3821 244.431 76.2965 231.91C74.2108 219.388 79.8325 205.901 91.1051 198.113Z" fill="#000072"/>
</g>
<g opacity="0.25">
<path d="M128.578 207.763C142.453 215.461 160.232 215.612 174.236 208.149C188.239 200.687 198.029 185.845 199.377 170.035C196.977 169.476 194.576 168.917 192.175 168.359C184.637 182.425 178.901 191.227 167.308 198.364C155.715 205.501 144.398 208.297 128.578 207.763Z" fill="#000072"/>
</g>
<g opacity="0.25">
<path d="M43.6365 151.039C51.0712 163.532 61.6234 174.193 74.0736 181.723C92.5124 192.868 114.907 197.14 136.233 194.06C147.905 192.374 159.428 188.463 168.877 181.4C182.707 171.065 191.067 154.718 195.042 137.918C198.44 123.54 198.95 108.682 199.029 93.8765C201.712 99.0273 201.411 105.508 200.826 111.437C199.478 124.978 197.418 138.448 194.667 151.769C194.571 152.242 194.469 152.72 194.373 153.197C193.31 158.197 192.08 163.25 190.485 168.135C189.879 169.265 189.261 170.39 188.632 171.505C183.657 180.379 177.987 189.121 169.976 195.387C161.059 202.355 150.004 205.638 138.622 206.653C133.243 207.137 127.787 207.116 122.456 206.733C109.34 205.791 96.2326 202.834 84.2219 197.55C84.2112 197.551 84.2053 197.546 84.1945 197.541C77.0578 194.405 70.3084 190.442 64.1746 185.6C62.4149 184.214 60.7152 182.749 59.0767 181.215" fill="#000072"/>
</g>
<g opacity="0.25">
<path d="M123.238 185.05C120.318 185.854 117.272 186.282 114.212 186.368C114.464 183.731 114.357 181.105 113.96 178.516C111.864 179.679 109.844 180.804 107.813 181.935C105.813 183.12 103.659 184.058 101.424 184.728C98.1483 185.703 94.691 186.1 91.2827 185.854C87.7285 185.596 84.1325 184.615 81.3078 182.45C78.4771 180.279 76.5267 176.801 76.7679 173.247C76.8639 171.848 77.3522 170.476 78.1294 169.297C78.3278 171.14 78.9978 172.958 80.0751 174.469C82.5085 177.894 86.6839 179.829 90.8694 180.156C95.0555 180.483 99.2524 179.336 103.059 177.567C106.869 175.793 110.348 173.408 113.848 171.081C115.665 169.876 117.75 168.627 119.883 169.066C121.663 169.431 123.019 170.91 123.85 172.518C125.865 176.409 125.328 181.137 123.238 185.05Z" fill="#000072"/>
</g>
<path d="M206.59 58.397L184.867 63.1593L183.911 58.7987L192.454 38.4785L180.373 41.1272L179.048 35.0859L200.331 30.4199L201.278 34.7406L192.624 55.1277L205.266 52.3562L206.59 58.397Z" fill="#E8E8E8"/>
<path d="M226.789 20.8924L210.575 22.6371L210.225 19.3825L218.068 5.24746L209.049 6.21807L208.565 1.70955L224.45 0L224.797 3.22455L216.868 17.3993L226.304 16.384L226.789 20.8924Z" fill="#E8E8E8"/>
<path d="M232.191 65.868L222.489 66.9123L222.279 64.964L226.972 56.5063L221.576 57.0873L221.286 54.3897L230.792 53.3667L230.999 55.2958L226.254 63.7775L231.9 63.1698L232.191 65.868Z" fill="#E8E8E8"/>
</svg>
