<svg width="139" height="157" viewBox="0 0 139 157" fill="none" xmlns="http://www.w3.org/2000/svg">
<path d="M127.698 0.213867C94.5675 0.213867 45.9467 0.213867 21.0329 0.213867C20.4747 0.333005 20.0431 0.803071 19.8197 1.3283C19.5958 1.85306 19.5453 2.43345 19.498 3.00226C19.1735 6.86845 18.849 10.7346 18.5245 14.6008C18.5245 14.6008 9.2637 40.1377 5.85784 52.1053C-2.99083 83.1952 0.819277 116.17 2.3143 148.461C2.55628 153.682 4.19823 155.616 6.03352 155.533C57.0766 153.221 82.8262 154.41 111.567 156.241C115.318 156.48 121.467 151.056 123.622 149.963C125.635 148.941 132.767 150.353 136.633 151.041C138.139 151.309 138.785 150.111 138.785 150.111C138.785 62.1133 132.159 62.3738 126.584 14.5466C126.584 10.4686 127.176 5.12449 127.698 0.213867Z" fill="#FFB8C2"/>
<path d="M117.502 53.5275C118.911 43.0234 104.258 22.5034 92.2858 39.918C87.7298 46.5452 80.4424 66.0778 73.1115 65.0691C64.1474 63.8364 50.1336 63.7127 40.7453 64.9193C32.0701 66.0333 35.8046 38.136 24.5342 33.9161C18.4304 31.6307 9.26413 40.1372 5.85826 52.1048C-2.99041 83.1948 0.819704 116.17 2.31472 148.46C2.55671 153.682 4.19869 155.616 6.03397 155.532C57.077 153.22 82.8266 154.409 111.567 156.241C111.998 156.269 114.264 156.783 113.925 152.967C112.367 135.425 108.167 89.6458 117.502 53.5275Z" fill="#8C5760"/>
<path d="M18.5342 14.4849C50.8067 15.508 87.4456 15.2545 122.182 15.2545C125.884 15.2545 125.737 14.3598 126.585 14.3829C126.908 9.44266 127.426 4.0972 127.688 0.10816C89.8849 0.10816 56.663 0.030282 21.0333 0.21432C18.9816 0.843852 19.479 4.44859 19.0803 7.97916C18.7933 10.5219 18.963 12.6775 18.5342 14.4849Z" fill="#FFF5ED"/>
<path d="M125.166 23.1245C125.166 32.1132 119.775 43.5894 116.374 57.9879C113.597 69.7451 112.405 82.3153 111.934 93.1397C111.086 112.619 112.55 136.984 113.925 152.967C124.377 146.964 124.085 145.208 130.832 147.229C135.152 148.524 135.297 148.034 135.388 146.183C136.343 126.781 135.892 103.733 134.148 84.3601C133.245 74.3344 132.008 63.937 130.143 54.0453C128.196 43.7215 126.941 29.8032 125.166 23.1245Z" fill="#FFF5ED"/>
<path d="M116.279 148.314C119.223 146.795 121.918 144.829 124.806 144.532C126.545 144.353 129.901 145.111 133.147 145.771C134.235 145.993 135.039 139.108 133.513 138.541C130.785 137.527 127.155 136.707 124.004 136.872C120.853 137.036 114.913 139.743 114.737 141.33C114.44 144.015 115.198 148.872 116.279 148.314Z" fill="#AE868A"/>
<path d="M81.8267 138.541C81.8267 130.869 88.046 124.65 95.7177 124.65C103.389 124.65 109.608 130.869 109.608 138.541C109.608 146.213 103.389 152.432 95.7177 152.432C88.046 152.431 81.8267 146.213 81.8267 138.541Z" fill="#ED807E"/>
<path d="M87.4721 139.185C87.212 139.185 86.9663 139.025 86.8694 138.767C86.2802 137.2 85.7341 135.593 85.2474 133.991C85.1435 133.651 85.3354 133.291 85.6762 133.188C86.0155 133.084 86.3762 133.277 86.4791 133.618C86.958 135.193 87.4948 136.773 88.0742 138.314C88.1999 138.647 88.0307 139.018 87.6983 139.143C87.6236 139.171 87.5472 139.185 87.4721 139.185Z" fill="#FFF5ED"/>
<path d="M98.7971 134.317C98.7512 134.317 98.7049 134.312 98.6576 134.302C98.3104 134.226 98.0911 133.882 98.1676 133.535C98.4713 132.16 99.0169 130.295 99.4554 128.797C99.544 128.494 99.6288 128.204 99.7071 127.935C99.8059 127.594 100.162 127.397 100.505 127.496C100.846 127.595 101.043 127.952 100.944 128.293C100.866 128.564 100.78 128.855 100.691 129.159C100.258 130.639 99.7192 132.48 99.4248 133.813C99.3595 134.113 99.0929 134.317 98.7971 134.317Z" fill="#FFF5ED"/>
<path d="M90.3661 138.181C89.4895 138.181 88.6161 137.485 88.0107 136.248C87.2171 134.625 87.1105 132.51 88.4743 131.784C89.1316 131.435 89.8326 131.465 90.4473 131.869C91.6498 132.658 92.2696 134.698 92.1551 136.135C92.08 137.075 91.6938 137.748 91.0684 138.028C90.8376 138.131 90.6016 138.181 90.3661 138.181ZM89.3996 132.83C89.2976 132.83 89.1933 132.861 89.0788 132.921C88.5545 133.2 88.5971 134.516 89.1678 135.682C89.5127 136.388 90.0899 137.054 90.5414 136.852C90.7101 136.777 90.8367 136.462 90.871 136.032C90.9628 134.887 90.4134 133.387 89.7408 132.945C89.6235 132.868 89.5136 132.83 89.3996 132.83Z" fill="#FFF5ED"/>
<path d="M94.9574 136.231C94.0808 136.231 93.2079 135.536 92.6029 134.299C91.8083 132.676 91.7013 130.56 93.066 129.835C93.7229 129.485 94.4238 129.515 95.0385 129.919C96.241 130.709 96.8613 132.749 96.7463 134.186C96.6712 135.125 96.2855 135.798 95.6597 136.078C95.4288 136.181 95.1929 136.231 94.9574 136.231ZM93.6701 130.972C93.1462 131.251 93.1889 132.566 93.7595 133.734C94.1044 134.439 94.6825 135.105 95.1326 134.903C95.3014 134.828 95.4279 134.513 95.4622 134.083C95.554 132.938 95.0047 131.438 94.332 130.996C94.1104 130.85 93.913 130.843 93.6701 130.972Z" fill="#FFF5ED"/>
<path d="M97.4134 130.961C96.9164 130.961 96.4538 130.712 96.165 130.25C95.732 129.558 95.8655 128.696 96.4765 128.243C96.9943 127.859 97.5932 127.789 98.1198 128.051C98.6479 128.314 98.9928 128.863 98.9983 129.45C99.0039 130.003 98.6951 130.496 98.1731 130.768C97.9224 130.897 97.6632 130.961 97.4134 130.961ZM97.4653 129.184C97.4152 129.184 97.3424 129.204 97.2428 129.277C97.1691 129.332 97.2043 129.483 97.2562 129.567C97.3336 129.691 97.4208 129.708 97.577 129.625C97.711 129.556 97.7101 129.492 97.7101 129.461C97.7091 129.364 97.6354 129.249 97.545 129.204C97.532 129.197 97.5065 129.184 97.4653 129.184Z" fill="#FFF5ED"/>
<path d="M101.691 133.56C101.193 133.56 100.731 133.311 100.442 132.849C100.009 132.157 100.143 131.295 100.753 130.843C101.272 130.459 101.871 130.389 102.397 130.65C102.925 130.913 103.27 131.463 103.276 132.049C103.281 132.602 102.973 133.095 102.45 133.367C102.199 133.498 101.941 133.56 101.691 133.56ZM101.743 131.784C101.693 131.784 101.62 131.803 101.52 131.877C101.446 131.932 101.481 132.082 101.533 132.166C101.611 132.291 101.698 132.307 101.854 132.225C101.987 132.155 101.987 132.092 101.987 132.061C101.986 131.963 101.912 131.848 101.822 131.803C101.809 131.797 101.783 131.784 101.743 131.784Z" fill="#FFF5ED"/>
<path d="M94.5847 150.055C94.5606 150.055 94.5374 150.054 94.5133 150.051C94.1596 150.012 93.9046 149.694 93.9436 149.341C94.0237 148.614 94.0015 147.566 93.9788 146.963C93.4512 146.845 92.6942 146.702 92.2158 146.702C92.2066 146.702 92.1959 146.702 92.1866 146.702C91.9414 146.702 91.7165 146.562 91.6085 146.342C91.4996 146.119 91.5279 145.854 91.6818 145.659C92.0605 145.18 92.5009 144.657 92.9413 144.159C92.5876 142.626 93.6877 141.043 95.0821 140.316C96.5762 139.536 98.888 139.503 100.487 141.969C101.032 142.807 101.458 143.708 101.871 144.579C102.07 145.001 102.277 145.437 102.492 145.854C102.655 146.17 102.53 146.558 102.214 146.721C101.898 146.885 101.509 146.759 101.347 146.443C101.122 146.007 100.911 145.562 100.707 145.13C100.294 144.259 99.9037 143.436 99.4067 142.669C97.9868 140.48 96.1928 141.188 95.6768 141.457C94.6927 141.97 93.8712 143.117 94.2602 144.074C94.3533 144.303 94.307 144.565 94.141 144.748C93.9078 145.006 93.6719 145.275 93.4424 145.543C94.1202 145.66 94.7205 145.815 94.7613 145.825C95.0311 145.896 95.2253 146.132 95.2415 146.41C95.2462 146.487 95.3524 148.304 95.223 149.482C95.1873 149.812 94.9087 150.055 94.5847 150.055Z" fill="#FFF5ED"/>
<path d="M93.5722 142.946C93.18 142.946 92.7466 142.75 92.4235 142.424C92.0698 142.066 91.8946 141.6 91.9293 141.111C91.9882 140.289 92.6506 139.628 93.5045 139.54C94.2036 139.469 95.1484 139.815 95.4924 141.03C95.5892 141.372 95.3904 141.728 95.0483 141.825C94.7075 141.922 94.3501 141.723 94.2532 141.381C94.1429 140.99 93.9194 140.792 93.6362 140.821C93.4383 140.842 93.2296 140.98 93.2139 141.203C93.193 141.491 93.4962 141.651 93.5769 141.659C93.9343 141.635 94.23 141.908 94.2509 142.263C94.2722 142.619 93.9941 142.923 93.6395 142.944C93.6177 142.946 93.5949 142.946 93.5722 142.946Z" fill="#FFF5ED"/>
<path d="M95.0181 141.745C94.8971 141.745 94.7752 141.711 94.6658 141.64C94.0655 141.247 93.4587 140.13 93.9329 139.138C94.2806 138.412 95.1002 138.066 95.9267 138.297C96.7041 138.514 97.4347 139.277 97.3137 140.495C97.279 140.849 96.961 141.107 96.61 141.072C96.2563 141.037 95.9981 140.722 96.0329 140.368C96.0959 139.731 95.7024 139.57 95.5805 139.536C95.446 139.499 95.192 139.489 95.0951 139.693C94.9444 140.009 95.2193 140.462 95.3714 140.562C95.669 140.757 95.752 141.155 95.5573 141.453C95.4339 141.643 95.2281 141.745 95.0181 141.745Z" fill="#FFF5ED"/>
<path d="M98.6279 141.278C98.5055 141.278 98.3822 141.243 98.2724 141.171C97.9757 140.974 97.8955 140.575 98.0916 140.278C98.4453 139.745 98.1727 139.419 98.08 139.332C97.9794 139.236 97.7601 139.109 97.5779 139.243C97.2975 139.451 97.3281 139.982 97.4157 140.141C97.5872 140.452 97.4741 140.844 97.1626 141.016C96.852 141.187 96.4603 141.074 96.2878 140.763C95.9411 140.135 95.9281 138.864 96.8107 138.209C97.4574 137.73 98.3437 137.807 98.9663 138.397C99.5523 138.953 99.8406 139.97 99.1643 140.99C99.0414 141.176 98.837 141.278 98.6279 141.278Z" fill="#FFF5ED"/>
<path d="M96.6434 144.293C96.3611 144.293 96.1015 144.106 96.0231 143.82L95.9805 143.665C95.8869 143.322 96.0885 142.968 96.4316 142.874C96.7746 142.78 97.1288 142.982 97.2229 143.325L97.2651 143.479C97.3592 143.822 97.1575 144.177 96.814 144.271C96.757 144.286 96.7 144.293 96.6434 144.293Z" fill="#FFF5ED"/>
<path d="M91.2901 117.229C90.8692 117.229 90.4464 117.083 90.102 116.788C89.338 116.131 89.2504 114.979 89.9073 114.215C92.8482 110.794 96.1405 99.8372 90.8409 88.838C90.4038 87.9308 90.7848 86.84 91.6925 86.4028C92.5992 85.9657 93.69 86.3468 94.1276 87.2544C97.5219 94.2984 97.585 100.835 97.0403 105.078C96.3245 110.656 94.3154 114.684 92.6743 116.593C92.3137 117.013 91.8038 117.229 91.2901 117.229Z" fill="#FFF5ED"/>
<path d="M95.345 99.1344C94.5778 99.1344 93.8638 98.6462 93.6121 97.8772C93.2983 96.9199 93.8207 95.8893 94.7785 95.576C97.501 94.685 100.298 93.909 103.091 93.2692C104.072 93.0453 105.052 93.6586 105.277 94.6409C105.501 95.6228 104.888 96.6014 103.905 96.8262C101.22 97.4405 98.5311 98.1868 95.9138 99.043C95.7246 99.1047 95.5336 99.1344 95.345 99.1344Z" fill="#FFF5ED"/>
<path d="M103.429 109.568C103.368 109.568 103.307 109.564 103.245 109.558L94.9542 108.724C93.9519 108.624 93.2209 107.729 93.3214 106.727C93.422 105.724 94.3158 104.992 95.319 105.094L103.61 105.928C104.612 106.028 105.343 106.923 105.242 107.925C105.148 108.866 104.355 109.568 103.429 109.568Z" fill="#FFF5ED"/>
<path d="M19.2969 117.227C18.6761 117.227 18.0707 116.91 17.7295 116.339C13.7182 109.627 13.0692 103.122 13.2315 98.8472C13.4447 93.2277 15.0848 89.0361 16.5479 86.9871C17.1338 86.1675 18.2737 85.9775 19.0929 86.563C19.9125 87.1489 20.1025 88.2884 19.517 89.1075C16.8946 92.779 14.5967 103.986 20.8605 114.466C21.3774 115.331 21.0955 116.451 20.231 116.969C19.938 117.144 19.6153 117.227 19.2969 117.227Z" fill="#FFF5ED"/>
<path d="M7.69822 111.24C6.93008 111.24 6.21526 110.75 5.96447 109.98C5.65202 109.022 6.17632 107.993 7.13407 107.681C9.75464 106.828 12.3659 105.844 14.8952 104.756C15.821 104.359 16.8941 104.786 17.2914 105.712C17.6892 106.637 17.2613 107.71 16.336 108.108C13.7047 109.239 10.9892 110.262 8.26334 111.15C8.07606 111.211 7.88551 111.24 7.69822 111.24Z" fill="#FFF5ED"/>
<path d="M14.9647 98.6768C14.9583 98.6768 14.9517 98.6768 14.9452 98.6768L6.61254 98.5897C5.6052 98.5795 4.79673 97.7539 4.80785 96.7465C4.81805 95.7457 5.63302 94.9409 6.63156 94.9409C6.63851 94.9409 6.64453 94.9409 6.65102 94.9409L14.9837 95.0281C15.9911 95.0387 16.7996 95.8644 16.7889 96.8717C16.7778 97.8726 15.9628 98.6768 14.9647 98.6768Z" fill="#FFF5ED"/>
<path d="M74.9473 111.269C73.3026 111.269 71.8664 110.348 70.9022 108.676C69.307 105.908 68.9441 100.591 71.9183 95.4564C72.4232 94.5845 73.5394 94.2878 74.4114 94.7922C75.2834 95.297 75.5801 96.4133 75.0757 97.2848C72.9503 100.954 72.9674 104.953 74.0628 106.854C74.1954 107.084 74.5477 107.62 74.9469 107.62C75.6617 107.62 76.7756 105.118 77.1145 102.752C77.2341 101.918 77.9095 101.274 78.7477 101.194C79.5844 101.112 80.3711 101.617 80.6455 102.414C81.4471 104.725 82.9463 107.049 83.7288 107.195C84.1557 107.275 84.5808 106.888 84.8618 106.549C86.2497 104.878 87.3377 100.28 85.4097 95.2937C85.0463 94.3541 85.514 93.2976 86.4532 92.9341C87.3928 92.5712 88.4493 93.038 88.8128 93.9776C91.1552 100.036 90.0102 106.061 87.6687 108.88C86.3888 110.421 84.7523 111.096 83.0608 110.782C81.5338 110.498 80.2919 109.304 79.3425 107.945C78.47 109.708 77.0913 111.269 74.9473 111.269Z" fill="#FFF5ED"/>
<path d="M24.0007 113.293C23.298 113.293 22.6281 112.886 22.3286 112.201C19.199 105.05 20.0919 98.9992 22.3652 96.1742C23.5951 94.6453 25.2857 93.9657 27 94.3074C28.6754 94.6421 29.9817 96.1237 30.9325 97.7323C31.9811 95.8631 33.5438 94.1289 35.7347 94.1289C37.2111 94.1289 38.5346 94.9258 39.4632 96.3721C41.5335 99.5977 41.4514 105.616 39.2726 110.372C38.8527 111.288 37.7702 111.69 36.8542 111.27C35.9386 110.85 35.5358 109.768 35.9558 108.852C37.8031 104.819 37.6214 100.257 36.3925 98.3428C36.2835 98.1726 36.0007 97.7772 35.7347 97.7772C34.9086 97.7772 33.4437 100.34 32.7775 102.951C32.575 103.744 31.8694 104.306 31.0507 104.325C30.2409 104.338 29.5015 103.815 29.2637 103.032C28.5168 100.586 27.0413 98.0368 26.2857 97.8857C26.1554 97.8593 25.7553 97.7795 25.2074 98.4615C23.9289 100.05 22.9971 104.631 25.6705 110.738C26.0747 111.661 25.6538 112.737 24.7313 113.141C24.493 113.244 24.2446 113.293 24.0007 113.293Z" fill="#FFF5ED"/>
<path d="M47.0537 112.293C45.9198 112.293 44.7841 112.204 43.6534 112.024C42.7861 111.886 42.1394 111.15 42.1162 110.272C41.9859 105.447 42.4393 100.802 43.5032 96.073C43.652 95.4115 44.155 94.8872 44.8096 94.711C47.0769 94.1019 49.5004 93.9744 51.8192 94.3425C52.8145 94.5006 53.4923 95.4351 53.3346 96.4304C53.177 97.4252 52.2415 98.1053 51.2472 97.9463C49.7897 97.7145 48.2794 97.733 46.8224 97.9959C46.1029 101.525 45.7478 105.017 45.7427 108.596C47.4427 108.721 49.1458 108.603 50.824 108.243C51.8086 108.032 52.7788 108.659 52.9902 109.645C53.2011 110.63 52.5739 111.6 51.5888 111.811C50.0883 112.133 48.5724 112.293 47.0537 112.293Z" fill="#FFF5ED"/>
<path d="M44.4707 105.154C43.5301 105.154 42.7318 104.432 42.6544 103.478C42.5728 102.474 43.3201 101.594 44.3242 101.512L49.0962 101.123C50.0998 101.039 50.9806 101.789 51.0622 102.793C51.1443 103.798 50.3965 104.678 49.392 104.759L44.62 105.147C44.5703 105.152 44.5203 105.154 44.4707 105.154Z" fill="#FFF5ED"/>
<path d="M60.6998 112.298C58.7167 112.298 57.02 111.434 55.9241 109.865C55.0271 108.581 54.5529 106.876 54.5529 104.935C54.5529 99.7376 57.8637 94.1279 63.2124 94.1279C65.0686 94.1279 66.6396 94.9387 67.6349 96.4106C68.4271 97.5815 68.8457 99.16 68.8457 100.974C68.8457 103.414 68.0841 106.131 66.8088 108.241C65.228 110.857 63.0585 112.298 60.6998 112.298ZM63.2124 97.7762C60.2595 97.7762 58.2021 101.549 58.2021 104.935C58.2021 106.108 58.4552 107.117 58.9155 107.775C59.3318 108.372 59.8993 108.65 60.7003 108.65C63.0803 108.65 65.1979 104.357 65.1979 100.974C65.1979 99.9064 64.9902 99.0121 64.6129 98.4545C64.2911 97.9793 63.8725 97.7762 63.2124 97.7762Z" fill="#FFF5ED"/>
<g opacity="0.251">
<path d="M14.2453 141.225C6.36499 132.766 -0.803236 85.803 5.85784 52.1055C-2.99083 83.1954 0.819277 116.17 2.3143 148.461C2.55628 153.683 4.19823 155.617 6.03352 155.533C57.0766 153.221 82.8262 154.41 111.567 156.241C111.997 156.269 114.263 156.783 113.925 152.967C91.7995 151.558 24.6919 152.439 14.2453 141.225Z" fill="#8C5857"/>
<path d="M120.325 44.2817C114.049 83.0795 121.726 130.791 125.237 148.936C123.077 150.342 116.954 155.03 113.96 155.82C112.178 125.886 111.164 110.028 112.292 87.6786C112.59 72.1369 115.426 56.6475 120.325 44.2817Z" fill="#8C5857"/>
<path d="M125.237 16.2964C128.482 36.0381 131.476 55.2583 133.223 75.1886C132.097 69.3217 130.967 63.4389 129.166 57.7435C127.364 52.0476 124.866 46.5144 121.313 41.7243C123.989 33.2001 125.237 26.4611 125.237 16.2964Z" fill="#8C5857"/>
<path d="M18.5342 14.4853C18.3015 14.0278 18.8796 13.5957 18.6473 13.1382C48.5014 14.1432 113.27 15.2549 113.27 15.2549C113.27 15.2549 51.8229 15.6058 18.5342 14.4853Z" fill="#8C5857"/>
<path d="M26.1391 45.8042C29.5334 44.6902 44.6741 59.0373 56.5615 61.7094C68.8587 64.4732 79.5241 61.4442 79.8004 66.8156C80.1949 74.4789 55.7109 79.3641 41.2743 71.8171C32.5911 67.2778 16.5979 48.9352 26.1391 45.8042Z" fill="#8C5857"/>
<path d="M20.1864 1.11475C19.7942 5.572 20.3922 10.1141 21.9257 14.3178C20.9568 13.9501 19.8786 13.8774 18.8689 14.1115C18.8462 9.69037 18.8309 5.2016 20.1864 1.11475Z" fill="#8C5857"/>
<path d="M25.1272 2.2793C25.1601 6.30867 25.5319 10.3353 26.2379 14.303C25.6329 14.2687 25.0284 14.2344 24.4235 14.2001C24.5686 10.0057 24.7494 5.81265 25.1272 2.2793Z" fill="#8C5857"/>
<path d="M36.8254 3.58057C37.1531 7.18299 37.4813 10.7859 37.8091 14.3888C37.358 14.2566 36.8662 14.2687 36.4221 14.4231C36.3873 10.5638 36.4865 6.70365 36.8254 3.58057Z" fill="#8C5857"/>
<path d="M41.0319 4.9375C41.4046 8.21588 41.9938 11.4702 42.7949 14.6711C42.1542 14.4574 41.4514 14.4333 40.7982 14.6034C40.7936 11.2801 40.7894 7.95628 41.0319 4.9375Z" fill="#8C5857"/>
<path d="M57.8619 4.76709C58.6458 8.1609 58.9976 11.6539 58.9058 15.1358C58.5391 14.8007 57.9393 14.7571 57.5276 15.0352C57.5879 11.5672 57.6477 8.09879 57.8619 4.76709Z" fill="#8C5857"/>
<path d="M70.1655 8.57471C70.5396 10.8675 71.1145 13.1279 71.8803 15.3211C71.2856 15.1588 70.6736 15.0578 70.0585 15.0193C69.9676 12.8975 69.8772 10.7762 70.1655 8.57471Z" fill="#8C5857"/>
<path d="M93.5592 4.62793C93.6172 8.1534 93.9579 11.6738 94.5773 15.145C94.1433 15.1839 93.7094 15.2229 93.2755 15.2618C93.1967 11.2496 93.2547 7.2346 93.5592 4.62793Z" fill="#8C5857"/>
<path d="M106.737 3.64648C106.556 7.49414 106.602 11.3529 106.873 15.195C106.587 15.2006 106.301 15.2057 106.016 15.2112C106.019 11.1995 106.299 7.18864 106.737 3.64648Z" fill="#8C5857"/>
<path d="M121.09 4.58398C120.881 8.15303 121.102 11.7471 121.746 15.2633C121.241 15.0807 120.676 15.0644 120.161 15.2179C119.952 11.6122 120.179 7.98058 121.09 4.58398Z" fill="#8C5857"/>
<path d="M116.393 11.5933C116.633 12.6113 116.872 13.6297 117.112 14.6473C117.142 14.7729 117.171 14.9059 117.131 15.0279C117.073 15.2012 116.884 15.3042 116.701 15.3171C116.519 15.3301 116.34 15.2712 116.166 15.2133C116.213 13.945 116.259 12.6757 116.393 11.5933Z" fill="#8C5857"/>
<path d="M125.154 14.6852C125.503 10.8713 125.851 7.05753 126.2 3.24418C126.252 2.6712 126.308 2.08571 126.542 1.56002C126.775 1.03387 127.223 0.567979 127.789 0.469238C126.169 7.62587 126.065 15.1223 127.487 22.3216C126.717 19.6185 124.938 17.0429 125.154 14.6852Z" fill="#8C5857"/>
<path d="M123.485 149.908C123.686 149.253 124.289 148.784 124.94 148.571C125.591 148.359 126.291 148.365 126.975 148.387C128.387 148.435 129.798 148.55 131.2 148.728C133.508 149.024 135.895 149.543 137.696 151.017C135.15 150.927 132.659 150.297 130.144 149.895C127.628 149.494 124.995 149.329 123.485 149.908Z" fill="#8C5857"/>
<path d="M123.921 146.898C125.339 146.22 127.007 146.309 128.54 146.659C130.072 147.009 131.543 147.601 133.086 147.899C133.479 147.974 133.893 148.029 134.272 147.902C134.675 147.767 134.99 147.436 135.195 147.062C135.399 146.689 135.509 146.273 135.616 145.86C135.209 145.99 134.926 146.362 134.537 146.537C133.875 146.836 133.117 146.503 132.45 146.216C129.535 144.965 126.262 144.562 123.131 145.068C123.117 145.791 123.111 146.545 123.921 146.898Z" fill="#8C5857"/>
</g>
<g opacity="0.349">
<path d="M123.105 2.13212C122.777 6.38122 122.182 11.048 122.182 15.2545C125.884 15.2545 125.737 14.3598 126.585 14.3829C126.908 9.44266 127.426 4.0972 127.688 0.10816C89.8849 0.10816 56.6631 0.030282 21.0333 0.21432C18.9816 0.843388 61.837 2.13212 123.105 2.13212Z" fill="#FFF9F5"/>
<path d="M24.423 14.897C57.631 15.1904 89.7617 15.2549 124.905 15.2549C123.99 24.186 118.959 42.4517 117.86 41.9121C116.77 41.3767 119.12 23.9431 119.12 18.3019C94.6871 17.8759 30.4935 16.7225 24.423 14.897Z" fill="#FFF9F5"/>
<path d="M113.038 58.4399C107.837 88.803 104.053 120.29 111.648 150.145C108.357 119.608 109.377 88.6092 113.038 58.4399Z" fill="#FFF9F5"/>
<path d="M31.6547 44.411C38.8882 42.0677 46.24 39.6668 52.4876 35.332C58.7352 30.9971 63.8317 24.3666 64.4719 16.7896C80.8564 16.8438 97.24 16.8985 113.624 16.9527C102.195 17.3092 90.5372 17.7084 79.7967 21.633C69.0561 25.5576 59.1946 33.6831 56.2212 44.7249C54.7368 50.2372 55.2 56.5636 58.7445 61.038C47.5983 56.2219 36.995 49.7509 31.6547 44.411Z" fill="#FFF9F5"/>
<path d="M6.50682 62.2074C14.5841 63.287 19.7182 59.5094 22.1069 51.8804C22.2724 57.5216 25.3158 62.772 29.3285 66.7406C33.3412 70.7093 38.2852 73.5802 43.1828 76.3853C39.2183 75.9361 35.6762 73.8194 32.032 72.1937C28.3883 70.5679 24.1536 69.4145 20.4659 70.9383C16.8106 72.4486 14.6351 76.1915 13.0622 79.8203C9.38374 88.3084 7.5313 97.5821 7.66852 106.832C4.77212 102.122 4.82635 87.867 4.46847 82.3491C3.99146 74.9918 4.42816 61.9297 6.50682 62.2074Z" fill="#FFF9F5"/>
<path d="M68.2635 144.811C72.9219 145.028 77.6123 145.244 82.2314 144.6C86.8509 143.956 91.4449 142.395 95.032 139.414C98.2955 136.702 100.554 132.974 102.382 129.145C104.832 124.013 106.623 118.565 107.693 112.979C108.259 118.426 108.824 123.873 109.39 129.32C106.002 131.937 102.595 134.835 100.904 138.768C99.2125 142.7 99.798 147.936 103.317 150.374C90.5595 149.379 77.8784 147.392 68.2635 144.811Z" fill="#FFF9F5"/>
<path d="M81.2361 13.7148C85.5445 12.1049 90.1891 11.581 94.5434 10.1004C98.8978 8.61973 103.198 5.85312 104.746 1.52197C108.887 1.46448 113.028 1.40701 117.17 1.34999C113.717 1.10476 110.272 2.26554 107.317 4.06976C104.361 5.87352 101.837 8.29615 99.4253 10.78C98.9255 11.2945 98.4031 11.868 98.3252 12.5805C98.2473 13.2935 98.8824 14.1052 99.5722 13.9095C93.0122 13.795 86.4517 13.6805 81.2361 13.7148Z" fill="#FFF9F5"/>
</g>
<path d="M114.203 15.1585C114.198 15.1585 114.194 15.1581 114.19 15.1581C114.071 15.1506 113.981 15.0491 113.988 14.9309L114.436 7.63521C114.444 7.51699 114.541 7.4266 114.663 7.43402C114.782 7.44144 114.872 7.54295 114.865 7.66117L114.417 14.9569C114.41 15.0709 114.316 15.1585 114.203 15.1585Z" fill="#66373F"/>
<path d="M116.033 15.3983C116.028 15.3983 116.022 15.3978 116.016 15.3978C115.898 15.3881 115.81 15.2847 115.819 15.1665L116.105 11.5896C116.115 11.4718 116.215 11.3819 116.336 11.393C116.454 11.4023 116.542 11.5061 116.533 11.6243L116.247 15.2008C116.238 15.313 116.144 15.3983 116.033 15.3983Z" fill="#66373F"/>
<path d="M120.089 15.3507H120.087C119.969 15.3502 119.873 15.2533 119.874 15.1351C119.894 11.6068 120.188 8.05032 120.747 4.56472C120.766 4.44743 120.876 4.36723 120.993 4.3867C121.11 4.40571 121.19 4.51558 121.171 4.6324C120.615 8.09621 120.323 11.6305 120.303 15.1374C120.303 15.2552 120.206 15.3507 120.089 15.3507Z" fill="#66373F"/>
<path d="M107.69 15.395C107.685 15.395 107.68 15.3945 107.675 15.3945C107.557 15.3857 107.468 15.2833 107.476 15.1651L108.143 5.91308C108.152 5.79487 108.256 5.70772 108.372 5.71421C108.49 5.72302 108.579 5.82546 108.571 5.94367L107.904 15.1957C107.897 15.3088 107.802 15.395 107.69 15.395Z" fill="#66373F"/>
<path d="M26.7135 14.74C26.7084 14.74 26.7038 14.7395 26.6991 14.7395C26.5809 14.7316 26.4914 14.6292 26.4993 14.511L27.2318 3.45894C27.2401 3.34073 27.3421 3.25173 27.4603 3.25868C27.5785 3.26656 27.668 3.36901 27.6606 3.48722L26.9277 14.5393C26.9203 14.6533 26.8262 14.74 26.7135 14.74Z" fill="#66373F"/>
<path d="M24.3998 15.0006C24.3956 15.0006 24.3919 15.0002 24.3877 15.0002C24.2695 14.9937 24.1791 14.8921 24.1852 14.7739L24.8801 2.33489C24.8866 2.21668 24.9885 2.12442 25.1058 2.13231C25.2245 2.1388 25.3149 2.24032 25.3084 2.35853L24.614 14.7976C24.6075 14.9121 24.5129 15.0006 24.3998 15.0006Z" fill="#66373F"/>
<path d="M29.7105 14.8033C29.7072 14.8033 29.7044 14.8033 29.7017 14.8028C29.583 14.7977 29.4912 14.698 29.4963 14.5794L29.761 8.22843C29.7661 8.11021 29.869 8.01935 29.984 8.02306C30.1027 8.02816 30.1944 8.12783 30.1893 8.24651L29.9246 14.5974C29.92 14.7129 29.825 14.8033 29.7105 14.8033Z" fill="#66373F"/>
<path d="M36.3261 14.7369C36.3229 14.7369 36.3205 14.7369 36.3178 14.7369C36.1991 14.7328 36.1069 14.6331 36.1115 14.5144L36.5032 3.73079C36.5074 3.61212 36.6154 3.52033 36.7257 3.52403C36.8444 3.52821 36.9366 3.62788 36.932 3.74609L36.5403 14.5297C36.5357 14.6461 36.4406 14.7369 36.3261 14.7369Z" fill="#66373F"/>
<path d="M37.6487 15.1339C37.53 15.1339 37.4341 15.038 37.4341 14.9193V10.4871C37.4341 10.3689 37.53 10.2725 37.6487 10.2725C37.7674 10.2725 37.8634 10.3689 37.8634 10.4871V14.9193C37.8634 15.0375 37.7674 15.1339 37.6487 15.1339Z" fill="#66373F"/>
<path d="M50.1415 15.1996C50.1387 15.1996 50.1364 15.1996 50.1341 15.1996C50.0159 15.1959 49.9227 15.0967 49.9269 14.9785L50.1438 8.29704C50.148 8.18068 50.243 8.08936 50.358 8.08936C50.3608 8.08936 50.3631 8.08936 50.3654 8.08982C50.4841 8.09353 50.5768 8.19273 50.5726 8.31141L50.3557 14.9929C50.3524 15.1083 50.2574 15.1996 50.1415 15.1996Z" fill="#66373F"/>
<path d="M51.5739 15.3968C51.5712 15.3968 51.5679 15.3968 51.5651 15.3963C51.4465 15.3917 51.3547 15.2916 51.3593 15.1733L51.5577 10.0796C51.5623 9.9614 51.6634 9.86729 51.7802 9.87332C51.8989 9.87796 51.9912 9.97809 51.9865 10.0963L51.7876 15.19C51.7839 15.3064 51.6884 15.3968 51.5739 15.3968Z" fill="#66373F"/>
<path d="M53.5742 15.0014C53.457 15.0014 53.3615 14.9078 53.3592 14.79L53.3017 11.2178C53.2998 11.0991 53.3944 11.0017 53.513 10.9994C53.6276 10.992 53.7295 11.0921 53.7314 11.2108L53.7889 14.7835C53.7907 14.9018 53.6962 14.9996 53.5775 15.0014C53.5761 15.0014 53.5752 15.0014 53.5742 15.0014Z" fill="#66373F"/>
<path d="M65.9215 15.2642C65.9183 15.2642 65.9151 15.2637 65.9118 15.2637C65.7936 15.2586 65.7013 15.1585 65.7069 15.0403L66.0764 6.50775C66.0815 6.38908 66.1839 6.29821 66.2998 6.30238C66.418 6.30748 66.5098 6.40762 66.5047 6.52629L66.1353 15.0588C66.1306 15.1738 66.0356 15.2642 65.9215 15.2642Z" fill="#66373F"/>
<path d="M67.8453 15.1971C67.8398 15.1971 67.8342 15.1966 67.8282 15.1962C67.7095 15.1864 67.6219 15.0831 67.6312 14.9649C67.9353 11.2224 68.1054 7.42253 68.1374 3.67176C68.1383 3.55402 68.2343 3.45898 68.352 3.45898H68.3534C68.4725 3.45991 68.568 3.5568 68.5667 3.67548C68.5351 7.4369 68.3645 11.247 68.0595 14.9996C68.0498 15.1118 67.9561 15.1971 67.8453 15.1971Z" fill="#66373F"/>
<path d="M69.9217 15.0678C69.8039 15.0678 69.708 14.9732 69.7066 14.8554L69.6408 8.7692C69.6394 8.65099 69.7344 8.55364 69.8531 8.55225C69.9676 8.55966 70.0687 8.64589 70.07 8.76457L70.1363 14.8508C70.1377 14.9695 70.0427 15.0664 69.924 15.0678C69.9231 15.0678 69.9226 15.0678 69.9217 15.0678Z" fill="#66373F"/>
<path d="M81.8935 15.2666H81.8921C81.7734 15.2657 81.6779 15.1688 81.6788 15.0506L81.7479 4.86265C81.7488 4.74444 81.8448 4.64941 81.9625 4.64941H81.9639C82.0826 4.65034 82.1781 4.74677 82.1772 4.86544L82.1081 15.0534C82.1072 15.1711 82.0112 15.2666 81.8935 15.2666Z" fill="#66373F"/>
<path d="M83.4835 15.2658C83.4812 15.2658 83.4788 15.2658 83.4765 15.2658C83.3583 15.2621 83.2651 15.1629 83.2688 15.0447L83.4673 8.62744C83.4714 8.50923 83.5697 8.41234 83.6884 8.4193C83.8071 8.42301 83.8998 8.52221 83.8961 8.64042L83.6977 15.0577C83.6944 15.174 83.5989 15.2658 83.4835 15.2658Z" fill="#66373F"/>
<path d="M84.884 15.0018C84.7708 15.0018 84.6758 14.9128 84.6698 14.7983L84.5372 12.2185C84.5312 12.1003 84.6225 11.9993 84.7402 11.9933C84.8538 11.9844 84.96 12.0781 84.9656 12.1968L85.0981 14.7765C85.1042 14.8947 85.0128 14.9958 84.8946 15.0018C84.8918 15.0018 84.8877 15.0018 84.884 15.0018Z" fill="#66373F"/>
<path d="M95.8006 15.3641C95.7992 15.3641 95.7974 15.3641 95.796 15.3641C95.6778 15.3618 95.5837 15.2635 95.586 15.1453L95.8437 2.51808C95.8461 2.39987 95.948 2.31272 96.063 2.30762C96.1812 2.30994 96.2753 2.40822 96.273 2.52689L96.0153 15.1541C96.0129 15.271 95.917 15.3641 95.8006 15.3641Z" fill="#66373F"/>
<path d="M98.055 15.0306H98.0531C97.9344 15.0296 97.8394 14.9327 97.8403 14.8141L97.8955 8.05751C97.8969 7.93976 97.9924 7.84473 98.1101 7.84473C98.1111 7.84473 98.112 7.84473 98.112 7.84473C98.2307 7.84565 98.3262 7.94254 98.3248 8.06121L98.2696 14.8178C98.2687 14.9355 98.1727 15.0306 98.055 15.0306Z" fill="#66373F"/>
<path d="M99.7808 15.1969C99.6682 15.1969 99.5736 15.1088 99.5667 14.9947L99.4007 12.1702C99.3938 12.052 99.4842 11.9505 99.6028 11.9435C99.722 11.9342 99.8226 12.027 99.8295 12.1452L99.9955 14.9697C100.002 15.0879 99.912 15.1894 99.7933 15.1964C99.7892 15.1964 99.7845 15.1969 99.7808 15.1969Z" fill="#66373F"/>
<path d="M93.2918 15.3625C93.2904 15.3625 93.289 15.3625 93.2876 15.3625C93.1689 15.3602 93.0748 15.2619 93.0771 15.1437L93.2862 4.56544C93.2885 4.44677 93.3854 4.36008 93.505 4.35498C93.6237 4.3573 93.7178 4.45511 93.7155 4.57378L93.5064 15.1516C93.5041 15.2689 93.4081 15.3625 93.2918 15.3625Z" fill="#66373F"/>
<path d="M105.967 15.4688C105.962 15.4688 105.958 15.4688 105.953 15.4683C105.835 15.4609 105.745 15.3589 105.752 15.2407L106.484 3.55592C106.492 3.43771 106.591 3.34546 106.711 3.3552C106.83 3.36261 106.919 3.46461 106.912 3.58282L106.181 15.2676C106.174 15.3817 106.079 15.4688 105.967 15.4688Z" fill="#66373F"/>
<path d="M109.953 15.2534C109.951 15.2534 109.948 15.2534 109.946 15.2534C109.827 15.2492 109.735 15.1496 109.739 15.0314L109.923 9.93484C109.927 9.81617 110.029 9.72531 110.145 9.72809C110.263 9.73226 110.356 9.83192 110.351 9.95014L110.168 15.0467C110.163 15.1625 110.068 15.2534 109.953 15.2534Z" fill="#66373F"/>
<path d="M57.5675 15.2837C57.5661 15.2837 57.5643 15.2837 57.5629 15.2837C57.4447 15.2814 57.3506 15.1831 57.3529 15.0644L57.5606 4.80324C57.5629 4.68503 57.6658 4.59602 57.7794 4.59277C57.898 4.59509 57.9921 4.69337 57.9898 4.81158L57.7821 15.0728C57.7798 15.1905 57.6839 15.2837 57.5675 15.2837Z" fill="#66373F"/>
<path d="M58.8149 15.1925C58.6967 15.1925 58.6008 15.097 58.6003 14.9788L58.5729 9.71215C58.5725 9.59347 58.668 9.49705 58.7867 9.49658C58.7871 9.49658 58.7876 9.49658 58.7876 9.49658C58.9058 9.49658 59.0017 9.59208 59.0027 9.70983L59.0296 14.9765C59.03 15.0951 58.9345 15.1916 58.8159 15.192L58.8149 15.1925Z" fill="#66373F"/>
<path d="M40.801 14.8293C40.6828 14.8293 40.5868 14.7333 40.5863 14.6156L40.5609 5.0813C40.5604 4.96263 40.6563 4.86621 40.7746 4.86621H40.7755C40.8937 4.86621 40.9897 4.96217 40.9901 5.07992L41.0156 14.6142C41.0161 14.7324 40.9201 14.8288 40.801 14.8293V14.8293Z" fill="#66373F"/>
<path d="M113.925 153.182C113.814 153.182 113.72 153.096 113.711 152.983C112.391 135.02 111.314 118.793 111.491 102.103C111.7 82.3455 113.728 65.9716 117.691 52.0464C118.386 49.6052 119.164 47.1205 119.916 44.7173C122.86 35.3105 125.903 25.5833 124.873 15.7746C124.86 15.6569 124.946 15.5512 125.064 15.5387C125.178 15.5271 125.287 15.6119 125.3 15.7296C126.339 25.6265 123.282 35.3967 120.325 44.8452C119.574 47.2456 118.798 49.7276 118.104 52.1632C109.069 83.911 111.88 122.192 114.139 152.951C114.148 153.069 114.059 153.173 113.941 153.181C113.936 153.182 113.93 153.182 113.925 153.182Z" fill="#66373F"/>
<path d="M100.069 15.5312C73.386 15.5312 46.5437 15.2609 19.9935 14.7232C19.8753 14.7209 19.7812 14.6226 19.7836 14.5039C19.7859 14.3857 19.8902 14.2972 20.0028 14.2935C53.8988 14.9805 88.2755 15.2313 122.181 15.0393H122.182C122.3 15.0393 122.396 15.1348 122.397 15.2526C122.397 15.3713 122.302 15.4677 122.183 15.4686C114.831 15.5108 107.454 15.5312 100.069 15.5312Z" fill="#66373F"/>
<path d="M111.813 156.465C111.726 156.465 111.639 156.462 111.554 156.456C83.0357 154.638 57.1586 153.432 6.04324 155.748C4.96126 155.799 2.41067 155.187 2.09962 148.471C1.87015 143.516 1.58134 138.458 1.3018 133.566C-0.247455 106.445 -1.84955 78.4003 5.65105 52.0467C8.97162 40.3809 17.9635 15.519 18.3131 14.5548L19.2838 2.98494C19.3301 2.43283 19.383 1.80654 19.6222 1.24469C19.9008 0.591054 20.4112 0.12748 20.9879 0.00463318C21.0027 0.00138817 21.0175 0 21.0328 0H127.698C127.811 0 127.903 0.0871487 127.911 0.198406C127.912 0.209068 127.912 0.220197 127.911 0.23086C127.911 0.233641 127.911 0.236418 127.911 0.239199L127.831 0.990192C127.324 5.75294 126.8 10.6779 126.798 14.5349C128.472 28.894 130.213 38.7598 131.898 48.2996C135.709 69.8914 139 88.5391 139 150.112C139 150.147 138.991 150.182 138.974 150.214C138.967 150.227 138.234 151.546 136.595 151.253C136.279 151.197 135.941 151.136 135.586 151.072C131.815 150.39 125.504 149.25 123.719 150.155C123.136 150.451 122.226 151.09 121.172 151.831C118.379 153.795 114.582 156.464 111.813 156.465ZM56.2407 154.043C77.8844 154.043 94.2439 154.923 111.581 156.027C114.22 156.197 118.096 153.469 120.927 151.48C121.994 150.73 122.915 150.082 123.525 149.771C125.439 148.801 131.592 149.913 135.664 150.649C136.018 150.713 136.356 150.774 136.671 150.831C137.853 151.042 138.446 150.247 138.572 150.052C138.57 88.5618 135.282 69.9401 131.476 48.3743C129.79 38.8251 128.047 28.951 126.371 14.5724C126.37 14.5641 126.369 14.5557 126.369 14.5474C126.369 10.6654 126.896 5.72373 127.404 0.944758L127.448 0.530792C127.129 0.695361 126.854 1.00781 126.682 1.4125C126.469 1.91131 126.422 2.47501 126.376 3.02063L125.403 14.6192C125.393 14.7374 125.291 14.8264 125.171 14.8148C125.053 14.8051 124.965 14.7013 124.975 14.5831L125.949 2.98448C125.995 2.43237 126.047 1.80607 126.287 1.24422C126.426 0.91926 126.621 0.641122 126.854 0.428806H21.0565C20.6249 0.529865 20.2374 0.896084 20.0172 1.4125C19.8048 1.91131 19.7576 2.47501 19.7117 3.02063L18.7381 14.6192C18.7368 14.6378 18.7321 14.6568 18.7266 14.6744C18.6339 14.9294 9.42962 40.341 6.06409 52.1639C-1.41658 78.4476 0.183672 106.456 1.73015 133.541C2.00968 138.435 2.29895 143.494 2.52841 148.451C2.7347 152.908 4.00815 155.411 6.02422 155.319C26.0867 154.41 42.2659 154.043 56.2407 154.043Z" fill="#66373F"/>
<path d="M134.209 86.0554C134.096 86.0554 134.002 85.9673 133.995 85.8523C133.966 85.3299 133.946 84.8431 133.933 84.3652C133.93 84.2465 134.023 84.1478 134.142 84.1445C134.144 84.1445 134.146 84.1445 134.148 84.1445C134.264 84.1445 134.359 84.2373 134.362 84.3536C134.375 84.8274 134.395 85.31 134.424 85.8287C134.431 85.9469 134.34 86.0484 134.221 86.0544C134.217 86.0549 134.213 86.0554 134.209 86.0554Z" fill="#66373F"/>
<path d="M134.833 93.5882C134.722 93.5882 134.628 93.502 134.619 93.3893C134.542 92.3555 134.445 91.3042 134.351 90.288C134.257 89.2732 134.16 88.2228 134.082 87.1876C134.074 87.0694 134.163 86.966 134.281 86.9577C134.4 86.9484 134.502 87.0374 134.511 87.1556C134.588 88.1876 134.685 89.2348 134.778 90.2486C134.872 91.2666 134.97 92.3198 135.047 93.3578C135.056 93.476 134.967 93.5789 134.849 93.5877C134.844 93.5882 134.838 93.5882 134.833 93.5882Z" fill="#66373F"/>
<path d="M118.339 150.341C118.262 150.341 118.187 150.3 118.149 150.226C118.094 150.122 118.134 149.992 118.238 149.937L118.467 149.816C119.458 149.295 120.239 148.883 121.22 148.098C121.226 148.094 121.232 148.089 121.239 148.085C123.684 146.53 125.822 145.722 128.918 146.502C129.213 146.577 129.554 146.668 129.922 146.767C131.395 147.162 134.459 147.983 134.808 147.497C135.328 146.628 135.319 145.644 135.307 144.504C135.305 144.331 135.304 144.155 135.304 143.974C135.304 141.131 135.31 138.299 135.316 135.472C135.347 121.513 135.377 108.327 134.693 94.7255C134.687 94.6073 134.778 94.5067 134.896 94.5007C135.01 94.491 135.116 94.586 135.121 94.7042C135.805 108.317 135.774 122.122 135.745 135.473C135.738 138.299 135.733 141.132 135.733 143.974C135.733 144.153 135.734 144.329 135.736 144.5C135.748 145.705 135.759 146.745 135.166 147.734C134.672 148.421 132.542 147.914 129.81 147.182C129.445 147.084 129.106 146.993 128.812 146.92C125.856 146.175 123.884 146.913 121.479 148.442C120.47 149.248 119.634 149.688 118.666 150.197L118.438 150.317C118.407 150.333 118.373 150.341 118.339 150.341Z" fill="#66373F"/>
<path d="M115.242 152.638C115.174 152.638 115.108 152.606 115.066 152.547C114.998 152.449 115.021 152.316 115.119 152.248C115.606 151.906 116.114 151.539 116.628 151.156C116.723 151.086 116.858 151.106 116.928 151.2C116.999 151.296 116.979 151.43 116.884 151.501C116.367 151.885 115.856 152.255 115.364 152.599C115.328 152.625 115.285 152.638 115.242 152.638Z" fill="#66373F"/>
<path d="M133.197 75.1316C133.093 75.1316 133.001 75.0551 132.986 74.9489L132.626 72.575C132.609 72.4577 132.689 72.3488 132.807 72.3311C132.924 72.3131 133.033 72.3942 133.05 72.511L133.409 74.885C133.427 75.0022 133.347 75.1112 133.229 75.1288C133.218 75.1307 133.208 75.1316 133.197 75.1316Z" fill="#66373F"/>
<path d="M132.614 71.2735C132.508 71.2735 132.416 71.1951 132.402 71.0876C131.7 65.9071 130.89 60.3401 129.853 53.5682C129.835 53.4509 129.915 53.3415 130.033 53.3239C130.152 53.3054 130.259 53.3865 130.277 53.5033C131.314 60.278 132.124 65.8473 132.827 71.031C132.842 71.1483 132.76 71.2563 132.643 71.2721C132.633 71.273 132.623 71.2735 132.614 71.2735Z" fill="#66373F"/>
<path d="M129.862 52.432C129.758 52.432 129.667 52.3569 129.651 52.2512C128.451 44.8026 127.31 37.3089 126.207 30.0623C125.796 27.3625 125.386 24.6687 124.974 21.9823C124.956 21.865 125.037 21.7556 125.154 21.7375C125.269 21.719 125.38 21.8001 125.398 21.9169C125.811 24.6038 126.22 27.2971 126.631 29.9974C127.734 37.2431 128.875 44.7358 130.074 52.1831C130.093 52.2999 130.014 52.4098 129.896 52.4288C129.885 52.4311 129.874 52.432 129.862 52.432Z" fill="#66373F"/>
</svg>
