<svg width="479" height="203" viewBox="0 0 479 203" fill="none" xmlns="http://www.w3.org/2000/svg">
<path d="M477.79 98.9391C474.628 127.003 458.267 188.966 440.998 196.795C428.725 202.359 401.123 201.559 387.646 201.559C345.308 201.559 290.257 201.411 239.915 201.411C189.573 201.411 134.521 201.559 92.1841 201.559C78.7071 201.559 51.105 202.36 38.832 196.795C21.563 188.966 5.20304 127.003 2.04504 98.9391C1.04504 90.0781 0.360043 71.2071 6.18904 64.4571C11.527 58.2721 23.333 54.9981 35.231 54.6331C50.523 26.3181 89.967 12.4021 122.004 13.6741C144.189 14.5591 160.008 22.7391 168.05 20.8361C193.707 14.7671 195.694 0.549072 239.916 0.549072C276.263 0.549072 286.124 14.7671 311.782 20.8361C319.824 22.7391 335.643 14.5591 357.828 13.6741C389.837 12.4021 428.495 26.3411 443.8 54.6141C455.971 54.8501 468.189 58.1331 473.647 64.4571C479.47 71.2071 478.785 90.0771 477.79 98.9391Z" fill="url(#paint0_linear_54_154)"/>
<mask id="mask0_54_154" style="mask-type:luminance" maskUnits="userSpaceOnUse" x="1" y="0" width="478" height="202">
<path d="M477.79 98.9391C474.628 127.003 458.267 188.966 440.998 196.795C428.725 202.359 401.123 201.559 387.646 201.559C345.308 201.559 290.257 201.411 239.915 201.411C189.573 201.411 134.521 201.559 92.1841 201.559C78.7071 201.559 51.105 202.36 38.832 196.795C21.563 188.966 5.20304 127.003 2.04504 98.9391C1.04504 90.0781 0.360043 71.2071 6.18904 64.4571C11.527 58.2721 23.333 54.9981 35.231 54.6331C50.523 26.3181 89.967 12.4021 122.004 13.6741C144.189 14.5591 160.008 22.7391 168.05 20.8361C193.707 14.7671 195.694 0.549072 239.916 0.549072C276.263 0.549072 286.124 14.7671 311.782 20.8361C319.824 22.7391 335.643 14.5591 357.828 13.6741C389.837 12.4021 428.495 26.3411 443.8 54.6141C455.971 54.8501 468.189 58.1331 473.647 64.4571C479.47 71.2071 478.785 90.0771 477.79 98.9391Z" fill="white"/>
</mask>
<g mask="url(#mask0_54_154)">
<path d="M215.107 118.473C217.229 117.312 217.273 113.411 214.908 112.486C213.011 111.743 210.327 113.042 210.537 116.175C206.615 116.983 202.69 118.147 198.843 119.526C197.332 117.175 193.514 117.218 193.002 120.162C192.484 123.14 195.789 124.36 196.93 124.317C196.045 125.294 195.422 127.406 196.134 128.624C197.618 131.163 201.494 130.915 201.577 125.992C205.076 125.005 208.575 124.016 212.153 123.051C213.401 124.865 216.621 125.191 217.695 123.247C219.374 120.208 216.833 118.608 215.107 118.473Z" fill="#777CA1"/>
<path d="M261.32 104.272C263.442 103.111 263.486 99.2101 261.121 98.2851C259.225 97.5421 256.54 98.8411 256.75 101.974C252.828 102.782 248.903 103.946 245.056 105.324C243.545 102.974 239.727 103.017 239.215 105.961C238.697 108.939 242.002 110.159 243.143 110.116C242.258 111.093 241.635 113.205 242.347 114.423C243.831 116.962 247.707 116.714 247.79 111.791C251.289 110.804 254.788 109.815 258.366 108.85C259.614 110.664 262.834 110.99 263.908 109.046C265.587 106.008 263.046 104.408 261.32 104.272Z" fill="#777CA1"/>
<path d="M308.332 89.8261C310.455 88.6651 310.498 84.7651 308.133 83.8391C306.237 83.0971 303.553 84.3961 303.762 87.5281C299.84 88.3371 295.916 89.5001 292.069 90.8791C290.558 88.5291 286.74 88.5721 286.228 91.5161C285.71 94.4941 289.015 95.7141 290.156 95.6701C289.271 96.6481 288.648 98.7601 289.36 99.9781C290.844 102.516 294.719 102.269 294.803 97.3461C298.302 96.3581 301.801 95.3701 305.378 94.4051C306.627 96.2201 309.846 96.5441 310.92 94.6011C312.6 91.5611 310.059 89.9621 308.332 89.8261Z" fill="#777CA1"/>
<path d="M247.57 140.474C249.693 139.313 249.736 135.413 247.371 134.487C245.475 133.744 242.791 135.043 243 138.177C239.078 138.985 235.154 140.149 231.307 141.527C229.796 139.177 225.978 139.22 225.466 142.164C224.948 145.141 228.253 146.362 229.394 146.319C228.508 147.296 227.886 149.408 228.598 150.626C230.081 153.165 233.957 152.917 234.041 147.994C237.54 147.006 241.039 146.018 244.616 145.053C245.864 146.867 249.084 147.193 250.158 145.249C251.838 142.209 249.297 140.609 247.57 140.474Z" fill="#777CA1"/>
<path d="M293.783 126.273C295.906 125.112 295.949 121.212 293.584 120.286C291.688 119.543 289.004 120.842 289.213 123.975C285.291 124.783 281.367 125.947 277.52 127.325C276.009 124.975 272.191 125.018 271.679 127.962C271.161 130.94 274.466 132.16 275.607 132.117C274.721 133.094 274.099 135.206 274.811 136.424C276.294 138.963 280.17 138.715 280.254 133.792C283.753 132.805 287.252 131.816 290.829 130.851C292.078 132.665 295.297 132.991 296.371 131.047C298.051 128.009 295.51 126.409 293.783 126.273Z" fill="#777CA1"/>
<path d="M340.795 111.827C342.917 110.666 342.961 106.767 340.596 105.84C338.7 105.098 336.016 106.397 336.225 109.529C332.303 110.338 328.379 111.501 324.532 112.88C323.021 110.53 319.202 110.573 318.691 113.517C318.173 116.495 321.478 117.715 322.619 117.671C321.734 118.649 321.111 120.76 321.823 121.979C323.307 124.517 327.183 124.27 327.266 119.346C330.765 118.359 334.263 117.371 337.841 116.406C339.089 118.22 342.309 118.545 343.383 116.602C345.062 113.563 342.522 111.963 340.795 111.827Z" fill="#777CA1"/>
<path d="M310.917 152.984C308.509 153.215 306.283 150.012 307.719 147.919C308.871 146.239 311.821 145.807 313.407 148.518C317.107 146.984 321.007 145.743 324.964 144.723C324.895 141.93 328.078 139.822 330.155 141.97C332.255 144.143 330.206 147.009 329.238 147.614C330.519 147.925 332.22 149.323 332.315 150.731C332.513 153.665 329.167 155.636 326.333 151.609C322.883 152.756 319.434 153.904 315.931 155.114C315.917 157.316 313.435 159.393 311.456 158.388C308.361 156.816 309.565 154.066 310.917 152.984Z" fill="#777CA1"/>
<path d="M264.705 167.185C262.297 167.416 260.071 164.213 261.507 162.12C262.659 160.44 265.609 160.008 267.195 162.718C270.895 161.185 274.795 159.945 278.752 158.924C278.683 156.131 281.866 154.023 283.943 156.171C286.044 158.344 283.994 161.21 283.026 161.815C284.307 162.127 286.008 163.524 286.103 164.932C286.301 167.866 282.955 169.837 280.121 165.81C276.671 166.958 273.222 168.105 269.719 169.315C269.705 171.517 267.223 173.594 265.243 172.589C262.148 171.017 263.352 168.267 264.705 167.185Z" fill="#777CA1"/>
<path d="M217.692 181.631C215.284 181.861 213.058 178.659 214.494 176.565C215.646 174.885 218.596 174.454 220.182 177.164C223.882 175.631 227.782 174.39 231.74 173.37C231.671 170.577 234.854 168.469 236.931 170.616C239.032 172.79 236.983 175.655 236.014 176.261C237.295 176.571 238.996 177.97 239.091 179.377C239.289 182.311 235.943 184.282 233.109 180.256C229.659 181.403 226.21 182.551 222.707 183.761C222.693 185.963 220.211 188.04 218.231 187.035C215.136 185.463 216.34 182.712 217.692 181.631Z" fill="#777CA1"/>
<path d="M296.41 189.418C294.002 189.649 291.776 186.447 293.212 184.352C294.364 182.672 297.314 182.24 298.9 184.951C302.599 183.417 306.5 182.177 310.457 181.157C310.388 178.364 313.571 176.256 315.647 178.403C317.748 180.577 315.699 183.442 314.73 184.047C316.011 184.359 317.713 185.757 317.807 187.164C318.004 190.098 314.659 192.069 311.825 188.043C308.375 189.19 304.925 190.338 301.423 191.548C301.409 193.75 298.927 195.827 296.947 194.822C293.853 193.25 295.058 190.5 296.41 189.418Z" fill="#777CA1"/>
<path d="M250.197 203.619C247.789 203.85 245.563 200.647 246.999 198.553C248.151 196.873 251.101 196.441 252.687 199.152C256.386 197.618 260.287 196.378 264.244 195.358C264.175 192.565 267.358 190.457 269.434 192.604C271.534 194.778 269.486 197.643 268.517 198.248C269.798 198.56 271.499 199.958 271.594 201.365C271.791 204.299 268.446 206.27 265.612 202.244C262.162 203.391 258.713 204.539 255.21 205.749C255.196 207.951 252.714 210.028 250.734 209.024C247.641 207.451 248.845 204.7 250.197 203.619Z" fill="#777CA1"/>
<path d="M363.102 72.9972C365.224 71.8362 365.268 67.9352 362.903 67.0102C361.006 66.2672 358.322 67.5662 358.532 70.6992C354.61 71.5072 350.686 72.6712 346.839 74.0492C345.328 71.6992 341.51 71.7422 340.998 74.6862C340.48 77.6642 343.785 78.8842 344.926 78.8412C344.041 79.8182 343.418 81.9302 344.13 83.1482C345.614 85.6872 349.489 85.4392 349.573 80.5162C353.072 79.5292 356.57 78.5402 360.149 77.5752C361.397 79.3902 364.617 79.7152 365.691 77.7712C367.369 74.7322 364.828 73.1332 363.102 72.9972Z" fill="#777CA1"/>
<path d="M409.315 58.7972C411.437 57.6362 411.481 53.7362 409.116 52.8102C407.22 52.0672 404.535 53.3662 404.745 56.4992C400.823 57.3072 396.899 58.4712 393.052 59.8492C391.541 57.4992 387.723 57.5422 387.211 60.4862C386.693 63.4632 389.998 64.6842 391.139 64.6412C390.254 65.6182 389.631 67.7302 390.343 68.9482C391.827 71.4872 395.702 71.2392 395.786 66.3162C399.285 65.3292 402.784 64.3402 406.362 63.3752C407.61 65.1902 410.83 65.5152 411.904 63.5712C413.582 60.5322 411.041 58.9332 409.315 58.7972Z" fill="#777CA1"/>
<path d="M456.327 44.3512C458.449 43.1902 458.493 39.2902 456.128 38.3642C454.232 37.6222 451.548 38.9212 451.757 42.0532C447.835 42.8622 443.911 44.0252 440.064 45.4042C438.553 43.0542 434.735 43.0972 434.223 46.0412C433.705 49.0192 437.01 50.2392 438.151 50.1952C437.266 51.1732 436.643 53.2852 437.355 54.5032C438.839 57.0412 442.715 56.7942 442.798 51.8712C446.297 50.8832 449.795 49.8952 453.373 48.9302C454.622 50.7442 457.841 51.0702 458.915 49.1262C460.594 46.0862 458.053 44.4862 456.327 44.3512Z" fill="#777CA1"/>
<path d="M395.565 94.9982C397.688 93.8372 397.731 89.9372 395.366 89.0112C393.47 88.2682 390.786 89.5672 390.995 92.7002C387.073 93.5082 383.149 94.6722 379.302 96.0502C377.791 93.7002 373.973 93.7432 373.461 96.6872C372.944 99.6652 376.248 100.885 377.389 100.842C376.503 101.819 375.881 103.931 376.593 105.149C378.077 107.688 381.953 107.44 382.036 102.517C385.535 101.53 389.034 100.541 392.611 99.5762C393.86 101.39 397.079 101.716 398.153 99.7722C399.832 96.7332 397.291 95.1342 395.565 94.9982Z" fill="#777CA1"/>
<path d="M441.778 80.7982C443.901 79.6372 443.944 75.7362 441.579 74.8112C439.683 74.0682 436.999 75.3672 437.208 78.5012C433.286 79.3092 429.362 80.4732 425.515 81.8512C424.004 79.5012 420.186 79.5442 419.674 82.4882C419.157 85.4662 422.461 86.6862 423.602 86.6432C422.717 87.6202 422.094 89.7322 422.806 90.9502C424.29 93.4892 428.166 93.2412 428.249 88.3182C431.748 87.3302 435.247 86.3422 438.824 85.3772C440.073 87.1922 443.292 87.5172 444.366 85.5732C446.045 82.5332 443.504 80.9342 441.778 80.7982Z" fill="#777CA1"/>
<path d="M488.79 66.3522C490.912 65.1912 490.956 61.2912 488.591 60.3652C486.694 59.6232 484.011 60.9222 484.22 64.0542C480.298 64.8632 476.373 66.0262 472.527 67.4052C471.016 65.0552 467.198 65.0982 466.686 68.0422C466.168 71.0202 469.473 72.2402 470.614 72.1962C469.729 73.1732 469.106 75.2862 469.818 76.5042C471.302 79.0422 475.178 78.7952 475.261 73.8722C478.76 72.8842 482.258 71.8962 485.836 70.9312C487.084 72.7452 490.304 73.0702 491.378 71.1262C493.057 68.0872 490.517 66.4872 488.79 66.3522Z" fill="#777CA1"/>
<path d="M458.912 107.509C456.504 107.74 454.278 104.537 455.714 102.444C456.866 100.764 459.816 100.332 461.402 103.042C465.101 101.509 469.002 100.269 472.959 99.2482C472.89 96.4552 476.073 94.3472 478.15 96.4952C480.251 98.6682 478.201 101.534 477.233 102.139C478.514 102.45 480.215 103.848 480.31 105.256C480.507 108.19 477.162 110.161 474.328 106.134C470.878 107.281 467.429 108.429 463.926 109.639C463.912 111.841 461.43 113.918 459.45 112.913C456.355 111.341 457.56 108.591 458.912 107.509Z" fill="#777CA1"/>
<path d="M412.699 121.709C410.291 121.94 408.065 118.737 409.501 116.644C410.653 114.964 413.603 114.532 415.189 117.243C418.888 115.709 422.789 114.468 426.746 113.448C426.677 110.655 429.86 108.547 431.937 110.695C434.038 112.868 431.988 115.734 431.02 116.339C432.301 116.651 434.002 118.048 434.097 119.456C434.294 122.39 430.949 124.361 428.115 120.335C424.665 121.481 421.216 122.629 417.713 123.839C417.699 126.041 415.217 128.118 413.237 127.113C410.143 125.541 411.347 122.791 412.699 121.709Z" fill="#777CA1"/>
<path d="M365.687 136.155C363.279 136.385 361.053 133.183 362.489 131.089C363.641 129.409 366.591 128.977 368.177 131.688C371.876 130.155 375.777 128.914 379.734 127.894C379.665 125.101 382.848 122.993 384.924 125.14C387.025 127.314 384.975 130.179 384.007 130.785C385.288 131.095 386.989 132.494 387.084 133.901C387.282 136.835 383.936 138.806 381.102 134.78C377.653 135.927 374.203 137.075 370.7 138.285C370.686 140.487 368.204 142.564 366.224 141.559C363.13 139.987 364.334 137.236 365.687 136.155Z" fill="#777CA1"/>
<path d="M444.404 143.943C441.996 144.173 439.77 140.971 441.207 138.877C442.359 137.197 445.309 136.765 446.895 139.476C450.594 137.942 454.495 136.702 458.452 135.682C458.383 132.889 461.566 130.781 463.642 132.928C465.743 135.102 463.694 137.967 462.725 138.572C464.006 138.884 465.707 140.282 465.802 141.689C465.999 144.623 462.654 146.594 459.82 142.568C456.37 143.715 452.921 144.863 449.418 146.073C449.404 148.275 446.922 150.352 444.943 149.347C441.848 147.775 443.052 145.024 444.404 143.943Z" fill="#777CA1"/>
<path d="M398.191 158.144C395.783 158.374 393.557 155.172 394.994 153.078C396.146 151.398 399.096 150.966 400.682 153.677C404.381 152.144 408.282 150.903 412.239 149.883C412.17 147.09 415.353 144.982 417.429 147.129C419.53 149.303 417.481 152.168 416.512 152.773C417.793 153.084 419.494 154.483 419.589 155.89C419.786 158.824 416.44 160.795 413.607 156.769C410.157 157.916 406.708 159.064 403.205 160.274C403.191 162.476 400.709 164.553 398.729 163.548C395.635 161.975 396.839 159.225 398.191 158.144Z" fill="#777CA1"/>
<path d="M351.18 172.589C348.772 172.82 346.546 169.617 347.982 167.523C349.134 165.843 352.084 165.411 353.67 168.121C357.369 166.588 361.27 165.347 365.227 164.327C365.158 161.534 368.341 159.426 370.418 161.574C372.519 163.747 370.469 166.613 369.501 167.218C370.782 167.53 372.483 168.927 372.578 170.335C372.776 173.269 369.43 175.24 366.596 171.213C363.146 172.361 359.697 173.508 356.194 174.718C356.18 176.92 353.698 178.997 351.719 177.992C348.623 176.421 349.827 173.671 351.18 172.589Z" fill="#777CA1"/>
<path d="M74.3518 161.724C76.4738 160.563 76.5178 156.663 74.1528 155.737C72.2568 154.994 69.5728 156.293 69.7818 159.427C65.8598 160.235 61.9358 161.399 58.0888 162.777C56.5778 160.427 52.7598 160.47 52.2478 163.414C51.7308 166.391 55.0348 167.612 56.1758 167.569C55.2908 168.546 54.6678 170.658 55.3798 171.876C56.8638 174.415 60.7398 174.167 60.8228 169.244C64.3218 168.257 67.8198 167.268 71.3978 166.303C72.6458 168.117 75.8658 168.443 76.9398 166.499C78.6198 163.459 76.0788 161.859 74.3518 161.724Z" fill="#777CA1"/>
<path d="M120.565 147.523C122.687 146.362 122.731 142.462 120.366 141.536C118.47 140.793 115.786 142.092 115.995 145.225C112.073 146.033 108.149 147.197 104.302 148.575C102.791 146.225 98.9729 146.268 98.4609 149.212C97.9429 152.19 101.248 153.41 102.389 153.367C101.504 154.344 100.881 156.456 101.593 157.674C103.077 160.213 106.953 159.965 107.036 155.042C110.535 154.055 114.034 153.066 117.612 152.101C118.86 153.915 122.08 154.241 123.154 152.297C124.832 149.259 122.292 147.659 120.565 147.523Z" fill="#777CA1"/>
<path d="M167.578 133.077C169.7 131.916 169.744 128.017 167.379 127.09C165.483 126.348 162.798 127.647 163.008 130.779C159.086 131.588 155.161 132.751 151.314 134.13C149.803 131.78 145.985 131.823 145.473 134.767C144.955 137.745 148.26 138.965 149.401 138.921C148.516 139.899 147.893 142.01 148.605 143.229C150.089 145.767 153.964 145.52 154.048 140.596C157.547 139.609 161.046 138.621 164.624 137.656C165.872 139.47 169.092 139.795 170.166 137.852C171.845 134.813 169.304 133.213 167.578 133.077Z" fill="#777CA1"/>
<path d="M106.816 183.725C108.938 182.564 108.982 178.663 106.617 177.738C104.721 176.995 102.036 178.294 102.246 181.428C98.3239 182.236 94.3989 183.4 90.5519 184.778C89.0409 182.428 85.2229 182.471 84.7109 185.415C84.1929 188.393 87.4979 189.613 88.6389 189.57C87.7539 190.547 87.1309 192.659 87.8429 193.877C89.3269 196.416 93.2029 196.168 93.2859 191.245C96.7849 190.258 100.284 189.269 103.862 188.304C105.11 190.118 108.33 190.444 109.404 188.5C111.083 185.46 108.542 183.86 106.816 183.725Z" fill="#777CA1"/>
<path d="M153.029 169.524C155.151 168.363 155.195 164.462 152.83 163.537C150.934 162.794 148.249 164.093 148.459 167.227C144.537 168.035 140.612 169.199 136.765 170.577C135.254 168.227 131.436 168.27 130.924 171.214C130.406 174.192 133.711 175.412 134.852 175.369C133.967 176.346 133.344 178.458 134.056 179.676C135.54 182.215 139.416 181.967 139.499 177.044C142.998 176.056 146.497 175.068 150.075 174.103C151.323 175.917 154.543 176.243 155.617 174.299C157.296 171.26 154.755 169.66 153.029 169.524Z" fill="#777CA1"/>
<path d="M200.041 155.078C202.163 153.917 202.206 150.018 199.842 149.091C197.946 148.349 195.262 149.648 195.471 152.781C191.549 153.59 187.625 154.753 183.778 156.132C182.267 153.782 178.449 153.825 177.937 156.769C177.419 159.746 180.724 160.967 181.865 160.923C180.98 161.899 180.357 164.012 181.069 165.231C182.553 167.769 186.429 167.521 186.512 162.598C190.011 161.611 193.51 160.622 197.087 159.658C198.336 161.471 201.555 161.797 202.629 159.853C204.308 156.814 201.767 155.214 200.041 155.078Z" fill="#777CA1"/>
<path d="M170.163 196.235C167.755 196.465 165.529 193.263 166.965 191.17C168.117 189.49 171.067 189.058 172.654 191.768C176.353 190.235 180.254 188.994 184.211 187.974C184.142 185.181 187.325 183.073 189.401 185.221C191.502 187.394 189.452 190.26 188.484 190.865C189.765 191.176 191.466 192.574 191.561 193.982C191.759 196.916 188.413 198.887 185.579 194.86C182.129 196.007 178.68 197.155 175.177 198.365C175.163 200.567 172.681 202.644 170.702 201.639C167.606 200.067 168.81 197.317 170.163 196.235Z" fill="#777CA1"/>
<path d="M123.95 210.435C121.542 210.667 119.316 207.463 120.752 205.37C121.904 203.69 124.854 203.258 126.44 205.969C130.139 204.435 134.04 203.194 137.997 202.174C137.928 199.381 141.111 197.273 143.187 199.421C145.288 201.594 143.238 204.46 142.27 205.065C143.551 205.376 145.252 206.774 145.347 208.182C145.545 211.116 142.199 213.087 139.365 209.06C135.915 210.207 132.466 211.355 128.963 212.565C128.949 214.767 126.467 216.844 124.487 215.839C121.393 214.268 122.598 211.518 123.95 210.435Z" fill="#777CA1"/>
<path d="M178.559 -0.470958C180.681 -1.63196 180.725 -5.53096 178.36 -6.45796C176.464 -7.19996 173.78 -5.90196 173.989 -2.76896C170.067 -1.95996 166.143 -0.796948 162.296 0.582051C160.785 -1.76795 156.967 -1.72496 156.455 1.21904C155.937 4.19604 159.242 5.41704 160.383 5.37304C159.498 6.35004 158.875 8.46305 159.587 9.68105C161.071 12.2191 164.947 11.9711 165.03 7.04805C168.529 6.06105 172.027 5.07205 175.605 4.10705C176.853 5.92105 180.073 6.24605 181.147 4.30205C182.826 1.26505 180.285 -0.334958 178.559 -0.470958Z" fill="#777CA1"/>
<path d="M211.022 21.53C213.144 20.369 213.188 16.469 210.823 15.543C208.927 14.801 206.242 16.099 206.452 19.232C202.53 20.041 198.605 21.204 194.758 22.583C193.247 20.232 189.429 20.275 188.917 23.219C188.399 26.197 191.704 27.418 192.845 27.374C191.96 28.351 191.337 30.463 192.049 31.682C193.533 34.22 197.409 33.972 197.492 29.049C200.991 28.062 204.489 27.073 208.068 26.109C209.316 27.923 212.536 28.248 213.61 26.304C215.289 23.266 212.748 21.666 211.022 21.53Z" fill="#777CA1"/>
<path d="M257.235 7.33019C259.357 6.16919 259.401 2.26919 257.036 1.34319C255.14 0.600188 252.456 1.89921 252.665 5.03221C248.743 5.84121 244.818 7.0042 240.971 8.3832C239.46 6.0322 235.642 6.07621 235.13 9.01921C234.612 11.9982 237.917 13.2182 239.058 13.1742C238.173 14.1512 237.55 16.2632 238.262 17.4822C239.746 20.0202 243.622 19.7722 243.705 14.8492C247.204 13.8622 250.702 12.8732 254.28 11.9092C255.528 13.7232 258.748 14.0482 259.822 12.1042C261.502 9.06521 258.961 7.46619 257.235 7.33019Z" fill="#777CA1"/>
<path d="M304.247 -7.11487C306.369 -8.27587 306.413 -12.1769 304.048 -13.1019C302.152 -13.8449 299.468 -12.5459 299.678 -9.41388C295.756 -8.60488 291.831 -7.44087 287.984 -6.06287C286.473 -8.41287 282.655 -8.36988 282.143 -5.42588C281.625 -2.44788 284.93 -1.22788 286.07 -1.27088C285.185 -0.293877 284.562 1.81813 285.274 3.03613C286.758 5.57413 290.634 5.32711 290.717 0.404111C294.216 -0.583889 297.714 -1.57187 301.292 -2.53687C302.54 -0.722868 305.761 -0.396884 306.834 -2.34088C308.514 -5.38088 305.973 -6.97887 304.247 -7.11487Z" fill="#777CA1"/>
<path d="M274.369 34.041C271.961 34.273 269.735 31.07 271.171 28.976C272.323 27.296 275.273 26.864 276.859 29.575C280.558 28.041 284.459 26.801 288.416 25.781C288.347 22.988 291.53 20.88 293.606 23.027C295.707 25.201 293.658 28.066 292.689 28.67C293.97 28.982 295.672 30.38 295.766 31.787C295.964 34.721 292.618 36.692 289.784 32.666C286.335 33.814 282.885 34.961 279.382 36.171C279.368 38.373 276.886 40.45 274.906 39.445C271.812 37.873 273.017 35.123 274.369 34.041Z" fill="#777CA1"/>
<path d="M228.156 48.2422C225.748 48.4722 223.522 45.2702 224.958 43.1762C226.11 41.4962 229.06 41.0642 230.646 43.7752C234.345 42.2412 238.246 41.0012 242.203 39.9812C242.134 37.1882 245.317 35.0802 247.393 37.2272C249.494 39.4012 247.444 42.2662 246.476 42.8702C247.757 43.1822 249.458 44.5802 249.553 45.9872C249.751 48.9212 246.405 50.8922 243.571 46.8662C240.122 48.0132 236.672 49.1612 233.169 50.3712C233.155 52.5732 230.673 54.6502 228.693 53.6452C225.599 52.0732 226.804 49.3232 228.156 48.2422Z" fill="#777CA1"/>
<path d="M181.144 62.6881C178.736 62.9181 176.51 59.7161 177.947 57.6231C179.099 55.9431 182.049 55.5111 183.635 58.2211C187.334 56.6881 191.235 55.4471 195.192 54.4271C195.123 51.6341 198.306 49.5262 200.382 51.6742C202.483 53.8472 200.434 56.7131 199.465 57.3171C200.746 57.6281 202.447 59.0261 202.542 60.4341C202.739 63.3681 199.393 65.3392 196.56 61.3122C193.11 62.4602 189.661 63.6071 186.158 64.8171C186.144 67.0191 183.662 69.0961 181.682 68.0911C178.587 66.5201 179.791 63.7701 181.144 62.6881Z" fill="#777CA1"/>
<path d="M259.861 70.4762C257.453 70.7062 255.227 67.5042 256.663 65.4112C257.815 63.7312 260.765 63.2992 262.351 66.0092C266.051 64.4762 269.951 63.2352 273.908 62.2152C273.839 59.4222 277.023 57.3142 279.099 59.4622C281.2 61.6352 279.15 64.5012 278.182 65.1062C279.463 65.4172 281.164 66.8152 281.259 68.2222C281.457 71.1572 278.111 73.1272 275.277 69.1012C271.827 70.2482 268.378 71.3962 264.875 72.6062C264.861 74.8082 262.379 76.8852 260.399 75.8802C257.305 74.3082 258.509 71.5572 259.861 70.4762Z" fill="#777CA1"/>
<path d="M213.648 84.6762C211.24 84.9062 209.014 81.7042 210.45 79.6102C211.602 77.9312 214.552 77.4992 216.138 80.2092C219.838 78.6762 223.738 77.4352 227.696 76.4152C227.627 73.6222 230.81 71.5142 232.886 73.6622C234.987 75.8352 232.937 78.7012 231.969 79.3062C233.25 79.6172 234.951 81.0152 235.046 82.4232C235.244 85.3572 231.898 87.3272 229.064 83.3012C225.614 84.4482 222.165 85.5962 218.662 86.8062C218.648 89.0082 216.166 91.0852 214.186 90.0802C211.092 88.5082 212.296 85.7572 213.648 84.6762Z" fill="#777CA1"/>
<path d="M166.636 99.1211C164.228 99.3521 162.002 96.1501 163.438 94.0561C164.59 92.3761 167.541 91.9441 169.127 94.6551C172.826 93.1211 176.727 91.8811 180.684 90.8601C180.615 88.0681 183.798 85.9601 185.874 88.1071C187.975 90.2801 185.926 93.1461 184.957 93.7511C186.238 94.0621 187.939 95.4612 188.035 96.8681C188.232 99.8021 184.886 101.773 182.053 97.7471C178.603 98.8941 175.153 100.041 171.651 101.252C171.637 103.454 169.155 105.531 167.175 104.526C164.08 102.953 165.284 100.203 166.636 99.1211Z" fill="#777CA1"/>
<path d="M376.15 2.7661C373.742 2.99811 371.516 -0.204898 372.952 -2.2989C374.104 -3.9789 377.054 -4.4109 378.64 -1.6999C382.34 -3.2339 386.24 -4.47388 390.198 -5.49387C390.129 -8.28687 393.312 -10.3949 395.388 -8.24787C397.489 -6.07387 395.44 -3.2089 394.471 -2.6049C395.752 -2.2929 397.453 -0.894893 397.548 0.512107C397.746 3.44611 394.4 5.4171 391.566 1.3911C388.116 2.53811 384.667 3.68611 381.164 4.89611C381.15 7.09811 378.668 9.17513 376.688 8.17013C373.594 6.59813 374.798 3.8481 376.15 2.7661Z" fill="#777CA1"/>
<path d="M329.138 17.2121C326.73 17.4421 324.504 14.2401 325.941 12.1471C327.093 10.4671 330.043 10.0351 331.629 12.7451C335.328 11.2121 339.229 9.97107 343.186 8.95107C343.117 6.15807 346.3 4.05008 348.376 6.19808C350.477 8.37108 348.428 11.2371 347.459 11.8411C348.74 12.1521 350.441 13.5501 350.536 14.9581C350.733 17.8921 347.387 19.8631 344.554 15.8361C341.104 16.9831 337.655 18.1311 334.152 19.3411C334.138 21.5431 331.656 23.6201 329.676 22.6151C326.582 21.0441 327.786 18.2941 329.138 17.2121Z" fill="#777CA1"/>
<path d="M407.856 25.0002C405.448 25.2302 403.222 22.0282 404.658 19.9342C405.81 18.2552 408.76 17.8232 410.346 20.5332C414.046 19.0002 417.946 17.7592 421.903 16.7392C421.834 13.9462 425.017 11.8382 427.094 13.9862C429.195 16.1592 427.145 19.0252 426.177 19.6292C427.458 19.9402 429.159 21.3382 429.254 22.7462C429.452 25.6802 426.106 27.6502 423.272 23.6242C419.822 24.7722 416.372 25.9192 412.87 27.1292C412.856 29.3312 410.374 31.4082 408.394 30.4032C405.299 28.8322 406.503 26.0812 407.856 25.0002Z" fill="#777CA1"/>
<path d="M361.643 39.2001C359.235 39.4301 357.009 36.2281 358.445 34.1351C359.597 32.4551 362.547 32.0231 364.133 34.7331C367.833 33.2001 371.733 31.9591 375.69 30.9391C375.621 28.1461 378.804 26.0381 380.881 28.1861C382.982 30.3591 380.932 33.2251 379.964 33.8301C381.245 34.1401 382.946 35.5391 383.041 36.9471C383.239 39.8811 379.893 41.8521 377.059 37.8251C373.609 38.9731 370.16 40.1201 366.657 41.3301C366.643 43.5321 364.161 45.6091 362.181 44.6041C359.086 43.0321 360.29 40.2811 361.643 39.2001Z" fill="#777CA1"/>
<path d="M314.631 53.646C312.223 53.878 309.997 50.675 311.433 48.581C312.585 46.901 315.535 46.469 317.122 49.18C320.821 47.646 324.722 46.406 328.679 45.386C328.61 42.593 331.793 40.485 333.869 42.632C335.97 44.806 333.921 47.671 332.952 48.276C334.233 48.587 335.934 49.986 336.029 51.393C336.227 54.327 332.881 56.298 330.048 52.272C326.598 53.419 323.148 54.566 319.646 55.777C319.632 57.978 317.15 60.056 315.17 59.05C312.074 57.478 313.278 54.728 314.631 53.646Z" fill="#777CA1"/>
<path d="M37.8039 42.78C39.9269 41.619 39.9699 37.719 37.6049 36.793C35.7089 36.051 33.0249 37.349 33.2339 40.482C29.3119 41.291 25.3879 42.454 21.5409 43.833C20.0299 41.482 16.2119 41.525 15.6999 44.469C15.1819 47.447 18.4869 48.668 19.6279 48.624C18.7419 49.601 18.1199 51.713 18.8319 52.932C20.3159 55.47 24.1909 55.222 24.2749 50.299C27.7739 49.312 31.2729 48.323 34.8499 47.359C36.0979 49.173 39.3179 49.498 40.3919 47.554C42.0709 44.516 39.5299 42.916 37.8039 42.78Z" fill="#777CA1"/>
<path d="M84.0168 28.5801C86.1398 27.4191 86.1828 23.5191 83.8178 22.5931C81.9218 21.8511 79.2378 23.1491 79.4468 26.2821C75.5248 27.0911 71.6008 28.2541 67.7538 29.6331C66.2428 27.2821 62.4248 27.3261 61.9128 30.2691C61.3948 33.2481 64.6998 34.4681 65.8408 34.4241C64.9548 35.4011 64.3328 37.5131 65.0448 38.7321C66.5288 41.2701 70.4038 41.0221 70.4878 36.0991C73.9858 35.1121 77.4858 34.1231 81.0628 33.1591C82.3108 34.9731 85.5308 35.2981 86.6048 33.3541C88.2838 30.3151 85.7428 28.7161 84.0168 28.5801Z" fill="#777CA1"/>
<path d="M131.029 14.1351C133.151 12.9741 133.195 9.07313 130.83 8.14813C128.934 7.40513 126.25 8.70412 126.459 11.8361C122.537 12.6451 118.613 13.8091 114.766 15.1871C113.255 12.8371 109.437 12.8801 108.925 15.8241C108.407 18.8021 111.712 20.0221 112.853 19.9791C111.968 20.9561 111.345 23.0681 112.057 24.2861C113.541 26.8241 117.417 26.5771 117.5 21.6541C120.998 20.6661 124.497 19.6781 128.075 18.7131C129.323 20.5271 132.543 20.8531 133.617 18.9091C135.296 15.8691 132.755 14.2711 131.029 14.1351Z" fill="#777CA1"/>
<path d="M70.2668 64.7811C72.3888 63.6201 72.4328 59.7201 70.0678 58.7941C68.1718 58.0511 65.4878 59.3501 65.6968 62.4831C61.7748 63.2921 57.8508 64.4551 54.0038 65.8341C52.4928 63.4831 48.6748 63.5261 48.1628 66.4701C47.6448 69.4481 50.9498 70.6681 52.0908 70.6251C51.2058 71.6021 50.5828 73.7141 51.2948 74.9331C52.7788 77.4711 56.6548 77.2231 56.7378 72.3001C60.2358 71.3131 63.7348 70.3241 67.3128 69.3601C68.5608 71.1741 71.7808 71.4991 72.8548 69.5551C74.5338 66.5171 71.9938 64.9171 70.2668 64.7811Z" fill="#777CA1"/>
<path d="M116.48 50.581C118.602 49.42 118.646 45.52 116.281 44.594C114.384 43.852 111.701 45.15 111.91 48.283C107.988 49.092 104.064 50.2551 100.217 51.6341C98.7059 49.2831 94.887 49.326 94.376 52.27C93.858 55.248 97.163 56.469 98.304 56.425C97.419 57.402 96.7959 59.514 97.5079 60.732C98.9919 63.271 102.868 63.0231 102.951 58.1001C106.45 57.1131 109.948 56.124 113.526 55.159C114.774 56.973 117.994 57.2991 119.068 55.3551C120.747 52.3161 118.206 50.717 116.48 50.581Z" fill="#777CA1"/>
<path d="M163.492 36.1361C165.614 34.9751 165.658 31.0741 163.293 30.1491C161.397 29.4061 158.712 30.7051 158.922 33.8381C155 34.6471 151.075 35.8101 147.228 37.1891C145.717 34.8391 141.899 34.8821 141.387 37.8261C140.869 40.8041 144.174 42.0241 145.315 41.9811C144.43 42.9581 143.807 45.0701 144.519 46.2881C146.003 48.8261 149.879 48.5791 149.962 43.6561C153.461 42.6681 156.959 41.6801 160.538 40.7151C161.786 42.5291 165.006 42.8551 166.08 40.9111C167.759 37.8701 165.218 36.2721 163.492 36.1361Z" fill="#777CA1"/>
<path d="M133.614 77.292C131.206 77.523 128.98 74.321 130.416 72.227C131.568 70.547 134.518 70.115 136.104 72.826C139.803 71.292 143.704 70.052 147.661 69.032C147.592 66.239 150.775 64.131 152.851 66.278C154.952 68.452 152.903 71.317 151.934 71.922C153.215 72.233 154.917 73.632 155.011 75.039C155.208 77.973 151.863 79.944 149.029 75.918C145.579 77.066 142.129 78.212 138.627 79.423C138.613 81.625 136.131 83.702 134.151 82.696C131.058 81.124 132.262 78.374 133.614 77.292Z" fill="#777CA1"/>
<path d="M87.4009 91.4922C84.9929 91.7232 82.7669 88.5212 84.2039 86.4272C85.3559 84.7472 88.3059 84.3152 89.8919 87.0262C93.5909 85.4922 97.4919 84.2522 101.449 83.2322C101.38 80.4392 104.563 78.3312 106.64 80.4782C108.74 82.6512 106.692 85.5172 105.723 86.1222C107.004 86.4332 108.705 87.8322 108.8 89.2392C108.997 92.1732 105.651 94.1442 102.818 90.1182C99.3679 91.2652 95.9189 92.4122 92.4159 93.6232C92.4019 95.8252 89.9199 97.9022 87.9399 96.8972C84.8449 95.3242 86.0489 92.5742 87.4009 91.4922Z" fill="#777CA1"/>
<path d="M40.3889 105.939C37.9809 106.169 35.7549 102.967 37.1909 100.873C38.3429 99.1931 41.2929 98.7611 42.8789 101.471C46.5789 99.9381 50.4789 98.6971 54.4359 97.6771C54.3669 94.8841 57.5499 92.7762 59.6269 94.9242C61.7279 97.0972 59.6779 99.9631 58.7099 100.568C59.9909 100.878 61.6919 102.277 61.7869 103.685C61.9849 106.619 58.6389 108.59 55.8049 104.563C52.3549 105.71 48.9059 106.858 45.4029 108.068C45.3889 110.27 42.9069 112.347 40.9269 111.342C37.8319 109.771 39.0369 107.02 40.3889 105.939Z" fill="#777CA1"/>
<path d="M119.106 113.727C116.698 113.957 114.472 110.755 115.908 108.661C117.06 106.982 120.01 106.55 121.596 109.26C125.295 107.727 129.196 106.486 133.153 105.466C133.084 102.673 136.267 100.565 138.343 102.713C140.444 104.886 138.395 107.751 137.426 108.357C138.707 108.667 140.408 110.066 140.503 111.473C140.701 114.408 137.355 116.378 134.522 112.352C131.072 113.499 127.623 114.647 124.12 115.857C124.106 118.059 121.624 120.136 119.644 119.131C116.55 117.559 117.754 114.808 119.106 113.727Z" fill="#777CA1"/>
<path d="M72.894 127.927C70.486 128.157 68.26 124.955 69.696 122.861C70.848 121.182 73.798 120.75 75.385 123.46C79.084 121.927 82.985 120.686 86.942 119.666C86.873 116.873 90.056 114.765 92.132 116.913C94.233 119.086 92.184 121.952 91.215 122.557C92.496 122.868 94.198 124.266 94.292 125.673C94.49 128.608 91.144 130.578 88.31 126.552C84.86 127.699 81.411 128.847 77.908 130.057C77.894 132.259 75.412 134.336 73.432 133.331C70.337 131.759 71.541 129.008 72.894 127.927Z" fill="#777CA1"/>
<path d="M25.8818 142.372C23.4738 142.603 21.2478 139.4 22.6838 137.307C23.8358 135.627 26.7858 135.195 28.3718 137.906C32.0708 136.372 35.9718 135.132 39.9288 134.111C39.8598 131.319 43.0428 129.21 45.1188 131.358C47.2198 133.531 45.1708 136.397 44.2018 137.002C45.4828 137.313 47.1838 138.712 47.2788 140.119C47.4758 143.053 44.1308 145.024 41.2968 140.998C37.8468 142.145 34.3978 143.292 30.8948 144.503C30.8808 146.704 28.3988 148.782 26.4188 147.776C23.3248 146.204 24.5288 143.454 25.8818 142.372Z" fill="#777CA1"/>
</g>
<mask id="mask1_54_154" style="mask-type:luminance" maskUnits="userSpaceOnUse" x="1" y="0" width="478" height="202">
<path d="M477.79 98.9391C474.628 127.003 458.267 188.966 440.998 196.795C428.725 202.359 401.123 201.559 387.646 201.559C345.308 201.559 290.257 201.411 239.915 201.411C189.573 201.411 134.521 201.559 92.1841 201.559C78.7071 201.559 51.105 202.36 38.832 196.795C21.563 188.966 5.20304 127.003 2.04504 98.9391C1.04504 90.0781 0.360043 71.2071 6.18904 64.4571C11.527 58.2721 23.333 54.9981 35.231 54.6331C50.523 26.3181 89.967 12.4021 122.004 13.6741C144.189 14.5591 160.008 22.7391 168.05 20.8361C193.707 14.7671 195.694 0.549072 239.916 0.549072C276.263 0.549072 286.124 14.7671 311.782 20.8361C319.824 22.7391 335.643 14.5591 357.828 13.6741C389.837 12.4021 428.495 26.3411 443.8 54.6141C455.971 54.8501 468.189 58.1331 473.647 64.4571C479.47 71.2071 478.785 90.0771 477.79 98.9391Z" fill="white"/>
</mask>
<g mask="url(#mask1_54_154)">
<path d="M398.348 202.06C396.177 202.06 394.123 202.049 392.238 202.039C390.579 202.03 389.038 202.021 387.648 202.021C367.395 202.021 344.406 201.988 320.068 201.953C293.573 201.916 266.176 201.877 239.915 201.877C213.653 201.877 186.256 201.916 159.762 201.953C135.424 201.988 112.435 202.021 92.1821 202.021C90.7921 202.021 89.25 202.03 87.592 202.039C73.437 202.116 49.7411 202.249 38.6411 197.218C20.5671 189.026 4.47306 124.652 1.58206 98.9901C1.27706 96.2831 -1.19494 72.3001 5.83506 64.1571C11.1941 57.9491 23.8751 54.0341 38.1011 54.1441C50.9591 54.2581 61.7481 57.6911 66.2571 63.1051C73.5581 71.8691 79.303 89.5911 85.385 108.355C93.467 133.289 101.825 159.073 115.052 169.699C125.254 177.894 131.597 177.868 192.264 177.6C205.108 177.543 221.092 177.473 239.915 177.473C258.738 177.473 274.722 177.543 287.566 177.6C348.233 177.868 354.576 177.894 364.777 169.699C378.004 159.073 386.362 133.289 394.445 108.354C400.527 89.5911 406.272 71.8691 413.572 63.1051C418.082 57.6911 428.87 54.2581 441.728 54.1441C441.949 54.1431 442.17 54.1421 442.391 54.1421C456.363 54.1421 468.719 58.0451 473.994 64.1571C481.024 72.3001 478.552 96.2831 478.247 98.9901C475.357 124.652 459.262 189.026 441.188 197.218C431.568 201.578 412.481 202.06 398.348 202.06ZM239.915 200.95C266.177 200.95 293.574 200.989 320.069 201.026C344.407 201.061 367.395 201.094 387.648 201.094C389.04 201.094 390.583 201.103 392.243 201.112C406.324 201.189 429.892 201.321 440.806 196.373C448.232 193.007 456.556 178.423 464.243 155.309C471.272 134.172 475.879 111.741 477.327 98.8851C478.417 89.2091 478.794 71.1331 473.294 64.7611C468.106 58.7501 455.726 54.9591 441.737 55.0701C429.143 55.1801 418.624 58.4861 414.284 63.6961C407.098 72.3241 401.379 89.9641 395.326 108.638C387.201 133.702 378.8 159.62 365.357 170.419C354.9 178.82 348.527 178.794 287.562 178.525C274.719 178.468 258.736 178.398 239.915 178.398C221.094 178.398 205.111 178.468 192.268 178.525C131.304 178.794 124.93 178.821 114.473 170.419C101.03 159.62 92.6291 133.702 84.5041 108.639C78.4501 89.9631 72.7331 72.3241 65.5451 63.6961C61.2051 58.4861 50.6861 55.1801 38.0921 55.0701C24.1191 54.9421 11.7231 58.7511 6.53506 64.7611C1.03506 71.1331 1.41206 89.2091 2.50206 98.8851C3.95006 111.74 8.55706 134.172 15.5851 155.309C23.2731 178.423 31.5961 193.007 39.0231 196.373C49.9381 201.32 73.5051 201.19 87.5861 201.112C89.2471 201.103 90.7891 201.094 92.1811 201.094C112.434 201.094 135.421 201.061 159.759 201.026C186.255 200.989 213.653 200.95 239.915 200.95Z" fill="#66373F"/>
</g>
<path d="M357.827 13.6741C335.642 14.5591 319.822 22.7391 311.781 20.8361C286.124 14.7671 276.262 0.549072 239.915 0.549072C195.693 0.549072 193.707 14.7671 168.049 20.8361C160.007 22.7391 144.188 14.5591 121.271 15.0341C107.678 14.0221 75.696 23.9521 75.696 42.0421C75.696 77.6741 94.3401 99.0791 132.445 110.034C219.707 135.12 320.898 119.679 347.47 111.632C382.571 101.003 407.363 63.5551 407.363 39.7331C407.363 23.7651 378.522 12.8501 357.827 13.6741Z" fill="#FFE59E"/>
<mask id="mask2_54_154" style="mask-type:luminance" maskUnits="userSpaceOnUse" x="75" y="0" width="333" height="124">
<path d="M357.827 13.6741C335.642 14.5591 319.822 22.7391 311.781 20.8361C286.124 14.7671 276.262 0.549072 239.915 0.549072C195.693 0.549072 193.707 14.7671 168.049 20.8361C160.007 22.7391 144.188 14.5591 121.271 15.0341C107.678 14.0221 75.696 23.9521 75.696 42.0421C75.696 77.6741 94.3401 99.0791 132.445 110.034C219.707 135.12 320.898 119.679 347.47 111.632C382.571 101.003 407.363 63.5551 407.363 39.7331C407.363 23.7651 378.522 12.8501 357.827 13.6741Z" fill="white"/>
</mask>
<g mask="url(#mask2_54_154)">
<path d="M215.107 118.473C217.229 117.312 217.273 113.411 214.908 112.486C213.011 111.743 210.327 113.042 210.537 116.175C206.615 116.983 202.69 118.147 198.843 119.526C197.332 117.175 193.514 117.218 193.002 120.162C192.484 123.14 195.789 124.36 196.93 124.317C196.045 125.294 195.422 127.406 196.134 128.624C197.618 131.163 201.494 130.915 201.577 125.992C205.076 125.005 208.575 124.016 212.153 123.051C213.401 124.865 216.621 125.191 217.695 123.247C219.374 120.208 216.833 118.608 215.107 118.473Z" fill="#8BAED6"/>
<path d="M261.32 104.272C263.442 103.111 263.486 99.2101 261.121 98.2851C259.225 97.5421 256.54 98.8411 256.75 101.974C252.828 102.782 248.903 103.946 245.056 105.324C243.545 102.974 239.727 103.017 239.215 105.961C238.697 108.939 242.002 110.159 243.143 110.116C242.258 111.093 241.635 113.205 242.347 114.423C243.831 116.962 247.707 116.714 247.79 111.791C251.289 110.804 254.788 109.815 258.366 108.85C259.614 110.664 262.834 110.99 263.908 109.046C265.587 106.008 263.046 104.408 261.32 104.272Z" fill="#8BAED6"/>
<path d="M308.332 89.8261C310.455 88.6651 310.498 84.7651 308.133 83.8391C306.237 83.0971 303.553 84.3961 303.762 87.5281C299.84 88.3371 295.916 89.5001 292.069 90.8791C290.558 88.5291 286.74 88.5721 286.228 91.5161C285.71 94.4941 289.015 95.7141 290.156 95.6701C289.271 96.6481 288.648 98.7601 289.36 99.9781C290.844 102.516 294.719 102.269 294.803 97.3461C298.302 96.3581 301.801 95.3701 305.378 94.4051C306.627 96.2201 309.846 96.5441 310.92 94.6011C312.6 91.5611 310.059 89.9621 308.332 89.8261Z" fill="#8BAED6"/>
<path d="M293.783 126.273C295.906 125.112 295.949 121.212 293.584 120.286C291.688 119.543 289.004 120.842 289.213 123.975C285.291 124.783 281.367 125.947 277.52 127.325C276.009 124.975 272.191 125.018 271.679 127.962C271.161 130.94 274.466 132.16 275.607 132.117C274.721 133.094 274.099 135.206 274.811 136.424C276.294 138.963 280.17 138.715 280.254 133.792C283.753 132.805 287.252 131.816 290.829 130.851C292.078 132.665 295.297 132.991 296.371 131.047C298.051 128.009 295.51 126.409 293.783 126.273Z" fill="#8BAED6"/>
<path d="M340.795 111.827C342.917 110.666 342.961 106.767 340.596 105.84C338.7 105.098 336.016 106.397 336.225 109.529C332.303 110.338 328.379 111.501 324.532 112.88C323.021 110.53 319.202 110.573 318.691 113.517C318.173 116.495 321.478 117.715 322.619 117.671C321.734 118.649 321.111 120.76 321.823 121.979C323.307 124.517 327.183 124.27 327.266 119.346C330.765 118.359 334.263 117.371 337.841 116.406C339.089 118.22 342.309 118.545 343.383 116.602C345.062 113.563 342.522 111.963 340.795 111.827Z" fill="#8BAED6"/>
<path d="M363.102 72.9972C365.224 71.8362 365.268 67.9352 362.903 67.0102C361.006 66.2672 358.322 67.5662 358.532 70.6992C354.61 71.5072 350.686 72.6712 346.839 74.0492C345.328 71.6992 341.51 71.7422 340.998 74.6862C340.48 77.6642 343.785 78.8842 344.926 78.8412C344.041 79.8182 343.418 81.9302 344.13 83.1482C345.614 85.6872 349.489 85.4392 349.573 80.5162C353.072 79.5292 356.57 78.5402 360.149 77.5752C361.397 79.3902 364.617 79.7152 365.691 77.7712C367.369 74.7322 364.828 73.1332 363.102 72.9972Z" fill="#8BAED6"/>
<path d="M409.315 58.7972C411.437 57.6362 411.481 53.7362 409.116 52.8102C407.22 52.0672 404.535 53.3662 404.745 56.4992C400.823 57.3072 396.899 58.4712 393.052 59.8492C391.541 57.4992 387.723 57.5422 387.211 60.4862C386.693 63.4632 389.998 64.6842 391.139 64.6412C390.254 65.6182 389.631 67.7302 390.343 68.9482C391.827 71.4872 395.702 71.2392 395.786 66.3162C399.285 65.3292 402.784 64.3402 406.362 63.3752C407.61 65.1902 410.83 65.5152 411.904 63.5712C413.582 60.5322 411.041 58.9332 409.315 58.7972Z" fill="#8BAED6"/>
<path d="M395.565 94.9982C397.688 93.8372 397.731 89.9372 395.366 89.0112C393.47 88.2682 390.786 89.5672 390.995 92.7002C387.073 93.5082 383.149 94.6722 379.302 96.0502C377.791 93.7002 373.973 93.7432 373.461 96.6872C372.944 99.6652 376.248 100.885 377.389 100.842C376.503 101.819 375.881 103.931 376.593 105.149C378.077 107.688 381.953 107.44 382.036 102.517C385.535 101.53 389.034 100.541 392.611 99.5762C393.86 101.39 397.079 101.716 398.153 99.7722C399.832 96.7332 397.291 95.1342 395.565 94.9982Z" fill="#8BAED6"/>
<path d="M365.687 136.155C363.279 136.385 361.053 133.183 362.489 131.089C363.641 129.409 366.591 128.977 368.177 131.688C371.876 130.155 375.777 128.914 379.734 127.894C379.665 125.101 382.848 122.993 384.924 125.14C387.025 127.314 384.975 130.179 384.007 130.785C385.288 131.095 386.989 132.494 387.084 133.901C387.282 136.835 383.936 138.806 381.102 134.78C377.653 135.927 374.203 137.075 370.7 138.285C370.686 140.487 368.204 142.564 366.224 141.559C363.13 139.987 364.334 137.236 365.687 136.155Z" fill="#8BAED6"/>
<path d="M178.559 -0.470958C180.681 -1.63196 180.725 -5.53096 178.36 -6.45796C176.464 -7.19996 173.78 -5.90196 173.989 -2.76896C170.067 -1.95996 166.143 -0.796948 162.296 0.582051C160.785 -1.76795 156.967 -1.72496 156.455 1.21904C155.937 4.19604 159.242 5.41704 160.383 5.37304C159.498 6.35004 158.875 8.46305 159.587 9.68105C161.071 12.2191 164.947 11.9711 165.03 7.04805C168.529 6.06105 172.027 5.07205 175.605 4.10705C176.853 5.92105 180.073 6.24605 181.147 4.30205C182.826 1.26505 180.285 -0.334958 178.559 -0.470958Z" fill="#8BAED6"/>
<path d="M211.022 21.53C213.144 20.369 213.188 16.469 210.823 15.543C208.927 14.801 206.242 16.099 206.452 19.232C202.53 20.041 198.605 21.204 194.758 22.583C193.247 20.232 189.429 20.275 188.917 23.219C188.399 26.197 191.704 27.418 192.845 27.374C191.96 28.351 191.337 30.463 192.049 31.682C193.533 34.22 197.409 33.972 197.492 29.049C200.991 28.062 204.489 27.073 208.068 26.109C209.316 27.923 212.536 28.248 213.61 26.304C215.289 23.266 212.748 21.666 211.022 21.53Z" fill="#8BAED6"/>
<path d="M257.235 7.33019C259.357 6.16919 259.401 2.26919 257.036 1.34319C255.14 0.600188 252.456 1.89921 252.665 5.03221C248.743 5.84121 244.818 7.0042 240.971 8.3832C239.46 6.0322 235.642 6.07621 235.13 9.01921C234.612 11.9982 237.917 13.2182 239.058 13.1742C238.173 14.1512 237.55 16.2632 238.262 17.4822C239.746 20.0202 243.622 19.7722 243.705 14.8492C247.204 13.8622 250.702 12.8732 254.28 11.9092C255.528 13.7232 258.748 14.0482 259.822 12.1042C261.502 9.06521 258.961 7.46619 257.235 7.33019Z" fill="#8BAED6"/>
<path d="M304.247 -7.11487C306.369 -8.27587 306.413 -12.1769 304.048 -13.1019C302.152 -13.8449 299.468 -12.5459 299.678 -9.41388C295.756 -8.60488 291.831 -7.44087 287.984 -6.06287C286.473 -8.41287 282.655 -8.36988 282.143 -5.42588C281.625 -2.44788 284.93 -1.22788 286.07 -1.27088C285.185 -0.293877 284.562 1.81813 285.274 3.03613C286.758 5.57413 290.634 5.32711 290.717 0.404111C294.216 -0.583889 297.714 -1.57187 301.292 -2.53687C302.54 -0.722868 305.761 -0.396884 306.834 -2.34088C308.514 -5.38088 305.973 -6.97887 304.247 -7.11487Z" fill="#8BAED6"/>
<path d="M274.369 34.041C271.961 34.273 269.735 31.07 271.171 28.976C272.323 27.296 275.273 26.864 276.859 29.575C280.558 28.041 284.459 26.801 288.416 25.781C288.347 22.988 291.53 20.88 293.606 23.027C295.707 25.201 293.658 28.066 292.689 28.67C293.97 28.982 295.672 30.38 295.766 31.787C295.964 34.721 292.618 36.692 289.784 32.666C286.335 33.814 282.885 34.961 279.382 36.171C279.368 38.373 276.886 40.45 274.906 39.445C271.812 37.873 273.017 35.123 274.369 34.041Z" fill="#8BAED6"/>
<path d="M228.156 48.2422C225.748 48.4722 223.522 45.2702 224.958 43.1762C226.11 41.4962 229.06 41.0642 230.646 43.7752C234.345 42.2412 238.246 41.0012 242.203 39.9812C242.134 37.1882 245.317 35.0802 247.393 37.2272C249.494 39.4012 247.444 42.2662 246.476 42.8702C247.757 43.1822 249.458 44.5802 249.553 45.9872C249.751 48.9212 246.405 50.8922 243.571 46.8662C240.122 48.0132 236.672 49.1612 233.169 50.3712C233.155 52.5732 230.673 54.6502 228.693 53.6452C225.599 52.0732 226.804 49.3232 228.156 48.2422Z" fill="#8BAED6"/>
<path d="M181.144 62.6881C178.736 62.9181 176.51 59.7161 177.947 57.6231C179.099 55.9431 182.049 55.5111 183.635 58.2211C187.334 56.6881 191.235 55.4471 195.192 54.4271C195.123 51.6341 198.306 49.5262 200.382 51.6742C202.483 53.8472 200.434 56.7131 199.465 57.3171C200.746 57.6281 202.447 59.0261 202.542 60.4341C202.739 63.3681 199.393 65.3392 196.56 61.3122C193.11 62.4602 189.661 63.6071 186.158 64.8171C186.144 67.0191 183.662 69.0961 181.682 68.0911C178.587 66.5201 179.791 63.7701 181.144 62.6881Z" fill="#8BAED6"/>
<path d="M259.861 70.4762C257.453 70.7062 255.227 67.5042 256.663 65.4112C257.815 63.7312 260.765 63.2992 262.351 66.0092C266.051 64.4762 269.951 63.2352 273.908 62.2152C273.839 59.4222 277.023 57.3142 279.099 59.4622C281.2 61.6352 279.15 64.5012 278.182 65.1062C279.463 65.4172 281.164 66.8152 281.259 68.2222C281.457 71.1572 278.111 73.1272 275.277 69.1012C271.827 70.2482 268.378 71.3962 264.875 72.6062C264.861 74.8082 262.379 76.8852 260.399 75.8802C257.305 74.3082 258.509 71.5572 259.861 70.4762Z" fill="#8BAED6"/>
<path d="M213.648 84.6762C211.24 84.9062 209.014 81.7042 210.45 79.6102C211.602 77.9312 214.552 77.4992 216.138 80.2092C219.838 78.6762 223.738 77.4352 227.696 76.4152C227.627 73.6222 230.81 71.5142 232.886 73.6622C234.987 75.8352 232.937 78.7012 231.969 79.3062C233.25 79.6172 234.951 81.0152 235.046 82.4232C235.244 85.3572 231.898 87.3272 229.064 83.3012C225.614 84.4482 222.165 85.5962 218.662 86.8062C218.648 89.0082 216.166 91.0852 214.186 90.0802C211.092 88.5082 212.296 85.7572 213.648 84.6762Z" fill="#8BAED6"/>
<path d="M166.636 99.1211C164.228 99.3521 162.002 96.1501 163.438 94.0561C164.59 92.3761 167.541 91.9441 169.127 94.6551C172.826 93.1211 176.727 91.8811 180.684 90.8601C180.615 88.0681 183.798 85.9601 185.874 88.1071C187.975 90.2801 185.926 93.1461 184.957 93.7511C186.238 94.0621 187.939 95.4612 188.035 96.8681C188.232 99.8021 184.886 101.773 182.053 97.7471C178.603 98.8941 175.153 100.041 171.651 101.252C171.637 103.454 169.155 105.531 167.175 104.526C164.08 102.953 165.284 100.203 166.636 99.1211Z" fill="#8BAED6"/>
<path d="M376.15 2.7661C373.742 2.99811 371.516 -0.204898 372.952 -2.2989C374.104 -3.9789 377.054 -4.4109 378.64 -1.6999C382.34 -3.2339 386.24 -4.47388 390.198 -5.49387C390.129 -8.28687 393.312 -10.3949 395.388 -8.24787C397.489 -6.07387 395.44 -3.2089 394.471 -2.6049C395.752 -2.2929 397.453 -0.894893 397.548 0.512107C397.746 3.44611 394.4 5.4171 391.566 1.3911C388.116 2.53811 384.667 3.68611 381.164 4.89611C381.15 7.09811 378.668 9.17513 376.688 8.17013C373.594 6.59813 374.798 3.8481 376.15 2.7661Z" fill="#8BAED6"/>
<path d="M329.138 17.2121C326.73 17.4421 324.504 14.2401 325.941 12.1471C327.093 10.4671 330.043 10.0351 331.629 12.7451C335.328 11.2121 339.229 9.97107 343.186 8.95107C343.117 6.15807 346.3 4.05008 348.376 6.19808C350.477 8.37108 348.428 11.2371 347.459 11.8411C348.74 12.1521 350.441 13.5501 350.536 14.9581C350.733 17.8921 347.387 19.8631 344.554 15.8361C341.104 16.9831 337.655 18.1311 334.152 19.3411C334.138 21.5431 331.656 23.6201 329.676 22.6151C326.582 21.0441 327.786 18.2941 329.138 17.2121Z" fill="#8BAED6"/>
<path d="M407.856 25.0002C405.448 25.2302 403.222 22.0282 404.658 19.9342C405.81 18.2552 408.76 17.8232 410.346 20.5332C414.046 19.0002 417.946 17.7592 421.903 16.7392C421.834 13.9462 425.017 11.8382 427.094 13.9862C429.195 16.1592 427.145 19.0252 426.177 19.6292C427.458 19.9402 429.159 21.3382 429.254 22.7462C429.452 25.6802 426.106 27.6502 423.272 23.6242C419.822 24.7722 416.372 25.9192 412.87 27.1292C412.856 29.3312 410.374 31.4082 408.394 30.4032C405.299 28.8322 406.503 26.0812 407.856 25.0002Z" fill="#8BAED6"/>
<path d="M361.643 39.2001C359.235 39.4301 357.009 36.2281 358.445 34.1351C359.597 32.4551 362.547 32.0231 364.133 34.7331C367.833 33.2001 371.733 31.9591 375.69 30.9391C375.621 28.1461 378.804 26.0381 380.881 28.1861C382.982 30.3591 380.932 33.2251 379.964 33.8301C381.245 34.1401 382.946 35.5391 383.041 36.9471C383.239 39.8811 379.893 41.8521 377.059 37.8251C373.609 38.9731 370.16 40.1201 366.657 41.3301C366.643 43.5321 364.161 45.6091 362.181 44.6041C359.086 43.0321 360.29 40.2811 361.643 39.2001Z" fill="#8BAED6"/>
<path d="M314.631 53.646C312.223 53.878 309.997 50.675 311.433 48.581C312.585 46.901 315.535 46.469 317.122 49.18C320.821 47.646 324.722 46.406 328.679 45.386C328.61 42.593 331.793 40.485 333.869 42.632C335.97 44.806 333.921 47.671 332.952 48.276C334.233 48.587 335.934 49.986 336.029 51.393C336.227 54.327 332.881 56.298 330.048 52.272C326.598 53.419 323.148 54.566 319.646 55.777C319.632 57.978 317.15 60.056 315.17 59.05C312.074 57.478 313.278 54.728 314.631 53.646Z" fill="#8BAED6"/>
<path d="M84.0168 28.5801C86.1398 27.4191 86.1828 23.5191 83.8178 22.5931C81.9218 21.8511 79.2378 23.1491 79.4468 26.2821C75.5248 27.0911 71.6008 28.2541 67.7538 29.6331C66.2428 27.2821 62.4248 27.3261 61.9128 30.2691C61.3948 33.2481 64.6998 34.4681 65.8408 34.4241C64.9548 35.4011 64.3328 37.5131 65.0448 38.7321C66.5288 41.2701 70.4038 41.0221 70.4878 36.0991C73.9858 35.1121 77.4858 34.1231 81.0628 33.1591C82.3108 34.9731 85.5308 35.2981 86.6048 33.3541C88.2838 30.3151 85.7428 28.7161 84.0168 28.5801Z" fill="#8BAED6"/>
<path d="M131.029 14.1351C133.151 12.9741 133.195 9.07313 130.83 8.14813C128.934 7.40513 126.25 8.70412 126.459 11.8361C122.537 12.6451 118.613 13.8091 114.766 15.1871C113.255 12.8371 109.437 12.8801 108.925 15.8241C108.407 18.8021 111.712 20.0221 112.853 19.9791C111.968 20.9561 111.345 23.0681 112.057 24.2861C113.541 26.8241 117.417 26.5771 117.5 21.6541C120.998 20.6661 124.497 19.6781 128.075 18.7131C129.323 20.5271 132.543 20.8531 133.617 18.9091C135.296 15.8691 132.755 14.2711 131.029 14.1351Z" fill="#8BAED6"/>
<path d="M116.48 50.581C118.602 49.42 118.646 45.52 116.281 44.594C114.384 43.852 111.701 45.15 111.91 48.283C107.988 49.092 104.064 50.2551 100.217 51.6341C98.7059 49.2831 94.887 49.326 94.376 52.27C93.858 55.248 97.163 56.469 98.304 56.425C97.419 57.402 96.7959 59.514 97.5079 60.732C98.9919 63.271 102.868 63.0231 102.951 58.1001C106.45 57.1131 109.948 56.124 113.526 55.159C114.774 56.973 117.994 57.2991 119.068 55.3551C120.747 52.3161 118.206 50.717 116.48 50.581Z" fill="#8BAED6"/>
<path d="M163.492 36.1361C165.614 34.9751 165.658 31.0741 163.293 30.1491C161.397 29.4061 158.712 30.7051 158.922 33.8381C155 34.6471 151.075 35.8101 147.228 37.1891C145.717 34.8391 141.899 34.8821 141.387 37.8261C140.869 40.8041 144.174 42.0241 145.315 41.9811C144.43 42.9581 143.807 45.0701 144.519 46.2881C146.003 48.8261 149.879 48.5791 149.962 43.6561C153.461 42.6681 156.959 41.6801 160.538 40.7151C161.786 42.5291 165.006 42.8551 166.08 40.9111C167.759 37.8701 165.218 36.2721 163.492 36.1361Z" fill="#8BAED6"/>
<path d="M133.614 77.292C131.206 77.523 128.98 74.321 130.416 72.227C131.568 70.547 134.518 70.115 136.104 72.826C139.803 71.292 143.704 70.052 147.661 69.032C147.592 66.239 150.775 64.131 152.851 66.278C154.952 68.452 152.903 71.317 151.934 71.922C153.215 72.233 154.917 73.632 155.011 75.039C155.208 77.973 151.863 79.944 149.029 75.918C145.579 77.066 142.129 78.212 138.627 79.423C138.613 81.625 136.131 83.702 134.151 82.696C131.058 81.124 132.262 78.374 133.614 77.292Z" fill="#8BAED6"/>
<path d="M87.4009 91.4922C84.9929 91.7232 82.7669 88.5212 84.2039 86.4272C85.3559 84.7472 88.3059 84.3152 89.8919 87.0262C93.5909 85.4922 97.4919 84.2522 101.449 83.2322C101.38 80.4392 104.563 78.3312 106.64 80.4782C108.74 82.6512 106.692 85.5172 105.723 86.1222C107.004 86.4332 108.705 87.8322 108.8 89.2392C108.997 92.1732 105.651 94.1442 102.818 90.1182C99.3679 91.2652 95.9189 92.4122 92.4159 93.6232C92.4019 95.8252 89.9199 97.9022 87.9399 96.8972C84.8449 95.3242 86.0489 92.5742 87.4009 91.4922Z" fill="#8BAED6"/>
<path d="M119.106 113.727C116.698 113.957 114.472 110.755 115.908 108.661C117.06 106.982 120.01 106.55 121.596 109.26C125.295 107.727 129.196 106.486 133.153 105.466C133.084 102.673 136.267 100.565 138.343 102.713C140.444 104.886 138.395 107.751 137.426 108.357C138.707 108.667 140.408 110.066 140.503 111.473C140.701 114.408 137.355 116.378 134.522 112.352C131.072 113.499 127.623 114.647 124.12 115.857C124.106 118.059 121.624 120.136 119.644 119.131C116.55 117.559 117.754 114.808 119.106 113.727Z" fill="#8BAED6"/>
<path d="M72.894 127.927C70.486 128.157 68.26 124.955 69.696 122.861C70.848 121.182 73.798 120.75 75.385 123.46C79.084 121.927 82.985 120.686 86.942 119.666C86.873 116.873 90.056 114.765 92.132 116.913C94.233 119.086 92.184 121.952 91.215 122.557C92.496 122.868 94.198 124.266 94.292 125.673C94.49 128.608 91.144 130.578 88.31 126.552C84.86 127.699 81.411 128.847 77.908 130.057C77.894 132.259 75.412 134.336 73.432 133.331C70.337 131.759 71.541 129.008 72.894 127.927Z" fill="#8BAED6"/>
</g>
<path d="M389.838 123.792C365.499 114.338 308.064 128.101 239.915 128.101C171.766 128.101 116.548 112.467 88.551 123.47C84.523 146.292 100.399 177.005 115.661 182.657C134.344 189.574 350.263 193.555 362.963 184.701C385.136 169.242 393.179 130.266 389.838 123.792Z" fill="url(#paint1_linear_54_154)"/>
<path d="M365.325 125.914C347.555 115.05 303.614 130.08 238.498 130.08C173.383 130.08 126.605 113.103 112.677 125.914C103.566 134.294 119.935 165.01 135.004 169.026C147.636 172.392 192.472 171.513 237.099 171.266C289.144 170.979 340.365 173.699 353.461 163.778C374.383 147.931 371.335 129.588 365.325 125.914Z" fill="#FFB8C2"/>
<path d="M239.915 201.412C189.57 201.412 134.519 201.558 92.182 201.558C78.705 201.558 51.106 202.359 38.832 196.795C21.564 188.968 5.20301 127.001 2.04201 98.937C1.04401 90.08 0.360008 71.206 6.18501 64.459C17.215 51.683 55.846 51.329 65.901 63.4C82.606 83.455 91.219 151.145 114.762 170.059C127.31 180.14 133.487 177.935 239.914 177.935C346.341 177.935 352.518 180.14 365.066 170.059C388.609 151.145 397.222 83.455 413.927 63.4C423.982 51.329 462.613 51.682 473.643 64.459C479.468 71.206 478.784 90.08 477.786 98.937C474.625 127.002 458.263 188.968 440.996 196.795C428.722 202.358 401.122 201.558 387.646 201.558C345.31 201.558 290.259 201.412 239.915 201.412Z" fill="url(#paint2_linear_54_154)"/>
<path d="M239.915 196.783C176.822 196.783 72.896 197.895 55.036 189.8C34.465 180.476 -2.55098 85.012 13.593 66.31C24.623 53.534 55.846 51.328 65.902 63.4C82.607 83.455 91.22 151.145 114.763 170.059C127.311 180.14 133.488 177.935 239.915 177.935C346.342 177.935 352.519 180.14 365.067 170.059C388.61 151.145 397.223 83.455 413.928 63.4C423.983 51.329 455.445 55.45 466.686 68.042C480.644 83.678 440.107 178.033 414.146 189.801C401.872 195.364 290.259 196.783 239.915 196.783Z" fill="#8BAED6"/>
<g opacity="0.302">
<path d="M44.425 55.4529C60.807 60.5079 65.548 68.4479 70.582 80.4679C82.47 108.852 92.326 149.267 107.648 162.372C96.593 143.883 88.079 120.107 79.314 91.5399C76.301 81.7209 74.35 75.3149 68.784 67.4379C63.219 59.5639 55.202 56.3049 44.425 55.4529Z" fill="#FFF0D9"/>
<path d="M435.623 55.4529C419.241 60.5079 414.499 68.4479 409.466 80.4679C397.578 108.852 387.722 149.267 372.4 162.372C383.455 143.883 391.969 120.107 400.734 91.5399C403.747 81.7209 405.698 75.3149 411.264 67.4379C416.829 59.5639 424.846 56.3049 435.623 55.4529Z" fill="#FFF0D9"/>
<path d="M135.635 15.1199C147.493 19.6109 156.257 22.5629 161.463 24.2159C171.264 27.3259 179.467 20.8469 188.53 15.9889C197.058 11.4169 205.157 7.15791 216.199 2.50391C200.205 5.19191 192.047 11.6059 184.893 14.9509C174.693 19.7209 166.546 21.2659 161.406 20.7799C155.337 20.2039 145.255 17.2889 135.635 15.1199Z" fill="#FFF0D9"/>
<path d="M234.689 0.321854C253.272 1.40685 271.629 6.25486 288.325 14.4869C295.764 18.1539 303.076 22.5519 311.277 23.7919C328.388 26.3779 344.618 14.7569 361.916 14.2399C352.583 13.4569 343.111 14.3438 334.086 16.8468C328.247 18.4668 322.485 20.7749 316.427 20.9209C310.053 21.0739 303.885 18.8169 298.008 16.3479C288.732 12.4499 279.698 7.92885 270.161 4.72185C260.624 1.51585 250.406 -0.353146 234.689 0.321854Z" fill="#FFF0D9"/>
</g>
<path d="M443.776 55.021C443.609 55.021 443.448 54.93 443.365 54.773C427.839 25.133 388.145 12.929 357.847 14.136C346.325 14.595 336.511 17.033 328.626 18.993C321.366 20.799 315.633 22.222 311.675 21.287C302.172 19.039 294.732 15.635 287.536 12.344C275.357 6.77296 262.764 1.01096 239.915 1.01096C211.778 1.01096 200.66 6.86897 189.907 12.534C183.797 15.752 177.479 19.081 168.154 21.287C164.197 22.225 158.463 20.799 151.203 18.993C143.318 17.033 133.504 14.595 121.982 14.136C91.6861 12.931 51.9891 25.133 36.4631 54.773C36.3441 54.998 36.0651 55.087 35.8381 54.968C35.6111 54.85 35.5241 54.57 35.6431 54.343C51.3551 24.347 91.4221 11.992 122.018 13.211C133.635 13.673 143.5 16.125 151.426 18.096C158.564 19.87 164.203 21.271 167.94 20.387C177.151 18.207 183.416 14.907 189.475 11.715C200.327 5.99697 211.549 0.0849609 239.914 0.0849609C262.965 0.0849609 275.651 5.88898 287.92 11.502C295.075 14.774 302.473 18.159 311.887 20.387C315.623 21.27 321.263 19.869 328.401 18.096C336.327 16.125 346.192 13.673 357.808 13.211C388.403 11.99 428.471 24.347 444.183 54.343C444.302 54.57 444.214 54.85 443.988 54.968C443.921 55.004 443.848 55.021 443.776 55.021Z" fill="#66373F"/>
<path d="M398.348 202.06C396.177 202.06 394.123 202.049 392.238 202.039C390.579 202.03 389.038 202.021 387.648 202.021C367.395 202.021 344.406 201.988 320.068 201.953C293.573 201.916 266.176 201.877 239.915 201.877C213.653 201.877 186.256 201.916 159.762 201.953C135.424 201.988 112.435 202.021 92.1821 202.021C90.7921 202.021 89.25 202.03 87.592 202.039C73.437 202.116 49.7411 202.249 38.6411 197.218C20.5671 189.026 4.47306 124.652 1.58206 98.9898C1.27706 96.2828 -1.19494 72.2999 5.83506 64.1569C11.1941 57.9489 23.8751 54.0339 38.1011 54.1439C50.9591 54.2579 61.7481 57.6909 66.2571 63.1049C73.5581 71.8689 79.303 89.5909 85.385 108.355C93.467 133.289 101.825 159.073 115.052 169.699C125.254 177.894 131.597 177.868 192.264 177.6C205.108 177.543 221.092 177.473 239.915 177.473C258.738 177.473 274.722 177.543 287.566 177.6C348.233 177.868 354.576 177.894 364.777 169.699C378.004 159.073 386.362 133.289 394.445 108.354C400.527 89.5909 406.272 71.8689 413.572 63.1049C418.082 57.6909 428.87 54.2579 441.728 54.1439C441.949 54.1429 442.17 54.1418 442.391 54.1418C456.363 54.1418 468.719 58.0449 473.994 64.1569C481.024 72.2999 478.552 96.2828 478.247 98.9898C475.357 124.652 459.262 189.026 441.188 197.218C431.568 201.578 412.481 202.06 398.348 202.06ZM239.915 200.95C266.177 200.95 293.574 200.989 320.069 201.026C344.407 201.061 367.395 201.094 387.648 201.094C389.04 201.094 390.583 201.103 392.243 201.112C406.324 201.189 429.892 201.321 440.806 196.373C448.232 193.007 456.556 178.423 464.243 155.309C471.272 134.172 475.879 111.741 477.327 98.8849C478.417 89.2089 478.794 71.1328 473.294 64.7608C468.106 58.7498 455.726 54.9589 441.737 55.0699C429.143 55.1799 418.624 58.4859 414.284 63.6959C407.098 72.3239 401.379 89.9638 395.326 108.638C387.201 133.702 378.8 159.62 365.357 170.419C354.9 178.82 348.527 178.794 287.562 178.525C274.719 178.468 258.736 178.398 239.915 178.398C221.094 178.398 205.111 178.468 192.268 178.525C131.304 178.794 124.93 178.821 114.473 170.419C101.03 159.62 92.6291 133.702 84.5041 108.639C78.4501 89.9629 72.7331 72.3239 65.5451 63.6959C61.2051 58.4859 50.6861 55.1799 38.0921 55.0699C24.1191 54.9419 11.7231 58.7508 6.53506 64.7608C1.03506 71.1328 1.41206 89.2089 2.50206 98.8849C3.95006 111.74 8.55706 134.172 15.5851 155.309C23.2731 178.423 31.5961 193.007 39.0231 196.373C49.9381 201.32 73.5051 201.19 87.5861 201.112C89.2471 201.103 90.7891 201.094 92.1811 201.094C112.434 201.094 135.421 201.061 159.759 201.026C186.255 200.989 213.653 200.95 239.915 200.95Z" fill="#66373F"/>
<path d="M239.915 128.564C211.669 128.564 185.797 125.897 162.972 123.543C130.93 120.238 105.622 117.63 90.1731 124.218C89.9381 124.319 89.6661 124.209 89.5661 123.974C89.4651 123.739 89.5751 123.467 89.8101 123.367C105.479 116.685 130.893 119.305 163.067 122.623C185.871 124.974 211.717 127.639 239.916 127.639C268.647 127.639 295.255 125.21 318.729 123.069C350.634 120.157 375.835 117.857 390.007 123.363C390.245 123.455 390.363 123.723 390.27 123.962C390.178 124.2 389.909 124.317 389.671 124.226C375.703 118.8 350.597 121.09 318.813 123.992C295.318 126.134 268.688 128.564 239.915 128.564Z" fill="#66373F"/>
<path d="M460.234 154.551C460.183 154.551 460.13 154.542 460.078 154.524C459.837 154.438 459.712 154.174 459.798 153.932C466.22 135.965 473.731 112.251 474.818 88.1508C474.83 87.8958 475.053 87.7008 475.301 87.7098C475.556 87.7218 475.754 87.9368 475.742 88.1928C474.65 112.417 467.113 136.216 460.669 154.245C460.602 154.433 460.424 154.551 460.234 154.551Z" fill="#66373F"/>
<path d="M449.31 178.051C449.236 178.051 449.161 178.033 449.091 177.996C448.866 177.875 448.781 177.594 448.902 177.369C452.295 171.063 455.423 164.502 458.197 157.865C458.296 157.629 458.568 157.517 458.803 157.617C459.039 157.715 459.15 157.986 459.052 158.222C456.265 164.886 453.125 171.476 449.718 177.807C449.635 177.963 449.475 178.051 449.31 178.051Z" fill="#66373F"/>
<path d="M441.824 190.898C441.74 190.898 441.655 190.875 441.578 190.827C441.362 190.691 441.296 190.405 441.432 190.189C442.595 188.341 443.743 186.455 444.844 184.581C444.973 184.362 445.257 184.287 445.478 184.417C445.699 184.547 445.772 184.83 445.643 185.051C444.536 186.933 443.384 188.827 442.216 190.682C442.128 190.821 441.977 190.898 441.824 190.898Z" fill="#66373F"/>
<path d="M475.225 84.99C475.218 84.99 475.209 84.99 475.202 84.989C474.947 84.976 474.75 84.759 474.762 84.504C475.076 78.236 473.974 71.855 471.578 66.052C471.481 65.816 471.593 65.545 471.83 65.448C472.066 65.351 472.336 65.463 472.435 65.699C474.882 71.628 476.007 78.146 475.687 84.551C475.674 84.798 475.47 84.99 475.225 84.99Z" fill="#66373F"/>
<path d="M426.352 38.9878C426.23 38.9878 426.109 38.9398 426.019 38.8458C422.622 35.3228 418.744 32.3048 414.492 29.8788C414.27 29.7518 414.193 29.4698 414.32 29.2468C414.446 29.0248 414.728 28.9458 414.952 29.0748C419.28 31.5448 423.228 34.6158 426.686 38.2028C426.864 38.3868 426.858 38.6808 426.674 38.8568C426.583 38.9448 426.468 38.9878 426.352 38.9878Z" fill="#66373F"/>
<path d="M439.363 54.8839C439.195 54.8839 439.032 54.7919 438.95 54.6319C436.14 49.1499 432.163 44.1569 427.449 40.1929C427.253 40.0279 427.228 39.7359 427.392 39.5409C427.557 39.3459 427.849 39.3199 428.044 39.4839C432.852 43.5269 436.908 48.6189 439.773 54.2099C439.89 54.4379 439.8 54.7169 439.572 54.8339C439.507 54.8669 439.434 54.8839 439.363 54.8839Z" fill="#66373F"/>
<path d="M385.101 129.929C385.049 129.929 384.996 129.92 384.944 129.902C384.703 129.815 384.579 129.55 384.665 129.309C385.232 127.732 385.515 126.611 385.17 125.897C384.96 125.462 384.485 125.123 383.715 124.863C383.473 124.78 383.344 124.517 383.426 124.275C383.508 124.033 383.771 123.903 384.013 123.985C385.03 124.331 385.681 124.825 386.004 125.495C386.491 126.506 386.201 127.773 385.536 129.623C385.468 129.81 385.29 129.929 385.101 129.929Z" fill="#66373F"/>
<path d="M374.723 154.895C374.651 154.895 374.577 154.878 374.508 154.841C374.282 154.722 374.194 154.442 374.314 154.216C378.095 147.03 381.258 139.462 383.716 131.724C383.794 131.48 384.052 131.344 384.298 131.422C384.542 131.499 384.676 131.76 384.599 132.004C382.124 139.793 378.94 147.412 375.133 154.647C375.05 154.804 374.889 154.895 374.723 154.895Z" fill="#66373F"/>
<path d="M353.386 174.443C353.187 174.443 353.004 174.315 352.943 174.115C352.869 173.871 353.007 173.612 353.252 173.538C360.116 171.447 366.099 167.015 370.1 161.059C370.243 160.847 370.53 160.789 370.743 160.932C370.955 161.075 371.012 161.363 370.869 161.575C366.75 167.708 360.59 172.271 353.522 174.425C353.476 174.438 353.43 174.443 353.386 174.443Z" fill="#66373F"/>
<path d="M371.575 159.942C371.489 159.942 371.402 159.919 371.324 159.868C371.109 159.729 371.048 159.442 371.187 159.228L373.395 155.822C373.534 155.608 373.82 155.547 374.035 155.685C374.249 155.824 374.311 156.111 374.172 156.326L371.965 159.731C371.875 159.868 371.727 159.942 371.575 159.942Z" fill="#66373F"/>
<path d="M348.43 175.461C348.213 175.461 348.019 175.308 347.976 175.087C347.927 174.836 348.091 174.593 348.342 174.544L350.928 174.039C351.177 173.989 351.422 174.154 351.471 174.405C351.52 174.656 351.356 174.899 351.105 174.948L348.519 175.452C348.489 175.458 348.459 175.461 348.43 175.461Z" fill="#66373F"/>
<path d="M387.826 118.537C387.795 118.537 387.763 118.534 387.732 118.528C379.95 116.924 372.02 116.703 364.16 117.873C363.906 117.909 363.672 117.736 363.634 117.483C363.597 117.23 363.771 116.995 364.024 116.957C371.99 115.772 380.03 115.995 387.92 117.621C388.171 117.673 388.332 117.918 388.28 118.168C388.234 118.387 388.041 118.537 387.826 118.537Z" fill="#66373F"/>
<path d="M94.4521 119.911C94.2511 119.911 94.0651 119.779 94.0071 119.577C93.9361 119.331 94.0781 119.074 94.3231 119.004C102.468 116.655 111.216 115.99 119.622 117.083C119.876 117.115 120.054 117.348 120.021 117.602C119.988 117.856 119.755 118.035 119.502 118.001C111.221 116.926 102.602 117.579 94.5791 119.894C94.5381 119.905 94.4941 119.911 94.4521 119.911Z" fill="#66373F"/>
<path d="M129.777 118.551C129.763 118.551 129.748 118.551 129.734 118.549L122.185 117.854C121.931 117.831 121.743 117.605 121.766 117.35C121.789 117.096 122.011 116.91 122.269 116.931L129.818 117.627C130.072 117.65 130.26 117.876 130.237 118.131C130.215 118.371 130.013 118.551 129.777 118.551Z" fill="#66373F"/>
<path d="M168.616 24.8949C168.364 24.8949 168.158 24.6939 168.153 24.4409C168.148 24.1849 168.351 23.9739 168.607 23.9679C173.21 23.8769 177.833 22.3899 181.625 19.7789C181.835 19.6339 182.124 19.6879 182.269 19.8989C182.414 20.1089 182.36 20.3969 182.15 20.5429C178.21 23.2539 173.407 24.7989 168.626 24.8949C168.622 24.8949 168.619 24.8949 168.616 24.8949Z" fill="#66373F"/>
<path d="M316.849 24.5869C314.805 24.5869 312.765 24.4399 310.755 24.1469C310.502 24.1099 310.327 23.8749 310.364 23.6229C310.401 23.3699 310.635 23.1889 310.889 23.2309C316.457 24.0439 322.271 23.6999 327.702 22.2319C327.946 22.1669 328.203 22.3109 328.27 22.5579C328.336 22.8049 328.19 23.0589 327.943 23.1249C324.351 24.0959 320.594 24.5869 316.849 24.5869Z" fill="#66373F"/>
<path d="M331.377 22.4169C331.184 22.4169 331.004 22.2949 330.938 22.1029C330.856 21.8609 330.986 21.5979 331.228 21.5159L333.937 20.5989C334.177 20.5169 334.441 20.6479 334.524 20.8899C334.606 21.1309 334.476 21.3949 334.234 21.4769L331.525 22.3929C331.476 22.4089 331.426 22.4169 331.377 22.4169Z" fill="#66373F"/>
<path d="M165.973 25.1449C165.954 25.1449 165.936 25.1439 165.917 25.1419L161.982 24.6649C161.729 24.6339 161.547 24.4029 161.578 24.1489C161.609 23.8949 161.835 23.7129 162.094 23.7449L166.029 24.2219C166.283 24.2529 166.464 24.4839 166.433 24.7379C166.403 24.9729 166.204 25.1449 165.973 25.1449Z" fill="#66373F"/>
<path d="M42.098 53.212C42.012 53.212 41.925 53.189 41.847 53.138C41.632 52.999 41.571 52.713 41.709 52.498C45.675 46.357 50.613 40.971 56.387 36.486C56.589 36.33 56.88 36.367 57.036 36.568C57.193 36.77 57.157 37.061 56.955 37.218C51.264 41.637 46.396 46.947 42.487 53C42.398 53.138 42.25 53.212 42.098 53.212Z" fill="#66373F"/>
<path d="M59.0431 35.3779C58.9191 35.3779 58.7961 35.3279 58.7051 35.2309C58.5301 35.0439 58.5401 34.7519 58.7271 34.5769C59.5681 33.7909 60.5861 33.1669 61.6681 32.7739C61.9101 32.6859 62.1741 32.8099 62.2611 33.0499C62.3491 33.2899 62.2241 33.5559 61.9851 33.6429C61.0191 33.9949 60.1111 34.5509 59.3601 35.2529C59.2701 35.3369 59.1571 35.3779 59.0431 35.3779Z" fill="#66373F"/>
<defs>
<linearGradient id="paint0_linear_54_154" x1="300.046" y1="28.3837" x2="175.922" y2="197.224" gradientUnits="userSpaceOnUse">
<stop stop-color="#FAC37D"/>
<stop offset="0.3821" stop-color="#FBBB7C"/>
<stop offset="0.9577" stop-color="#FFA77A"/>
<stop offset="1" stop-color="#FFA57A"/>
</linearGradient>
<linearGradient id="paint1_linear_54_154" x1="223.459" y1="196.033" x2="242.803" y2="115.059" gradientUnits="userSpaceOnUse">
<stop stop-color="#EA859E"/>
<stop offset="0.2851" stop-color="#EE8E9F"/>
<stop offset="1" stop-color="#F5A2A0"/>
</linearGradient>
<linearGradient id="paint2_linear_54_154" x1="256.533" y1="13.1767" x2="210.575" y2="224.392" gradientUnits="userSpaceOnUse">
<stop stop-color="#6985B3"/>
<stop offset="1" stop-color="#857EBF"/>
</linearGradient>
</defs>
</svg>
