<svg width="267" height="375" viewBox="0 0 267 375" fill="none" xmlns="http://www.w3.org/2000/svg">
<path d="M87.8519 215.78L98.487 219.115L95.265 229.385C95.265 229.385 87.286 226.895 84.63 226.05C81.366 225.01 81.7739 221.507 82.2999 219.678C83.1219 216.823 85.6759 215.098 87.8519 215.78Z" fill="#FFB8C2"/>
<path d="M98.4631 219.079C106.851 208.684 126.482 210.959 132.362 215.603C133.341 216.376 130.863 218.433 128.916 219.703C144.713 218.127 159.834 226.253 159.925 231.605C159.95 233.085 153.886 232.73 152.448 233.082C170.475 238.407 178.62 252.347 178.51 253.805C178.401 255.259 173.604 255.571 172.368 254.798C183.217 265.818 186.376 290.454 183.207 294.346C181.242 296.76 180.212 292.338 177.063 291.731C179.919 304.111 179.195 324.967 170.989 330.852C168.438 332.68 166.929 323.051 166.601 324.684C164.291 336.179 157.602 355.466 146.786 363.174C137.539 369.766 139.818 359.548 138.94 360.515C132.744 367.336 117.672 376.533 110.074 372.774C104.545 370.04 128.59 355.478 131.392 348.544C126.715 350.478 118.764 345.8 125.148 342.252C140.447 333.751 149.317 318.377 146.836 319.309C142.349 320.994 139.078 320.978 137.247 318.083C135.8 315.794 148.609 305.833 144.393 288.653C144.521 290.872 140.286 294.825 138.195 294.069C134.056 292.572 139.829 277.835 132.953 266.057C132.368 268.76 130.768 273.694 128.232 272.592C123.179 270.397 116.375 255.046 115.273 251.908C114.728 253.51 113.63 256.818 111.908 256.738C108.115 256.561 91.748 242.07 95.266 229.387L98.4631 219.079Z" fill="url(#paint0_linear_54_610)"/>
<path d="M101.054 219.585C110.196 213.145 125.627 213.683 127.914 216.243C128.745 217.174 125.906 221.146 123.959 222.416C138.441 221.295 147.445 224.795 151.521 227.19C152.763 227.92 151.152 231.571 147.483 233.725C162.497 239.831 171.238 244.643 172.282 249.691C172.704 251.732 166.207 252.775 164.97 252.002C175.82 263.022 182.96 284.631 179.791 288.524C177.826 290.939 173.773 287.604 170.624 286.997C173.479 299.377 177.96 318.951 171.381 325.882C169.22 328.157 164.822 314.779 164.494 316.412C162.185 327.907 157.822 348.128 148.21 357.165C139.935 364.943 141.652 352.709 140.774 353.675C134.578 360.497 123.91 367.74 120.681 366.142C115.153 363.408 133.505 354.858 134.895 344.596C130.218 346.53 119.216 346.513 125.148 342.252C147.561 326.158 149.187 317.477 146.676 318.325C143.423 319.426 137.86 317.091 139.442 313.174C141.232 308.746 148.393 303.919 144.176 286.739C143.732 290.478 138.04 294.235 136.803 292.116C134.584 288.315 141.073 278.018 131.488 262.751C130.903 265.454 130.395 271.574 127.859 270.472C122.806 268.277 114.281 249.879 113.179 246.742C113.808 250.578 112.741 254.96 111.018 254.879C107.225 254.702 91.747 242.07 95.265 229.387C95.265 229.387 95.185 223.719 101.054 219.585Z" fill="url(#paint1_linear_54_610)"/>
<path d="M170.644 63.0791C171.616 66.5761 174.583 77.0561 174.583 77.0561L175.248 76.8691L254.579 358.506L253.913 358.693L255.334 363.735C256.687 368.541 266.834 365.725 265.472 360.878L264.051 355.837L263.492 355.994L184.165 74.3591L184.945 74.1401L181.005 60.1561C180.197 57.2981 177.202 55.5431 174.368 56.4391C172.553 57.0081 169.45 58.7791 170.644 63.0791Z" fill="url(#paint2_linear_54_610)"/>
<path d="M170.644 63.079C171.616 66.576 174.583 77.056 174.583 77.056L175.248 76.869L254.579 358.506L253.913 358.693L255.334 363.735C256.687 368.541 266.834 365.725 265.472 360.878L264.051 355.837L258.598 357.372L180.233 75.469L184.946 74.141L181.006 60.157C180.198 57.299 177.203 55.544 174.369 56.44C172.553 57.008 169.45 58.779 170.644 63.079Z" fill="#FFF5ED"/>
<path d="M181.006 60.159L184.944 74.14L174.584 77.058C174.584 77.058 171.618 66.576 170.645 63.077C169.449 58.777 172.551 57.011 174.366 56.438C177.201 55.544 180.2 57.298 181.006 60.159Z" fill="#C293C7"/>
<path d="M264.051 355.836L265.471 360.878C266.836 365.724 256.688 368.542 255.333 363.733L253.912 358.691L264.051 355.836Z" fill="#C293C7"/>
<g opacity="0.451">
<path d="M94.965 229.04C95.343 226.587 95.719 224.133 96.15 221.555C93.002 219.488 89.7019 217.653 86.2849 216.068C86.8919 215.889 87.5429 216.01 88.1619 216.143C91.5729 216.873 94.9149 217.919 98.1339 219.263C97.0659 222.47 95.999 225.676 94.965 229.04Z" fill="#853D6F"/>
<path d="M132.498 215.847C131.56 216.137 130.634 216.497 129.828 217.056C129.023 217.615 128.341 218.391 128.033 219.323C127.998 219.43 127.969 219.554 128.024 219.653C128.118 219.819 128.362 219.793 128.544 219.736C130.352 219.168 131.86 217.721 132.498 215.847Z" fill="#853D6F"/>
<path d="M158.637 229.15C157.699 230.291 156.359 231.043 154.956 231.506C153.555 231.969 152.081 232.163 150.617 232.356C153.192 233.068 155.966 233.047 158.529 232.296C158.85 232.202 159.184 232.087 159.411 231.84C159.768 231.45 159.752 230.825 159.515 230.353C159.279 229.88 158.865 229.524 158.637 229.15Z" fill="#853D6F"/>
<path d="M176.58 260.372C175.302 258.283 173.207 256.836 171.076 255.631C168.944 254.426 166.694 253.387 164.803 251.832C167.59 252.534 170.316 253.485 172.917 254.703C173.679 256.098 174.535 257.44 176.58 260.372Z" fill="#853D6F"/>
<path d="M160.05 256.788C159.313 257.083 158.459 257.077 157.726 256.773C156.993 256.468 156.386 255.868 156.075 255.138C156.032 255.038 155.995 254.93 156.012 254.822C156.031 254.715 156.124 254.613 156.233 254.624C156.308 254.631 156.368 254.688 156.422 254.74C157.435 255.715 158.73 256.394 160.05 256.788Z" fill="#853D6F"/>
<path d="M178.345 307.758C178.037 302.045 176.503 296.402 173.877 291.319C174.984 291.292 176.098 291.472 177.14 291.85C177.668 295.264 178.156 298.684 178.603 302.109C178.85 303.998 179.072 305.985 178.345 307.758Z" fill="#853D6F"/>
<path d="M139.113 361.039C138.881 359.586 139.024 358.074 139.525 356.69C134.912 363.934 127.14 368.854 118.818 370.974C115.75 371.755 112.254 372.116 109.63 370.345C109.173 371.296 109.746 372.492 110.64 373.053C111.534 373.614 112.644 373.684 113.699 373.661C118.64 373.555 123.43 371.771 127.688 369.262C131.945 366.753 135.731 363.53 139.113 361.039Z" fill="#853D6F"/>
<path d="M131.153 349.216C131.579 348.859 131.882 348.359 132.002 347.817C132.034 347.67 132.05 347.503 131.962 347.382C131.842 347.217 131.598 347.219 131.395 347.243C130.373 347.366 129.369 347.639 128.424 348.051C128.235 348.133 128.026 348.245 127.975 348.446C127.935 348.6 128.006 348.767 128.12 348.88C128.415 349.172 128.893 349.131 129.303 349.068C129.894 348.978 130.487 348.888 131.153 349.216Z" fill="#853D6F"/>
<path d="M146.589 321.86C148.112 320.773 149.657 319.668 150.823 318.205C152.541 316.052 153.319 313.175 152.921 310.449C152.331 312.213 151.63 313.953 150.633 315.522C149.636 317.092 148.328 318.493 146.71 319.41C146.868 319.086 147.426 319.279 147.51 319.63C147.594 319.982 147.392 320.329 147.214 320.644C147.036 320.958 146.872 321.34 146.589 321.86Z" fill="#853D6F"/>
<path d="M145.422 292.38C146.593 288.255 146.008 283.661 143.84 279.961C143.63 283.023 145.199 286.143 144.336 289.088C145.182 290.197 145.538 291.668 145.422 292.38Z" fill="#853D6F"/>
<path d="M131.343 270.64C131.889 269.019 132.561 267.441 133.351 265.924C132.818 264.788 132.213 263.685 131.541 262.625C131.692 265.315 131.762 268.034 131.343 270.64Z" fill="#853D6F"/>
<path d="M163.041 285.56C162.978 286.146 162.363 286.549 161.774 286.569C161.185 286.59 160.628 286.32 160.116 286.029C159.542 285.703 158.952 285.298 158.73 284.677C158.558 284.193 158.652 283.621 158.972 283.219C159.291 282.817 159.826 282.595 160.336 282.653C160.985 282.727 161.511 283.201 161.953 283.682C162.709 284.503 163.363 285.418 163.041 285.56Z" fill="#853D6F"/>
<path d="M141.337 340.895C141.063 341.545 140.618 342.143 140.005 342.492C139.392 342.841 138.598 342.907 137.981 342.565C137.364 342.222 136.995 341.436 137.222 340.768C137.405 340.231 137.916 339.859 138.459 339.695C139.003 339.531 139.581 339.544 140.148 339.557C140.38 339.562 140.624 339.57 140.83 339.68C141.036 339.789 141.191 340.033 141.337 340.895Z" fill="#853D6F"/>
<path d="M155.196 250.385C154.594 251.026 153.876 251.576 153.046 251.864C152.216 252.152 151.266 252.156 150.483 251.756C149.701 251.356 149.127 250.517 149.158 249.639C149.188 248.761 149.896 247.921 150.772 247.85C151.401 247.799 151.996 248.112 152.549 248.414C153.233 248.789 153.916 249.163 155.196 250.385Z" fill="#853D6F"/>
<path d="M133.817 257.243C133.824 257.973 133.736 258.718 133.434 259.383C133.131 260.048 132.596 260.628 131.907 260.871C130.921 261.219 129.728 260.763 129.183 259.87C128.637 258.977 128.758 257.743 129.429 256.939C130.099 256.136 131.256 255.793 132.27 256.053C133.284 256.313 134.12 257.14 133.817 257.243Z" fill="#853D6F"/>
<path d="M113.575 211.899C110.146 212.787 106.821 214.161 103.907 216.176C100.993 218.191 98.4999 220.864 96.9209 224.034C97.2979 222.293 97.6978 220.5 98.7198 219.041C99.4868 217.946 100.562 217.103 101.689 216.384C105.564 213.91 110.111 212.754 113.575 211.899Z" fill="#853D6F"/>
<path d="M180.647 59.7219L183.043 72.9579L174.679 76.7669L184.834 74.0789L180.647 59.7219Z" fill="#853D6F"/>
<path d="M263.94 356.234C263.94 356.234 265.212 360.096 263.624 362.618C261.135 366.569 256.24 365.016 256.24 365.016C256.24 365.016 259.165 368.563 264.056 364.607C267.058 362.178 263.94 356.234 263.94 356.234Z" fill="#853D6F"/>
</g>
<g opacity="0.651">
<path d="M127.085 270.078C119.922 262.552 114.774 253.127 112.311 243.034C115.234 247.38 117.134 252.315 119.326 257.072C121.519 261.829 124.107 266.551 127.085 270.078Z" fill="#FFF5ED"/>
<path d="M141.8 290.838C140.765 291.222 138.525 292.065 138.546 290.961C138.638 286.203 139.414 282.076 138.77 277.685C138.125 273.294 136.334 268.932 133.032 265.966C135.327 269.255 136.389 277.551 136.389 277.551C136.389 277.551 136.835 285.253 136.265 289.223C136.095 290.405 136.009 291.842 136.974 292.545C137.777 293.13 138.925 292.867 139.778 292.357C140.63 291.848 141.355 291.12 141.8 290.838Z" fill="#FFF5ED"/>
<path d="M111.853 254.997C106.502 252.229 102.084 247.692 99.4589 242.269C96.8339 236.846 96.0159 230.567 97.1649 224.653C95.7399 228.791 94.2989 233.209 95.3259 237.463C95.8439 239.61 96.9659 241.563 98.2119 243.386C100.828 247.215 104.057 250.624 107.737 253.444C108.316 253.887 108.918 254.323 109.607 254.559C110.297 254.795 111.097 254.81 111.853 254.997Z" fill="#FFF5ED"/>
<path d="M138.896 314.376C142.009 311.58 144.729 308.22 146.127 304.275C147.526 300.332 147.471 295.748 145.343 292.146C145.621 299.969 143.414 307.861 138.896 314.376Z" fill="#FFF5ED"/>
<path d="M151.271 309.322C150.953 311.015 149.525 312.443 147.833 312.761C147.721 312.782 147.589 312.793 147.507 312.714C147.415 312.625 147.436 312.476 147.468 312.353C147.915 310.639 149.448 309.261 151.271 309.322Z" fill="#FFF5ED"/>
<path d="M147.511 320.211C144.394 329.752 137.094 337.845 127.922 341.925C126.135 342.72 124.137 343.494 123.202 345.213C123.292 343.729 124.737 342.756 126.003 341.977C134.664 336.642 142.039 329.232 147.511 320.211Z" fill="#FFF5ED"/>
<path d="M158.912 337.538C157.549 341.31 156.09 345.076 154.01 348.505C151.929 351.935 149.182 355.039 145.698 357.029C145.115 357.362 144.472 357.672 143.802 357.617C142.419 357.504 141.659 355.995 141.167 354.698C141.057 356.64 141.832 358.615 143.233 359.965C147.828 358.426 151.476 354.777 153.973 350.624C156.473 346.472 157.954 341.802 158.912 337.538Z" fill="#FFF5ED"/>
<path d="M173.946 304.855C175.356 310.842 174.599 317.316 171.845 322.815C170.289 325.92 167.337 321.923 166.476 319.776C167.363 322.344 168.692 324.933 170.833 326.605C175.689 320.58 176.806 311.774 173.946 304.855Z" fill="#FFF5ED"/>
<path d="M167.868 251.966C167.087 251.112 165.928 250.694 164.781 250.534C163.635 250.374 162.469 250.441 161.313 250.391C158.509 250.27 155.738 249.449 153.322 248.022C153.928 249.793 155.699 250.953 157.52 251.39C159.34 251.827 161.243 251.673 163.114 251.603C164.985 251.533 166.925 251.566 167.868 251.966Z" fill="#FFF5ED"/>
<path d="M147.014 233.771C148.882 232.476 151.289 229.076 149.637 227.514C148.433 226.375 141.127 223.536 136.324 222.512C144.047 223.262 151.668 226.726 152.053 227.508C152.407 228.225 151.386 229.854 150.963 230.533C149.916 232.218 148.896 233.295 147.014 233.771Z" fill="#FFF5ED"/>
<path d="M132.559 263.24C132.289 262.937 132.013 262.624 131.877 262.242C131.74 261.86 131.776 261.388 132.072 261.109C132.348 260.849 132.766 260.822 133.146 260.84C134.706 260.918 136.236 261.543 137.405 262.581C136.717 261.658 136.029 260.736 135.342 259.813C135.219 259.648 135.089 259.461 135.113 259.256C135.163 258.836 135.744 258.766 136.162 258.835C137.991 259.134 139.749 259.863 141.251 260.948C139.379 258.213 135.992 256.592 132.688 256.849C132.469 256.866 132.22 256.91 132.108 257.097C131.937 257.38 132.218 257.732 132.517 257.872C132.817 258.012 133.178 258.08 133.372 258.347C133.613 258.679 133.457 259.18 133.134 259.431C132.811 259.682 132.376 259.736 131.967 259.731C131.599 259.727 131.224 259.685 130.87 259.787C130.517 259.889 130.184 260.184 130.185 260.552C130.187 260.875 130.434 261.139 130.665 261.366C131.242 261.932 131.818 262.498 132.559 263.24Z" fill="#FFF5ED"/>
<path d="M111.778 241.183C111.215 240.21 110.653 239.237 110.09 238.264C109.91 237.953 109.738 237.534 109.978 237.266C110.132 237.094 110.395 237.074 110.626 237.094C111.5 237.168 112.331 237.647 112.835 238.364C113.072 238.107 112.992 237.684 112.8 237.392C112.608 237.1 112.325 236.873 112.146 236.574C111.967 236.274 111.925 235.837 112.193 235.612C112.389 235.447 112.675 235.456 112.93 235.484C114.157 235.62 115.356 235.998 116.44 236.589C115.534 235.386 114.234 234.486 112.79 234.061C112.25 233.902 111.657 233.811 111.134 234.019C110.611 234.226 110.21 234.82 110.387 235.354C110.45 235.545 110.582 235.734 110.534 235.93C110.48 236.15 110.221 236.255 109.995 236.256C109.768 236.257 109.543 236.189 109.318 236.214C108.651 236.288 108.339 237.165 108.577 237.792C108.815 238.419 109.396 238.838 109.94 239.23C110.486 239.62 111.055 240.065 111.778 241.183Z" fill="#FFF5ED"/>
<path d="M179.335 278.115C179.544 278.866 179.75 279.682 179.461 280.406C179.173 281.13 178.151 281.588 177.587 281.051C177.402 280.874 177.301 280.628 177.205 280.39C176.521 278.689 175.838 276.987 175.154 275.285C176.086 277.366 176.572 279.645 176.574 281.924C176.574 282.398 176.496 282.965 176.069 283.17C175.787 283.306 175.452 283.226 175.155 283.125C173.826 282.677 172.622 281.862 171.711 280.795C172.602 282.4 173.492 284.003 174.383 285.607C174.662 284.693 175.477 283.919 176.43 283.849C177.383 283.78 178.368 284.547 178.389 285.502C178.184 284.925 177.976 284.302 178.139 283.711C178.302 283.12 179.013 282.648 179.54 282.96C179.898 283.172 180.017 283.626 180.076 284.037C180.253 285.25 180.198 286.496 179.917 287.688C180.483 284.826 180.232 281.806 179.335 278.115Z" fill="#FFF5ED"/>
<path d="M92.7939 228.227C90.7239 227.203 84.3089 223.941 84.0059 222.789C83.4059 220.506 84.1209 218.057 85.4769 216.124C84.1089 216.712 82.6249 217.763 82.0389 220.87C81.8969 221.624 81.7839 224.697 83.8359 225.712C84.5139 226.047 90.3389 227.553 92.7939 228.227Z" fill="#FFF5ED"/>
<path d="M180.192 58.839C179.162 58.129 178.018 57.525 176.776 57.375C175.534 57.225 174.177 57.596 173.378 58.558C172.418 59.712 172.457 61.379 172.64 62.869C173.219 67.604 174.743 72.24 174.699 77.011C173.641 73.529 172.584 70.048 171.526 66.566C171.076 65.083 170.622 63.579 170.569 62.03C170.517 60.481 170.913 58.855 171.969 57.721C173.144 56.46 175.043 55.98 176.718 56.387C178.393 56.793 179.815 58.019 180.192 58.839Z" fill="#FFF5ED"/>
<path d="M256.194 365.019C255.784 363.229 255.32 359.554 255.32 359.554L264.171 356.263C264.171 356.263 260.986 356.884 259.382 357.108C257.447 357.379 255.539 357.859 253.707 358.539C254.595 360.572 255.483 362.607 256.194 365.019Z" fill="#FFF5ED"/>
</g>
<path d="M254.376 358.918C254.475 358.967 254.592 358.981 254.707 358.948L263.619 356.438C263.737 356.404 263.838 356.326 263.897 356.218C263.957 356.11 263.972 355.985 263.939 355.866L184.609 74.2319C184.576 74.1139 184.498 74.0139 184.39 73.9539C184.28 73.8899 184.157 73.8789 184.038 73.9119L175.125 76.4219C174.879 76.4909 174.736 76.7469 174.806 76.9939L254.135 358.627C254.172 358.76 254.263 358.862 254.376 358.918ZM262.923 355.673L254.901 357.932L175.823 77.1899L183.844 74.9299L262.923 355.673Z" fill="#66373F"/>
<path d="M174.378 77.474C174.478 77.523 174.594 77.537 174.709 77.505L185.069 74.586C185.188 74.553 185.288 74.474 185.348 74.367C185.408 74.26 185.422 74.134 185.389 74.015L181.451 60.034C181.019 58.499 179.968 57.184 178.566 56.428C177.216 55.703 175.668 55.543 174.227 55.998C172.926 56.409 168.792 58.141 170.199 63.203C171.161 66.662 174.108 77.081 174.138 77.186C174.175 77.316 174.265 77.418 174.378 77.474ZM184.373 73.82L174.903 76.488C174.327 74.451 171.938 66.001 171.092 62.954C169.939 58.808 173.095 57.325 174.506 56.88C175.706 56.501 176.988 56.624 178.126 57.242C179.309 57.88 180.195 58.99 180.561 60.285L184.373 73.82Z" fill="#66373F"/>
<path d="M83.77 226.203C83.99 226.311 84.229 226.409 84.49 226.492C87.116 227.328 95.048 229.804 95.128 229.829C95.372 229.905 95.631 229.769 95.708 229.525L98.929 219.254C99.005 219.011 98.874 218.753 98.625 218.673L87.99 215.338C86.978 215.021 85.848 215.153 84.809 215.712C83.419 216.46 82.343 217.859 81.855 219.551C81.504 220.776 80.675 224.672 83.77 226.203ZM94.963 228.807C93.25 228.272 87.035 226.331 84.771 225.61C81.72 224.64 82.337 221.228 82.746 219.808C83.164 218.354 84.076 217.159 85.247 216.529C86.065 216.09 86.94 215.981 87.713 216.223L97.906 219.42L94.963 228.807Z" fill="#66373F"/>
<path d="M109.869 373.189C117.755 377.09 132.672 367.696 138.766 361.378C138.767 361.38 138.767 361.383 138.767 361.383C138.864 362.672 139.024 364.821 140.596 365.599C140.612 365.606 140.627 365.614 140.644 365.62C142.068 366.289 144.165 365.612 147.055 363.552C157.913 355.814 164.453 336.793 166.816 325.92C166.847 326.019 166.881 326.117 166.912 326.214C167.742 328.741 168.595 331.049 169.912 331.478C170.225 331.58 170.713 331.621 171.259 331.229C179.584 325.258 180.327 304.82 177.689 292.409C178.556 292.791 179.257 293.495 179.885 294.132C180.643 294.9 181.296 295.564 182.125 295.525C182.631 295.5 183.103 295.212 183.567 294.64C187.013 290.407 183.548 266.93 173.765 255.632C175.174 255.767 176.974 255.562 177.994 255.047C178.757 254.661 178.947 254.179 178.973 253.842C179.083 252.384 171.815 239.266 154.789 233.35C157.56 233.217 160.414 233.075 160.389 231.6C160.365 230.159 159.394 228.544 157.582 226.932C152.535 222.443 141.809 218.461 130.563 219.112C131.727 218.221 133.003 217.039 133.045 216.104C133.061 215.762 132.92 215.456 132.649 215.243C126.878 210.684 106.881 207.912 98.1031 218.792C97.9421 218.991 97.9731 219.282 98.1721 219.443C98.3691 219.603 98.6621 219.572 98.8231 219.373C103.694 213.337 111.903 212.268 116.363 212.167C122.603 212.027 129.066 213.591 132.074 215.969C132.116 216.001 132.121 216.019 132.119 216.062C132.097 216.562 130.877 217.873 128.662 219.318C128.483 219.434 128.407 219.658 128.478 219.86C128.548 220.062 128.749 220.188 128.96 220.167C140.42 219.024 151.942 223.155 156.964 227.624C158.554 229.039 159.441 230.457 159.46 231.616C159.467 232.002 157.87 232.274 154.716 232.426C153.696 232.475 152.817 232.518 152.336 232.635C152.133 232.685 151.988 232.864 151.983 233.074C151.978 233.282 152.117 233.471 152.314 233.529C169.862 238.713 178.056 252.314 178.045 253.777C178.035 253.91 177.862 254.073 177.572 254.22C176.289 254.87 173.383 254.897 172.61 254.408C172.411 254.283 172.15 254.327 172.003 254.511C171.856 254.694 171.869 254.958 172.034 255.125C182.66 265.919 185.795 290.431 182.844 294.056C182.559 294.407 182.3 294.59 182.076 294.601C181.66 294.621 181.116 294.067 180.54 293.484C179.699 292.631 178.654 291.571 177.147 291.279C176.994 291.25 176.834 291.3 176.726 291.413C176.618 291.525 176.573 291.685 176.608 291.838C179.452 304.169 178.586 324.835 170.715 330.479C170.468 330.657 170.308 330.637 170.195 330.6C169.221 330.286 168.287 327.449 167.788 325.928C167.292 324.415 167.159 324.01 166.667 324.038C166.512 324.047 166.236 324.132 166.144 324.596C164.037 335.093 157.53 354.951 146.515 362.801C143.994 364.599 142.098 365.284 141.033 364.785C141.024 364.781 141.015 364.776 141.006 364.772C139.904 364.227 139.769 362.408 139.687 361.317C139.63 360.543 139.601 360.154 139.208 360.018C139.106 359.983 138.844 359.932 138.594 360.207C132.067 367.395 117.444 375.908 110.277 372.362C109.822 372.137 109.74 371.876 109.719 371.698C109.477 369.728 115.069 364.989 120.002 360.808C125.185 356.415 130.545 351.872 131.82 348.72C131.889 348.547 131.848 348.349 131.716 348.218C131.585 348.085 131.386 348.047 131.213 348.118C128.42 349.272 124.32 347.825 123.41 345.943C122.72 344.512 124.095 343.367 125.371 342.659C138.953 335.11 148.547 321.169 147.633 319.192C147.509 318.924 147.183 318.684 146.671 318.876C141.989 320.634 139.202 320.312 137.636 317.836C137.35 317.385 138.347 315.794 139.402 314.109C142.343 309.415 147.817 300.675 144.84 288.544C144.783 288.312 144.559 288.16 144.322 288.196C144.085 288.232 143.914 288.442 143.929 288.681C143.988 289.715 142.778 291.462 141.174 292.659C140.044 293.501 138.988 293.865 138.351 293.635C136.876 293.112 136.938 289.963 137.023 285.992C137.145 280.345 137.312 272.611 133.35 265.825C133.254 265.66 133.067 265.571 132.878 265.601C132.688 265.631 132.538 265.774 132.498 265.96C131.975 268.374 130.879 271.441 129.51 272.144C129.15 272.329 128.801 272.337 128.413 272.169C128.355 272.144 128.297 272.116 128.237 272.087C123.417 269.703 116.783 254.82 115.707 251.757C115.642 251.57 115.465 251.446 115.268 251.447C115.07 251.447 114.895 251.574 114.832 251.76L114.805 251.839C114.347 253.186 113.273 256.339 111.927 256.276C110.122 256.191 104.548 252.136 100.262 246.217C97.2321 242.033 93.9831 235.739 95.7101 229.512C95.7791 229.265 95.6341 229.012 95.3881 228.942C95.1411 228.874 94.887 229.018 94.818 229.264C92.992 235.846 96.363 242.411 99.511 246.76C103.742 252.602 109.531 257.091 111.883 257.201C113.555 257.279 114.624 255.042 115.294 253.24C117.099 257.628 123.174 270.915 128.044 273.018C128.687 273.297 129.322 273.281 129.932 272.968C131.578 272.124 132.597 269.279 133.119 267.329C136.363 273.639 136.21 280.724 136.096 285.971C135.999 290.484 135.931 293.741 138.034 294.505C139.329 294.973 140.903 294.014 141.725 293.401C142.731 292.651 143.727 291.586 144.316 290.517C146.31 301.335 141.531 308.964 138.616 313.618C137.144 315.969 136.256 317.388 136.852 318.331C139.187 322.023 143.573 321 146.766 319.828C146.286 322.259 138.06 334.547 124.92 341.849C121.707 343.634 122.211 345.587 122.575 346.344C123.573 348.41 127.325 349.98 130.478 349.308C128.707 352.214 123.984 356.217 119.401 360.101C113.549 365.06 108.495 369.343 108.797 371.81C108.852 372.222 109.079 372.798 109.869 373.189Z" fill="#66373F"/>
<path d="M256.823 366.157C257.111 366.3 257.425 366.415 257.763 366.501C260.076 367.089 263.19 366.216 264.85 364.513C265.913 363.422 266.292 362.086 265.916 360.753L264.496 355.71C264.463 355.592 264.384 355.491 264.277 355.432C264.166 355.369 264.043 355.358 263.925 355.39L253.787 358.247C253.668 358.28 253.568 358.358 253.509 358.466C253.448 358.573 253.434 358.699 253.467 358.818L254.888 363.861C255.176 364.884 255.851 365.676 256.823 366.157ZM263.731 356.406L265.026 361.004C265.387 362.287 264.769 363.27 264.187 363.866C262.76 365.33 259.981 366.109 257.992 365.603C257.18 365.398 256.138 364.883 255.779 363.608L254.484 359.01L263.731 356.406Z" fill="#66373F"/>
<path d="M109.12 130.522C117.918 134.874 129.856 136.827 142.774 136.023C158.026 135.074 173.698 130.284 188.095 122.171C188.319 122.045 188.397 121.763 188.272 121.541C188.146 121.318 187.864 121.239 187.641 121.365C173.365 129.41 157.83 134.159 142.716 135.099C130.14 135.882 118.057 133.91 109.52 129.687C109.453 129.654 109.388 129.622 109.322 129.588C102.853 126.341 98.978 122.103 98.409 117.654C96.263 100.871 105.786 87.3749 114.154 79.0079C123.745 69.4189 137.414 61.0369 150.719 56.5859C162.555 52.6269 171.679 52.6589 173.966 56.6669C174.092 56.8889 174.375 56.9659 174.597 56.8389C174.82 56.7129 174.897 56.4299 174.77 56.2079C172.216 51.7309 162.887 51.5389 150.425 55.7079C136.99 60.2019 123.187 68.6679 113.5 78.3539C104.986 86.8669 95.297 100.616 97.491 117.772C98.1 122.535 102.154 127.025 108.907 130.415C108.977 130.451 109.049 130.487 109.12 130.522Z" fill="#66373F"/>
<path d="M47.168 207.573C57.282 212.576 68.981 216.774 82.187 220.128C82.435 220.191 82.687 220.041 82.75 219.793C82.813 219.545 82.663 219.293 82.415 219.23C35.336 207.271 7.663 184.285 2.383 152.755C-4.913 109.183 32.063 56.03 72.026 29.815C125.402 -5.19799 182.468 -2.26199 215.119 10.89C232.156 17.752 243.668 27.738 245.918 37.6C252.164 64.971 231.155 98.196 195.964 116.6C195.737 116.718 195.651 116.998 195.769 117.224C195.887 117.451 196.166 117.538 196.394 117.42C231.951 98.824 253.16 65.168 246.822 37.393C244.504 27.234 232.784 17.005 215.465 10.03C196.681 2.46301 173.555 -0.600993 150.346 1.40101C122.705 3.78501 95.448 13.343 71.519 29.039C51.458 42.199 32.386 62.019 19.191 83.416C8.65902 100.497 -2.96498 126.418 1.47102 152.906C3.99902 168.008 11.52 181.221 23.824 192.181C30.289 197.944 38.091 203.083 47.168 207.573Z" fill="#66373F"/>
<path d="M115.548 253.87C115.653 253.922 115.779 253.935 115.9 253.894C116.143 253.813 116.274 253.551 116.194 253.309L113.131 244.103C113.05 243.861 112.789 243.729 112.545 243.81C112.303 243.891 112.171 244.153 112.252 244.395L115.315 253.601C115.355 253.723 115.441 253.816 115.548 253.87Z" fill="#66373F"/>
<path d="M111.514 242.044C111.607 242.09 111.716 242.105 111.825 242.08C112.074 242.021 112.228 241.772 112.169 241.523C111.828 240.072 110.923 238.765 109.684 237.936C109.472 237.795 109.184 237.851 109.042 238.064C108.9 238.276 108.957 238.564 109.169 238.707C110.214 239.406 110.98 240.511 111.268 241.736C111.301 241.875 111.394 241.985 111.514 242.044Z" fill="#66373F"/>
<path d="M143.216 291.406C143.403 291.498 143.635 291.456 143.775 291.289C145.124 289.693 145.246 286.6 144.586 284.65C144.505 284.408 144.242 284.278 144 284.36C143.757 284.442 143.627 284.705 143.709 284.947C144.291 286.666 144.172 289.385 143.068 290.692C142.903 290.887 142.927 291.179 143.123 291.344C143.151 291.369 143.184 291.39 143.216 291.406Z" fill="#66373F"/>
<path d="M143.793 282.524C143.858 282.556 143.933 282.574 144.011 282.572C144.266 282.564 144.468 282.351 144.46 282.095C144.436 281.245 144.188 280.413 143.742 279.69C143.61 279.473 143.323 279.404 143.105 279.539C142.887 279.674 142.82 279.959 142.954 280.177C143.314 280.762 143.515 281.435 143.534 282.122C143.539 282.3 143.644 282.45 143.793 282.524Z" fill="#66373F"/>
<path d="M144.924 320.295C145.023 320.345 145.14 320.359 145.254 320.326C148.5 319.412 152.017 315.144 153.093 310.814C153.156 310.565 153.005 310.316 152.756 310.253C152.507 310.19 152.256 310.342 152.194 310.59C151.206 314.565 147.913 318.614 145.003 319.434C144.757 319.503 144.614 319.759 144.684 320.005C144.72 320.138 144.81 320.239 144.924 320.295Z" fill="#66373F"/>
<path d="M174.019 291.315C174.073 291.341 174.132 291.358 174.195 291.362C175.885 291.47 177.55 292.101 178.886 293.145C179.086 293.301 179.378 293.266 179.535 293.065C179.692 292.863 179.657 292.572 179.455 292.415C177.973 291.259 176.128 290.557 174.253 290.438C173.998 290.421 173.778 290.616 173.762 290.871C173.751 291.063 173.857 291.234 174.019 291.315Z" fill="#66373F"/>
<path d="M132.263 264.148C132.385 264.209 132.532 264.214 132.665 264.152C132.897 264.043 132.996 263.767 132.887 263.536C132.44 262.586 131.776 261.73 130.966 261.061C130.771 260.897 130.478 260.926 130.315 261.122C130.152 261.319 130.18 261.611 130.377 261.774C131.082 262.357 131.66 263.103 132.05 263.93C132.096 264.029 132.172 264.103 132.263 264.148Z" fill="#66373F"/>
<path d="M109.978 254.035C110.193 254.141 110.458 254.065 110.582 253.855C110.712 253.635 110.639 253.351 110.418 253.221C102.838 248.751 97.8071 240.517 97.2871 231.732C97.2721 231.477 97.0541 231.282 96.7981 231.297C96.5431 231.312 96.3481 231.531 96.3631 231.787C96.9001 240.876 102.105 249.394 109.948 254.018C109.958 254.024 109.968 254.03 109.978 254.035Z" fill="#66373F"/>
<path d="M127.488 270.036C127.655 270.119 127.863 270.095 128.009 269.96C128.197 269.786 128.207 269.493 128.033 269.306C123.567 264.497 120.187 258.64 118.259 252.368C118.183 252.123 117.924 251.987 117.68 252.061C117.435 252.136 117.298 252.396 117.374 252.64C119.343 259.044 122.795 265.025 127.354 269.936C127.394 269.978 127.439 270.012 127.488 270.036Z" fill="#66373F"/>
<path d="M143.39 360.32C143.505 360.377 143.643 360.385 143.771 360.334C148.651 358.338 152.655 354.42 154.753 349.584C154.855 349.35 154.749 349.075 154.513 348.975C154.279 348.873 154.006 348.981 153.904 349.215C151.901 353.832 148.08 357.572 143.421 359.477C143.185 359.574 143.071 359.844 143.168 360.081C143.211 360.19 143.293 360.272 143.39 360.32Z" fill="#66373F"/>
<path d="M155.404 347.482C155.622 347.589 155.888 347.51 156.01 347.298C157.001 345.571 157.783 343.727 158.337 341.815C158.408 341.57 158.268 341.312 158.022 341.242C157.776 341.171 157.519 341.312 157.448 341.557C156.916 343.398 156.162 345.174 155.208 346.836C155.081 347.058 155.157 347.341 155.379 347.468C155.388 347.474 155.396 347.478 155.404 347.482Z" fill="#66373F"/>
<path d="M158.258 340.249C158.276 340.258 158.294 340.266 158.314 340.272C158.555 340.355 158.819 340.226 158.902 339.984L159.691 337.687C159.774 337.445 159.645 337.185 159.403 337.098C159.162 337.016 158.898 337.145 158.815 337.386L158.026 339.684C157.949 339.907 158.053 340.147 158.258 340.249Z" fill="#66373F"/>
<path d="M170.62 326.511C170.808 326.604 171.041 326.56 171.181 326.392C174.668 322.199 176.108 316.502 175.029 311.155C174.978 310.905 174.734 310.743 174.483 310.794C174.233 310.844 174.071 311.088 174.122 311.339C175.145 316.414 173.78 321.82 170.47 325.801C170.307 325.997 170.333 326.289 170.53 326.452C170.558 326.476 170.588 326.495 170.62 326.511Z" fill="#66373F"/>
<path d="M174.419 309.377C174.494 309.415 174.581 309.432 174.672 309.423C174.926 309.397 175.11 309.168 175.084 308.914L174.695 305.19C174.668 304.937 174.44 304.752 174.186 304.778C173.932 304.804 173.748 305.033 173.774 305.287L174.163 309.01C174.181 309.174 174.281 309.309 174.419 309.377Z" fill="#66373F"/>
<path d="M112.192 371.756C112.26 371.789 112.338 371.807 112.419 371.803C121.975 371.346 131.239 366.607 137.204 359.126C137.363 358.926 137.33 358.635 137.13 358.475C136.932 358.317 136.639 358.349 136.48 358.549C130.68 365.824 121.669 370.434 112.376 370.878C112.12 370.89 111.923 371.107 111.936 371.362C111.943 371.536 112.046 371.684 112.192 371.756Z" fill="#66373F"/>
<path d="M162.774 252.088C162.86 252.131 162.96 252.147 163.061 252.128C165.698 251.654 171.444 253.886 173.49 256.732C173.64 256.94 173.93 256.986 174.136 256.837C174.344 256.688 174.391 256.399 174.242 256.191C171.942 252.991 165.901 250.676 162.897 251.216C162.645 251.261 162.478 251.502 162.523 251.754C162.551 251.905 162.647 252.025 162.774 252.088Z" fill="#66373F"/>
<path d="M156.014 251.483C157.395 252.166 159.012 252.404 160.52 252.121C160.771 252.074 160.936 251.832 160.889 251.581C160.841 251.33 160.601 251.164 160.348 251.211C158.722 251.517 156.948 251.125 155.603 250.162C155.394 250.013 155.106 250.061 154.957 250.269C154.808 250.477 154.855 250.766 155.064 250.915C155.363 251.129 155.683 251.319 156.014 251.483Z" fill="#66373F"/>
<path d="M179.769 288.846C179.801 288.863 179.836 288.875 179.873 288.883C180.122 288.939 180.37 288.781 180.426 288.532C181.24 284.89 180.943 280.971 179.589 277.494C179.496 277.256 179.228 277.138 178.989 277.23C178.751 277.323 178.632 277.591 178.725 277.83C180.013 281.138 180.296 284.866 179.521 288.33C179.475 288.542 179.581 288.754 179.769 288.846Z" fill="#66373F"/>
<path d="M178.479 276.125C178.553 276.162 178.638 276.18 178.727 276.171C178.982 276.148 179.168 275.922 179.145 275.667C179.047 274.614 178.763 273.598 178.299 272.647C178.188 272.417 177.91 272.322 177.681 272.434C177.451 272.546 177.355 272.823 177.467 273.053C177.881 273.903 178.135 274.812 178.223 275.754C178.239 275.919 178.341 276.057 178.479 276.125Z" fill="#66373F"/>
<path d="M126.894 346.204C126.925 346.22 126.959 346.232 126.994 346.24C129.814 346.902 132.912 346.301 135.279 344.63C135.488 344.482 135.538 344.193 135.39 343.984C135.243 343.775 134.954 343.725 134.746 343.873C132.591 345.394 129.772 345.941 127.206 345.339C126.957 345.28 126.708 345.435 126.65 345.684C126.6 345.897 126.706 346.111 126.894 346.204Z" fill="#66373F"/>
<path d="M136.637 343.162C136.78 343.232 136.955 343.227 137.098 343.133C138.099 342.47 138.909 341.55 139.439 340.471C139.551 340.242 139.457 339.965 139.228 339.852L139.227 339.851C138.998 339.739 138.72 339.833 138.607 340.063C138.15 340.995 137.452 341.79 136.587 342.362C136.373 342.503 136.315 342.79 136.456 343.004C136.503 343.073 136.565 343.127 136.637 343.162Z" fill="#66373F"/>
<path d="M84.5801 224.503C84.6261 224.526 84.6741 224.547 84.7221 224.565C85.8871 225.007 87.6021 225.497 89.4171 226.016C90.8691 226.431 92.3711 226.86 93.7451 227.306C93.9881 227.385 94.2491 227.252 94.3281 227.009C94.4071 226.766 94.2761 226.505 94.0311 226.426C92.6411 225.974 91.1311 225.543 89.6711 225.126C87.8751 224.613 86.1791 224.128 85.0501 223.7C84.7681 223.596 84.5901 223.304 84.4911 223.082C84.1331 222.276 84.1771 221.003 84.6011 219.912C84.6931 219.674 84.5701 219.405 84.3371 219.313C84.0991 219.22 83.8311 219.338 83.7381 219.577C83.2221 220.903 83.1861 222.427 83.6441 223.459C83.8641 223.95 84.1851 224.308 84.5801 224.503Z" fill="#66373F"/>
<path d="M137.249 262.789C137.404 262.866 137.598 262.852 137.742 262.737C137.942 262.578 137.976 262.286 137.816 262.087C136.359 260.253 134.295 258.974 132.004 258.485C131.754 258.432 131.508 258.591 131.454 258.841C131.4 259.091 131.563 259.338 131.81 259.39C133.862 259.828 135.785 261.021 137.09 262.662C137.136 262.718 137.189 262.76 137.249 262.789Z" fill="#66373F"/>
<path d="M123.486 222.61C123.523 222.628 123.562 222.641 123.604 222.65C126.515 223.21 129.592 223.214 132.504 222.659C132.755 222.611 132.919 222.369 132.872 222.117C132.823 221.866 132.582 221.701 132.33 221.749C129.532 222.282 126.575 222.279 123.779 221.741C123.527 221.693 123.285 221.857 123.237 222.108C123.197 222.316 123.305 222.52 123.486 222.61Z" fill="#66373F"/>
<path d="M123.214 224.392C124.145 224.852 125.158 225.139 126.194 225.23C126.449 225.252 126.673 225.064 126.696 224.81C126.719 224.555 126.532 224.331 126.275 224.308C125.055 224.201 123.869 223.788 122.845 223.117C122.628 222.977 122.344 223.036 122.204 223.25C122.063 223.463 122.123 223.751 122.337 223.891C122.619 224.076 122.912 224.243 123.214 224.392Z" fill="#66373F"/>
<path d="M112.712 238.677C112.855 238.748 113.031 238.742 113.173 238.649C113.386 238.507 113.445 238.22 113.304 238.007C112.602 236.944 111.562 236.109 110.369 235.653C110.13 235.562 109.863 235.681 109.771 235.92C109.679 236.159 109.794 236.423 110.038 236.518C111.05 236.903 111.934 237.615 112.532 238.518C112.579 238.588 112.642 238.642 112.712 238.677Z" fill="#66373F"/>
<path d="M158.03 256.298C158.564 256.562 159.121 256.777 159.692 256.936C159.938 257.004 160.194 256.86 160.262 256.614C160.33 256.368 160.19 256.114 159.94 256.044C157.361 255.327 155.112 253.347 154.076 250.877C153.976 250.642 153.706 250.53 153.469 250.629C153.234 250.728 153.122 250.999 153.221 251.235C154.136 253.413 155.903 255.246 158.03 256.298Z" fill="#66373F"/>
<path d="M153.725 255.418C153.906 255.507 154.13 255.471 154.273 255.314C154.445 255.125 154.431 254.832 154.243 254.66C153.292 253.793 152.581 252.633 152.24 251.392C152.174 251.145 151.919 251.001 151.672 251.068C151.425 251.136 151.28 251.39 151.348 251.637C151.734 253.044 152.541 254.361 153.619 255.344C153.651 255.375 153.688 255.399 153.725 255.418Z" fill="#66373F"/>
<path d="M147.632 313.791C147.739 313.844 147.866 313.856 147.989 313.814C149.792 313.194 151.247 311.672 151.788 309.844C151.86 309.599 151.72 309.342 151.475 309.269C151.23 309.196 150.972 309.336 150.9 309.582C150.444 311.128 149.212 312.414 147.688 312.939C147.446 313.022 147.318 313.285 147.401 313.527C147.44 313.647 147.526 313.738 147.632 313.791Z" fill="#66373F"/>
<path d="M178.225 286.205C178.299 286.242 178.383 286.26 178.472 286.251C178.727 286.228 178.914 286.003 178.891 285.748C178.523 281.72 177.089 277.848 174.745 274.552C174.598 274.344 174.307 274.295 174.099 274.444C173.89 274.592 173.841 274.881 173.99 275.089C176.24 278.252 177.616 281.967 177.969 285.833C177.983 285.999 178.085 286.137 178.225 286.205Z" fill="#66373F"/>
<path d="M172.469 319.408C172.516 319.431 172.567 319.447 172.622 319.454C172.876 319.482 173.105 319.301 173.135 319.046C173.512 315.749 172.845 312.328 171.254 309.413C171.133 309.188 170.851 309.106 170.627 309.228C170.402 309.351 170.319 309.632 170.441 309.856C171.941 312.605 172.57 315.832 172.213 318.941C172.191 319.141 172.299 319.324 172.469 319.408Z" fill="#66373F"/>
<path d="M164.176 287.554C164.298 287.615 164.444 287.621 164.577 287.559C164.809 287.452 164.909 287.176 164.801 286.944C164.307 285.883 163.574 284.92 162.685 284.158C162.492 283.993 162.199 284.015 162.033 284.209C161.866 284.403 161.89 284.696 162.084 284.862C162.874 285.538 163.523 286.393 163.963 287.336C164.008 287.434 164.085 287.509 164.176 287.554Z" fill="#66373F"/>
<path d="M161.855 290.286C161.884 290.301 161.916 290.312 161.948 290.32C162.197 290.383 162.448 290.232 162.511 289.984C162.885 288.487 162.598 286.827 161.741 285.544C161.598 285.331 161.311 285.274 161.099 285.416C160.886 285.559 160.83 285.846 160.971 286.059C161.684 287.128 161.924 288.512 161.612 289.759C161.559 289.975 161.665 290.192 161.855 290.286Z" fill="#66373F"/>
<path d="M159.111 288.225C159.33 288.333 159.598 288.252 159.719 288.036C160.4 286.83 160.095 285.197 159.024 284.317C158.827 284.156 158.535 284.183 158.373 284.381C158.211 284.578 158.239 284.87 158.436 285.032C159.158 285.625 159.372 286.767 158.914 287.581C158.788 287.804 158.866 288.086 159.089 288.212C159.097 288.217 159.104 288.221 159.111 288.225Z" fill="#66373F"/>
<path d="M138.793 345.296C138.979 345.389 139.213 345.345 139.352 345.179C140.356 343.981 140.992 342.464 141.141 340.907C141.165 340.652 140.98 340.426 140.725 340.402C140.47 340.377 140.244 340.564 140.22 340.818C140.088 342.19 139.528 343.527 138.642 344.583C138.478 344.779 138.503 345.071 138.7 345.235C138.729 345.26 138.761 345.28 138.793 345.296Z" fill="#66373F"/>
<defs>
<linearGradient id="paint0_linear_54_610" x1="166.087" y1="365.369" x2="104.04" y2="218.169" gradientUnits="userSpaceOnUse">
<stop stop-color="#A35BA6"/>
<stop offset="0.547" stop-color="#F58295"/>
<stop offset="1" stop-color="#FAAA64"/>
</linearGradient>
<linearGradient id="paint1_linear_54_610" x1="167.867" y1="359.194" x2="108.865" y2="219.219" gradientUnits="userSpaceOnUse">
<stop stop-color="#C293C7"/>
<stop offset="0.547" stop-color="#FFB8C2"/>
<stop offset="1" stop-color="#FFE59E"/>
</linearGradient>
<linearGradient id="paint2_linear_54_610" x1="260.443" y1="361.179" x2="178.521" y2="71.9795" gradientUnits="userSpaceOnUse">
<stop stop-color="#F6D9CF"/>
<stop offset="1" stop-color="#FEECDA"/>
</linearGradient>
</defs>
</svg>
