<svg width="276" height="592" viewBox="0 0 276 592" fill="none" xmlns="http://www.w3.org/2000/svg">
<path d="M171.444 581.255V524.206C171.444 492.458 145.707 466.721 113.959 466.721C82.2116 466.721 56.476 492.456 56.476 524.206V581.255H171.444Z" fill="#70287E"/>
<path d="M131.984 12.0247H99.304V477.057H131.984V12.0247Z" fill="white"/>
<path d="M197.302 24.048H32.0989C23.5204 24.048 16.5666 17.0943 16.5666 8.51574V0H213.859V7.49027C213.859 16.6358 206.445 24.048 197.302 24.048Z" fill="#70287E"/>
<path d="M190.07 409.496H42.831C30.6605 409.496 20.7939 419.363 20.7939 431.533V580.591H210.496V429.922C210.496 418.642 201.35 409.496 190.07 409.496ZM165.55 580.593H65.7394V529.021C65.7394 500.321 88.0828 477.057 115.645 477.057C143.207 477.057 165.55 500.323 165.55 529.021V580.593Z" fill="#F3B75F"/>
<path d="M113.959 478.467C139.179 478.467 159.698 498.986 159.698 524.206V569.509H68.2204V524.206C68.2223 498.986 88.7392 478.467 113.959 478.467ZM113.959 466.721C82.2116 466.721 56.476 492.456 56.476 524.206V581.255H171.444V524.206C171.444 492.458 145.707 466.721 113.959 466.721Z" fill="#D65C74"/>
<path d="M185.285 583.14V524.256C185.285 484.864 153.351 452.932 113.961 452.932C74.5691 452.932 42.637 484.866 42.637 524.256V583.14H185.285Z" stroke="#E8973F" stroke-miterlimit="10"/>
<path d="M20.7939 430.35V436.48L210.496 441.708V429.924L20.7939 430.35Z" fill="#E8973F"/>
<path d="M30.5197 406.431H201.794C210.372 406.431 217.326 413.385 217.326 421.963V430.479H13.962V422.989C13.962 413.843 21.3762 406.431 30.5197 406.431Z" fill="#70287E"/>
<path d="M99.304 24.0479V28.1117L131.986 33.7508V24.0479H99.304Z" fill="#FFE7D7"/>
<path d="M133.867 54.8064H97.4222V379.546H133.867V54.8064Z" fill="#EAB6A2"/>
<path d="M133.867 54.8064H123.348V379.546H133.867V54.8064Z" fill="#DD9985"/>
<path d="M230.512 580.593H0.777405V591.91H230.512V580.593Z" fill="#70287E"/>
<path d="M259.442 217.176H94.2394C85.6609 217.176 78.7071 210.223 78.7071 201.644V193.128H276V200.619C276 209.764 268.586 217.176 259.442 217.176Z" fill="#70287E"/>
<path d="M97.4222 62.0876H114.414" stroke="#DD9985" stroke-miterlimit="10"/>
<path d="M97.4222 77.9207H121.27" stroke="#DD9985" stroke-miterlimit="10"/>
<path d="M97.4222 114.864H121.27" stroke="#DD9985" stroke-miterlimit="10"/>
<path d="M97.4222 135.387H121.27" stroke="#DD9985" stroke-miterlimit="10"/>
<path d="M97.4222 143.596H121.27" stroke="#DD9985" stroke-miterlimit="10"/>
<path d="M97.4222 177.901H117.585" stroke="#DD9985" stroke-miterlimit="10"/>
<path d="M108.135 156.497H131.985" stroke="#DD9985" stroke-miterlimit="10"/>
<path d="M102.156 186.696H131.986" stroke="#DD9985" stroke-miterlimit="10"/>
<path d="M97.4222 84.0046H113.599" stroke="#DD9985" stroke-miterlimit="10"/>
<path d="M97.4222 124.245H113.599" stroke="#DD9985" stroke-miterlimit="10"/>
<path d="M97.4222 364.473H114.414" stroke="#DD9985" stroke-miterlimit="10"/>
<path d="M97.4222 346.737H121.27" stroke="#DD9985" stroke-miterlimit="10"/>
<path d="M97.4222 305.355H121.27" stroke="#DD9985" stroke-miterlimit="10"/>
<path d="M97.4222 282.366H121.27" stroke="#DD9985" stroke-miterlimit="10"/>
<path d="M97.4222 273.17H121.27" stroke="#DD9985" stroke-miterlimit="10"/>
<path d="M97.4222 234.746H117.585" stroke="#DD9985" stroke-miterlimit="10"/>
<path d="M108.135 258.72H131.985" stroke="#DD9985" stroke-miterlimit="10"/>
<path d="M102.156 224.893H131.986" stroke="#DD9985" stroke-miterlimit="10"/>
<path d="M97.4222 339.922H113.599" stroke="#DD9985" stroke-miterlimit="10"/>
<path d="M97.4222 294.846H113.599" stroke="#DD9985" stroke-miterlimit="10"/>
</svg>
