<svg width="155" height="117" viewBox="0 0 155 117" fill="none" xmlns="http://www.w3.org/2000/svg">
<path d="M11.0288 36.7167C2.72514 49.2149 17.1924 58.9739 25.0681 44.3355C25.0681 44.3355 55.8859 47.1605 68.9834 33.8062C87.804 14.6166 56.5707 -18.2416 19.7605 23.7049C5.63575 13.8602 -4.20874 28.2418 11.0288 36.7167Z" fill="#FFB839"/>
<path d="M13.6826 45.8763C19.7882 46.0228 21.8152 36.5452 21.8152 36.5452C21.8152 36.5452 67.6132 40.2262 71.5335 11.3311C76.0539 17.695 75.9633 26.689 68.9834 33.806C55.8857 47.1602 25.0681 44.3353 25.0681 44.3353C18.0259 57.4243 5.72746 51.0038 9.13631 40.5638C9.63338 43.0887 10.831 45.8077 13.6826 45.8763Z" fill="#E0880A"/>
<g opacity="0.7">
<path d="M19.7605 23.7046C53.8049 -15.0901 83.0739 10.1002 72.3915 29.2858C72.8886 14.2281 62.6243 6.27998 45.7846 11.9482C28.3212 17.8264 20.1905 30.9706 20.1905 30.9706C20.1905 30.9706 9.31685 19.7097 5.83557 28.8409C5.44312 29.87 5.05219 30.5738 4.66678 31.0373C0.00932198 23.3752 8.52272 15.8722 19.7605 23.7046Z" fill="white"/>
</g>
<path d="M57.5981 20.2235C56.0221 20.2235 54.7446 18.946 54.7446 17.3701C54.7446 15.7941 56.0221 14.5166 57.5981 14.5166C59.174 14.5166 60.4515 15.7941 60.4515 17.3701C60.4515 18.946 59.174 20.2235 57.5981 20.2235Z" fill="#00416D"/>
<path d="M15.466 55.0233C19.7746 55.0236 23.8535 52.426 26.8916 47.8195C34.3725 48.2148 59.2631 48.5055 71.3771 36.1541C77.2287 30.1875 79.3377 22.5854 77.1628 15.2969C74.9503 7.88107 68.7696 2.39178 60.6305 0.613083C47.8531 -2.17901 32.8454 4.64908 19.1386 19.3919C14.1755 16.7308 9.13395 16.2907 5.25235 18.2729C2.02757 19.9203 0.0646487 23.03 0.00161496 26.5917C-0.0708068 30.6968 2.2953 34.6853 6.59149 37.8508C4.76736 41.987 4.71287 46.2219 6.53499 49.6238C8.34402 53.0017 11.6789 55.0203 15.4558 55.0234C15.459 55.0233 15.4627 55.0233 15.466 55.0233ZM23.1667 40.7966L22.1156 42.7473C20.2386 46.2356 17.753 48.3177 15.4658 48.3177C15.4642 48.3177 15.4633 48.3177 15.4622 48.3177C14.1778 48.3166 13.0784 47.6388 12.4461 46.4579C11.366 44.4418 11.8805 41.4942 13.8213 38.5721L15.8293 35.5501L12.6585 33.7868C8.22099 31.3187 6.67431 28.5131 6.70633 26.7099C6.73047 25.3339 7.58745 24.6098 8.30211 24.2447C10.0793 23.3381 13.518 23.4409 17.8434 26.4556L20.3032 28.1697L22.2803 25.9163C34.8311 11.615 48.2863 4.77832 59.1987 7.16405C64.9188 8.414 69.232 12.1712 70.7369 17.2144C72.1932 22.0947 70.6812 27.2866 66.5892 31.4587C54.7699 43.5097 25.6661 41.0229 25.3727 40.9968L23.1667 40.7966Z" fill="#00416D"/>
<path d="M78.5768 76.3302C66.4197 85.1258 76.5493 99.336 89.0556 88.386C89.0556 88.386 116.929 101.832 133.876 93.9148C158.228 82.5379 140.491 40.8178 91.3148 67.2037C81.5359 53.0333 67.2757 63.0527 78.5768 76.3302Z" fill="#FFB839"/>
<path d="M77.8523 85.8394C83.5193 88.1163 88.7392 79.9502 88.7392 79.9502C88.7392 79.9502 130.343 99.4478 144.141 73.7592C146.144 81.3036 142.907 89.6956 133.876 93.915C116.929 101.832 89.0557 88.3862 89.0557 88.3862C77.873 98.1772 68.6047 87.8538 75.4561 79.2706C75.0368 81.8095 75.2056 84.7758 77.8523 85.8394Z" fill="#E0880A"/>
<g opacity="0.7">
<path d="M91.3149 67.2037C136.796 42.8003 155.381 76.6506 138.652 90.8757C144.395 76.9471 137.567 65.9059 119.809 65.3131C101.393 64.6984 89.1712 74.1596 89.1712 74.1596C89.1712 74.1596 82.9336 59.8021 76.4731 67.1341C75.7448 67.9605 75.1321 68.4826 74.6086 68.7817C72.9318 59.9733 83.5347 55.9297 91.3149 67.2037Z" fill="white"/>
</g>
<path d="M127.973 77.2034C126.497 76.6511 125.748 75.0068 126.3 73.5309C126.853 72.0549 128.497 71.3061 129.973 71.8584C131.449 72.4107 132.198 74.0549 131.645 75.5309C131.093 77.0069 129.449 77.7557 127.973 77.2034Z" fill="#00416D"/>
<path d="M76.317 95.031C80.3523 96.5413 85.0829 95.5379 89.5426 92.2882C96.4105 95.2802 119.621 104.275 135.295 96.9527C142.867 93.4153 147.506 87.0344 148.023 79.446C148.55 71.7251 144.685 64.4179 137.686 59.8996C126.697 52.8067 110.248 53.9422 92.2438 62.9465C88.5281 58.7147 83.9606 56.5357 79.6305 57.0319C76.0329 57.4447 73.1046 59.6692 71.7974 62.983C70.2909 66.8023 71.1091 71.3672 74.0235 75.8375C70.8655 79.0721 69.3304 83.0193 69.8447 86.8441C70.3552 90.6417 72.7712 93.701 76.3074 95.0276C76.3105 95.0285 76.3139 95.0298 76.317 95.031ZM88.5152 84.4053L86.8471 85.8639C83.8667 88.4732 80.809 89.5522 78.6669 88.7506C78.6653 88.7501 78.6645 88.7498 78.6634 88.7493C77.461 88.2982 76.6688 87.2781 76.4904 85.9505C76.1853 83.6837 77.7002 81.1033 80.542 79.0468L83.4818 76.9201L81.13 74.1574C77.8389 70.2907 77.3735 67.121 78.0355 65.4434C78.5403 64.1631 79.5967 63.7853 80.394 63.6938C82.3762 63.4675 85.5608 64.7688 88.5553 69.1082L90.2584 71.5757L92.8999 70.1581C109.667 61.1622 124.664 59.4746 134.049 65.5333C138.968 68.7086 141.691 73.7391 141.333 78.9899C140.987 84.071 137.751 88.4038 132.456 90.8772C117.163 98.0219 90.7767 85.4932 90.5111 85.3659L88.5152 84.4053Z" fill="#00416D"/>
</svg>
