<svg width="1280" height="832" viewBox="0 0 1280 832" fill="none" xmlns="http://www.w3.org/2000/svg">
<g clip-path="url(#clip0_24_18)">
<rect width="1280" height="832" fill="#32256D"/>
<path fill-rule="evenodd" clip-rule="evenodd" d="M-162.271 541.141C-139.342 478.594 -175.402 375.867 -21.9865 397.006C129.591 417.892 159.871 521.834 242.717 596.944C353.699 697.564 616.407 821.591 501.251 871.391C364.038 930.729 48.7529 874.034 -158.958 770.651C-321.496 689.752 -190.567 618.33 -162.271 541.141Z" fill="#17124C"/>
<path fill-rule="evenodd" clip-rule="evenodd" d="M1439.93 144.783C1426.5 210.033 1477.36 306.297 1322.51 308.083C1169.51 309.848 1124.18 211.528 1031.14 149.498C906.495 66.4016 628.331 -17.4021 734.854 -83.6876C861.78 -162.67 1181.98 -153.234 1402.7 -81.7122C1575.42 -25.7454 1456.49 64.2575 1439.93 144.783Z" fill="#17124C"/>
<path fill-rule="evenodd" clip-rule="evenodd" d="M1318 788C1271.61 908.719 1154.3 936.561 875.656 894.532C600.347 853.007 552.554 651.871 406.684 506.062C211.271 310.732 -259.541 93.8776 -45.6406 -1.49992C209.23 -115.146 919.135 287.592 1291 489C1581.99 646.606 1375.25 639.02 1318 788Z" fill="#17124C"/>
<circle cx="1169.54" cy="191.713" r="80.0095" fill="#F087F0"/>
<path d="M1164.91 114.57C1179.36 116.021 1187.48 126.545 1193.98 140.692C1197.22 147.761 1200.04 155.688 1203.03 163.779C1205.84 171.355 1208.79 179.067 1212.39 186.296L1213.12 187.735C1216.29 193.911 1219.66 199.707 1222.68 205.165C1225.7 210.634 1228.36 215.77 1230.18 220.669C1231.99 225.566 1232.93 230.198 1232.52 234.661C1232.13 238.974 1230.47 243.164 1227.05 247.312L1226.71 247.714C1223.11 251.938 1219.51 253.841 1215.79 254.201C1212.06 254.563 1208.14 253.374 1203.91 251.243C1199.68 249.112 1195.2 246.072 1190.35 242.793C1185.81 239.726 1180.95 236.458 1175.71 233.58L1174.66 233.009C1167.12 228.984 1159.19 225.459 1151.51 221.902C1143.81 218.34 1136.35 214.742 1129.72 210.557C1116.68 202.324 1106.88 191.852 1104.81 174.974L1104.71 174.166C1102.49 153.422 1110.65 137.848 1122.8 127.792C1134.77 117.879 1150.64 113.329 1164.27 114.509L1164.91 114.57Z" fill="#ED75F0" stroke="#902D9A"/>
<ellipse cx="123.5" cy="683.5" rx="70.5" ry="71.5" fill="#F087F0"/>
<line x1="53.7194" y1="679.352" x2="94.7245" y2="679.352" stroke="#922F9B"/>
<line x1="53.7194" y1="687.377" x2="82.4949" y2="687.377" stroke="#922F9B"/>
<line x1="85.3724" y1="687.377" x2="114.148" y2="687.377" stroke="#922F9B"/>
<line x1="121.342" y1="714.373" x2="162.347" y2="714.373" stroke="#922F9B"/>
<line x1="121.342" y1="722.398" x2="150.117" y2="722.398" stroke="#922F9B"/>
<line x1="152.995" y1="722.398" x2="181.77" y2="722.398" stroke="#922F9B"/>
<path d="M98.6312 392.892C98.8521 396.254 98.803 399.641 98.4839 402.979C98.4348 403.396 98.4103 403.813 98.3366 404.206C98.3121 404.402 98.2876 404.599 98.2631 404.795C98.2385 405.09 98.3367 404.329 98.2631 404.771C98.2385 404.893 98.2385 405.041 98.2139 405.163C98.0912 405.998 97.944 406.832 97.7968 407.667C97.4777 409.336 97.0605 411.005 96.5696 412.624C96.3242 413.385 96.0787 414.146 95.8087 414.907C95.6615 415.275 95.5387 415.643 95.3669 416.011C95.3423 416.085 95.2442 416.208 95.2442 416.306C95.2442 416.061 95.3915 415.987 95.2933 416.159C95.1951 416.355 95.1215 416.551 95.0233 416.748C94.4342 418.049 93.7225 419.3 92.9371 420.478C92.7653 420.748 92.569 421.018 92.3726 421.288C92.2745 421.436 92.1517 421.583 92.0535 421.73C92.0044 421.779 91.9553 421.853 91.9308 421.902C92.1762 421.46 92.029 421.779 91.9554 421.877C91.5136 422.442 91.0228 423.006 90.5319 423.546C90.041 424.062 89.5501 424.553 89.0101 425.043C88.7647 425.264 88.4948 425.485 88.2248 425.706C88.1021 425.804 87.9794 425.902 87.8567 426.001C87.6603 426.148 88.2248 425.706 87.9303 425.952C87.8321 426.025 87.7584 426.074 87.6603 426.148C87.0221 426.614 86.3594 427.056 85.6722 427.449C84.985 427.841 84.2733 428.136 83.5616 428.504C83.5861 428.48 83.9787 428.332 83.7087 428.43C83.6106 428.48 83.5125 428.504 83.4143 428.553C83.2179 428.627 83.0216 428.7 82.8007 428.774C82.4325 428.897 82.0644 429.019 81.6717 429.118C80.9108 429.339 80.1254 429.486 79.3401 429.584C78.9228 429.633 78.4319 430.075 78.2356 430.418C78.0392 430.787 77.9656 431.179 78.0147 431.597C78.1374 432.48 78.8983 433.192 79.8309 433.192C81.6226 433.167 83.4142 433.167 85.2059 433.29C85.6231 433.315 86.0158 433.364 86.4331 433.413C86.4576 433.413 86.8995 433.486 86.6049 433.437C86.2859 433.388 86.7276 433.462 86.7767 433.462C86.9976 433.486 87.2185 433.535 87.4394 433.585C88.3229 433.756 89.182 433.977 90.0164 434.247C90.1637 434.296 90.3355 434.37 90.4827 434.419C90.5564 434.444 90.6546 434.493 90.7282 434.517C90.8754 434.566 91.0227 434.714 90.63 434.468C90.9246 434.664 91.2927 434.763 91.6118 434.934C92.2254 435.254 92.8144 435.597 93.3544 435.99C93.5016 436.088 93.6489 436.186 93.7961 436.309C93.8452 436.358 93.9189 436.407 93.968 436.432C94.2134 436.603 93.8698 436.358 93.8452 436.333C94.0907 436.579 94.4097 436.8 94.6797 437.021C95.2197 437.512 95.735 438.002 96.2259 438.542C96.4468 438.788 96.6677 439.033 96.864 439.279C96.9622 439.401 97.0605 439.524 97.1832 439.671C97.3304 439.868 96.9132 439.303 97.134 439.598C97.2077 439.696 97.2567 439.769 97.3303 439.868C97.7476 440.432 98.1158 441.021 98.4839 441.61C98.8521 442.224 99.1957 442.862 99.5148 443.5C99.6621 443.819 99.8093 444.138 99.9565 444.457C99.9811 444.531 100.006 444.605 100.055 444.654C99.8583 444.187 99.981 444.457 100.03 444.58C100.104 444.776 100.177 444.948 100.251 445.145C100.816 446.617 101.233 448.114 101.552 449.636C101.65 450.078 101.724 450.495 101.797 450.937C101.822 451.109 101.846 451.305 101.895 451.477C101.92 451.624 101.945 451.747 101.945 451.894C101.945 451.82 101.92 451.747 101.92 451.673C101.92 451.771 101.945 451.845 101.945 451.943C102.043 452.827 102.141 453.686 102.19 454.569C102.46 458.619 102.215 462.693 101.945 466.718C101.895 467.626 102.681 468.412 103.54 468.534C104.448 468.657 105.282 468.093 105.552 467.209C107.491 461.049 107.737 454.545 109.185 448.286C109.504 446.887 109.872 445.488 110.363 444.114C110.461 443.819 110.584 443.525 110.682 443.255C110.731 443.107 110.829 442.96 110.878 442.788C110.878 442.813 110.707 443.206 110.829 442.936C110.854 442.862 110.903 442.764 110.928 442.69C111.197 442.101 111.467 441.537 111.762 440.972C112.351 439.843 113.038 438.763 113.799 437.757C113.848 437.708 113.897 437.634 113.922 437.585C113.676 437.953 113.75 437.806 113.824 437.708C113.922 437.585 114.02 437.462 114.118 437.34C114.314 437.094 114.535 436.849 114.756 436.603C115.173 436.137 115.615 435.695 116.057 435.303C116.327 435.057 116.572 434.836 116.867 434.615C116.916 434.566 116.965 434.542 117.039 434.493C116.597 434.836 116.916 434.591 116.99 434.517C117.137 434.419 117.26 434.321 117.407 434.223C117.947 433.855 118.511 433.511 119.1 433.216C119.248 433.143 119.419 433.069 119.567 432.996C119.64 432.971 119.69 432.946 119.763 432.922C120.107 432.775 119.395 433.069 119.714 432.946C120.033 432.824 120.352 432.701 120.696 432.603C121.039 432.505 121.358 432.406 121.702 432.333C121.849 432.308 122.021 432.259 122.168 432.235C122.316 432.21 123.003 432.112 122.365 432.186C122.856 432.112 123.322 432.038 123.666 431.646C123.936 431.351 124.107 431.007 124.181 430.59C124.304 429.756 123.764 428.749 122.856 428.578C122.144 428.43 121.432 428.259 120.72 428.038C120.401 427.94 120.107 427.817 119.788 427.719C119.616 427.645 119.444 427.571 119.272 427.522C119.837 427.743 119.199 427.473 119.051 427.424C117.75 426.811 116.499 426.074 115.345 425.215C115.296 425.166 115.223 425.117 115.173 425.093C114.928 424.896 115.272 425.166 115.296 425.191C115.173 425.068 115.002 424.97 114.854 424.847C114.56 424.602 114.29 424.381 114.02 424.135C113.48 423.644 112.94 423.129 112.449 422.565C111.958 422.025 111.492 421.485 111.026 420.92C110.977 420.846 110.927 420.773 110.854 420.699C110.878 420.724 111.124 421.043 110.928 420.797C110.805 420.65 110.707 420.503 110.584 420.356C110.363 420.061 110.142 419.742 109.946 419.448C109.136 418.245 108.424 416.969 107.786 415.668C107.639 415.349 107.491 415.054 107.344 414.735C107.295 414.662 107.271 414.563 107.246 414.49C107.123 414.22 107.295 414.588 107.295 414.612C107.221 414.392 107.123 414.195 107.05 413.999C106.78 413.336 106.534 412.649 106.289 411.962C105.258 408.943 104.497 405.826 103.883 402.684C103.54 400.942 103.221 399.175 102.951 397.408C102.828 396.573 102.705 395.763 102.583 394.929C102.534 394.511 102.46 394.119 102.411 393.701C102.386 393.554 102.288 392.867 102.386 393.481C102.362 393.26 102.337 393.063 102.313 392.842C102.239 392.327 102.141 391.91 101.773 391.542C101.454 391.223 100.938 390.977 100.472 391.002C100.006 391.026 99.4902 391.173 99.1711 391.542C98.852 391.934 98.5576 392.425 98.6312 392.892C99.4902 399.346 100.472 405.875 102.46 412.084C104.374 417.999 107.491 423.644 112.376 427.596C115.149 429.829 118.34 431.547 121.849 432.21C122.021 431.007 122.168 429.805 122.34 428.602C120.819 428.799 119.419 429.191 117.996 429.805C116.744 430.345 115.591 431.081 114.511 431.94C112.4 433.585 110.657 435.72 109.283 438.002C107.835 440.383 106.78 443.009 106.068 445.709C105.209 448.9 104.718 452.188 104.227 455.453C103.687 459.134 103.123 462.816 101.994 466.375C103.196 466.546 104.399 466.694 105.602 466.865C106.068 459.601 106.485 451.992 104.031 444.997C101.994 439.156 97.993 433.683 92.1762 431.228C88.2738 429.584 84.0033 429.535 79.8309 429.584C80.0027 430.787 80.15 431.989 80.3218 433.192C86.5067 432.333 91.7835 428.332 95.3914 423.424C99.392 417.975 101.135 411.127 101.969 404.501C102.46 400.647 102.558 396.769 102.288 392.916C102.215 391.959 101.478 391.026 100.447 391.075C99.5148 391.1 98.5576 391.861 98.6312 392.892Z" fill="#E7B863"/>
<path d="M56.6312 455.892C56.8521 459.254 56.803 462.641 56.4839 465.979C56.4348 466.396 56.4103 466.813 56.3366 467.206C56.3121 467.402 56.2876 467.599 56.2631 467.795C56.2385 468.09 56.3367 467.329 56.2631 467.771C56.2385 467.893 56.2385 468.041 56.2139 468.163C56.0912 468.998 55.944 469.832 55.7968 470.667C55.4777 472.336 55.0605 474.005 54.5696 475.624C54.3242 476.385 54.0787 477.146 53.8087 477.907C53.6615 478.275 53.5387 478.643 53.3669 479.011C53.3423 479.085 53.2442 479.208 53.2442 479.306C53.2442 479.061 53.3915 478.987 53.2933 479.159C53.1951 479.355 53.1215 479.551 53.0233 479.748C52.4342 481.049 51.7225 482.3 50.9371 483.478C50.7653 483.748 50.569 484.018 50.3726 484.288C50.2745 484.436 50.1517 484.583 50.0535 484.73C50.0044 484.779 49.9553 484.853 49.9308 484.902C50.1762 484.46 50.029 484.779 49.9554 484.877C49.5136 485.442 49.0228 486.006 48.5319 486.546C48.041 487.062 47.5501 487.553 47.0101 488.043C46.7647 488.264 46.4948 488.485 46.2248 488.706C46.1021 488.804 45.9794 488.902 45.8567 489.001C45.6603 489.148 46.2248 488.706 45.9303 488.952C45.8321 489.025 45.7584 489.074 45.6603 489.148C45.0221 489.614 44.3594 490.056 43.6722 490.449C42.985 490.841 42.2733 491.136 41.5616 491.504C41.5861 491.48 41.9787 491.332 41.7087 491.43C41.6106 491.48 41.5125 491.504 41.4143 491.553C41.2179 491.627 41.0216 491.7 40.8007 491.774C40.4325 491.897 40.0644 492.019 39.6717 492.118C38.9108 492.339 38.1254 492.486 37.3401 492.584C36.9228 492.633 36.4319 493.075 36.2356 493.418C36.0392 493.787 35.9656 494.179 36.0147 494.597C36.1374 495.48 36.8983 496.192 37.8309 496.192C39.6226 496.167 41.4142 496.167 43.2059 496.29C43.6231 496.315 44.0158 496.364 44.4331 496.413C44.4576 496.413 44.8995 496.486 44.6049 496.437C44.2859 496.388 44.7276 496.462 44.7767 496.462C44.9976 496.486 45.2185 496.535 45.4394 496.585C46.3229 496.756 47.182 496.977 48.0164 497.247C48.1637 497.296 48.3355 497.37 48.4827 497.419C48.5564 497.444 48.6546 497.493 48.7282 497.517C48.8754 497.566 49.0227 497.714 48.63 497.468C48.9246 497.664 49.2927 497.763 49.6118 497.934C50.2254 498.254 50.8144 498.597 51.3544 498.99C51.5016 499.088 51.6489 499.186 51.7961 499.309C51.8452 499.358 51.9189 499.407 51.968 499.432C52.2134 499.603 51.8698 499.358 51.8452 499.333C52.0907 499.579 52.4097 499.8 52.6797 500.021C53.2197 500.512 53.735 501.002 54.2259 501.542C54.4468 501.788 54.6677 502.033 54.864 502.279C54.9622 502.401 55.0605 502.524 55.1832 502.671C55.3304 502.868 54.9132 502.303 55.134 502.598C55.2077 502.696 55.2567 502.769 55.3303 502.868C55.7476 503.432 56.1158 504.021 56.4839 504.61C56.8521 505.224 57.1957 505.862 57.5148 506.5C57.6621 506.819 57.8093 507.138 57.9565 507.457C57.9811 507.531 58.0056 507.605 58.0547 507.654C57.8583 507.187 57.981 507.457 58.0301 507.58C58.1038 507.776 58.1775 507.948 58.2511 508.145C58.8156 509.617 59.2328 511.114 59.5519 512.636C59.65 513.078 59.7237 513.495 59.7973 513.937C59.8218 514.109 59.8464 514.305 59.8954 514.477C59.92 514.624 59.9446 514.747 59.9446 514.894C59.9446 514.82 59.92 514.747 59.92 514.673C59.92 514.771 59.9446 514.845 59.9446 514.943C60.0428 515.827 60.1409 516.686 60.19 517.569C60.46 521.619 60.2146 525.693 59.9446 529.718C59.8955 530.626 60.6809 531.412 61.5399 531.534C62.448 531.657 63.2824 531.093 63.5524 530.209C65.4913 524.049 65.7368 517.545 67.1849 511.286C67.504 509.887 67.8721 508.488 68.3629 507.114C68.4611 506.819 68.5839 506.525 68.6821 506.255C68.7312 506.107 68.8293 505.96 68.8784 505.788C68.8784 505.813 68.7065 506.206 68.8292 505.936C68.8538 505.862 68.903 505.764 68.9275 505.69C69.1975 505.101 69.4674 504.537 69.762 503.972C70.351 502.843 71.0382 501.763 71.799 500.757C71.8481 500.708 71.8972 500.634 71.9217 500.585C71.6763 500.953 71.75 500.806 71.8236 500.708C71.9218 500.585 72.02 500.462 72.1181 500.34C72.3145 500.094 72.5353 499.849 72.7562 499.603C73.1734 499.137 73.6153 498.695 74.0571 498.303C74.327 498.057 74.5724 497.836 74.8669 497.615C74.916 497.566 74.9652 497.542 75.0388 497.493C74.597 497.836 74.916 497.591 74.9897 497.517C75.1369 497.419 75.2597 497.321 75.4069 497.223C75.9469 496.855 76.5114 496.511 77.1004 496.216C77.2477 496.143 77.4195 496.069 77.5667 495.996C77.6404 495.971 77.6895 495.946 77.7631 495.922C78.1067 495.775 77.3949 496.069 77.714 495.946C78.0331 495.824 78.3521 495.701 78.6957 495.603C79.0394 495.505 79.3584 495.406 79.702 495.333C79.8493 495.308 80.0211 495.259 80.1683 495.235C80.3156 495.21 81.0028 495.112 80.3646 495.186C80.8555 495.112 81.3219 495.038 81.6655 494.646C81.9355 494.351 82.1073 494.007 82.181 493.59C82.3037 492.756 81.7636 491.749 80.8555 491.578C80.1438 491.43 79.4321 491.259 78.7203 491.038C78.4012 490.94 78.1067 490.817 77.7876 490.719C77.6158 490.645 77.4441 490.571 77.2723 490.522C77.8368 490.743 77.1985 490.473 77.0513 490.424C75.7505 489.811 74.4989 489.074 73.3453 488.215C73.2962 488.166 73.2226 488.117 73.1735 488.093C72.928 487.896 73.2716 488.166 73.2962 488.191C73.1735 488.068 73.0017 487.97 72.8545 487.847C72.5599 487.602 72.2899 487.381 72.0199 487.135C71.4799 486.644 70.94 486.129 70.4491 485.565C69.9583 485.025 69.492 484.485 69.0257 483.92C68.9766 483.846 68.9274 483.773 68.8538 483.699C68.8783 483.724 69.1239 484.043 68.9275 483.797C68.8048 483.65 68.7065 483.503 68.5838 483.356C68.3629 483.061 68.1421 482.742 67.9458 482.448C67.1358 481.245 66.424 479.969 65.7859 478.668C65.6386 478.349 65.4914 478.054 65.3441 477.735C65.295 477.662 65.2705 477.563 65.246 477.49C65.1233 477.22 65.295 477.588 65.295 477.612C65.2214 477.392 65.1232 477.195 65.0496 476.999C64.7796 476.336 64.5341 475.649 64.2887 474.962C63.2579 471.943 62.4971 468.826 61.8835 465.684C61.5399 463.942 61.2209 462.175 60.9509 460.408C60.8282 459.573 60.7055 458.763 60.5827 457.929C60.5336 457.511 60.46 457.119 60.4109 456.701C60.3863 456.554 60.2881 455.867 60.3863 456.481C60.3618 456.26 60.3373 456.063 60.3127 455.842C60.2391 455.327 60.1409 454.91 59.7727 454.542C59.4537 454.223 58.9383 453.977 58.472 454.002C58.0056 454.026 57.4902 454.173 57.1711 454.542C56.852 454.934 56.5576 455.425 56.6312 455.892C57.4902 462.346 58.472 468.875 60.46 475.084C62.3744 480.999 65.4914 486.644 70.3755 490.596C73.1489 492.829 76.3396 494.547 79.8493 495.21C80.0211 494.007 80.1684 492.805 80.3402 491.602C78.8185 491.799 77.4195 492.191 75.996 492.805C74.7442 493.345 73.5907 494.081 72.5107 494.94C70.4 496.585 68.6575 498.72 67.283 501.002C65.835 503.383 64.7796 506.009 64.0678 508.709C63.2088 511.9 62.7179 515.188 62.2271 518.453C61.6871 522.134 61.1226 525.816 59.9936 529.375C61.1962 529.546 62.3989 529.694 63.6015 529.865C64.0679 522.601 64.4851 514.992 62.0308 507.997C59.9937 502.156 55.993 496.683 50.1762 494.228C46.2738 492.584 42.0033 492.535 37.8309 492.584C38.0027 493.787 38.15 494.989 38.3218 496.192C44.5067 495.333 49.7835 491.332 53.3914 486.424C57.392 480.975 59.1347 474.127 59.9691 467.501C60.46 463.647 60.5581 459.769 60.2882 455.916C60.2145 454.959 59.4782 454.026 58.4474 454.075C57.5148 454.1 56.5576 454.861 56.6312 455.892Z" fill="#E7B863"/>
<path d="M1049.63 85.8915C1049.85 89.254 1049.8 92.641 1049.48 95.9789C1049.43 96.3961 1049.41 96.8133 1049.34 97.206C1049.31 97.4024 1049.29 97.5987 1049.26 97.7951C1049.24 98.0896 1049.34 97.3288 1049.26 97.7706C1049.24 97.8933 1049.24 98.0405 1049.21 98.1632C1049.09 98.9977 1048.94 99.8322 1048.8 100.667C1048.48 102.336 1048.06 104.005 1047.57 105.624C1047.32 106.385 1047.08 107.146 1046.81 107.907C1046.66 108.275 1046.54 108.643 1046.37 109.011C1046.34 109.085 1046.24 109.208 1046.24 109.306C1046.24 109.061 1046.39 108.987 1046.29 109.159C1046.2 109.355 1046.12 109.551 1046.02 109.748C1045.43 111.049 1044.72 112.3 1043.94 113.478C1043.77 113.748 1043.57 114.018 1043.37 114.288C1043.27 114.436 1043.15 114.583 1043.05 114.73C1043 114.779 1042.96 114.853 1042.93 114.902C1043.18 114.46 1043.03 114.779 1042.96 114.877C1042.51 115.442 1042.02 116.006 1041.53 116.546C1041.04 117.062 1040.55 117.553 1040.01 118.043C1039.76 118.264 1039.49 118.485 1039.22 118.706C1039.1 118.804 1038.98 118.902 1038.86 119.001C1038.66 119.148 1039.22 118.706 1038.93 118.952C1038.83 119.025 1038.76 119.074 1038.66 119.148C1038.02 119.614 1037.36 120.056 1036.67 120.449C1035.98 120.841 1035.27 121.136 1034.56 121.504C1034.59 121.48 1034.98 121.332 1034.71 121.43C1034.61 121.48 1034.51 121.504 1034.41 121.553C1034.22 121.627 1034.02 121.7 1033.8 121.774C1033.43 121.897 1033.06 122.019 1032.67 122.118C1031.91 122.339 1031.13 122.486 1030.34 122.584C1029.92 122.633 1029.43 123.075 1029.24 123.418C1029.04 123.787 1028.97 124.179 1029.01 124.597C1029.14 125.48 1029.9 126.192 1030.83 126.192C1032.62 126.167 1034.41 126.167 1036.21 126.29C1036.62 126.315 1037.02 126.364 1037.43 126.413C1037.46 126.413 1037.9 126.486 1037.6 126.437C1037.29 126.388 1037.73 126.462 1037.78 126.462C1038 126.486 1038.22 126.535 1038.44 126.585C1039.32 126.756 1040.18 126.977 1041.02 127.247C1041.16 127.296 1041.34 127.37 1041.48 127.419C1041.56 127.444 1041.65 127.493 1041.73 127.517C1041.88 127.566 1042.02 127.714 1041.63 127.468C1041.92 127.664 1042.29 127.763 1042.61 127.934C1043.23 128.254 1043.81 128.597 1044.35 128.99C1044.5 129.088 1044.65 129.186 1044.8 129.309C1044.85 129.358 1044.92 129.407 1044.97 129.432C1045.21 129.603 1044.87 129.358 1044.85 129.333C1045.09 129.579 1045.41 129.8 1045.68 130.021C1046.22 130.512 1046.74 131.002 1047.23 131.542C1047.45 131.788 1047.67 132.033 1047.86 132.279C1047.96 132.401 1048.06 132.524 1048.18 132.671C1048.33 132.868 1047.91 132.303 1048.13 132.598C1048.21 132.696 1048.26 132.769 1048.33 132.868C1048.75 133.432 1049.12 134.021 1049.48 134.61C1049.85 135.224 1050.2 135.862 1050.51 136.5C1050.66 136.819 1050.81 137.138 1050.96 137.457C1050.98 137.531 1051.01 137.605 1051.05 137.654C1050.86 137.187 1050.98 137.457 1051.03 137.58C1051.1 137.776 1051.18 137.948 1051.25 138.145C1051.82 139.617 1052.23 141.114 1052.55 142.636C1052.65 143.078 1052.72 143.495 1052.8 143.937C1052.82 144.109 1052.85 144.305 1052.9 144.477C1052.92 144.624 1052.94 144.747 1052.94 144.894C1052.94 144.82 1052.92 144.747 1052.92 144.673C1052.92 144.771 1052.94 144.845 1052.94 144.943C1053.04 145.827 1053.14 146.686 1053.19 147.569C1053.46 151.619 1053.21 155.693 1052.94 159.718C1052.9 160.626 1053.68 161.412 1054.54 161.534C1055.45 161.657 1056.28 161.093 1056.55 160.209C1058.49 154.049 1058.74 147.545 1060.18 141.286C1060.5 139.887 1060.87 138.488 1061.36 137.114C1061.46 136.819 1061.58 136.525 1061.68 136.255C1061.73 136.107 1061.83 135.96 1061.88 135.788C1061.88 135.813 1061.71 136.206 1061.83 135.936C1061.85 135.862 1061.9 135.764 1061.93 135.69C1062.2 135.101 1062.47 134.537 1062.76 133.972C1063.35 132.843 1064.04 131.763 1064.8 130.757C1064.85 130.708 1064.9 130.634 1064.92 130.585C1064.68 130.953 1064.75 130.806 1064.82 130.708C1064.92 130.585 1065.02 130.462 1065.12 130.34C1065.31 130.094 1065.54 129.849 1065.76 129.603C1066.17 129.137 1066.62 128.695 1067.06 128.303C1067.33 128.057 1067.57 127.836 1067.87 127.615C1067.92 127.566 1067.97 127.542 1068.04 127.493C1067.6 127.836 1067.92 127.591 1067.99 127.517C1068.14 127.419 1068.26 127.321 1068.41 127.223C1068.95 126.855 1069.51 126.511 1070.1 126.216C1070.25 126.143 1070.42 126.069 1070.57 125.996C1070.64 125.971 1070.69 125.946 1070.76 125.922C1071.11 125.775 1070.39 126.069 1070.71 125.946C1071.03 125.824 1071.35 125.701 1071.7 125.603C1072.04 125.505 1072.36 125.406 1072.7 125.333C1072.85 125.308 1073.02 125.259 1073.17 125.235C1073.32 125.21 1074 125.112 1073.36 125.186C1073.86 125.112 1074.32 125.038 1074.67 124.646C1074.94 124.351 1075.11 124.007 1075.18 123.59C1075.3 122.756 1074.76 121.749 1073.86 121.578C1073.14 121.43 1072.43 121.259 1071.72 121.038C1071.4 120.94 1071.11 120.817 1070.79 120.719C1070.62 120.645 1070.44 120.571 1070.27 120.522C1070.84 120.743 1070.2 120.473 1070.05 120.424C1068.75 119.811 1067.5 119.074 1066.35 118.215C1066.3 118.166 1066.22 118.117 1066.17 118.093C1065.93 117.896 1066.27 118.166 1066.3 118.191C1066.17 118.068 1066 117.97 1065.85 117.847C1065.56 117.602 1065.29 117.381 1065.02 117.135C1064.48 116.644 1063.94 116.129 1063.45 115.565C1062.96 115.025 1062.49 114.485 1062.03 113.92C1061.98 113.846 1061.93 113.773 1061.85 113.699C1061.88 113.724 1062.12 114.043 1061.93 113.797C1061.8 113.65 1061.71 113.503 1061.58 113.356C1061.36 113.061 1061.14 112.742 1060.95 112.448C1060.14 111.245 1059.42 109.969 1058.79 108.668C1058.64 108.349 1058.49 108.054 1058.34 107.735C1058.3 107.662 1058.27 107.563 1058.25 107.49C1058.12 107.22 1058.3 107.588 1058.3 107.612C1058.22 107.392 1058.12 107.195 1058.05 106.999C1057.78 106.336 1057.53 105.649 1057.29 104.962C1056.26 101.943 1055.5 98.8259 1054.88 95.6844C1054.54 93.9418 1054.22 92.1747 1053.95 90.4075C1053.83 89.573 1053.71 88.7631 1053.58 87.9286C1053.53 87.5114 1053.46 87.1187 1053.41 86.7015C1053.39 86.5542 1053.29 85.867 1053.39 86.4806C1053.36 86.2597 1053.34 86.0633 1053.31 85.8425C1053.24 85.327 1053.14 84.9098 1052.77 84.5416C1052.45 84.2226 1051.94 83.9771 1051.47 84.0017C1051.01 84.0262 1050.49 84.1735 1050.17 84.5416C1049.85 84.9343 1049.56 85.4252 1049.63 85.8915C1050.49 92.3464 1051.47 98.875 1053.46 105.084C1055.37 110.999 1058.49 116.644 1063.38 120.596C1066.15 122.829 1069.34 124.547 1072.85 125.21C1073.02 124.007 1073.17 122.805 1073.34 121.602C1071.82 121.799 1070.42 122.191 1069 122.805C1067.74 123.345 1066.59 124.081 1065.51 124.94C1063.4 126.585 1061.66 128.72 1060.28 131.002C1058.83 133.383 1057.78 136.009 1057.07 138.709C1056.21 141.9 1055.72 145.188 1055.23 148.453C1054.69 152.134 1054.12 155.816 1052.99 159.375C1054.2 159.546 1055.4 159.694 1056.6 159.865C1057.07 152.601 1057.49 144.992 1055.03 137.997C1052.99 132.156 1048.99 126.683 1043.18 124.228C1039.27 122.584 1035 122.535 1030.83 122.584C1031 123.787 1031.15 124.989 1031.32 126.192C1037.51 125.333 1042.78 121.332 1046.39 116.424C1050.39 110.975 1052.13 104.127 1052.97 97.5006C1053.46 93.6473 1053.56 89.7694 1053.29 85.9161C1053.21 84.9589 1052.48 84.0262 1051.45 84.0753C1050.51 84.0998 1049.56 84.8607 1049.63 85.8915Z" fill="#E7B863"/>
<circle cx="390" cy="198" r="2" fill="#777777"/>
<circle cx="379" cy="337" r="2" fill="#777777"/>
<circle cx="415" cy="441" r="2" fill="#777777"/>
<circle cx="518" cy="350" r="2" fill="#777777"/>
<circle cx="605" cy="202" r="2" fill="#777777"/>
<circle cx="394" cy="75" r="2" fill="#777777"/>
<circle cx="85" cy="164" r="2" fill="#777777"/>
<circle cx="154" cy="49" r="2" fill="#777777"/>
<circle cx="39" cy="35" r="2" fill="#777777"/>
<circle cx="305" cy="471" r="2" fill="#777777"/>
<circle cx="325" cy="574" r="2" fill="#777777"/>
<circle cx="208" cy="414" r="2" fill="#777777"/>
<circle cx="663" cy="324" r="2" fill="#777777"/>
<circle cx="565" cy="623" r="2" fill="#777777"/>
<circle cx="916" cy="375" r="2" fill="#777777"/>
<circle cx="751" cy="682" r="2" fill="#777777"/>
<circle cx="944" cy="701" r="2" fill="#777777"/>
<circle cx="1052" cy="495" r="2" fill="#777777"/>
<circle cx="351" cy="758" r="2" fill="#777777"/>
<circle cx="1192" cy="341" r="2" fill="#777777"/>
<circle cx="986" cy="194" r="2" fill="#777777"/>
<circle cx="825" cy="168" r="2" fill="#777777"/>
<circle cx="714" cy="45" r="2" fill="#777777"/>
<circle cx="536" cy="47" r="2" fill="#777777"/>
<circle cx="1156" cy="675" r="2" fill="#777777"/>
<circle cx="43" cy="786" r="2" fill="#777777"/>
<circle cx="191" cy="762" r="2" fill="#777777"/>
<circle cx="41" cy="619" r="2" fill="#777777"/>
<circle cx="1196" cy="551" r="2" fill="#777777"/>
<circle cx="784" cy="499" r="2" fill="#777777"/>
<circle cx="1248" cy="53" r="2" fill="#777777"/>
<circle cx="1018" cy="43" r="2" fill="#777777"/>
<circle cx="502" cy="249" r="2" fill="#777777"/>
<circle cx="232" cy="230" r="2" fill="#777777"/>
<circle cx="241" cy="112" r="2" fill="#777777"/>
<circle cx="20" cy="116" r="33" fill="#3B3DC5"/>
<path d="M16.059 85.2866C21.5077 86.0638 24.7518 90.3219 27.4682 96.1426C28.8227 99.0452 30.025 102.288 31.3042 105.618C32.5 108.73 33.7602 111.911 35.2646 114.908L35.569 115.505C38.2164 120.621 40.803 125.413 42.0587 129.781C43.2696 133.994 43.2126 137.707 40.8456 140.882L40.6095 141.187C39.3293 142.784 37.8112 143.639 36.1176 143.964C34.4101 144.291 32.4938 144.085 30.4292 143.499C26.8055 142.471 22.8397 140.313 18.926 138.045L17.2526 137.068C5.59336 130.24 -3.76425 122.515 -5.90368 108.871L-6.00064 108.217C-7.15296 99.867 -4.25785 93.7788 0.209359 89.9548C4.5563 86.234 10.4159 84.6372 15.5634 85.2236L16.059 85.2866Z" fill="#4341E4" stroke="#2425B5"/>
<path d="M-17.3688 128.306C-13.0663 136.553 13.4018 143.748 37.3695 131.244C61.3372 118.739 70.8025 103.247 66.5 95C63.3479 88.9585 52.7143 80.3972 36.7448 83.9034" stroke="#A7C0F8"/>
<circle cx="1212.5" cy="663.5" r="42.5" fill="#AE9FF1"/>
<line x1="1191.45" y1="626.789" x2="1205.45" y2="656.789" stroke="#6759A8"/>
<line x1="1192.45" y1="649.789" x2="1206.45" y2="679.789" stroke="#6759A8"/>
<line x1="1206.45" y1="658.79" x2="1213.24" y2="673.45" stroke="#6759A8"/>
<line x1="1184.45" y1="632.79" x2="1191.24" y2="647.45" stroke="#6759A8"/>
</g>
<defs>
<clipPath id="clip0_24_18">
<rect width="1280" height="832" fill="white"/>
</clipPath>
</defs>
</svg>
