<svg width="147" height="77" viewBox="0 0 147 77" fill="none" xmlns="http://www.w3.org/2000/svg">
<path d="M145.789 62.02C145.789 69.9648 113.268 76.4051 73.1518 76.4051C33.0358 76.4051 0.514832 69.9642 0.514832 62.02L16.2728 18.0362C16.2728 11.8151 41.7387 6.77148 73.1524 6.77148C104.566 6.77148 130.032 11.8151 130.032 18.0362L145.789 62.02Z" fill="url(#paint0_linear_55_978)"/>
<path d="M145.789 62.0197C140.304 81.9296 18.1406 74.0125 15.8119 56.4228C14.5845 47.151 19.3313 20.2858 19.3313 20.2858C19.3313 2.55906 128.323 6.87028 130.031 18.0358L145.789 62.0197Z" fill="#FFE59E"/>
<path d="M116.349 17.4372C116.349 22.1623 97.0101 25.9923 73.1512 25.9923C49.2954 25.9923 29.964 22.2933 29.964 17.5675C29.2268 14.6778 33.7886 11.7406 38.0133 11.5213C38.2944 11.5074 38.578 11.5044 38.8586 11.5128C41.2839 7.30136 47.3476 4.21935 52.1262 5.31578C52.4597 4.4092 53.442 3.78918 54.4038 3.8775C57.4137 0.537748 62.9151 -0.200004 66.6952 2.23437C70.6165 -0.413883 77.9509 -0.498591 81.3507 3.29895C82.9332 2.67895 84.646 2.38637 86.3456 2.47288C89.4829 2.63449 92.5343 4.08057 94.6448 6.4086C96.9368 5.24609 99.7683 5.21003 102.09 6.31427C104.41 7.41851 106.171 9.63781 106.716 12.1497C108.474 10.9896 110.846 10.8231 112.752 11.7273C114.654 12.6333 116.14 14.3443 116.349 17.4372Z" fill="url(#paint1_linear_55_978)"/>
<path d="M74.2404 24.264C50.3846 24.264 34.7931 20.4688 32.7456 16.8329C32.0084 13.9431 33.8024 11.9215 38.0133 11.5214C41.1686 11.2216 43.1193 12.8587 43.365 12.7211C42.7624 10.4105 49.2809 5.24982 54.0589 6.34505C52.9012 5.63252 54.062 4.36246 55.0995 4.82386C58.1094 1.48351 62.9157 -0.199281 66.6958 2.23449C70.6171 -0.41376 77.4828 0.569713 78.035 5.245C81.1734 2.77939 84.6466 2.38709 86.3462 2.47361C89.4835 2.63522 91.9088 6.05667 94.02 8.3847C96.1504 6.02062 99.1429 6.18402 101.465 7.28826C103.784 8.3931 105.84 12.0627 104.909 15.1405C106.415 10.5517 111.384 10.5085 113.577 12.1937C122.762 19.2522 98.0993 24.264 74.2404 24.264Z" fill="#BD7E6C"/>
<path d="M64.6718 25.7493C65.4997 23.9602 67.2257 22.6144 69.1633 22.2492C71.1008 21.8833 73.1987 22.5063 74.622 23.8701C73.895 24.2203 73.5784 25.2272 73.9737 25.9301C70.7637 25.9229 67.5538 25.9157 64.6718 25.7493Z" fill="#BA6859"/>
<path d="M101.867 21.7319C102.201 20.7418 103.003 19.9542 103.932 19.4765C104.861 18.9995 105.913 18.806 106.955 18.7364C107.501 18.6997 108.06 18.6973 108.584 18.8559C109.197 19.041 109.728 19.4381 110.164 19.9061C110.6 20.3741 110.95 20.9154 111.297 21.4525C108.543 22.2299 105.771 22.9431 102.984 23.5913C102.982 22.8199 102.581 22.0605 101.867 21.7319Z" fill="#BA6859"/>
<path d="M74.3119 25.9492C74.1161 25.1862 74.2128 24.3517 74.5589 23.6104C75.9719 22.9477 77.0215 21.5461 78.5475 21.2205C79.731 20.9675 81.0076 21.4602 81.8295 22.3487C82.6514 23.2373 83.0437 24.4707 83.0437 25.6813C80.1521 25.7407 77.2594 25.8002 74.3119 25.9492Z" fill="#BA6859"/>
<path d="M52.8538 12.6613C53.6846 10.2606 55.63 8.77848 56.5654 8.66673C57.3392 8.57481 61.1169 9.85748 62.438 12.1465C60.885 12.5802 59.4918 13.5625 58.5612 14.8788C56.7456 13.7872 54.7342 13.0224 52.8538 12.6613Z" fill="#BA6859"/>
<path d="M83.4468 13.6009C84.1846 12.4072 85.254 10.8175 86.6394 10.5946C87.403 10.4715 90.9566 9.81961 92.9176 13.3925C90.5854 13.4219 88.8899 14.0083 86.8869 15.2032C86.1528 14.3555 85.078 13.8112 83.4468 13.6009Z" fill="#BA6859"/>
<path d="M70.2975 22.0563C71.0858 20.6685 72.5625 19.6953 74.148 19.5186C75.734 19.3426 77.3885 19.9668 78.4627 21.1474C77.701 21.315 74.7986 23.5277 74.6448 23.5835C74.4934 23.6388 73.2666 22.0563 70.2975 22.0563Z" fill="#BA6859"/>
<path d="M93.3339 25.0027C93.3339 23.413 94.1143 21.9285 95.5832 21.0453C96.2333 20.6542 99.8686 20.9432 101.038 21.398C102.138 21.8257 102.898 22.4632 102.879 23.6437L93.3339 25.0027Z" fill="#BA6859"/>
<path d="M44.7847 23.8887C45.0941 21.9939 46.0259 21.0488 47.2978 20.6391C48.0199 20.406 51.0274 20.8848 52.1966 21.3396C53.2966 21.7674 54.682 23.8226 54.6634 25.0032L44.7847 23.8887Z" fill="#BA6859"/>
<path d="M77.5 38.4998C75.2525 40.4235 74.7085 44.3608 76.9386 47.1935C79.9719 51.0451 84.5072 48.49 84.1083 43.3124C83.6145 36.9063 79.1317 37.103 77.5 38.4998Z" fill="#8A6055"/>
<path d="M87.0185 44.6528C84.5337 45.6405 82.962 50.8096 83.996 53.8465C85.4024 57.9751 90.0152 57.107 91.2396 52.6071C92.7548 47.0403 88.8227 43.936 87.0185 44.6528Z" fill="#8A6055"/>
<path d="M70.5642 38.0001C72.8118 39.9238 72.7949 44.3611 70.5642 47.1938C67.5315 51.0455 62.9962 48.4903 63.3951 43.3128C63.889 36.9066 68.9325 36.6033 70.5642 38.0001Z" fill="#8A6055"/>
<path d="M60.4843 44.6528C62.9685 45.6405 64.5408 50.8096 63.5068 53.8465C62.1004 57.9751 57.4876 57.107 56.2626 52.6071C54.7487 47.0403 58.6814 43.936 60.4843 44.6528Z" fill="#8A6055"/>
<path d="M84.136 58.571C82.9807 57.7161 82.0747 56.565 81.7154 55.1952C81.2456 53.4037 79.9954 51.7726 78.3414 50.875C75.9485 49.5773 72.1972 49.6458 69.7659 50.875C68.2981 51.6176 67.2774 52.9904 66.7776 54.5458C66.2741 56.1132 65.2383 57.4986 63.7436 58.2568C61.433 59.4283 60.4441 62.097 61.2425 64.7026C62.4477 68.6347 67.9022 69.4121 71.4102 68.0057C73.0311 67.3557 74.8347 67.3238 76.4448 67.9991C79.576 69.3136 84.6046 68.7939 86.1492 65.039C87.2089 62.4617 85.9329 59.9018 84.136 58.571Z" fill="#8A6055"/>
<g opacity="0.502">
<path d="M70.2717 7.54822C70.9566 7.18955 71.5532 7.06519 72.3144 7.20036C73.0756 7.33614 73.7887 7.72966 74.3084 8.30221C74.5427 7.71524 75.0377 7.24904 75.6181 7.00032C76.1984 6.75099 76.8575 6.71013 77.4769 6.83089C77.0083 6.38991 76.348 6.15922 75.7064 6.21269C75.0648 6.26616 74.4519 6.6032 74.0632 7.11687C72.974 6.5299 71.9064 6.51187 71.2798 6.66447C70.6544 6.81706 70.1666 7.34396 70.2717 7.54822Z" fill="#F0DCCE"/>
<path d="M85.9155 17.3058C86.6202 16.0213 88.05 15.3106 89.4559 14.8979C93.1549 13.8129 97.1537 14.2755 100.855 15.3515C97.8674 13.3599 93.981 13.0108 90.4952 13.8735C89.4973 14.1205 88.5091 14.4665 87.6626 15.0499C86.8161 15.6326 86.1167 16.4749 85.9155 17.3058Z" fill="#F0DCCE"/>
<path d="M105.112 15.0376C106.188 13.2942 108.183 12.1569 110.232 12.1214C112.279 12.0854 114.314 13.153 115.449 14.8574C115.202 13.6168 114.373 12.5198 113.285 11.8727C112.198 11.2263 110.871 11.0196 109.623 11.2257C108.374 11.4311 107.207 12.0349 106.259 12.8736C105.827 13.2569 105.426 13.7087 105.263 14.262C105.169 14.5798 105.128 14.9631 105.112 15.0376Z" fill="#F0DCCE"/>
<path d="M58.6958 15.0959C59.8391 14.1382 61.2575 13.5531 62.7084 13.2052C64.1593 12.858 65.6535 12.736 67.1404 12.6153C66.95 12.2121 66.5336 11.9502 66.0999 11.8438C65.6661 11.7369 65.2125 11.7645 64.7673 11.8048C63.5225 11.9159 62.2621 12.1256 61.15 12.6952C60.0368 13.2647 59.0809 14.241 58.6958 15.0959Z" fill="#F0DCCE"/>
<path d="M80.345 14.115C82.4261 13.6632 84.7037 14.2292 86.3312 15.6019C86.5018 15.4127 86.6724 15.2223 86.8437 15.0324C84.9158 13.5371 82.0855 13.3178 80.345 14.115Z" fill="#F0DCCE"/>
<path d="M62.4249 1.09637C64.4435 1.36673 66.3384 2.47218 67.5676 4.09669C67.3315 2.84707 66.2687 1.88221 65.0876 1.4118C63.9064 0.941989 62.6081 0.880092 61.3381 0.824219L62.4249 1.09637Z" fill="#F0DCCE"/>
<path d="M34.6753 12.4322C38.2295 11.5707 42.1346 12.2814 45.1572 14.3391C44.8658 13.5827 44.1616 13.0691 43.4491 12.6822C40.4464 11.0516 36.6405 11.0072 34.6753 12.4322Z" fill="#F0DCCE"/>
<path d="M53.8559 11.1653C54.3161 10.7364 54.7793 10.3044 55.314 9.97396C55.8493 9.64353 56.4669 9.41763 57.0953 9.44226C57.5621 9.46029 58.0127 9.61531 58.4501 9.78112C59.8 10.2948 61.1452 10.9707 62.0542 12.0941C61.7189 11.0818 60.6976 10.4906 59.7562 9.99138C59.1121 9.64954 58.4675 9.30769 57.8228 8.96584C57.454 8.76999 57.0605 8.56873 56.6441 8.59336C56.2446 8.61619 55.8883 8.84389 55.5681 9.08361C54.7396 9.70542 54.0127 10.463 53.8559 11.1653Z" fill="#F0DCCE"/>
<path d="M84.4417 12.394C85.6361 11.4345 87.2287 10.9881 88.7475 11.1864C90.2663 11.3847 91.6908 12.2252 92.5985 13.4586C92.7704 12.7262 91.4468 11.2032 90.1167 10.8415C89.0557 10.5532 87.9365 10.3783 86.8575 10.5904C85.7797 10.8019 84.7433 11.455 84.4417 12.394Z" fill="#F0DCCE"/>
<path d="M102.314 21.2304C104.498 19.3926 107.792 19.0015 110.345 20.2758C110.028 19.5404 109.265 19.0754 108.481 18.9096C107.698 18.7438 106.886 18.8309 106.091 18.9204C105.288 19.0105 104.47 19.1066 103.739 19.4503C103.01 19.7927 102.369 20.4338 102.314 21.2304Z" fill="#F0DCCE"/>
<path d="M93.8037 23.5576C94.2393 22.6637 95.132 22.0509 96.0885 21.7787C97.0449 21.5066 98.0627 21.5396 99.0479 21.6706C100.273 21.834 101.477 22.147 102.627 22.6006C102.071 21.8051 101.092 21.4363 100.161 21.1623C99.2936 20.9064 98.4027 20.6925 97.4979 20.6919C96.5931 20.6913 95.6655 20.9202 94.9512 21.4747C94.3029 21.9782 93.8608 22.7406 93.8037 23.5576Z" fill="#F0DCCE"/>
<path d="M72.1672 20.3719C73.9893 19.8149 75.9491 20.2619 77.8007 20.7113C77.0137 20.012 75.9797 19.5969 74.9272 19.5596C73.8752 19.5212 72.8136 19.8606 72.1672 20.3719Z" fill="#F0DCCE"/>
<path d="M74.4633 24.1698C75.3056 23.6495 76.1617 23.1515 77.0305 22.6756C77.6024 22.3626 78.1972 22.0538 78.8448 21.9757C79.6433 21.8796 80.4519 22.1494 81.1344 22.5753C81.8169 23.0007 82.3919 23.5756 82.9548 24.1494C82.5751 23.414 82.0686 22.7453 81.4655 22.1806C80.8172 21.5732 79.9905 21.0685 79.1038 21.1142C78.524 21.1436 77.9845 21.4038 77.4642 21.6615C76.2422 22.2659 74.9379 22.9682 74.4633 24.1698Z" fill="#F0DCCE"/>
<path d="M66.7325 23.2433C68.0344 22.3055 69.731 21.9354 71.3051 22.2478C69.5616 22.4377 67.8451 22.8769 66.7325 23.2433Z" fill="#F0DCCE"/>
<path d="M46.8214 20.8366C49.8006 20.7021 52.8046 22.1794 54.5168 24.6222C54.3468 22.9724 52.998 21.6189 51.448 21.0295C49.8974 20.4389 48.1785 20.49 46.8214 20.8366Z" fill="#F0DCCE"/>
<path d="M49.3752 13.0607C51.1482 12.5687 53.0298 13.2139 54.6964 13.9949C56.2422 14.7189 57.7381 15.5732 59.0478 16.6666C60.3581 17.76 61.4822 19.1034 62.1845 20.6588C62.5973 20.0196 62.4062 18.7039 62.0542 18.0298C61.0004 16.0106 55.3692 13.28 53.2491 12.8054C51.7033 12.4587 49.9856 12.5981 49.3752 13.0607Z" fill="#F0DCCE"/>
<path d="M66.6766 30.7248C71.9544 30.3727 77.2317 30.0213 82.5096 29.6698C87.5622 29.3328 92.6208 28.9957 97.6355 28.288C104.549 27.3129 111.363 25.6326 117.937 23.2829C122.025 21.8218 126.376 19.7683 128.149 15.8062C129.068 16.4664 129.399 17.7455 129.159 18.8515C128.919 19.9582 128.2 20.9068 127.369 21.6758C124.684 24.1624 120.912 25.0077 117.326 25.7389C99.8933 29.2931 82.1665 32.4022 66.6766 30.7248Z" fill="#F0DCCE"/>
<path d="M107.94 27.8015C114.561 30.4798 119.336 36.6594 122.578 43.6477C126.198 51.4531 130.466 63.5174 129.234 71.1624C135.864 69.7938 138.254 68.0816 140.73 66.9214C137.098 64.1627 134.798 60.0455 132.599 56.0485C128.689 48.9394 124.746 41.7505 122.563 33.9355C121.581 30.4233 121.441 26.0454 124.023 23.2632C119.774 25.5618 113.013 26.3975 107.94 27.8015Z" fill="#F0DCCE"/>
</g>
<g opacity="0.251">
<path d="M49.8439 12.6149C51.2599 10.6323 53.4089 9.18568 55.7784 8.61914C55.1055 9.128 54.4272 9.64226 53.8847 10.2881C53.3428 10.9333 52.9403 11.7306 52.9187 12.5741C51.8036 12.2268 50.5462 12.3674 49.8439 12.6149Z" fill="#822447"/>
<path d="M39.6985 10.2539C41.8048 10.6048 43.7442 11.8604 44.9271 13.6375C43.2882 12.2317 41.1391 11.4338 38.9799 11.4296C39.1337 10.9472 39.3879 10.4954 39.6985 10.2539Z" fill="#822447"/>
<path d="M52.6123 4.54297C52.4081 4.78328 52.241 5.05544 52.1185 5.34622C52.0956 5.39909 52.0746 5.45736 52.0908 5.51203C52.11 5.57512 52.1725 5.61357 52.229 5.64661C52.3936 5.73913 52.5582 5.83285 52.7223 5.92597C52.8352 5.98905 52.9674 6.05515 53.0875 6.00708C53.1698 5.97464 53.2245 5.89293 53.2467 5.80762C53.2684 5.72171 53.2612 5.6316 53.2497 5.54449C53.1933 5.11192 53.0034 4.66433 52.6123 4.54297Z" fill="#822447"/>
<path d="M46.6585 20.8516C46.39 21.4974 46.217 22.1841 46.1467 22.8804C46.6934 23.5737 47.457 24.0952 48.3017 24.3523C47.907 24.4599 47.4882 24.3685 47.0887 24.2778C46.42 24.1252 45.7508 23.9726 45.0821 23.82C45.001 23.802 44.9157 23.781 44.8586 23.7197C44.7619 23.6158 44.7931 23.4505 44.8358 23.3142C45.1848 22.2009 45.8877 21.2018 46.6585 20.8516Z" fill="#822447"/>
<path d="M66.2152 23.6987C66.0098 24.1301 65.9581 24.6329 66.071 25.0974C66.992 25.6284 68.0699 25.8838 69.132 25.8219C67.7364 26.0358 66.3138 25.9294 64.9055 25.8219C65.0942 24.9249 65.5526 24.0862 66.2152 23.6987Z" fill="#822447"/>
<path d="M72.7457 22.6118C73.0857 22.9483 73.4264 23.2841 73.7664 23.6205C73.3405 24.2423 73.1284 25.0089 73.1758 25.7617C72.6255 25.8392 72.0752 25.9167 71.5249 25.9942C72.4032 25.966 73.2816 25.9383 74.1599 25.9107C73.8379 25.1351 74.0644 24.1654 74.6971 23.6127C74.1335 23.1621 73.4768 22.8287 72.7457 22.6118Z" fill="#822447"/>
<path d="M71.7754 20.562C71.6018 20.7951 71.5075 21.0859 71.5105 21.3761C72.2476 21.5881 72.9842 21.7996 73.7208 22.0117C74.2464 22.1625 74.7805 22.3151 75.3272 22.3211C75.8739 22.3271 76.4453 22.1679 76.828 21.7774C76.2549 22.2226 75.6811 22.6677 75.1079 23.1141C74.9776 23.2151 74.8394 23.3202 74.676 23.3442C74.4201 23.3815 74.1858 23.2145 73.9713 23.0697C72.9451 22.3752 71.6979 22.0135 70.4591 22.0519C70.6856 21.3376 71.2293 20.7308 71.7754 20.562Z" fill="#822447"/>
<path d="M74.1816 24.9203C74.6322 25.2892 75.2636 25.3252 75.8463 25.3114C77.3207 25.2765 78.7812 25.0326 80.2489 24.8902C80.7199 24.8446 81.1945 24.8085 81.6529 24.6884C82.1107 24.5682 82.5565 24.3562 82.8773 24.0083C83.12 24.5268 83.215 25.1137 83.1471 25.6821C80.914 26.0317 78.6394 25.95 76.3798 25.8941C75.6319 25.8755 74.8839 25.8593 74.1359 25.8815C74.1185 25.5307 74.1011 25.178 74.1816 24.9203Z" fill="#822447"/>
<path d="M93.6998 23.5759C93.7791 23.7237 93.8578 23.8721 93.9365 24.0205C96.6725 23.5243 99.4379 23.1908 102.214 23.0244C102.363 22.7967 102.512 22.569 102.662 22.3413C102.745 22.7817 102.827 23.2227 102.911 23.663C99.7899 24.4843 96.5775 24.9619 93.3525 25.0833C93.3135 24.5624 93.4156 24.0307 93.6998 23.5759Z" fill="#822447"/>
<path d="M102.814 22.4397C103.213 22.6788 103.7 22.7299 104.162 22.6818C104.624 22.6344 105.072 22.4956 105.521 22.3778C106.849 22.0294 108.25 21.8497 109.44 21.1666C109.84 20.9371 110.246 20.5869 110.254 20.1255C110.511 20.5767 110.829 20.993 111.197 21.3601C108.498 22.3057 105.727 23.0477 102.916 23.5764C102.981 23.1654 102.88 22.7311 102.814 22.4397Z" fill="#822447"/>
<path d="M94.6551 6.3346C94.61 6.62178 94.5187 6.90174 94.3859 7.16007C94.3378 7.25319 94.2784 7.34932 94.1828 7.39257C94.0891 7.43523 93.9774 7.41781 93.8831 7.37515C93.6722 7.28083 93.5286 7.07296 93.4589 6.85248C93.3892 6.63259 93.3844 6.39708 93.385 6.16578C93.385 5.99275 93.3904 5.81191 93.4721 5.65991C93.5058 5.59803 93.558 5.53915 93.6271 5.52954C93.7058 5.51932 93.7761 5.57521 93.8362 5.62748C94.1468 5.90024 94.4568 6.17299 94.6551 6.3346Z" fill="#822447"/>
<path d="M77.9359 5.2075C78.4772 4.19758 79.2858 3.33304 80.2567 2.72505C80.3582 2.66077 80.4723 2.59769 80.5919 2.61391C80.9463 2.66377 80.9235 3.2916 81.2678 3.39013C79.9833 3.86115 78.7908 4.58268 77.9359 5.2075Z" fill="#822447"/>
<path d="M69.9389 7.12736C69.8824 6.72124 70.0729 6.30849 70.3642 6.02011C70.6556 5.73174 71.0377 5.55211 71.4264 5.42054C72.4994 5.05647 73.6818 5.02101 74.7746 5.3208C75.2912 5.46259 75.8446 5.73715 76.0002 6.25081C75.2654 6.15469 74.491 6.55661 74.1474 7.21326C72.962 6.42984 71.3093 6.42805 69.9389 7.12736Z" fill="#822447"/>
<path d="M80.3318 13.973C81.239 13.3927 82.4285 13.2803 83.4288 13.6798C83.8368 12.9799 84.2489 12.274 84.7944 11.6744C85.3393 11.0748 86.035 10.5828 86.8293 10.42C85.4595 10.2169 84.0903 10.763 82.8707 11.4197C81.7851 12.0036 80.6832 12.7672 80.3318 13.973Z" fill="#822447"/>
<path d="M91.5544 11.6555C93.2942 11.3695 95.1621 12.0544 96.3048 13.3972C95.1513 13.1647 93.9509 13.1719 92.8004 13.4176C92.437 12.7177 91.9227 12.0965 91.5544 11.6555Z" fill="#822447"/>
<path d="M53.1494 12.1077C54.7775 12.3781 56.4465 12.6629 57.8709 13.4955C59.2131 12.6887 60.7126 12.1456 62.2609 11.9053C60.7367 12.3805 59.4168 13.4763 58.6688 14.887C56.7919 13.9906 54.849 13.2318 52.861 12.619C52.9457 12.4562 53.0304 12.2946 53.1494 12.1077Z" fill="#822447"/>
<path d="M84.023 13.0015C84.8833 13.1937 85.743 13.3866 86.6033 13.5788C86.8725 13.6395 87.1441 13.6996 87.4198 13.6996C87.7593 13.699 88.0909 13.6077 88.4225 13.535C89.7514 13.2424 91.1278 13.2442 92.4862 13.3283C90.494 13.1961 88.5276 14.0288 86.9608 15.2664C86.7673 15.0898 86.5733 14.9132 86.3804 14.7365C86.1113 14.4908 85.8397 14.2433 85.5279 14.054C84.9115 13.6804 84.1756 13.5578 83.4564 13.5109C83.6655 13.3277 83.874 13.1439 84.023 13.0015Z" fill="#822447"/>
<path d="M16.0979 70.6415C11.8972 69.5583 7.97714 67.4027 4.81282 64.436C4.08467 63.7529 3.36914 62.9803 3.12763 62.0125C2.85728 60.9251 3.22975 59.7932 3.59743 58.7352C8.04382 45.9626 12.4902 33.1894 16.936 20.4173C18.8946 22.2359 21.3247 23.5432 23.9219 24.1752C20.6621 22.4011 17.3133 19.3269 16.5041 17.0127C11.4665 31.807 6.19283 45.351 1.09819 60.3141C0.851271 61.038 0.602533 61.786 0.656003 62.549C0.76895 64.1453 2.13934 65.3366 3.47367 66.2192C7.63169 68.9714 12.5215 70.6049 16.0979 70.6415Z" fill="#822447"/>
<path d="M21.5735 13.6378C25.5188 12.5186 31.7717 11.9112 30.7066 12.6147C29.4918 13.4168 28.7733 14.4249 28.7126 15.7003C28.6513 16.9752 29.7423 19.0893 30.9529 19.4961C29.94 18.5288 29.6071 16.816 30.2464 15.57C30.885 14.3239 32.5654 13.2545 33.8114 12.6147C35.1241 11.9412 36.9235 11.5129 38.8592 11.5129C39.6696 10.3654 40.208 8.837 40.9565 8.75049C35.481 9.39032 31.5321 10.1653 27.1043 11.4222C25.4593 11.8896 22.6717 13.177 21.5735 13.6378Z" fill="#822447"/>
</g>
<path d="M73.7075 30.8548C44.9673 30.8548 21.9934 26.4612 19.0802 20.406C19.0141 20.2678 19.0718 20.1013 19.2106 20.0347C19.3493 19.9686 19.5152 20.0263 19.5819 20.165C22.0042 25.2008 41.374 30.2984 73.7075 30.2984C103.971 30.2984 127.032 24.2864 127.811 20.2329C127.84 20.0821 127.987 19.9848 128.137 20.0124C128.287 20.0413 128.386 20.1873 128.357 20.3381C127.443 25.1017 102.862 30.8548 73.7075 30.8548Z" fill="#66373F"/>
<path d="M73.1512 26.27C48.7727 26.27 29.6756 22.3902 29.6756 17.4373C29.6756 17.2835 29.8006 17.1592 29.9544 17.1592C30.1082 17.1592 30.2325 17.2835 30.2325 17.4373C30.2325 21.924 49.8872 25.7137 73.1512 25.7137C96.4159 25.7137 116.071 21.9234 116.071 17.4373C116.071 17.2835 116.195 17.1592 116.349 17.1592C116.503 17.1592 116.627 17.2835 116.627 17.4373C116.627 22.3902 97.5304 26.27 73.1512 26.27Z" fill="#66373F"/>
<path d="M29.976 17.9779C29.8522 17.9779 29.7387 17.8938 29.7068 17.7682C29.4695 16.8412 29.7159 15.8463 30.4176 14.8929C31.8601 12.9313 35.049 11.3969 37.9995 11.2431C40.5468 11.1128 43.1548 11.9557 45.1421 13.561C45.2617 13.6571 45.2803 13.8325 45.1836 13.9515C45.0869 14.0716 44.912 14.0897 44.7931 13.9935C42.9108 12.4729 40.4458 11.6709 38.0283 11.7983C35.2304 11.9437 32.2175 13.3837 30.8652 15.2221C30.2656 16.0374 30.0517 16.8695 30.2458 17.6301C30.2842 17.7791 30.1941 17.9305 30.0457 17.9689C30.0217 17.9749 29.9982 17.9779 29.976 17.9779Z" fill="#66373F"/>
<path d="M39.0478 11.66C39.0052 11.66 38.9613 11.6498 38.9211 11.6288C38.7841 11.5585 38.7306 11.3909 38.8009 11.2545C39.3068 10.2734 39.9652 9.36566 40.7577 8.55641C40.8658 8.44646 41.0418 8.44466 41.1506 8.5516C41.2611 8.65914 41.2623 8.83517 41.1554 8.94512C40.4014 9.71472 39.7754 10.578 39.2953 11.5092C39.2461 11.6048 39.1488 11.66 39.0478 11.66Z" fill="#66373F"/>
<path d="M73.1506 76.6837C53.7315 76.6837 35.472 75.1854 21.7351 72.4644C7.87141 69.7189 0.236084 66.009 0.236084 62.0198C0.236084 61.9874 0.242078 61.9555 0.252292 61.9261L15.9934 17.9849C16.0691 14.0924 25.1091 10.6343 40.8237 8.48711C43.7351 5.54568 48.0716 4.19092 51.9616 4.99417C52.3858 4.13745 53.338 3.56251 54.2879 3.59135C57.3579 0.288245 62.8526 -0.456127 66.691 1.90254C70.7817 -0.744503 77.9683 -0.843031 81.4276 2.96953C83.0113 2.37897 84.7133 2.11041 86.3594 2.19452C89.5159 2.35673 92.5469 3.76437 94.7085 6.06657C97.0317 4.96293 99.8854 4.95692 102.21 6.06176C103.357 6.60848 104.397 7.43275 105.222 8.44988C121.098 10.5977 130.23 14.069 130.307 17.9843L146.051 61.9255C146.062 61.9556 146.067 61.9874 146.067 62.0192C146.067 66.0084 138.432 69.7176 124.567 72.4638C110.83 75.1854 92.5703 76.6837 73.1506 76.6837ZM0.79301 62.0667C0.859097 65.6918 8.52326 69.2803 21.8432 71.9183C35.5458 74.6321 53.7676 76.1268 73.1506 76.1268C92.5343 76.1268 110.757 74.6321 124.459 71.9183C137.78 69.2797 145.445 65.6918 145.511 62.0667L129.768 18.1279C129.757 18.0978 129.752 18.066 129.752 18.0347C129.752 14.5064 120.282 11.0386 105.038 8.98697C104.967 8.97675 104.901 8.94011 104.857 8.88363C104.074 7.89234 103.076 7.09089 101.971 6.56521C99.7358 5.50182 96.9771 5.53727 94.7704 6.65593C94.6586 6.713 94.5235 6.68717 94.4388 6.59465C92.3667 4.30928 89.4114 2.90826 86.3312 2.74965C84.6971 2.66434 83.0101 2.9455 81.448 3.5571C81.3381 3.59915 81.2125 3.56911 81.1362 3.4796C78.2074 0.0737628 71.132 -0.429698 66.8502 2.46367C66.7583 2.52495 66.6381 2.52675 66.5438 2.46668C62.8802 0.108606 57.5273 0.825347 54.6099 4.06296C54.5516 4.12785 54.4663 4.16269 54.378 4.15368C53.5321 4.07378 52.679 4.61627 52.387 5.41051C52.3383 5.54148 52.2019 5.61779 52.0638 5.58534C48.2734 4.71601 43.9899 6.03292 41.1554 8.94371C41.1121 8.98817 41.055 9.017 40.9931 9.02541C25.9153 11.0759 16.5485 14.528 16.5485 18.0342C16.5485 18.066 16.5431 18.0972 16.5323 18.1273L0.79301 62.0667Z" fill="#66373F"/>
<path d="M116.349 17.7152C116.204 17.7152 116.081 17.6023 116.071 17.4557C115.894 14.823 114.737 12.9804 112.633 11.9777C110.813 11.1144 108.551 11.2724 106.87 12.3815C106.793 12.4319 106.696 12.4415 106.611 12.4067C106.526 12.3719 106.464 12.298 106.445 12.2084C106.185 11.0171 105.636 9.86719 104.857 8.88431C104.762 8.76415 104.782 8.58933 104.902 8.49381C105.023 8.39828 105.198 8.4187 105.293 8.53885C106.042 9.48388 106.591 10.5743 106.896 11.7128C108.694 10.6867 110.996 10.5863 112.871 11.4749C115.17 12.5707 116.433 14.5701 116.625 17.4184C116.636 17.5716 116.519 17.7044 116.366 17.7146C116.361 17.7146 116.355 17.7152 116.349 17.7152Z" fill="#66373F"/>
<path d="M77.6901 5.81843C77.6138 5.81843 77.5381 5.78718 77.4828 5.7265C77.3801 5.61235 77.3897 5.43633 77.5039 5.3336C78.5901 4.35793 79.8487 3.58593 81.2462 3.04042C81.3897 2.98395 81.5507 3.05484 81.6072 3.19843C81.6631 3.34141 81.5928 3.50301 81.4486 3.55888C80.1143 4.08036 78.9121 4.81693 77.8757 5.74874C77.8229 5.795 77.7562 5.81843 77.6901 5.81843Z" fill="#66373F"/>
<path d="M63.5002 12.2199C63.3789 12.2199 63.2671 12.1394 63.2329 12.0168C63.1914 11.869 63.2773 11.7158 63.4257 11.6744C64.3828 11.4064 65.4035 11.3668 66.3786 11.5626C66.5288 11.5927 66.6267 11.7392 66.5967 11.89C66.566 12.0402 66.4213 12.1394 66.2693 12.1075C65.3807 11.9297 64.4489 11.9658 63.5753 12.2103C63.5507 12.2169 63.5249 12.2199 63.5002 12.2199Z" fill="#66373F"/>
<path d="M47.5873 14.0151C47.4918 14.0151 47.3987 13.9652 47.347 13.8775C47.2695 13.7447 47.314 13.5741 47.4467 13.4966C49.1361 12.5101 51.21 12.1382 53.1362 12.4747C53.2876 12.5017 53.3891 12.6453 53.3626 12.7967C53.3356 12.9481 53.1914 13.0478 53.0406 13.0226C51.2401 12.7084 49.3044 13.0562 47.7279 13.9772C47.6828 14.003 47.6348 14.0151 47.5873 14.0151Z" fill="#66373F"/>
<path d="M62.6628 19.2832C62.5636 19.2832 62.4675 19.2297 62.417 19.136C61.7219 17.8311 60.6868 16.7347 59.4251 15.9645C59.2942 15.884 59.2527 15.7133 59.3332 15.5818C59.4131 15.4508 59.5843 15.4093 59.7153 15.4898C61.0623 16.3117 62.1665 17.482 62.9085 18.8746C62.9806 19.0098 62.9295 19.1786 62.7943 19.2507C62.7517 19.2724 62.7072 19.2832 62.6628 19.2832Z" fill="#66373F"/>
<path d="M70.0686 7.56262C69.9911 7.56262 69.9136 7.52958 69.8583 7.4671C69.7574 7.35115 69.7694 7.17573 69.886 7.0748C70.998 6.10634 72.7679 6.02762 73.9833 6.84529C74.2194 6.50164 74.5721 6.22589 74.9896 6.06668C75.5231 5.86301 76.104 5.87082 76.5853 6.0889C76.7252 6.15198 76.7878 6.3166 76.7247 6.45658C76.661 6.59656 76.4964 6.65905 76.3564 6.59537C76.0091 6.43857 75.5844 6.43557 75.1885 6.58576C74.7932 6.73716 74.4784 7.02312 74.3246 7.37097C74.2891 7.45148 74.2182 7.50976 74.1329 7.52958C74.0464 7.54941 73.9575 7.52718 73.8908 7.47071C72.8814 6.6146 71.2497 6.62601 70.2518 7.49414C70.1984 7.5398 70.1335 7.56262 70.0686 7.56262Z" fill="#66373F"/>
<path d="M85.3105 18.3284C85.2991 18.3284 85.2883 18.3278 85.2768 18.3266C85.1242 18.3085 85.0155 18.1698 85.0335 18.0172C85.1465 17.0715 85.8999 15.2992 87.4439 14.5663C87.5826 14.5008 87.7484 14.5597 87.8139 14.6991C87.88 14.8372 87.8212 15.0036 87.6818 15.0691C86.4117 15.6717 85.6914 17.1941 85.5863 18.0833C85.5694 18.2244 85.4486 18.3284 85.3105 18.3284Z" fill="#66373F"/>
<path d="M100.355 14.9813C100.313 14.9813 100.271 14.9711 100.23 14.9512C98.2015 13.9335 95.9353 13.4901 93.6704 13.671C93.5202 13.6818 93.3838 13.5682 93.3706 13.415C93.3585 13.2624 93.4727 13.1285 93.6265 13.1158C95.9888 12.9272 98.36 13.3898 100.48 14.4538C100.618 14.5223 100.672 14.6899 100.604 14.8269C100.555 14.9254 100.457 14.9813 100.355 14.9813Z" fill="#66373F"/>
<path d="M80.2813 14.342C80.1702 14.342 80.0638 14.2741 80.0212 14.1636C79.9659 14.02 80.0374 13.859 80.1816 13.8037C81.5033 13.2961 82.9944 13.1831 84.3774 13.4853C84.5276 13.5178 84.6226 13.6661 84.5895 13.8163C84.5565 13.9659 84.4075 14.0615 84.2585 14.029C82.9788 13.7497 81.6018 13.8542 80.3804 14.3234C80.348 14.3354 80.3138 14.342 80.2813 14.342Z" fill="#66373F"/>
<path d="M55.1139 7.14847C55.0436 7.14847 54.9739 7.12204 54.9193 7.06917C54.3762 6.53808 53.6642 6.1764 52.9145 6.05024C52.7631 6.02501 52.6603 5.88143 52.6862 5.73003C52.712 5.57863 52.8526 5.4771 53.0064 5.50173C53.8667 5.64652 54.6844 6.06225 55.308 6.67145C55.4179 6.77899 55.4203 6.95503 55.3128 7.06437C55.2581 7.12084 55.186 7.14847 55.1139 7.14847Z" fill="#66373F"/>
<path d="M104.955 15.2091C104.93 15.2091 104.904 15.2061 104.878 15.1983C104.73 15.1562 104.645 15.0024 104.687 14.8546C104.916 14.0532 105.332 13.3034 105.89 12.6858C105.992 12.5717 106.169 12.5633 106.282 12.666C106.396 12.7693 106.405 12.9454 106.302 13.0589C105.801 13.6134 105.427 14.2875 105.222 15.0072C105.187 15.1298 105.076 15.2091 104.955 15.2091Z" fill="#66373F"/>
<path d="M93.334 25.2807C93.1802 25.2807 93.0558 25.1558 93.0558 25.002C93.0558 23.2465 93.9245 21.7175 95.4397 20.8067C96.2171 20.3405 100.009 20.6992 101.139 21.1389C102.017 21.4802 103.181 22.1122 103.157 23.6484C103.154 23.8004 103.031 23.9223 102.879 23.9223C102.877 23.9223 102.876 23.9223 102.874 23.9223C102.721 23.9199 102.598 23.7932 102.6 23.6394C102.615 22.722 102.102 22.1104 100.937 21.6574C99.7785 21.2074 96.2724 20.9557 95.7251 21.2837C94.3823 22.0912 93.6115 23.4471 93.6115 25.002C93.6121 25.1558 93.4878 25.2807 93.334 25.2807Z" fill="#66373F"/>
<path d="M54.6628 25.2811C54.6615 25.2811 54.6598 25.2811 54.6586 25.2811C54.5048 25.2781 54.3822 25.152 54.3846 24.9982C54.4014 23.9264 53.0965 21.9882 52.0956 21.5989C50.9025 21.1357 47.9971 20.7068 47.3825 20.9044C46.083 21.3232 45.323 22.3145 45.0593 23.9342C45.034 24.0856 44.8904 24.1871 44.7396 24.1637C44.5883 24.1391 44.4849 23.9961 44.5096 23.8447C44.8111 21.9997 45.6949 20.8642 47.2119 20.3752C48.0518 20.1048 51.1506 20.6359 52.2975 21.0817C53.5039 21.5503 54.962 23.7161 54.9415 25.0078C54.9385 25.1592 54.8147 25.2811 54.6628 25.2811Z" fill="#66373F"/>
<path d="M101.86 22.0717C101.813 22.0717 101.765 22.0591 101.722 22.0351C101.588 21.9588 101.542 21.7887 101.619 21.6554C102 20.9903 102.432 20.2363 103.097 19.707C104.671 18.4538 107.953 18.4334 108.709 18.6562C109.97 19.0287 110.758 20.1312 111.52 21.3249C111.603 21.4547 111.565 21.6265 111.435 21.7094C111.305 21.7917 111.134 21.7539 111.051 21.6241C110.348 20.5229 109.628 19.5076 108.551 19.1892C107.839 18.9783 104.787 19.072 103.444 20.1414C102.862 20.6046 102.475 21.2799 102.101 21.9311C102.049 22.0212 101.956 22.0717 101.86 22.0717Z" fill="#66373F"/>
<path d="M64.7667 26.1406C64.7252 26.1406 64.682 26.131 64.6423 26.1106C64.5048 26.0421 64.4495 25.8745 64.5186 25.7375C64.8965 24.9859 65.3242 24.1334 66.0007 23.4996C66.4375 23.0904 66.9956 22.751 67.7568 22.4326C67.8992 22.3725 68.062 22.4404 68.1209 22.5816C68.1803 22.7234 68.1131 22.8868 67.9719 22.945C67.2738 23.2376 66.7679 23.5428 66.381 23.9063C65.7766 24.4716 65.3903 25.2424 65.0154 25.9868C64.9668 26.0841 64.8688 26.1406 64.7667 26.1406Z" fill="#66373F"/>
<path d="M74.1443 26.1436C74.0109 26.1436 73.8932 26.0481 73.8704 25.9117C73.7442 25.1613 73.8001 24.0823 74.372 23.511C74.5312 23.3518 77.424 21.1139 78.3973 20.8772C79.8956 20.5143 81.6253 21.7098 82.3252 22.6314C83.3062 23.9225 83.6066 25.0177 83.2167 25.8841C83.1542 26.024 82.9896 26.0871 82.8496 26.024C82.7097 25.961 82.6466 25.7964 82.7103 25.6564C83.0094 24.9895 82.7307 24.0853 81.8824 22.9673C81.2462 22.131 79.7286 21.1271 78.5282 21.4179C77.7376 21.6095 75.004 23.6714 74.7649 23.9045C74.372 24.2968 74.3095 25.1721 74.4189 25.8198C74.4447 25.9712 74.3426 26.1142 74.1906 26.14C74.175 26.1424 74.1593 26.1436 74.1443 26.1436Z" fill="#66373F"/>
<path d="M58.5613 15.1564C58.5126 15.1564 58.4627 15.1437 58.4183 15.1167C56.6772 14.0707 54.6826 13.2957 52.8009 12.9347C52.7216 12.9196 52.6532 12.8704 52.6129 12.8001C52.5727 12.7304 52.5648 12.6463 52.5913 12.57C53.4534 10.0785 55.469 8.51711 56.5324 8.39034C57.4462 8.2822 61.3044 9.62495 62.679 12.007C62.7223 12.0815 62.7283 12.1717 62.6959 12.251C62.6628 12.3309 62.5955 12.3903 62.5126 12.4138C61.0107 12.8331 59.6883 13.7655 58.7883 15.0386C58.7349 15.1155 58.649 15.1564 58.5613 15.1564ZM53.2275 12.4534C54.9962 12.8331 56.8436 13.5547 58.4862 14.5105C59.3777 13.3384 60.6105 12.4552 62.0067 11.9878C60.6171 10.0124 57.2846 8.86375 56.5979 8.94305C55.8457 9.03317 54.0836 10.3092 53.2275 12.4534Z" fill="#66373F"/>
<path d="M86.8869 15.4811C86.8082 15.4811 86.7307 15.4475 86.6766 15.385C85.9539 14.5505 84.9157 14.0711 83.4114 13.8764C83.3183 13.8638 83.2365 13.8056 83.1963 13.7197C83.156 13.6343 83.1608 13.5346 83.2107 13.4547C84.0884 12.0326 85.1771 10.5481 86.5949 10.3198L86.64 10.312C90.36 9.70703 92.2405 11.5797 93.1621 13.2576C93.2089 13.3442 93.2071 13.4469 93.1579 13.5322C93.1086 13.6163 93.0191 13.6686 92.9217 13.6698C90.7727 13.6968 89.1206 14.1937 87.0299 15.4409C86.9848 15.4679 86.9356 15.4811 86.8869 15.4811ZM83.9088 13.3892C85.2197 13.6199 86.2164 14.0999 86.9398 14.8485C88.8773 13.7209 90.473 13.218 92.4357 13.1279C91.5298 11.7274 89.8331 10.3553 86.7289 10.8611L86.6832 10.8689C85.5952 11.0444 84.6766 12.1937 83.9088 13.3892Z" fill="#66373F"/>
<path d="M74.634 23.8653C74.5054 23.8653 74.3895 23.7752 74.2206 23.6442C73.7154 23.2525 72.5324 22.3345 70.2981 22.3345C70.199 22.3345 70.1071 22.2817 70.0578 22.197C70.0079 22.111 70.0074 22.0059 70.056 21.9194C70.8875 20.4547 72.4441 19.4292 74.1179 19.2429C75.7917 19.0591 77.5358 19.7151 78.6688 20.9606C78.7349 21.0339 78.7578 21.1372 78.7277 21.2321C78.6977 21.3264 78.6196 21.3979 78.5223 21.419C78.0272 21.5283 76.2922 22.7653 75.4577 23.3601C74.8833 23.7698 74.8094 23.8197 74.7391 23.8449C74.7025 23.8587 74.6682 23.8653 74.634 23.8653ZM70.7962 21.7932C72.9091 21.9212 74.0945 22.8416 74.5625 23.2045C74.5871 23.2237 74.6129 23.2435 74.637 23.2622C74.7475 23.1847 74.944 23.0447 75.1356 22.9077C76.2086 22.1423 77.2919 21.3847 77.9701 21.0459C76.9608 20.1183 75.5442 19.643 74.1798 19.7956C72.837 19.9446 71.579 20.6962 70.7962 21.7932Z" fill="#66373F"/>
<defs>
<linearGradient id="paint0_linear_55_978" x1="129.773" y1="21.9776" x2="1.03986" y2="70.6661" gradientUnits="userSpaceOnUse">
<stop stop-color="#FAC67D"/>
<stop offset="0.3759" stop-color="#FBBC7C"/>
<stop offset="1" stop-color="#FFA27A"/>
</linearGradient>
<linearGradient id="paint1_linear_55_978" x1="72.6951" y1="26.014" x2="73.803" y2="2.80259" gradientUnits="userSpaceOnUse">
<stop stop-color="#9C5848"/>
<stop offset="1" stop-color="#AB6C5B"/>
</linearGradient>
</defs>
</svg>
